<svg id="kity_svg_6" xmlns="http://www.w3.org/2000/svg" xmlns:xlink="http://www.w3.org/1999/xlink" version="1.1" width="532" height="585" style="background: rgb(251, 251, 251); visibility: visible;" viewBox="0 0 532 585"><defs id="kity_defs_7"><linearGradient id="kity_linearGradient_17" x1="0" y1="0" x2="0" y2="1"><stop id="kity_stop_18" offset="0" stop-color="rgb(255, 255, 255)"></stop><stop id="kity_stop_19" offset="1" stop-color="rgb(204, 204, 204)"></stop></linearGradient><marker id="kity_marker_2" orient="auto" refX="6" refY="0" viewBox="-7 -7 14 14" markerWidth="7" markerHeight="7" markerUnits="userSpaceOnUse"><path id="kity_path_3" fill="rgb(123, 115, 191)" stroke="none" d="M6,0A6,6,0,1,1,-6,0A6,6,0,1,1,6,0"></path></marker></defs><g id="kity_g_8"><g id="minder1" text-rendering="optimize-speed"><g id="minder_connect_group1"><path id="kity_path_611" fill="none" stroke="rgb(123, 115, 191)" stroke-width="1" d="M72.50000733882189,300.50000531226397A68,251,0,0,1,140.5000073388219,49.500005312263966"></path><path id="kity_path_615" fill="none" stroke="rgb(123, 115, 191)" stroke-width="1" d="M72.50000733882189,300.50000531226397A68,126,0,0,1,140.5000073388219,174.50000531226397"></path><path id="kity_path_623" fill="none" stroke="rgb(123, 115, 191)" stroke-width="1" d="M72.50000733882189,300.50000531226397A68,59,0,0,0,140.5000073388219,359.50000531226397"></path><path id="kity_path_627" fill="none" stroke="rgb(123, 115, 191)" stroke-width="1" d="M72.50000733882189,300.50000531226397A68,251,0,0,0,140.5000073388219,551.500005312264"></path><path id="kity_path_714" fill="none" stroke="rgb(123, 115, 191)" stroke-width="1" d="M224.5000073388219,49.500005312263966C232.5000073388219,49.500005312263966,232.5000073388219,34.500005312263966,240.5000073388219,34.500005312263966"></path><path id="kity_path_715" fill="none" stroke="rgb(123, 115, 191)" stroke-width="1" d="M266.5000073388219,174.50000531226397C274.5000073388219,174.50000531226397,274.5000073388219,114.50000531226397,282.5000073388219,114.50000531226397"></path><path id="kity_path_716" fill="none" stroke="rgb(123, 115, 191)" stroke-width="1" d="M266.5000073388219,174.50000531226397C274.5000073388219,174.50000531226397,274.5000073388219,150.50000531226397,282.5000073388219,150.50000531226397"></path><path id="kity_path_717" fill="none" stroke="rgb(123, 115, 191)" stroke-width="1" d="M266.5000073388219,174.50000531226397C274.5000073388219,174.50000531226397,274.5000073388219,186.50000531226397,282.5000073388219,186.50000531226397"></path><path id="kity_path_718" fill="none" stroke="rgb(123, 115, 191)" stroke-width="1" d="M238.5000073388219,359.50000531226397C246.5000073388219,359.50000531226397,246.5000073388219,301.50000531226397,254.5000073388219,301.50000531226397"></path><path id="kity_path_719" fill="none" stroke="rgb(123, 115, 191)" stroke-width="1" d="M240.5000073388219,551.500005312264C248.5000073388219,551.500005312264,248.5000073388219,551.500005312264,256.5000073388219,551.500005312264"></path><path id="kity_path_721" fill="none" stroke="rgb(123, 115, 191)" stroke-width="1" d="M224.5000073388219,49.500005312263966C232.5000073388219,49.500005312263966,232.5000073388219,70.50000531226397,240.5000073388219,70.50000531226397"></path><path id="kity_path_729" fill="none" stroke="rgb(123, 115, 191)" stroke-width="1" d="M287.5000073388219,70.50000531226397C295.5000073388219,70.50000531226397,295.5000073388219,70.50000531226397,303.5000073388219,70.50000531226397"></path><path id="kity_path_737" fill="none" stroke="rgb(123, 115, 191)" stroke-width="1" d="M266.5000073388219,174.50000531226397C274.5000073388219,174.50000531226397,274.5000073388219,240.50000531226397,282.5000073388219,240.50000531226397"></path><path id="kity_path_748" fill="none" stroke="rgb(123, 115, 191)" stroke-width="1" d="M329.5000073388219,240.50000531226397C337.5000073388219,240.50000531226397,337.5000073388219,222.50000531226397,345.5000073388219,222.50000531226397"></path><path id="kity_path_752" fill="none" stroke="rgb(123, 115, 191)" stroke-width="1" d="M329.5000073388219,240.50000531226397C337.5000073388219,240.50000531226397,337.5000073388219,258.50000531226397,345.5000073388219,258.50000531226397"></path><path id="kity_path_786" fill="none" stroke="rgb(123, 115, 191)" stroke-width="1" d="M238.5000073388219,359.50000531226397C246.5000073388219,359.50000531226397,246.5000073388219,422.50000531226397,254.5000073388219,422.50000531226397"></path><path id="kity_path_794" fill="none" stroke="rgb(123, 115, 191)" stroke-width="1" d="M312.5000073388219,422.50000531226397C320.5000073388219,422.50000531226397,320.5000073388219,445.50000531226397,328.5000073388219,445.50000531226397"></path><path id="kity_path_796" fill="none" stroke="rgb(123, 115, 191)" stroke-width="1" d="M312.5000073388219,422.50000531226397C320.5000073388219,422.50000531226397,320.5000073388219,481.50000531226397,328.5000073388219,481.50000531226397"></path><path id="kity_path_798" fill="none" stroke="rgb(123, 115, 191)" stroke-width="1" d="M312.5000073388219,422.50000531226397C320.5000073388219,422.50000531226397,320.5000073388219,337.50000531226397,328.5000073388219,337.50000531226397"></path><path id="kity_path_802" fill="none" stroke="rgb(123, 115, 191)" stroke-width="1" d="M312.5000073388219,422.50000531226397C320.5000073388219,422.50000531226397,320.5000073388219,373.50000531226397,328.5000073388219,373.50000531226397"></path><path id="kity_path_808" fill="none" stroke="rgb(123, 115, 191)" stroke-width="1" d="M312.5000073388219,422.50000531226397C320.5000073388219,422.50000531226397,320.5000073388219,409.50000531226397,328.5000073388219,409.50000531226397"></path><path id="kity_path_889" fill="none" stroke="rgb(123, 115, 191)" stroke-width="1" d="M312.5000073388219,422.50000531226397C320.5000073388219,422.50000531226397,320.5000073388219,512.500005312264,328.5000073388219,512.500005312264"></path><path id="kity_path_897" fill="none" stroke="rgb(123, 115, 191)" stroke-width="1" d="M315.5000073388219,34.500005312263966C323.5000073388219,34.500005312263966,323.5000073388219,34.500005312263966,331.5000073388219,34.500005312263966"></path><path id="kity_path_905" fill="none" stroke="rgb(123, 115, 191)" stroke-width="1" d="M324.5000073388219,301.50000531226397C332.5000073388219,301.50000531226397,332.5000073388219,301.50000531226397,340.5000073388219,301.50000531226397"></path><path id="kity_path_913" fill="none" stroke="rgb(123, 115, 191)" stroke-width="1" d="M345.5000073388219,114.50000531226397C353.5000073388219,114.50000531226397,353.5000073388219,114.50000531226397,361.5000073388219,114.50000531226397"></path><path id="kity_path_921" fill="none" stroke="rgb(123, 115, 191)" stroke-width="1" d="M374.5000073388219,150.50000531226397C382.5000073388219,150.50000531226397,382.5000073388219,150.50000531226397,390.5000073388219,150.50000531226397"></path><path id="kity_path_929" fill="none" stroke="rgb(123, 115, 191)" stroke-width="1" d="M401.5000073388219,186.50000531226397C409.5000073388219,186.50000531226397,409.5000073388219,186.50000531226397,417.5000073388219,186.50000531226397"></path></g><g id="minder_node1"><path id="node_outline1" fill="rgb(123, 115, 191)" stroke="rgb(123, 115, 191)" d="M25.500007338821888,286.50000531226397h94a5,5,0,0,1,5,5v18a5,5,0,0,1,-5,5h-94a5,5,0,0,1,-5,-5v-18a5,5,0,0,1,5,-5z" stroke-width="3"></path><g id="node_text1" fill="white"><text id="kity_text_22" text-rendering="inherit" font-size="16" dy=".8em" y="290.1000052765012" x="32.50000733882189">点线面模型</text></g><a id="kity_a_178" xlink:href="http://www.yanhuangxueyuan.com/threejs/docs/index.html#api/zh/core/Geometry" target="_blank" xlink:title="http://www.yanhuangxueyuan.com/threejs/docs/index.html#api/zh/core/Geometry" style="cursor: pointer;" display="none"><path id="kity_path_180" fill="rgba(255, 255, 255, 0)" stroke="none" d="M34.50000733882189,294.50000531226397h16a4,4,0,0,1,4,4v14a4,4,0,0,1,-4,4h-16a4,4,0,0,1,-4,-4v-14a4,4,0,0,1,4,-4z"></path><path id="kity_path_179" fill="#666" stroke="none" d="M49.11400733882189,310.72400531226396h-1.278c-1.668,0,-3.07,-1.07,-3.599,-2.556h4.877c0.707,0,1.278,-0.571,1.278,-1.278V304.33400531226397c0,-0.707,-0.571,-1.278,-1.278,-1.278h-4.877C44.766007338821886,301.571005312264,46.16800733882189,300.50000531226397,47.83600733882189,300.50000531226397h1.278c2.116,0,3.834,1.716,3.834,3.834V306.89000531226395C52.94800733882189,309.00800531226395,51.23000733882189,310.72400531226396,49.11400733882189,310.72400531226396zM37.61200733882189,305.612005312264c0,-0.707,0.573,-1.278,1.278,-1.278h7.668c0.707,0,1.278,0.571,1.278,1.278S47.26500733882189,306.89000531226395,46.55800733882189,306.89000531226395H38.89000733882189C38.18500733882189,306.89000531226395,37.61200733882189,306.319005312264,37.61200733882189,305.612005312264zM35.056007338821885,304.33400531226397V306.89000531226395c0,0.707,0.573,1.278,1.278,1.278h4.877c-0.528,1.486,-1.932,2.556,-3.599,2.556H36.33400733882189C34.21600733882189,310.72400531226396,32.50000733882189,309.00800531226395,32.50000733882189,306.89000531226395V304.33400531226397C32.50000733882189,302.216005312264,34.21600733882189,300.50000531226397,36.33400733882189,300.50000531226397h1.278c1.667,0,3.071,1.071,3.599,2.556H36.33400733882189C35.629007338821886,303.05600531226395,35.056007338821885,303.627005312264,35.056007338821885,304.33400531226397z"></path></a></g><g id="kity_g_14" display="none"><path id="kity_path_15" fill="rgba(15, 0, 153, 0.5)" stroke="none" d="M328.5000073388219,400.50000531226397h147v4h-147z"></path><path id="kity_path_16" fill="none" stroke="rgb(13, 0, 128)" d="M328.5000073388219,404.50000531226397L475.5000073388219,404.50000531226397" stroke-width="1"></path></g><g id="minder_node67" opacity="1"><g id="node_expander67" style="cursor: pointer;"><path id="kity_path_688" fill="white" stroke="gray" d="M141.5000088736415,49.500001572072506A6,6,0,1,1,129.5000088736415,49.500001572072506A6,6,0,1,1,141.5000088736415,49.500001572072506"></path><path id="kity_path_689" fill="none" stroke="gray" d="M131.0000088736415,49.500001572072506L140.0000088736415,49.500001572072506"></path></g><path id="node_outline68" fill="rgb(239, 238, 246)" stroke="rgb(123, 115, 191)" d="M145.50000927597284,36.500001572072506h76a3,3,0,0,1,3,3v20a3,3,0,0,1,-3,3h-76a3,3,0,0,1,-3,-3v-20a3,3,0,0,1,3,-3z" stroke-width="1"></path><g id="node_text68" fill="black"><text id="kity_text_639" text-rendering="inherit" font-size="14" dy=".8em" y="40.40000154078007" x="162.50000927597284">点模型</text></g></g><g id="minder_node69" opacity="1"><g id="node_expander71" style="cursor: pointer;"><path id="kity_path_700" fill="white" stroke="gray" d="M141.5000088736415,174.50000343471766A6,6,0,1,1,129.5000088736415,174.50000343471766A6,6,0,1,1,141.5000088736415,174.50000343471766"></path><path id="kity_path_701" fill="none" stroke="gray" d="M131.0000088736415,174.50000343471766L140.0000088736415,174.50000343471766"></path></g><path id="node_outline72" fill="rgb(239, 238, 246)" stroke="rgb(123, 115, 191)" d="M145.50000927597284,161.50000343471766h118a3,3,0,0,1,3,3v20a3,3,0,0,1,-3,3h-118a3,3,0,0,1,-3,-3v-20a3,3,0,0,1,3,-3z" stroke-width="1"></path><g id="node_text72" fill="black"><text id="kity_text_647" text-rendering="inherit" font-size="14" dy=".8em" y="165.40000340342522" x="162.50000927597284">线条类型模型</text></g></g><g id="minder_node73" opacity="1"><g id="node_expander73" style="cursor: pointer;"><path id="kity_path_706" fill="white" stroke="gray" d="M141.5000088736415,359.5000061914325A6,6,0,1,1,129.5000088736415,359.5000061914325A6,6,0,1,1,141.5000088736415,359.5000061914325"></path><path id="kity_path_707" fill="none" stroke="gray" d="M131.0000088736415,359.5000061914325L140.0000088736415,359.5000061914325"></path></g><path id="node_outline74" fill="rgb(239, 238, 246)" stroke="rgb(123, 115, 191)" d="M145.50000927597284,346.5000061914325h90a3,3,0,0,1,3,3v20a3,3,0,0,1,-3,3h-90a3,3,0,0,1,-3,-3v-20a3,3,0,0,1,3,-3z" stroke-width="1"></path><g id="node_text74" fill="black"><text id="kity_text_651" text-rendering="inherit" font-size="14" dy=".8em" y="350.40000616014004" x="162.50000927597284">网格模型</text></g></g><g id="minder_node75" opacity="1"><g id="node_expander75" style="cursor: pointer;"><path id="kity_path_712" fill="white" stroke="gray" d="M141.5000088736415,551.5000090524554A6,6,0,1,1,129.5000088736415,551.5000090524554A6,6,0,1,1,141.5000088736415,551.5000090524554"></path><path id="kity_path_713" fill="none" stroke="gray" d="M131.0000088736415,551.5000090524554L140.0000088736415,551.5000090524554"></path></g><path id="node_outline76" fill="rgb(239, 238, 246)" stroke="rgb(123, 115, 191)" d="M145.50000927597284,538.5000090524554h92a3,3,0,0,1,3,3v20a3,3,0,0,1,-3,3h-92a3,3,0,0,1,-3,-3v-20a3,3,0,0,1,3,-3z" stroke-width="1"></path><g id="node_text76" fill="black"><text id="kity_text_655" text-rendering="inherit" font-size="14" dy=".8em" y="542.400009021163" x="162.50000927597284">模型基类</text></g></g><g id="minder_node68"><g id="node_expander66" style="cursor: pointer;"><path id="kity_path_685" fill="white" stroke="gray" d="M240.50001034885645,34.50000134855509A6,6,0,1,1,228.50001034885645,34.50000134855509A6,6,0,1,1,240.50001034885645,34.50000134855509"></path><path id="kity_path_686" fill="none" stroke="gray" d="M230.00001034885645,34.50000134855509L239.00001034885645,34.50000134855509"></path></g><path id="node_outline67" fill="none" stroke="none" d="M245.50001051276922,20.500001348555088h65a5,5,0,0,1,5,5v18a5,5,0,0,1,-5,5h-65a5,5,0,0,1,-5,-5v-18a5,5,0,0,1,5,-5z" stroke-width="3"></path><g id="node_text67" fill="black"><text id="kity_text_637" text-rendering="inherit" font-size="12" dy=".8em" y="26.700001321732998" x="245.50001051276922">Points</text></g><a id="kity_a_656" xlink:href="http://www.yanhuangxueyuan.com/threejs/docs/index.html#api/zh/objects/Points" target="_blank" xlink:title="http://www.yanhuangxueyuan.com/threejs/docs/index.html#api/zh/objects/Points" style="cursor: pointer;"><path id="kity_path_658" fill="rgba(255, 255, 255, 0)" stroke="none" d="M290.50001115351915,23.500001274049282h16a4,4,0,0,1,4,4v14a4,4,0,0,1,-4,4h-16a4,4,0,0,1,-4,-4v-14a4,4,0,0,1,4,-4z"></path><path id="kity_path_657" fill="#666" stroke="none" d="M305.11401115351913,39.724001274049286h-1.278c-1.668,0,-3.07,-1.07,-3.599,-2.556h4.877c0.707,0,1.278,-0.571,1.278,-1.278V33.334001274049285c0,-0.707,-0.571,-1.278,-1.278,-1.278h-4.877C300.7660111535192,30.571001274049284,302.16801115351916,29.500001274049282,303.83601115351917,29.500001274049282h1.278c2.116,0,3.834,1.716,3.834,3.834V35.89000127404928C308.94801115351913,38.00800127404928,307.2300111535192,39.724001274049286,305.11401115351913,39.724001274049286zM293.6120111535192,34.612001274049284c0,-0.707,0.573,-1.278,1.278,-1.278h7.668c0.707,0,1.278,0.571,1.278,1.278S303.26501115351914,35.89000127404928,302.55801115351915,35.89000127404928H294.89001115351914C294.18501115351916,35.89000127404928,293.6120111535192,35.319001274049285,293.6120111535192,34.612001274049284zM291.05601115351914,33.334001274049285V35.89000127404928c0,0.707,0.573,1.278,1.278,1.278h4.877c-0.528,1.486,-1.932,2.556,-3.599,2.556H292.33401115351916C290.21601115351916,39.724001274049286,288.50001115351915,38.00800127404928,288.50001115351915,35.89000127404928V33.334001274049285C288.50001115351915,31.216001274049283,290.21601115351916,29.500001274049282,292.33401115351916,29.500001274049282h1.278c1.667,0,3.071,1.071,3.599,2.556H292.33401115351916C291.6290111535192,32.05600127404928,291.05601115351914,32.627001274049285,291.05601115351914,33.334001274049285z"></path></a></g><g id="minder_node70"><g id="node_expander68" style="cursor: pointer;"><path id="kity_path_691" fill="white" stroke="gray" d="M282.5000109747052,114.50000254064798A6,6,0,1,1,270.5000109747052,114.50000254064798A6,6,0,1,1,282.5000109747052,114.50000254064798"></path><path id="kity_path_692" fill="none" stroke="gray" d="M272.0000109747052,114.50000254064798L281.0000109747052,114.50000254064798"></path></g><path id="node_outline69" fill="none" stroke="none" d="M287.500011138618,100.50000254064798h53a5,5,0,0,1,5,5v18a5,5,0,0,1,-5,5h-53a5,5,0,0,1,-5,-5v-18a5,5,0,0,1,5,-5z" stroke-width="3"></path><g id="node_text69" fill="black"><text id="kity_text_641" text-rendering="inherit" font-size="12" dy=".8em" y="106.7000025138259" x="287.500011138618">Line</text></g><a id="kity_a_659" xlink:href="http://www.yanhuangxueyuan.com/threejs/docs/index.html#api/zh/objects/Line" target="_blank" xlink:title="http://www.yanhuangxueyuan.com/threejs/docs/index.html#api/zh/objects/Line" style="cursor: pointer;"><path id="kity_path_661" fill="rgba(255, 255, 255, 0)" stroke="none" d="M320.500011600554,103.50000246614218h16a4,4,0,0,1,4,4v14a4,4,0,0,1,-4,4h-16a4,4,0,0,1,-4,-4v-14a4,4,0,0,1,4,-4z"></path><path id="kity_path_660" fill="#666" stroke="none" d="M335.11401160055397,119.72400246614218h-1.278c-1.668,0,-3.07,-1.07,-3.599,-2.556h4.877c0.707,0,1.278,-0.571,1.278,-1.278V113.33400246614218c0,-0.707,-0.571,-1.278,-1.278,-1.278h-4.877C330.766011600554,110.57100246614218,332.168011600554,109.50000246614218,333.836011600554,109.50000246614218h1.278c2.116,0,3.834,1.716,3.834,3.834V115.89000246614218C338.94801160055397,118.00800246614217,337.230011600554,119.72400246614218,335.11401160055397,119.72400246614218zM323.612011600554,114.61200246614217c0,-0.707,0.573,-1.278,1.278,-1.278h7.668c0.707,0,1.278,0.571,1.278,1.278S333.265011600554,115.89000246614218,332.558011600554,115.89000246614218H324.890011600554C324.185011600554,115.89000246614218,323.612011600554,115.31900246614218,323.612011600554,114.61200246614217zM321.056011600554,113.33400246614218V115.89000246614218c0,0.707,0.573,1.278,1.278,1.278h4.877c-0.528,1.486,-1.932,2.556,-3.599,2.556H322.334011600554C320.216011600554,119.72400246614218,318.500011600554,118.00800246614217,318.500011600554,115.89000246614218V113.33400246614218C318.500011600554,111.21600246614217,320.216011600554,109.50000246614218,322.334011600554,109.50000246614218h1.278c1.667,0,3.071,1.071,3.599,2.556H322.334011600554C321.629011600554,112.05600246614217,321.056011600554,112.62700246614217,321.056011600554,113.33400246614218z"></path></a></g><g id="minder_node71"><g id="node_expander69" style="cursor: pointer;"><path id="kity_path_694" fill="white" stroke="gray" d="M282.5000109747052,150.5000030770898A6,6,0,1,1,270.5000109747052,150.5000030770898A6,6,0,1,1,282.5000109747052,150.5000030770898"></path><path id="kity_path_695" fill="none" stroke="gray" d="M272.0000109747052,150.5000030770898L281.0000109747052,150.5000030770898"></path></g><path id="node_outline70" fill="none" stroke="none" d="M287.500011138618,136.5000030770898h82a5,5,0,0,1,5,5v18a5,5,0,0,1,-5,5h-82a5,5,0,0,1,-5,-5v-18a5,5,0,0,1,5,-5z" stroke-width="3"></path><g id="node_text70" fill="black"><text id="kity_text_643" text-rendering="inherit" font-size="12" dy=".8em" y="142.7000030502677" x="287.500011138618">LineLoop</text></g><a id="kity_a_662" xlink:href="http://www.yanhuangxueyuan.com/threejs/docs/index.html#api/zh/objects/LineLoop" target="_blank" xlink:title="http://www.yanhuangxueyuan.com/threejs/docs/index.html#api/zh/objects/LineLoop" style="cursor: pointer;"><path id="kity_path_664" fill="rgba(255, 255, 255, 0)" stroke="none" d="M349.50001203268766,139.50000300258398h16a4,4,0,0,1,4,4v14a4,4,0,0,1,-4,4h-16a4,4,0,0,1,-4,-4v-14a4,4,0,0,1,4,-4z"></path><path id="kity_path_663" fill="#666" stroke="none" d="M364.11401203268764,155.72400300258397h-1.278c-1.668,0,-3.07,-1.07,-3.599,-2.556h4.877c0.707,0,1.278,-0.571,1.278,-1.278V149.33400300258398c0,-0.707,-0.571,-1.278,-1.278,-1.278h-4.877C359.7660120326877,146.57100300258398,361.16801203268767,145.50000300258398,362.8360120326877,145.50000300258398h1.278c2.116,0,3.834,1.716,3.834,3.834V151.89000300258397C367.94801203268764,154.008003002584,366.2300120326877,155.72400300258397,364.11401203268764,155.72400300258397zM352.6120120326877,150.61200300258398c0,-0.707,0.573,-1.278,1.278,-1.278h7.668c0.707,0,1.278,0.571,1.278,1.278S362.26501203268765,151.89000300258397,361.55801203268766,151.89000300258397H353.89001203268765C353.18501203268767,151.89000300258397,352.6120120326877,151.31900300258397,352.6120120326877,150.61200300258398zM350.05601203268765,149.33400300258398V151.89000300258397c0,0.707,0.573,1.278,1.278,1.278h4.877c-0.528,1.486,-1.932,2.556,-3.599,2.556H351.33401203268767C349.2160120326877,155.72400300258397,347.50001203268766,154.008003002584,347.50001203268766,151.89000300258397V149.33400300258398C347.50001203268766,147.216003002584,349.2160120326877,145.50000300258398,351.33401203268767,145.50000300258398h1.278c1.667,0,3.071,1.071,3.599,2.556H351.33401203268767C350.6290120326877,148.056003002584,350.05601203268765,148.627003002584,350.05601203268765,149.33400300258398z"></path></a></g><g id="minder_node72"><g id="node_expander70" style="cursor: pointer;"><path id="kity_path_697" fill="white" stroke="gray" d="M282.5000109747052,186.5000036135316A6,6,0,1,1,270.5000109747052,186.5000036135316A6,6,0,1,1,282.5000109747052,186.5000036135316"></path><path id="kity_path_698" fill="none" stroke="gray" d="M272.0000109747052,186.5000036135316L281.0000109747052,186.5000036135316"></path></g><path id="node_outline71" fill="none" stroke="none" d="M287.500011138618,172.5000036135316h109a5,5,0,0,1,5,5v18a5,5,0,0,1,-5,5h-109a5,5,0,0,1,-5,-5v-18a5,5,0,0,1,5,-5z" stroke-width="3"></path><g id="node_text71" fill="black"><text id="kity_text_645" text-rendering="inherit" font-size="12" dy=".8em" y="178.7000035867095" x="287.500011138618">LineSegments</text></g><a id="kity_a_665" xlink:href="http://www.yanhuangxueyuan.com/threejs/docs/index.html#api/zh/objects/LineSegments" target="_blank" xlink:title="http://www.yanhuangxueyuan.com/threejs/docs/index.html#api/zh/objects/LineSegments" style="cursor: pointer;"><path id="kity_path_667" fill="rgba(255, 255, 255, 0)" stroke="none" d="M376.500012435019,175.50000353902578h16a4,4,0,0,1,4,4v14a4,4,0,0,1,-4,4h-16a4,4,0,0,1,-4,-4v-14a4,4,0,0,1,4,-4z"></path><path id="kity_path_666" fill="#666" stroke="none" d="M391.114012435019,191.72400353902577h-1.278c-1.668,0,-3.07,-1.07,-3.599,-2.556h4.877c0.707,0,1.278,-0.571,1.278,-1.278V185.3340035390258c0,-0.707,-0.571,-1.278,-1.278,-1.278h-4.877C386.76601243501904,182.57100353902578,388.168012435019,181.50000353902578,389.83601243501903,181.50000353902578h1.278c2.116,0,3.834,1.716,3.834,3.834V187.89000353902577C394.948012435019,190.0080035390258,393.23001243501903,191.72400353902577,391.114012435019,191.72400353902577zM379.61201243501904,186.61200353902578c0,-0.707,0.573,-1.278,1.278,-1.278h7.668c0.707,0,1.278,0.571,1.278,1.278S389.265012435019,187.89000353902577,388.558012435019,187.89000353902577H380.890012435019C380.185012435019,187.89000353902577,379.61201243501904,187.31900353902577,379.61201243501904,186.61200353902578zM377.056012435019,185.3340035390258V187.89000353902577c0,0.707,0.573,1.278,1.278,1.278h4.877c-0.528,1.486,-1.932,2.556,-3.599,2.556H378.334012435019C376.216012435019,191.72400353902577,374.500012435019,190.0080035390258,374.500012435019,187.89000353902577V185.3340035390258C374.500012435019,183.2160035390258,376.216012435019,181.50000353902578,378.334012435019,181.50000353902578h1.278c1.667,0,3.071,1.071,3.599,2.556H378.334012435019C377.62901243501904,184.0560035390258,377.056012435019,184.6270035390258,377.056012435019,185.3340035390258z"></path></a></g><g id="minder_node74"><g id="node_expander72" style="cursor: pointer;"><path id="kity_path_703" fill="white" stroke="gray" d="M254.5000105574727,301.5000053271651A6,6,0,1,1,242.5000105574727,301.5000053271651A6,6,0,1,1,254.5000105574727,301.5000053271651"></path><path id="kity_path_704" fill="none" stroke="gray" d="M244.0000105574727,301.5000053271651L253.0000105574727,301.5000053271651"></path></g><path id="node_outline73" fill="none" stroke="none" d="M259.5000107213855,287.5000053271651h60a5,5,0,0,1,5,5v18a5,5,0,0,1,-5,5h-60a5,5,0,0,1,-5,-5v-18a5,5,0,0,1,5,-5z" stroke-width="3"></path><g id="node_text73" fill="black"><text id="kity_text_649" text-rendering="inherit" font-size="12" dy=".8em" y="293.70000530034304" x="259.5000107213855">Mesh</text></g><a id="kity_a_668" xlink:href="http://www.yanhuangxueyuan.com/threejs/docs/index.html#api/zh/objects/Mesh" target="_blank" xlink:title="http://www.yanhuangxueyuan.com/threejs/docs/index.html#api/zh/objects/Mesh" style="cursor: pointer;"><path id="kity_path_670" fill="rgba(255, 255, 255, 0)" stroke="none" d="M299.5000112876296,290.5000052526593h16a4,4,0,0,1,4,4v14a4,4,0,0,1,-4,4h-16a4,4,0,0,1,-4,-4v-14a4,4,0,0,1,4,-4z"></path><path id="kity_path_669" fill="#666" stroke="none" d="M314.1140112876296,306.7240052526593h-1.278c-1.668,0,-3.07,-1.07,-3.599,-2.556h4.877c0.707,0,1.278,-0.571,1.278,-1.278V300.3340052526593c0,-0.707,-0.571,-1.278,-1.278,-1.278h-4.877C309.7660112876296,297.57100525265935,311.1680112876296,296.5000052526593,312.8360112876296,296.5000052526593h1.278c2.116,0,3.834,1.716,3.834,3.834V302.8900052526593C317.9480112876296,305.0080052526593,316.2300112876296,306.7240052526593,314.1140112876296,306.7240052526593zM302.6120112876296,301.61200525265934c0,-0.707,0.573,-1.278,1.278,-1.278h7.668c0.707,0,1.278,0.571,1.278,1.278S312.2650112876296,302.8900052526593,311.5580112876296,302.8900052526593H303.8900112876296C303.1850112876296,302.8900052526593,302.6120112876296,302.31900525265934,302.6120112876296,301.61200525265934zM300.0560112876296,300.3340052526593V302.8900052526593c0,0.707,0.573,1.278,1.278,1.278h4.877c-0.528,1.486,-1.932,2.556,-3.599,2.556H301.3340112876296C299.2160112876296,306.7240052526593,297.5000112876296,305.0080052526593,297.5000112876296,302.8900052526593V300.3340052526593C297.5000112876296,298.21600525265933,299.2160112876296,296.5000052526593,301.3340112876296,296.5000052526593h1.278c1.667,0,3.071,1.071,3.599,2.556H301.3340112876296C300.6290112876296,299.0560052526593,300.0560112876296,299.62700525265933,300.0560112876296,300.3340052526593z"></path></a></g><g id="minder_node76"><g id="node_expander74" style="cursor: pointer;" display="none"><path id="kity_path_709" fill="white" stroke="gray" d="M256.500010587275,551.5000090524554A6,6,0,1,1,244.50001058727503,551.5000090524554A6,6,0,1,1,256.500010587275,551.5000090524554"></path><path id="kity_path_710" fill="none" stroke="gray"></path></g><path id="node_outline75" fill="none" stroke="none" d="M261.5000107511878,537.5000090524554h83a5,5,0,0,1,5,5v18a5,5,0,0,1,-5,5h-83a5,5,0,0,1,-5,-5v-18a5,5,0,0,1,5,-5z" stroke-width="3"></path><g id="node_text75" fill="black"><text id="kity_text_653" text-rendering="inherit" font-size="12" dy=".8em" y="543.7000090256333" x="261.5000107511878">Object3D</text></g><a id="kity_a_671" xlink:href="http://www.yanhuangxueyuan.com/threejs/docs/index.html#api/zh/core/Object3D" target="_blank" xlink:title="http://www.yanhuangxueyuan.com/threejs/docs/index.html#api/zh/core/Object3D" style="cursor: pointer;"><path id="kity_path_673" fill="rgba(255, 255, 255, 0)" stroke="none" d="M324.50001166015863,540.5000089779496h16a4,4,0,0,1,4,4v14a4,4,0,0,1,-4,4h-16a4,4,0,0,1,-4,-4v-14a4,4,0,0,1,4,-4z"></path><path id="kity_path_672" fill="#666" stroke="none" d="M339.1140116601586,556.7240089779497h-1.278c-1.668,0,-3.07,-1.07,-3.599,-2.556h4.877c0.707,0,1.278,-0.571,1.278,-1.278V550.3340089779496c0,-0.707,-0.571,-1.278,-1.278,-1.278h-4.877C334.76601166015865,547.5710089779496,336.16801166015864,546.5000089779496,337.83601166015865,546.5000089779496h1.278c2.116,0,3.834,1.716,3.834,3.834V552.8900089779496C342.9480116601586,555.0080089779497,341.23001166015865,556.7240089779497,339.1140116601586,556.7240089779497zM327.61201166015866,551.6120089779496c0,-0.707,0.573,-1.278,1.278,-1.278h7.668c0.707,0,1.278,0.571,1.278,1.278S337.2650116601586,552.8900089779496,336.5580116601586,552.8900089779496H328.8900116601586C328.18501166015864,552.8900089779496,327.61201166015866,552.3190089779496,327.61201166015866,551.6120089779496zM325.0560116601586,550.3340089779496V552.8900089779496c0,0.707,0.573,1.278,1.278,1.278h4.877c-0.528,1.486,-1.932,2.556,-3.599,2.556H326.33401166015864C324.21601166015864,556.7240089779497,322.50001166015863,555.0080089779497,322.50001166015863,552.8900089779496V550.3340089779496C322.50001166015863,548.2160089779496,324.21601166015864,546.5000089779496,326.33401166015864,546.5000089779496h1.278c1.667,0,3.071,1.071,3.599,2.556H326.33401166015864C325.62901166015865,549.0560089779497,325.0560116601586,549.6270089779496,325.0560116601586,550.3340089779496z"></path></a></g><g id="minder_node77"><g id="node_expander76" style="cursor: pointer;"><path id="kity_path_726" fill="white" stroke="gray" d="M240.50001034885645,70.50000188499689A6,6,0,1,1,228.50001034885645,70.50000188499689A6,6,0,1,1,240.50001034885645,70.50000188499689"></path><path id="kity_path_727" fill="none" stroke="gray" d="M230.00001034885645,70.50000188499689L239.00001034885645,70.50000188499689"></path></g><path id="node_outline77" fill="none" stroke="none" d="M245.50001051276922,61.50000188499689h37a5,5,0,0,1,5,5v8a5,5,0,0,1,-5,5h-37a5,5,0,0,1,-5,-5v-8a5,5,0,0,1,5,-5z" stroke-width="3"></path><g id="node_text77" fill="black"><text id="kity_text_723" text-rendering="inherit" font-size="12" dy=".8em" y="62.7000018581748" x="245.50001051276922">点材质</text></g></g><g id="minder_node78"><g id="node_expander77" style="cursor: pointer;" display="none"><path id="kity_path_734" fill="white" stroke="gray" d="M303.5000112876296,70.50000188499689A6,6,0,1,1,291.5000112876296,70.50000188499689A6,6,0,1,1,303.5000112876296,70.50000188499689"></path><path id="kity_path_735" fill="none" stroke="gray"></path></g><path id="node_outline78" fill="none" stroke="none" d="M308.5000114515424,56.50000188499689h112a5,5,0,0,1,5,5v18a5,5,0,0,1,-5,5h-112a5,5,0,0,1,-5,-5v-18a5,5,0,0,1,5,-5z" stroke-width="3"></path><g id="node_text78" fill="black"><text id="kity_text_731" text-rendering="inherit" font-size="12" dy=".8em" y="62.7000018581748" x="308.5000114515424">PointsMaterial</text></g><a id="kity_a_744" xlink:href="http://www.yanhuangxueyuan.com/threejs/docs/index.html#api/zh/materials/PointsMaterial" target="_blank" xlink:title="http://www.yanhuangxueyuan.com/threejs/docs/index.html#api/zh/materials/PointsMaterial" style="cursor: pointer;"><path id="kity_path_746" fill="rgba(255, 255, 255, 0)" stroke="none" d="M400.5000127926469,59.500001810491085h16a4,4,0,0,1,4,4v14a4,4,0,0,1,-4,4h-16a4,4,0,0,1,-4,-4v-14a4,4,0,0,1,4,-4z"></path><path id="kity_path_745" fill="#666" stroke="none" d="M415.11401279264686,75.72400181049109h-1.278c-1.668,0,-3.07,-1.07,-3.599,-2.556h4.877c0.707,0,1.278,-0.571,1.278,-1.278V69.33400181049109c0,-0.707,-0.571,-1.278,-1.278,-1.278h-4.877C410.7660127926469,66.57100181049108,412.1680127926469,65.50000181049109,413.8360127926469,65.50000181049109h1.278c2.116,0,3.834,1.716,3.834,3.834V71.89000181049109C418.94801279264686,74.00800181049108,417.2300127926469,75.72400181049109,415.11401279264686,75.72400181049109zM403.6120127926469,70.61200181049108c0,-0.707,0.573,-1.278,1.278,-1.278h7.668c0.707,0,1.278,0.571,1.278,1.278S413.26501279264687,71.89000181049109,412.5580127926469,71.89000181049109H404.89001279264687C404.1850127926469,71.89000181049109,403.6120127926469,71.31900181049109,403.6120127926469,70.61200181049108zM401.05601279264687,69.33400181049109V71.89000181049109c0,0.707,0.573,1.278,1.278,1.278h4.877c-0.528,1.486,-1.932,2.556,-3.599,2.556H402.3340127926469C400.2160127926469,75.72400181049109,398.5000127926469,74.00800181049108,398.5000127926469,71.89000181049109V69.33400181049109C398.5000127926469,67.21600181049108,400.2160127926469,65.50000181049109,402.3340127926469,65.50000181049109h1.278c1.667,0,3.071,1.071,3.599,2.556H402.3340127926469C401.6290127926469,68.05600181049108,401.05601279264687,68.62700181049108,401.05601279264687,69.33400181049109z"></path></a></g><g id="minder_node79"><g id="node_expander78" style="cursor: pointer;"><path id="kity_path_742" fill="white" stroke="gray" d="M282.5000109747052,240.5000044181943A6,6,0,1,1,270.5000109747052,240.5000044181943A6,6,0,1,1,282.5000109747052,240.5000044181943"></path><path id="kity_path_743" fill="none" stroke="gray" d="M272.0000109747052,240.5000044181943L281.0000109747052,240.5000044181943"></path></g><path id="node_outline79" fill="none" stroke="none" d="M287.500011138618,231.5000044181943h37a5,5,0,0,1,5,5v8a5,5,0,0,1,-5,5h-37a5,5,0,0,1,-5,-5v-8a5,5,0,0,1,5,-5z" stroke-width="3"></path><g id="node_text79" fill="black"><text id="kity_text_739" text-rendering="inherit" font-size="12" dy=".8em" y="232.7000043913722" x="287.500011138618">线材质</text></g></g><g id="minder_node80"><g id="node_expander80" style="cursor: pointer;" display="none"><path id="kity_path_771" fill="white" stroke="gray" d="M345.5000119134784,222.5000041499734A6,6,0,1,1,333.5000119134784,222.5000041499734A6,6,0,1,1,345.5000119134784,222.5000041499734"></path><path id="kity_path_772" fill="none" stroke="gray" d="M335.0000119134784,222.5000041499734L344.0000119134784,222.5000041499734"></path></g><path id="node_outline81" fill="none" stroke="none" d="M350.50001207739115,208.5000041499734h129a5,5,0,0,1,5,5v18a5,5,0,0,1,-5,5h-129a5,5,0,0,1,-5,-5v-18a5,5,0,0,1,5,-5z" stroke-width="3"></path><g id="node_text81" fill="black"><text id="kity_text_765" text-rendering="inherit" font-size="12" dy=".8em" y="214.7000041231513" x="350.50001207739115">LineBasicMaterial</text></g><a id="kity_a_766" xlink:href="http://www.yanhuangxueyuan.com/threejs/docs/index.html#api/zh/materials/LineBasicMaterial" target="_blank" xlink:title="http://www.yanhuangxueyuan.com/threejs/docs/index.html#api/zh/materials/LineBasicMaterial" style="cursor: pointer;"><path id="kity_path_768" fill="rgba(255, 255, 255, 0)" stroke="none" d="M459.5000136718154,211.5000040754676h16a4,4,0,0,1,4,4v14a4,4,0,0,1,-4,4h-16a4,4,0,0,1,-4,-4v-14a4,4,0,0,1,4,-4z"></path><path id="kity_path_767" fill="#666" stroke="none" d="M474.11401367181537,227.72400407546758h-1.278c-1.668,0,-3.07,-1.07,-3.599,-2.556h4.877c0.707,0,1.278,-0.571,1.278,-1.278V221.3340040754676c0,-0.707,-0.571,-1.278,-1.278,-1.278h-4.877C469.7660136718154,218.57100407546758,471.1680136718154,217.5000040754676,472.8360136718154,217.5000040754676h1.278c2.116,0,3.834,1.716,3.834,3.834V223.89000407546757C477.9480136718154,226.0080040754676,476.2300136718154,227.72400407546758,474.11401367181537,227.72400407546758zM462.6120136718154,222.61200407546758c0,-0.707,0.573,-1.278,1.278,-1.278h7.668c0.707,0,1.278,0.571,1.278,1.278S472.2650136718154,223.89000407546757,471.5580136718154,223.89000407546757H463.8900136718154C463.1850136718154,223.89000407546757,462.6120136718154,223.31900407546757,462.6120136718154,222.61200407546758zM460.0560136718154,221.3340040754676V223.89000407546757c0,0.707,0.573,1.278,1.278,1.278h4.877c-0.528,1.486,-1.932,2.556,-3.599,2.556H461.3340136718154C459.2160136718154,227.72400407546758,457.5000136718154,226.0080040754676,457.5000136718154,223.89000407546757V221.3340040754676C457.5000136718154,219.2160040754676,459.2160136718154,217.5000040754676,461.3340136718154,217.5000040754676h1.278c1.667,0,3.071,1.071,3.599,2.556H461.3340136718154C460.6290136718154,220.0560040754676,460.0560136718154,220.6270040754676,460.0560136718154,221.3340040754676z"></path></a></g><g id="minder_node82"><g id="node_expander79" style="cursor: pointer;" display="none"><path id="kity_path_762" fill="white" stroke="gray" d="M345.5000119134784,258.5000046864152A6,6,0,1,1,333.5000119134784,258.5000046864152A6,6,0,1,1,345.5000119134784,258.5000046864152"></path><path id="kity_path_763" fill="none" stroke="gray" d="M335.0000119134784,258.5000046864152L344.0000119134784,258.5000046864152"></path></g><path id="node_outline80" fill="none" stroke="none" d="M350.50001207739115,244.5000046864152h143a5,5,0,0,1,5,5v18a5,5,0,0,1,-5,5h-143a5,5,0,0,1,-5,-5v-18a5,5,0,0,1,5,-5z" stroke-width="3"></path><g id="node_text80" fill="black"><text id="kity_text_756" text-rendering="inherit" font-size="12" dy=".8em" y="250.7000046595931" x="350.50001207739115">LineDashedMaterial</text></g><a id="kity_a_757" xlink:href="http://www.yanhuangxueyuan.com/threejs/docs/index.html#api/zh/materials/LineDashedMaterial" target="_blank" xlink:title="http://www.yanhuangxueyuan.com/threejs/docs/index.html#api/zh/materials/LineDashedMaterial" style="cursor: pointer;"><path id="kity_path_759" fill="rgba(255, 255, 255, 0)" stroke="none" d="M473.50001388043165,247.5000046119094h16a4,4,0,0,1,4,4v14a4,4,0,0,1,-4,4h-16a4,4,0,0,1,-4,-4v-14a4,4,0,0,1,4,-4z"></path><path id="kity_path_758" fill="#666" stroke="none" d="M488.1140138804316,263.7240046119094h-1.278c-1.668,0,-3.07,-1.07,-3.599,-2.556h4.877c0.707,0,1.278,-0.571,1.278,-1.278V257.3340046119094c0,-0.707,-0.571,-1.278,-1.278,-1.278h-4.877C483.7660138804317,254.5710046119094,485.16801388043166,253.5000046119094,486.83601388043166,253.5000046119094h1.278c2.116,0,3.834,1.716,3.834,3.834V259.8900046119094C491.94801388043163,262.00800461190937,490.23001388043167,263.7240046119094,488.1140138804316,263.7240046119094zM476.6120138804317,258.6120046119094c0,-0.707,0.573,-1.278,1.278,-1.278h7.668c0.707,0,1.278,0.571,1.278,1.278S486.26501388043164,259.8900046119094,485.55801388043164,259.8900046119094H477.89001388043164C477.18501388043165,259.8900046119094,476.6120138804317,259.3190046119094,476.6120138804317,258.6120046119094zM474.05601388043164,257.3340046119094V259.8900046119094c0,0.707,0.573,1.278,1.278,1.278h4.877c-0.528,1.486,-1.932,2.556,-3.599,2.556H475.33401388043166C473.21601388043166,263.7240046119094,471.50001388043165,262.00800461190937,471.50001388043165,259.8900046119094V257.3340046119094C471.50001388043165,255.2160046119094,473.21601388043166,253.5000046119094,475.33401388043166,253.5000046119094h1.278c1.667,0,3.071,1.071,3.599,2.556H475.33401388043166C474.62901388043167,256.0560046119094,474.05601388043164,256.6270046119094,474.05601388043164,257.3340046119094z"></path></a></g><g id="minder_node84"><g id="node_expander83" style="cursor: pointer;"><path id="kity_path_791" fill="white" stroke="gray" d="M254.5000105574727,422.50000713020563A6,6,0,1,1,242.5000105574727,422.50000713020563A6,6,0,1,1,254.5000105574727,422.50000713020563"></path><path id="kity_path_792" fill="none" stroke="gray" d="M244.0000105574727,422.50000713020563L253.0000105574727,422.50000713020563"></path></g><path id="node_outline84" fill="none" stroke="none" d="M259.5000107213855,413.50000713020563h48a5,5,0,0,1,5,5v8a5,5,0,0,1,-5,5h-48a5,5,0,0,1,-5,-5v-8a5,5,0,0,1,5,-5z" stroke-width="3"></path><g id="node_text84" fill="black"><text id="kity_text_788" text-rendering="inherit" font-size="12" dy=".8em" y="414.70000710338354" x="259.5000107213855">网格材质</text></g></g><g id="minder_node85" opacity="1"><g id="node_expander88" style="cursor: pointer;" display="none"><path id="kity_path_856" fill="white" stroke="gray" d="M328.50001166015863,445.50000747293234A6,6,0,1,1,316.50001166015863,445.50000747293234A6,6,0,1,1,328.50001166015863,445.50000747293234"></path><path id="kity_path_857" fill="none" stroke="gray"></path></g><path id="node_outline89" fill="none" stroke="none" d="M333.5000118240714,431.50000747293234h160a5,5,0,0,1,5,5v18a5,5,0,0,1,-5,5h-160a5,5,0,0,1,-5,-5v-18a5,5,0,0,1,5,-5z" stroke-width="3"></path><g id="node_text89" fill="black"><text id="kity_text_850" text-rendering="inherit" font-size="12" dy=".8em" y="437.70000744611025" x="333.5000118240714">MeshStandardMaterial</text></g><a id="kity_a_851" xlink:href="http://www.yanhuangxueyuan.com/threejs/docs/index.html#api/zh/materials/MeshStandardMaterial" target="_blank" xlink:title="http://www.yanhuangxueyuan.com/threejs/docs/index.html#api/zh/materials/MeshStandardMaterial" style="cursor: pointer;"><path id="kity_path_853" fill="rgba(255, 255, 255, 0)" stroke="none" d="M473.50001388043165,434.50000739842653h16a4,4,0,0,1,4,4v14a4,4,0,0,1,-4,4h-16a4,4,0,0,1,-4,-4v-14a4,4,0,0,1,4,-4z"></path><path id="kity_path_852" fill="#666" stroke="none" d="M488.1140138804316,450.7240073984265h-1.278c-1.668,0,-3.07,-1.07,-3.599,-2.556h4.877c0.707,0,1.278,-0.571,1.278,-1.278V444.33400739842654c0,-0.707,-0.571,-1.278,-1.278,-1.278h-4.877C483.7660138804317,441.57100739842656,485.16801388043166,440.50000739842653,486.83601388043166,440.50000739842653h1.278c2.116,0,3.834,1.716,3.834,3.834V446.8900073984265C491.94801388043163,449.0080073984265,490.23001388043167,450.7240073984265,488.1140138804316,450.7240073984265zM476.6120138804317,445.61200739842656c0,-0.707,0.573,-1.278,1.278,-1.278h7.668c0.707,0,1.278,0.571,1.278,1.278S486.26501388043164,446.8900073984265,485.55801388043164,446.8900073984265H477.89001388043164C477.18501388043165,446.8900073984265,476.6120138804317,446.31900739842655,476.6120138804317,445.61200739842656zM474.05601388043164,444.33400739842654V446.8900073984265c0,0.707,0.573,1.278,1.278,1.278h4.877c-0.528,1.486,-1.932,2.556,-3.599,2.556H475.33401388043166C473.21601388043166,450.7240073984265,471.50001388043165,449.0080073984265,471.50001388043165,446.8900073984265V444.33400739842654C471.50001388043165,442.21600739842654,473.21601388043166,440.50000739842653,475.33401388043166,440.50000739842653h1.278c1.667,0,3.071,1.071,3.599,2.556H475.33401388043166C474.62901388043167,443.0560073984265,474.05601388043164,443.62700739842654,474.05601388043164,444.33400739842654z"></path></a></g><g id="minder_node86" opacity="1"><g id="node_expander87" style="cursor: pointer;" display="none"><path id="kity_path_847" fill="white" stroke="gray" d="M328.50001166015863,481.50000800937414A6,6,0,1,1,316.50001166015863,481.50000800937414A6,6,0,1,1,328.50001166015863,481.50000800937414"></path><path id="kity_path_848" fill="none" stroke="gray"></path></g><path id="node_outline88" fill="none" stroke="none" d="M333.5000118240714,467.50000800937414h153a5,5,0,0,1,5,5v18a5,5,0,0,1,-5,5h-153a5,5,0,0,1,-5,-5v-18a5,5,0,0,1,5,-5z" stroke-width="3"></path><g id="node_text88" fill="black"><text id="kity_text_841" text-rendering="inherit" font-size="12" dy=".8em" y="473.70000798255205" x="333.5000118240714">MeshPhysicalMaterial</text></g><a id="kity_a_842" xlink:href="http://www.yanhuangxueyuan.com/threejs/docs/index.html#api/zh/materials/MeshPhysicalMaterial" target="_blank" xlink:title="http://www.yanhuangxueyuan.com/threejs/docs/index.html#api/zh/materials/MeshPhysicalMaterial" style="cursor: pointer;"><path id="kity_path_844" fill="rgba(255, 255, 255, 0)" stroke="none" d="M466.5000137761235,470.50000793486834h16a4,4,0,0,1,4,4v14a4,4,0,0,1,-4,4h-16a4,4,0,0,1,-4,-4v-14a4,4,0,0,1,4,-4z"></path><path id="kity_path_843" fill="#666" stroke="none" d="M481.1140137761235,486.7240079348683h-1.278c-1.668,0,-3.07,-1.07,-3.599,-2.556h4.877c0.707,0,1.278,-0.571,1.278,-1.278V480.33400793486834c0,-0.707,-0.571,-1.278,-1.278,-1.278h-4.877C476.76601377612354,477.57100793486836,478.16801377612353,476.50000793486834,479.83601377612354,476.50000793486834h1.278c2.116,0,3.834,1.716,3.834,3.834V482.8900079348683C484.9480137761235,485.0080079348683,483.23001377612354,486.7240079348683,481.1140137761235,486.7240079348683zM469.61201377612355,481.61200793486836c0,-0.707,0.573,-1.278,1.278,-1.278h7.668c0.707,0,1.278,0.571,1.278,1.278S479.2650137761235,482.8900079348683,478.5580137761235,482.8900079348683H470.8900137761235C470.1850137761235,482.8900079348683,469.61201377612355,482.31900793486835,469.61201377612355,481.61200793486836zM467.0560137761235,480.33400793486834V482.8900079348683c0,0.707,0.573,1.278,1.278,1.278h4.877c-0.528,1.486,-1.932,2.556,-3.599,2.556H468.3340137761235C466.21601377612353,486.7240079348683,464.5000137761235,485.0080079348683,464.5000137761235,482.8900079348683V480.33400793486834C464.5000137761235,478.21600793486834,466.21601377612353,476.50000793486834,468.3340137761235,476.50000793486834h1.278c1.667,0,3.071,1.071,3.599,2.556H468.3340137761235C467.62901377612354,479.0560079348683,467.0560137761235,479.62700793486835,467.0560137761235,480.33400793486834z"></path></a></g><g id="minder_node87"><g id="node_expander86" style="cursor: pointer;" display="none"><path id="kity_path_838" fill="white" stroke="gray" d="M328.50001166015863,337.50000586360693A6,6,0,1,1,316.50001166015863,337.50000586360693A6,6,0,1,1,328.50001166015863,337.50000586360693"></path><path id="kity_path_839" fill="none" stroke="gray" d="M318.00001166015863,337.50000586360693L327.00001166015863,337.50000586360693"></path></g><path id="node_outline87" fill="none" stroke="none" d="M333.5000118240714,323.50000586360693h137a5,5,0,0,1,5,5v18a5,5,0,0,1,-5,5h-137a5,5,0,0,1,-5,-5v-18a5,5,0,0,1,5,-5z" stroke-width="3"></path><g id="node_text87" fill="black"><text id="kity_text_832" text-rendering="inherit" font-size="12" dy=".8em" y="329.70000583678484" x="333.5000118240714">MeshBasicMaterial</text></g><a id="kity_a_833" xlink:href="http://www.yanhuangxueyuan.com/threejs/docs/index.html#api/zh/materials/MeshBasicMaterial" target="_blank" xlink:title="http://www.yanhuangxueyuan.com/threejs/docs/index.html#api/zh/materials/MeshBasicMaterial" style="cursor: pointer;"><path id="kity_path_835" fill="rgba(255, 255, 255, 0)" stroke="none" d="M450.50001353770494,326.5000057891011h16a4,4,0,0,1,4,4v14a4,4,0,0,1,-4,4h-16a4,4,0,0,1,-4,-4v-14a4,4,0,0,1,4,-4z"></path><path id="kity_path_834" fill="#666" stroke="none" d="M465.1140135377049,342.7240057891011h-1.278c-1.668,0,-3.07,-1.07,-3.599,-2.556h4.877c0.707,0,1.278,-0.571,1.278,-1.278V336.3340057891011c0,-0.707,-0.571,-1.278,-1.278,-1.278h-4.877C460.76601353770496,333.57100578910115,462.16801353770495,332.5000057891011,463.83601353770496,332.5000057891011h1.278c2.116,0,3.834,1.716,3.834,3.834V338.8900057891011C468.9480135377049,341.0080057891011,467.23001353770496,342.7240057891011,465.1140135377049,342.7240057891011zM453.61201353770497,337.61200578910115c0,-0.707,0.573,-1.278,1.278,-1.278h7.668c0.707,0,1.278,0.571,1.278,1.278S463.26501353770493,338.8900057891011,462.55801353770494,338.8900057891011H454.89001353770493C454.18501353770495,338.8900057891011,453.61201353770497,338.31900578910114,453.61201353770497,337.61200578910115zM451.0560135377049,336.3340057891011V338.8900057891011c0,0.707,0.573,1.278,1.278,1.278h4.877c-0.528,1.486,-1.932,2.556,-3.599,2.556H452.33401353770495C450.21601353770495,342.7240057891011,448.50001353770494,341.0080057891011,448.50001353770494,338.8900057891011V336.3340057891011C448.50001353770494,334.21600578910113,450.21601353770495,332.5000057891011,452.33401353770495,332.5000057891011h1.278c1.667,0,3.071,1.071,3.599,2.556H452.33401353770495C451.62901353770496,335.0560057891011,451.0560135377049,335.62700578910113,451.0560135377049,336.3340057891011z"></path></a></g><g id="minder_node89"><g id="node_expander85" style="cursor: pointer;" display="none"><path id="kity_path_829" fill="white" stroke="gray" d="M328.50001166015863,373.50000640004873A6,6,0,1,1,316.50001166015863,373.50000640004873A6,6,0,1,1,328.50001166015863,373.50000640004873"></path><path id="kity_path_830" fill="none" stroke="gray" d="M318.00001166015863,373.50000640004873L327.00001166015863,373.50000640004873"></path></g><path id="node_outline86" fill="none" stroke="none" d="M333.5000118240714,359.50000640004873h155a5,5,0,0,1,5,5v18a5,5,0,0,1,-5,5h-155a5,5,0,0,1,-5,-5v-18a5,5,0,0,1,5,-5z" stroke-width="3"></path><g id="node_text86" fill="black"><text id="kity_text_823" text-rendering="inherit" font-size="12" dy=".8em" y="365.70000637322664" x="333.5000118240714">MeshLambertMaterial</text></g><a id="kity_a_824" xlink:href="http://www.yanhuangxueyuan.com/threejs/docs/index.html#api/zh/materials/MeshLambertMaterial" target="_blank" xlink:title="http://www.yanhuangxueyuan.com/threejs/docs/index.html#api/zh/materials/MeshLambertMaterial" style="cursor: pointer;"><path id="kity_path_826" fill="rgba(255, 255, 255, 0)" stroke="none" d="M468.50001380592585,362.5000063255429h16a4,4,0,0,1,4,4v14a4,4,0,0,1,-4,4h-16a4,4,0,0,1,-4,-4v-14a4,4,0,0,1,4,-4z"></path><path id="kity_path_825" fill="#666" stroke="none" d="M483.1140138059258,378.7240063255429h-1.278c-1.668,0,-3.07,-1.07,-3.599,-2.556h4.877c0.707,0,1.278,-0.571,1.278,-1.278V372.33400632554293c0,-0.707,-0.571,-1.278,-1.278,-1.278h-4.877C478.76601380592587,369.57100632554295,480.16801380592585,368.5000063255429,481.83601380592586,368.5000063255429h1.278c2.116,0,3.834,1.716,3.834,3.834V374.8900063255429C486.9480138059258,377.0080063255429,485.23001380592586,378.7240063255429,483.1140138059258,378.7240063255429zM471.61201380592587,373.61200632554295c0,-0.707,0.573,-1.278,1.278,-1.278h7.668c0.707,0,1.278,0.571,1.278,1.278S481.26501380592583,374.8900063255429,480.55801380592584,374.8900063255429H472.89001380592583C472.18501380592585,374.8900063255429,471.61201380592587,374.31900632554294,471.61201380592587,373.61200632554295zM469.05601380592583,372.33400632554293V374.8900063255429c0,0.707,0.573,1.278,1.278,1.278h4.877c-0.528,1.486,-1.932,2.556,-3.599,2.556H470.33401380592585C468.21601380592585,378.7240063255429,466.50001380592585,377.0080063255429,466.50001380592585,374.8900063255429V372.33400632554293C466.50001380592585,370.21600632554293,468.21601380592585,368.5000063255429,470.33401380592585,368.5000063255429h1.278c1.667,0,3.071,1.071,3.599,2.556H470.33401380592585C469.62901380592587,371.0560063255429,469.05601380592583,371.62700632554294,469.05601380592583,372.33400632554293z"></path></a></g><g id="minder_node92"><g id="node_expander84" style="cursor: pointer;" display="none"><path id="kity_path_820" fill="white" stroke="gray" d="M328.50001166015863,409.50000693649054A6,6,0,1,1,316.50001166015863,409.50000693649054A6,6,0,1,1,328.50001166015863,409.50000693649054"></path><path id="kity_path_821" fill="none" stroke="gray" d="M318.00001166015863,409.50000693649054L327.00001166015863,409.50000693649054"></path></g><path id="node_outline85" fill="none" stroke="none" d="M333.5000118240714,395.50000693649054h145a5,5,0,0,1,5,5v18a5,5,0,0,1,-5,5h-145a5,5,0,0,1,-5,-5v-18a5,5,0,0,1,5,-5z" stroke-width="3"></path><g id="node_text85" fill="black"><text id="kity_text_814" text-rendering="inherit" font-size="12" dy=".8em" y="401.70000690966845" x="333.5000118240714">MeshPhongMaterial</text></g><a id="kity_a_815" xlink:href="http://www.yanhuangxueyuan.com/threejs/docs/index.html#api/zh/materials/MeshPhongMaterial" target="_blank" xlink:title="http://www.yanhuangxueyuan.com/threejs/docs/index.html#api/zh/materials/MeshPhongMaterial" style="cursor: pointer;"><path id="kity_path_817" fill="rgba(255, 255, 255, 0)" stroke="none" d="M458.50001365691423,398.50000686198473h16a4,4,0,0,1,4,4v14a4,4,0,0,1,-4,4h-16a4,4,0,0,1,-4,-4v-14a4,4,0,0,1,4,-4z"></path><path id="kity_path_816" fill="#666" stroke="none" d="M473.1140136569142,414.7240068619847h-1.278c-1.668,0,-3.07,-1.07,-3.599,-2.556h4.877c0.707,0,1.278,-0.571,1.278,-1.278V408.33400686198473c0,-0.707,-0.571,-1.278,-1.278,-1.278h-4.877C468.76601365691425,405.57100686198476,470.16801365691424,404.50000686198473,471.83601365691425,404.50000686198473h1.278c2.116,0,3.834,1.716,3.834,3.834V410.8900068619847C476.9480136569142,413.0080068619847,475.23001365691425,414.7240068619847,473.1140136569142,414.7240068619847zM461.61201365691426,409.61200686198475c0,-0.707,0.573,-1.278,1.278,-1.278h7.668c0.707,0,1.278,0.571,1.278,1.278S471.2650136569142,410.8900068619847,470.5580136569142,410.8900068619847H462.8900136569142C462.18501365691424,410.8900068619847,461.61201365691426,410.31900686198475,461.61201365691426,409.61200686198475zM459.0560136569142,408.33400686198473V410.8900068619847c0,0.707,0.573,1.278,1.278,1.278h4.877c-0.528,1.486,-1.932,2.556,-3.599,2.556H460.33401365691424C458.21601365691424,414.7240068619847,456.50001365691423,413.0080068619847,456.50001365691423,410.8900068619847V408.33400686198473C456.50001365691423,406.21600686198474,458.21601365691424,404.50000686198473,460.33401365691424,404.50000686198473h1.278c1.667,0,3.071,1.071,3.599,2.556H460.33401365691424C459.62901365691425,407.0560068619847,459.0560136569142,407.62700686198474,459.0560136569142,408.33400686198473z"></path></a></g><g id="minder_node95"><g id="node_expander94" style="cursor: pointer;" display="none"><path id="kity_path_894" fill="white" stroke="gray" d="M328.50001166015863,512.5000084713101A6,6,0,1,1,316.50001166015863,512.5000084713101A6,6,0,1,1,328.50001166015863,512.5000084713101"></path><path id="kity_path_895" fill="none" stroke="gray"></path></g><path id="node_outline95" fill="none" stroke="none" d="M333.5000118240714,503.50000847131014h9a5,5,0,0,1,5,5v8a5,5,0,0,1,-5,5h-9a5,5,0,0,1,-5,-5v-8a5,5,0,0,1,5,-5z" stroke-width="3"></path><g id="node_text95" fill="black"><text id="kity_text_891" text-rendering="inherit" font-size="12" dy=".8em" y="504.70000844448805" x="333.5000118240714">...</text></g></g><g id="minder_node96" opacity="1"><g id="node_expander95" style="cursor: pointer;" display="none"><path id="kity_path_902" fill="white" stroke="gray" d="M331.5000117048621,34.50000134855509A6,6,0,1,1,319.5000117048621,34.50000134855509A6,6,0,1,1,331.5000117048621,34.50000134855509"></path><path id="kity_path_903" fill="none" stroke="gray"></path></g><path id="node_outline96" fill="none" stroke="none" d="M336.5000118687749,25.500001348555088h62a5,5,0,0,1,5,5v8a5,5,0,0,1,-5,5h-62a5,5,0,0,1,-5,-5v-8a5,5,0,0,1,5,-5z" stroke-width="3"></path><g id="node_text96" fill="black"><text id="kity_text_899" text-rendering="inherit" font-size="12" dy=".8em" y="26.700001321732998" x="336.5000118687749">点渲染模式</text></g></g><g id="kity_g_12" display="none"><path id="kity_path_13" fill="none" stroke="rgb(71, 66, 112)" d="M245.5000073388219,20.500005312263966h65a5,5,0,0,1,5,5v18a5,5,0,0,1,-5,5h-65a5,5,0,0,1,-5,-5v-18a5,5,0,0,1,5,-5z" stroke-width="5"></path></g><g id="minder_node97"><g id="node_expander96" style="cursor: pointer;" display="none"><path id="kity_path_910" fill="white" stroke="gray" d="M340.50001183897257,301.5000053271651A6,6,0,1,1,328.50001183897257,301.5000053271651A6,6,0,1,1,340.50001183897257,301.5000053271651"></path><path id="kity_path_911" fill="none" stroke="gray"></path></g><path id="node_outline97" fill="none" stroke="none" d="M345.50001200288534,292.5000053271651h85a5,5,0,0,1,5,5v8a5,5,0,0,1,-5,5h-85a5,5,0,0,1,-5,-5v-8a5,5,0,0,1,5,-5z" stroke-width="3"></path><g id="node_text97" fill="black"><text id="kity_text_907" text-rendering="inherit" font-size="12" dy=".8em" y="293.70000530034304" x="345.50001200288534">三角形渲染模式</text></g></g><g id="minder_node98"><g id="node_expander97" style="cursor: pointer;" display="none"><path id="kity_path_918" fill="white" stroke="gray" d="M361.50001215189695,114.50000254064798A6,6,0,1,1,349.50001215189695,114.50000254064798A6,6,0,1,1,361.50001215189695,114.50000254064798"></path><path id="kity_path_919" fill="none" stroke="gray"></path></g><path id="node_outline98" fill="none" stroke="none" d="M366.5000123158097,105.50000254064798h62a5,5,0,0,1,5,5v8a5,5,0,0,1,-5,5h-62a5,5,0,0,1,-5,-5v-8a5,5,0,0,1,5,-5z" stroke-width="3"></path><g id="node_text98" fill="black"><text id="kity_text_915" text-rendering="inherit" font-size="12" dy=".8em" y="106.7000025138259" x="366.5000123158097">线渲染模式</text></g></g><g id="minder_node99"><g id="node_expander98" style="cursor: pointer;" display="none"><path id="kity_path_926" fill="white" stroke="gray" d="M390.5000125840306,150.5000030770898A6,6,0,1,1,378.5000125840306,150.5000030770898A6,6,0,1,1,390.5000125840306,150.5000030770898"></path><path id="kity_path_927" fill="none" stroke="gray"></path></g><path id="node_outline99" fill="none" stroke="none" d="M395.5000127479434,141.5000030770898h85a5,5,0,0,1,5,5v8a5,5,0,0,1,-5,5h-85a5,5,0,0,1,-5,-5v-8a5,5,0,0,1,5,-5z" stroke-width="3"></path><g id="node_text99" fill="black"><text id="kity_text_923" text-rendering="inherit" font-size="12" dy=".8em" y="142.7000030502677" x="395.5000127479434">闭环线渲染模式</text></g></g><g id="minder_node100"><g id="node_expander99" style="cursor: pointer;" display="none"><path id="kity_path_934" fill="white" stroke="gray" d="M417.500012986362,186.5000036135316A6,6,0,1,1,405.500012986362,186.5000036135316A6,6,0,1,1,417.500012986362,186.5000036135316"></path><path id="kity_path_935" fill="none" stroke="gray"></path></g><path id="node_outline100" fill="none" stroke="none" d="M422.50001315027475,177.5000036135316h85a5,5,0,0,1,5,5v8a5,5,0,0,1,-5,5h-85a5,5,0,0,1,-5,-5v-8a5,5,0,0,1,5,-5z" stroke-width="3"></path><g id="node_text100" fill="black"><text id="kity_text_931" text-rendering="inherit" font-size="12" dy=".8em" y="178.7000035867095" x="422.50001315027475">间断线渲染模式</text></g></g></g></g></svg>