<svg id="kity_svg_6" xmlns="http://www.w3.org/2000/svg" xmlns:xlink="http://www.w3.org/1999/xlink" version="1.1" width="733" height="408" style="background: rgb(251, 251, 251); visibility: visible;" viewBox="0 0 733 408"><defs id="kity_defs_7"><linearGradient id="kity_linearGradient_17" x1="0" y1="0" x2="0" y2="1"><stop id="kity_stop_18" offset="0" stop-color="rgb(255, 255, 255)"></stop><stop id="kity_stop_19" offset="1" stop-color="rgb(204, 204, 204)"></stop></linearGradient><marker id="kity_marker_2" orient="auto" refX="6" refY="0" viewBox="-7 -7 14 14" markerWidth="7" markerHeight="7" markerUnits="userSpaceOnUse"><path id="kity_path_3" fill="rgb(115, 161, 191)" stroke="none" d="M6,0A6,6,0,1,1,-6,0A6,6,0,1,1,6,0"></path></marker></defs><g id="kity_g_8"><g id="minder1" text-rendering="optimize-speed"><g id="minder_connect_group1"><path id="kity_path_31" fill="none" stroke="rgb(115, 161, 191)" stroke-width="1" d="M122.50000359863043,253.50000605732203A97,118,0,0,1,219.50000359863043,135.50000605732203"></path><path id="kity_path_53" fill="none" stroke="rgb(115, 161, 191)" stroke-width="1" d="M122.50000359863043,253.50000605732203A97,50,0,0,0,219.50000359863043,303.500006057322"></path><path id="kity_path_57" fill="none" stroke="rgb(115, 161, 191)" stroke-width="1" d="M122.50000359863043,253.50000605732203A97,119,0,0,0,219.50000359863043,372.500006057322"></path><path id="kity_path_305" fill="none" stroke="rgb(115, 161, 191)" stroke-width="1" d="M562.5000035986304,31.500006057322025C566.0000035986304,31.500006057322025,566.0000035986304,31.500006057322025,569.5000035986304,31.500006057322025"></path><path id="kity_path_306" fill="none" stroke="rgb(115, 161, 191)" stroke-width="1" d="M394.5000035986304,135.50000605732203C414.5000035986304,135.50000605732203,414.5000035986304,31.500006057322025,434.5000035986304,31.500006057322025"></path><path id="kity_path_307" fill="none" stroke="rgb(115, 161, 191)" stroke-width="1" d="M544.5000035986304,83.50000605732203C548.0000035986304,83.50000605732203,548.0000035986304,83.50000605732203,551.5000035986304,83.50000605732203"></path><path id="kity_path_308" fill="none" stroke="rgb(115, 161, 191)" stroke-width="1" d="M394.5000035986304,135.50000605732203C414.5000035986304,135.50000605732203,414.5000035986304,83.50000605732203,434.5000035986304,83.50000605732203"></path><path id="kity_path_309" fill="none" stroke="rgb(115, 161, 191)" stroke-width="1" d="M556.5000035986304,135.50000605732203C560.0000035986304,135.50000605732203,560.0000035986304,135.50000605732203,563.5000035986304,135.50000605732203"></path><path id="kity_path_310" fill="none" stroke="rgb(115, 161, 191)" stroke-width="1" d="M394.5000035986304,135.50000605732203C414.5000035986304,135.50000605732203,414.5000035986304,135.50000605732203,434.5000035986304,135.50000605732203"></path><path id="kity_path_311" fill="none" stroke="rgb(115, 161, 191)" stroke-width="1" d="M530.5000035986304,187.50000605732203C534.0000035986304,187.50000605732203,534.0000035986304,187.50000605732203,537.5000035986304,187.50000605732203"></path><path id="kity_path_312" fill="none" stroke="rgb(115, 161, 191)" stroke-width="1" d="M394.5000035986304,135.50000605732203C414.5000035986304,135.50000605732203,414.5000035986304,187.50000605732203,434.5000035986304,187.50000605732203"></path><path id="kity_path_313" fill="none" stroke="rgb(115, 161, 191)" stroke-width="1" d="M536.5000035986304,239.50000605732203C540.0000035986304,239.50000605732203,540.0000035986304,239.50000605732203,543.5000035986304,239.50000605732203"></path><path id="kity_path_314" fill="none" stroke="rgb(115, 161, 191)" stroke-width="1" d="M394.5000035986304,135.50000605732203C414.5000035986304,135.50000605732203,414.5000035986304,239.50000605732203,434.5000035986304,239.50000605732203"></path><path id="kity_path_315" fill="none" stroke="rgb(115, 161, 191)" stroke-width="1" d="M366.5000035986304,303.500006057322C374.0000035986304,303.500006057322,374.0000035986304,303.500006057322,381.5000035986304,303.500006057322"></path><path id="kity_path_316" fill="none" stroke="rgb(115, 161, 191)" stroke-width="1" d="M500.5000035986304,372.500006057322C504.0000035986304,372.500006057322,504.0000035986304,372.500006057322,507.5000035986304,372.500006057322"></path></g><g id="minder_node1"><path id="node_outline1" fill="rgb(115, 161, 191)" stroke="rgb(115, 161, 191)" d="M25.50000359863043,230.50000605732203h194a5,5,0,0,1,5,5v36a5,5,0,0,1,-5,5h-194a5,5,0,0,1,-5,-5v-36a5,5,0,0,1,5,-5z" stroke-width="3"></path><g id="node_text1" fill="white"><text id="kity_text_22" text-rendering="inherit" font-size="16" dy=".8em" y="243.10000602155924" x="44.50000359863043">BufferGeometry</text></g><a id="kity_a_302" xlink:href="http://www.yanhuangxueyuan.com/threejs/docs/index.html#api/zh/core/BufferGeometry" target="_blank" xlink:title="http://www.yanhuangxueyuan.com/threejs/docs/index.html#api/zh/core/BufferGeometry" style="cursor: pointer;"><path id="kity_path_304" fill="rgba(255, 255, 255, 0)" stroke="none" d="M180.50000559538603,242.50000598281622h16a4,4,0,0,1,4,4v14a4,4,0,0,1,-4,4h-16a4,4,0,0,1,-4,-4v-14a4,4,0,0,1,4,-4z"></path><path id="kity_path_303" fill="#666" stroke="none" d="M195.11400559538603,258.7240059828162h-1.278c-1.668,0,-3.07,-1.07,-3.599,-2.556h4.877c0.707,0,1.278,-0.571,1.278,-1.278V252.33400598281622c0,-0.707,-0.571,-1.278,-1.278,-1.278h-4.877C190.76600559538602,249.57100598281622,192.16800559538603,248.50000598281622,193.83600559538604,248.50000598281622h1.278c2.116,0,3.834,1.716,3.834,3.834V254.8900059828162C198.94800559538604,257.0080059828162,197.23000559538602,258.7240059828162,195.11400559538603,258.7240059828162zM183.61200559538602,253.6120059828162c0,-0.707,0.573,-1.278,1.278,-1.278h7.668c0.707,0,1.278,0.571,1.278,1.278S193.26500559538601,254.8900059828162,192.55800559538602,254.8900059828162H184.89000559538601C184.18500559538603,254.8900059828162,183.61200559538602,254.3190059828162,183.61200559538602,253.6120059828162zM181.05600559538604,252.33400598281622V254.8900059828162c0,0.707,0.573,1.278,1.278,1.278h4.877c-0.528,1.486,-1.932,2.556,-3.599,2.556H182.33400559538603C180.21600559538604,258.7240059828162,178.50000559538603,257.0080059828162,178.50000559538603,254.8900059828162V252.33400598281622C178.50000559538603,250.21600598281623,180.21600559538604,248.50000598281622,182.33400559538603,248.50000598281622h1.278c1.667,0,3.071,1.071,3.599,2.556H182.33400559538603C181.62900559538602,251.05600598281623,181.05600559538604,251.62700598281623,181.05600559538604,252.33400598281622z"></path></a></g><g id="kity_g_14" display="none"><path id="kity_path_15" fill="none" stroke="none" d="M44.50000359863043,253.50000605732203h0v0h0z"></path><path id="kity_path_16" fill="none" stroke="none"></path></g><g id="minder_node2" opacity="1"><g id="node_expander3" style="cursor: pointer;"><path id="kity_path_76" fill="white" stroke="gray" d="M220.50000613182783,135.500004298985A6,6,0,1,1,208.50000613182783,135.500004298985A6,6,0,1,1,220.50000613182783,135.500004298985"></path><path id="kity_path_77" fill="none" stroke="gray" d="M210.00000613182783,135.500004298985L219.00000613182783,135.500004298985"></path></g><path id="node_outline4" fill="rgb(238, 243, 246)" stroke="rgb(115, 161, 191)" d="M224.50000653415918,122.500004298985h167a3,3,0,0,1,3,3v20a3,3,0,0,1,-3,3h-167a3,3,0,0,1,-3,-3v-20a3,3,0,0,1,3,-3z" stroke-width="1"></path><g id="node_text4" fill="black"><text id="kity_text_73" text-rendering="inherit" font-size="14" dy=".8em" y="126.40000426769257" x="241.50000653415918">geometry.attributes</text></g></g><g id="minder_node13" opacity="1"><g id="node_expander2" style="cursor: pointer;"><path id="kity_path_70" fill="white" stroke="gray" d="M220.50000613182783,303.5000068023801A6,6,0,1,1,208.50000613182783,303.5000068023801A6,6,0,1,1,220.50000613182783,303.5000068023801"></path><path id="kity_path_71" fill="none" stroke="gray" d="M210.00000613182783,303.5000068023801L219.00000613182783,303.5000068023801"></path></g><path id="node_outline3" fill="rgb(238, 243, 246)" stroke="rgb(115, 161, 191)" d="M224.50000653415918,290.5000068023801h139a3,3,0,0,1,3,3v20a3,3,0,0,1,-3,3h-139a3,3,0,0,1,-3,-3v-20a3,3,0,0,1,3,-3z" stroke-width="1"></path><g id="node_text3" fill="black"><text id="kity_text_67" text-rendering="inherit" font-size="14" dy=".8em" y="294.40000677108765" x="241.50000653415918">geometry.index</text></g></g><g id="minder_node15" opacity="1"><g id="node_expander1" style="cursor: pointer;"><path id="kity_path_64" fill="white" stroke="gray" d="M220.50000613182783,372.5000078305602A6,6,0,1,1,208.50000613182783,372.5000078305602A6,6,0,1,1,220.50000613182783,372.5000078305602"></path><path id="kity_path_65" fill="none" stroke="gray" d="M210.00000613182783,372.5000078305602L219.00000613182783,372.5000078305602"></path></g><path id="node_outline2" fill="rgb(238, 243, 246)" stroke="rgb(115, 161, 191)" d="M224.50000653415918,359.5000078305602h273a3,3,0,0,1,3,3v20a3,3,0,0,1,-3,3h-273a3,3,0,0,1,-3,-3v-20a3,3,0,0,1,3,-3z" stroke-width="1"></path><g id="node_text2" fill="black"><text id="kity_text_61" text-rendering="inherit" font-size="14" dy=".8em" y="363.40000779926777" x="241.50000653415918">顶点索引、位置、颜色、法向量属性值</text></g></g><g id="kity_g_12" display="none"><path id="kity_path_13" fill="none" stroke="rgb(66, 94, 112)" d="M25.50000359863043,233.50000605732203h103a5,5,0,0,1,5,5v30a5,5,0,0,1,-5,5h-103a5,5,0,0,1,-5,-5v-30a5,5,0,0,1,5,-5z" stroke-width="5"></path></g><g id="minder_node4" opacity="1"><g id="node_expander4" style="cursor: pointer;" display="none"><path id="kity_path_118" fill="white" stroke="gray" d="M569.5000113323331,31.50000274926424A6,6,0,1,1,557.5000113323331,31.50000274926424A6,6,0,1,1,569.5000113323331,31.50000274926424"></path><path id="kity_path_119" fill="none" stroke="gray"></path></g><path id="node_outline5" fill="none" stroke="none" d="M574.5000115707517,20.50000274926424h84a5,5,0,0,1,5,5v12a5,5,0,0,1,-5,5h-84a5,5,0,0,1,-5,-5v-12a5,5,0,0,1,5,-5z" stroke-width="3"></path><g id="node_text5" fill="black"><text id="kity_text_79" text-rendering="inherit" font-size="12" dy=".8em" y="23.70000272244215" x="579.5000115707517">顶点位置数据</text></g></g><g id="minder_node3"><g id="node_expander5" style="cursor: pointer;"><path id="kity_path_121" fill="white" stroke="gray" d="M434.5000093206763,31.50000274926424A6,6,0,1,1,422.5000093206763,31.50000274926424A6,6,0,1,1,434.5000093206763,31.50000274926424"></path><path id="kity_path_122" fill="none" stroke="gray" d="M424.0000093206763,31.50000274926424L433.0000093206763,31.50000274926424"></path></g><path id="node_outline6" fill="none" stroke="none" d="M439.5000095590949,20.50000274926424h118a5,5,0,0,1,5,5v12a5,5,0,0,1,-5,5h-118a5,5,0,0,1,-5,-5v-12a5,5,0,0,1,5,-5z" stroke-width="3"></path><g id="node_text6" fill="black"><text id="kity_text_81" text-rendering="inherit" font-size="12" dy=".8em" y="23.70000272244215" x="444.5000095590949">.attributes.position</text></g></g><g id="minder_node6" opacity="1"><g id="node_expander6" style="cursor: pointer;" display="none"><path id="kity_path_124" fill="white" stroke="gray" d="M551.5000110641122,83.50000352412462A6,6,0,1,1,539.5000110641122,83.50000352412462A6,6,0,1,1,551.5000110641122,83.50000352412462"></path><path id="kity_path_125" fill="none" stroke="gray"></path></g><path id="node_outline7" fill="none" stroke="none" d="M556.5000113025308,72.50000352412462h84a5,5,0,0,1,5,5v12a5,5,0,0,1,-5,5h-84a5,5,0,0,1,-5,-5v-12a5,5,0,0,1,5,-5z" stroke-width="3"></path><g id="node_text7" fill="black"><text id="kity_text_83" text-rendering="inherit" font-size="12" dy=".8em" y="75.70000349730253" x="561.5000113025308">顶点颜色数据</text></g></g><g id="minder_node5"><g id="node_expander7" style="cursor: pointer;"><path id="kity_path_127" fill="white" stroke="gray" d="M434.5000093206763,83.50000352412462A6,6,0,1,1,422.5000093206763,83.50000352412462A6,6,0,1,1,434.5000093206763,83.50000352412462"></path><path id="kity_path_128" fill="none" stroke="gray" d="M424.0000093206763,83.50000352412462L433.0000093206763,83.50000352412462"></path></g><path id="node_outline8" fill="none" stroke="none" d="M439.5000095590949,72.50000352412462h100a5,5,0,0,1,5,5v12a5,5,0,0,1,-5,5h-100a5,5,0,0,1,-5,-5v-12a5,5,0,0,1,5,-5z" stroke-width="3"></path><g id="node_text8" fill="black"><text id="kity_text_85" text-rendering="inherit" font-size="12" dy=".8em" y="75.70000349730253" x="444.5000095590949">.attributes.color</text></g></g><g id="minder_node8" opacity="1"><g id="node_expander8" style="cursor: pointer;" display="none"><path id="kity_path_130" fill="white" stroke="gray" d="M563.5000112429261,135.500004298985A6,6,0,1,1,551.5000112429261,135.500004298985A6,6,0,1,1,563.5000112429261,135.500004298985"></path><path id="kity_path_131" fill="none" stroke="gray"></path></g><path id="node_outline9" fill="none" stroke="none" d="M568.5000114813447,124.500004298985h96a5,5,0,0,1,5,5v12a5,5,0,0,1,-5,5h-96a5,5,0,0,1,-5,-5v-12a5,5,0,0,1,5,-5z" stroke-width="3"></path><g id="node_text9" fill="black"><text id="kity_text_87" text-rendering="inherit" font-size="12" dy=".8em" y="127.70000427216291" x="573.5000114813447">顶点法向量数据</text></g></g><g id="minder_node7"><g id="node_expander9" style="cursor: pointer;"><path id="kity_path_133" fill="white" stroke="gray" d="M434.5000093206763,135.500004298985A6,6,0,1,1,422.5000093206763,135.500004298985A6,6,0,1,1,434.5000093206763,135.500004298985"></path><path id="kity_path_134" fill="none" stroke="gray" d="M424.0000093206763,135.500004298985L433.0000093206763,135.500004298985"></path></g><path id="node_outline10" fill="none" stroke="none" d="M439.5000095590949,124.500004298985h112a5,5,0,0,1,5,5v12a5,5,0,0,1,-5,5h-112a5,5,0,0,1,-5,-5v-12a5,5,0,0,1,5,-5z" stroke-width="3"></path><g id="node_text10" fill="black"><text id="kity_text_89" text-rendering="inherit" font-size="12" dy=".8em" y="127.70000427216291" x="444.5000095590949">.attributes.normal</text></g></g><g id="minder_node10" opacity="1"><g id="node_expander10" style="cursor: pointer;" display="none"><path id="kity_path_136" fill="white" stroke="gray" d="M537.5000108554959,187.5000050738454A6,6,0,1,1,525.5000108554959,187.5000050738454A6,6,0,1,1,537.5000108554959,187.5000050738454"></path><path id="kity_path_137" fill="none" stroke="gray"></path></g><path id="node_outline11" fill="none" stroke="none" d="M542.5000110939145,176.5000050738454h100a5,5,0,0,1,5,5v12a5,5,0,0,1,-5,5h-100a5,5,0,0,1,-5,-5v-12a5,5,0,0,1,5,-5z" stroke-width="3"></path><g id="node_text11" fill="black"><text id="kity_text_91" text-rendering="inherit" font-size="12" dy=".8em" y="179.7000050470233" x="547.5000110939145">纹理贴图UV坐标</text></g></g><g id="minder_node9"><g id="node_expander11" style="cursor: pointer;"><path id="kity_path_139" fill="white" stroke="gray" d="M434.5000093206763,187.5000050738454A6,6,0,1,1,422.5000093206763,187.5000050738454A6,6,0,1,1,434.5000093206763,187.5000050738454"></path><path id="kity_path_140" fill="none" stroke="gray" d="M424.0000093206763,187.5000050738454L433.0000093206763,187.5000050738454"></path></g><path id="node_outline12" fill="none" stroke="none" d="M439.5000095590949,176.5000050738454h86a5,5,0,0,1,5,5v12a5,5,0,0,1,-5,5h-86a5,5,0,0,1,-5,-5v-12a5,5,0,0,1,5,-5z" stroke-width="3"></path><g id="node_text12" fill="black"><text id="kity_text_93" text-rendering="inherit" font-size="12" dy=".8em" y="179.7000050470233" x="444.5000095590949">.attributes.uv</text></g></g><g id="minder_node12" opacity="1"><g id="node_expander12" style="cursor: pointer;" display="none"><path id="kity_path_142" fill="white" stroke="gray" d="M543.5000109449029,239.50000584870577A6,6,0,1,1,531.5000109449029,239.50000584870577A6,6,0,1,1,543.5000109449029,239.50000584870577"></path><path id="kity_path_143" fill="none" stroke="gray"></path></g><path id="node_outline13" fill="none" stroke="none" d="M548.5000111833215,228.50000584870577h160a5,5,0,0,1,5,5v12a5,5,0,0,1,-5,5h-160a5,5,0,0,1,-5,-5v-12a5,5,0,0,1,5,-5z" stroke-width="3"></path><g id="node_text13" fill="black"><text id="kity_text_95" text-rendering="inherit" font-size="12" dy=".8em" y="231.70000582188368" x="553.5000111833215">光照贴图lightMapUV2坐标</text></g></g><g id="minder_node11"><g id="node_expander13" style="cursor: pointer;"><path id="kity_path_145" fill="white" stroke="gray" d="M434.5000093206763,239.50000584870577A6,6,0,1,1,422.5000093206763,239.50000584870577A6,6,0,1,1,434.5000093206763,239.50000584870577"></path><path id="kity_path_146" fill="none" stroke="gray" d="M424.0000093206763,239.50000584870577L433.0000093206763,239.50000584870577"></path></g><path id="node_outline14" fill="none" stroke="none" d="M439.5000095590949,228.50000584870577h92a5,5,0,0,1,5,5v12a5,5,0,0,1,-5,5h-92a5,5,0,0,1,-5,-5v-12a5,5,0,0,1,5,-5z" stroke-width="3"></path><g id="node_text14" fill="black"><text id="kity_text_97" text-rendering="inherit" font-size="12" dy=".8em" y="231.70000582188368" x="444.5000095590949">.attributes.uv2</text></g></g><g id="minder_node14" opacity="1"><g id="node_expander14" style="cursor: pointer;" display="none"><path id="kity_path_148" fill="white" stroke="gray" d="M381.5000085309148,303.5000068023801A6,6,0,1,1,369.5000085309148,303.5000068023801A6,6,0,1,1,381.5000085309148,303.5000068023801"></path><path id="kity_path_149" fill="none" stroke="gray"></path></g><path id="node_outline15" fill="none" stroke="none" d="M386.50000876933336,292.5000068023801h84a5,5,0,0,1,5,5v12a5,5,0,0,1,-5,5h-84a5,5,0,0,1,-5,-5v-12a5,5,0,0,1,5,-5z" stroke-width="3"></path><g id="node_text15" fill="black"><text id="kity_text_99" text-rendering="inherit" font-size="12" dy=".8em" y="295.700006775558" x="391.50000876933336">顶点索引数据</text></g></g><g id="minder_node16" opacity="1"><g id="node_expander15" style="cursor: pointer;" display="none"><path id="kity_path_151" fill="white" stroke="gray" d="M507.5000104084611,372.5000078305602A6,6,0,1,1,495.5000104084611,372.5000078305602A6,6,0,1,1,507.5000104084611,372.5000078305602"></path><path id="kity_path_152" fill="none" stroke="gray"></path></g><path id="node_outline16" fill="none" stroke="none" d="M512.5000106468797,356.5000078305602h150a5,5,0,0,1,5,5v22a5,5,0,0,1,-5,5h-150a5,5,0,0,1,-5,-5v-22a5,5,0,0,1,5,-5z" stroke-width="3"></path><g id="node_text16" fill="black"><text id="kity_text_101" text-rendering="inherit" font-size="12" dy=".8em" y="364.7000078037381" x="517.5000106468797">BufferAttribute对象</text></g><a id="kity_a_102" xlink:href="http://www.yanhuangxueyuan.com/threejs/docs/index.html#api/zh/core/BufferAttribute" target="_blank" xlink:title="http://www.yanhuangxueyuan.com/threejs/docs/index.html#api/zh/core/BufferAttribute" style="cursor: pointer;"><path id="kity_path_104" fill="rgba(255, 255, 255, 0)" stroke="none" d="M637.5000124052167,361.5000077560544h16a4,4,0,0,1,4,4v14a4,4,0,0,1,-4,4h-16a4,4,0,0,1,-4,-4v-14a4,4,0,0,1,4,-4z"></path><path id="kity_path_103" fill="#666" stroke="none" d="M652.1140124052167,377.7240077560544h-1.278c-1.668,0,-3.07,-1.07,-3.599,-2.556h4.877c0.707,0,1.278,-0.571,1.278,-1.278V371.3340077560544c0,-0.707,-0.571,-1.278,-1.278,-1.278h-4.877C647.7660124052167,368.5710077560544,649.1680124052167,367.5000077560544,650.8360124052167,367.5000077560544h1.278c2.116,0,3.834,1.716,3.834,3.834V373.8900077560544C655.9480124052167,376.0080077560544,654.2300124052167,377.7240077560544,652.1140124052167,377.7240077560544zM640.6120124052167,372.6120077560544c0,-0.707,0.573,-1.278,1.278,-1.278h7.668c0.707,0,1.278,0.571,1.278,1.278S650.2650124052167,373.8900077560544,649.5580124052167,373.8900077560544H641.8900124052167C641.1850124052166,373.8900077560544,640.6120124052167,373.3190077560544,640.6120124052167,372.6120077560544zM638.0560124052167,371.3340077560544V373.8900077560544c0,0.707,0.573,1.278,1.278,1.278h4.877c-0.528,1.486,-1.932,2.556,-3.599,2.556H639.3340124052166C637.2160124052167,377.7240077560544,635.5000124052167,376.0080077560544,635.5000124052167,373.8900077560544V371.3340077560544C635.5000124052167,369.2160077560544,637.2160124052167,367.5000077560544,639.3340124052166,367.5000077560544h1.278c1.667,0,3.071,1.071,3.599,2.556H639.3340124052166C638.6290124052167,370.0560077560544,638.0560124052167,370.6270077560544,638.0560124052167,371.3340077560544z"></path></a></g></g></g></svg>