<svg id="kity_svg_6" xmlns="http://www.w3.org/2000/svg" xmlns:xlink="http://www.w3.org/1999/xlink" version="1.1" width="613" height="642" style="background: rgb(251, 251, 251); visibility: visible;" viewBox="0 0 613 642"><defs id="kity_defs_7"><linearGradient id="kity_linearGradient_17" x1="0" y1="0" x2="0" y2="1"><stop id="kity_stop_18" offset="0" stop-color="rgb(255, 255, 255)"></stop><stop id="kity_stop_19" offset="1" stop-color="rgb(204, 204, 204)"></stop></linearGradient><marker id="kity_marker_2" orient="auto" refX="6" refY="0" viewBox="-7 -7 14 14" markerWidth="7" markerHeight="7" markerUnits="userSpaceOnUse"><path id="kity_path_3" fill="rgb(115, 161, 191)" stroke="none" d="M6,0A6,6,0,1,1,-6,0A6,6,0,1,1,6,0"></path></marker></defs><g id="kity_g_8"><g id="minder1" text-rendering="optimize-speed"><g id="minder_connect_group1"><path id="kity_path_173" fill="none" stroke="rgb(115, 161, 191)" stroke-width="1" d="M97.00000777095556,312.50000666826963A92.5,278,0,0,1,189.50000777095556,34.500006668269634"></path><path id="kity_path_177" fill="none" stroke="rgb(115, 161, 191)" stroke-width="1" d="M97.00000777095556,312.50000666826963A92.5,203,0,0,1,189.50000777095556,109.50000666826963"></path><path id="kity_path_189" fill="none" stroke="rgb(115, 161, 191)" stroke-width="1" d="M97.00000777095556,312.50000666826963A92.5,22,0,0,0,189.50000777095556,334.50000666826963"></path><path id="kity_path_225" fill="none" stroke="rgb(115, 161, 191)" stroke-width="1" d="M97.00000777095556,312.50000666826963A92.5,216,0,0,0,189.50000777095556,528.5000066682696"></path><path id="kity_path_229" fill="none" stroke="rgb(115, 161, 191)" stroke-width="1" d="M97.00000777095556,312.50000666826963A92.5,278,0,0,0,189.50000777095556,590.5000066682696"></path><path id="kity_path_766" fill="none" stroke="rgb(115, 161, 191)" stroke-width="1" d="M273.50000777095556,34.500006668269634C281.50000777095556,34.500006668269634,281.50000777095556,34.500006668269634,289.50000777095556,34.500006668269634"></path><path id="kity_path_767" fill="none" stroke="rgb(115, 161, 191)" stroke-width="1" d="M273.50000777095556,109.50000666826963C281.50000777095556,109.50000666826963,281.50000777095556,73.50000666826963,289.50000777095556,73.50000666826963"></path><path id="kity_path_768" fill="none" stroke="rgb(115, 161, 191)" stroke-width="1" d="M428.50000777095556,104.50000666826963C436.50000777095556,104.50000666826963,436.50000777095556,104.50000666826963,444.50000777095556,104.50000666826963"></path><path id="kity_path_769" fill="none" stroke="rgb(115, 161, 191)" stroke-width="1" d="M273.50000777095556,109.50000666826963C281.50000777095556,109.50000666826963,281.50000777095556,104.50000666826963,289.50000777095556,104.50000666826963"></path><path id="kity_path_770" fill="none" stroke="rgb(115, 161, 191)" stroke-width="1" d="M442.50000777095556,140.50000666826963C450.50000777095556,140.50000666826963,450.50000777095556,140.50000666826963,458.50000777095556,140.50000666826963"></path><path id="kity_path_771" fill="none" stroke="rgb(115, 161, 191)" stroke-width="1" d="M273.50000777095556,109.50000666826963C281.50000777095556,109.50000666826963,281.50000777095556,140.50000666826963,289.50000777095556,140.50000666826963"></path><path id="kity_path_772" fill="none" stroke="rgb(115, 161, 191)" stroke-width="1" d="M287.50000777095556,334.50000666826963C295.50000777095556,334.50000666826963,295.50000777095556,179.50000666826963,303.50000777095556,179.50000666826963"></path><path id="kity_path_773" fill="none" stroke="rgb(115, 161, 191)" stroke-width="1" d="M450.50000777095556,210.50000666826963C458.50000777095556,210.50000666826963,458.50000777095556,210.50000666826963,466.50000777095556,210.50000666826963"></path><path id="kity_path_774" fill="none" stroke="rgb(115, 161, 191)" stroke-width="1" d="M287.50000777095556,334.50000666826963C295.50000777095556,334.50000666826963,295.50000777095556,210.50000666826963,303.50000777095556,210.50000666826963"></path><path id="kity_path_775" fill="none" stroke="rgb(115, 161, 191)" stroke-width="1" d="M468.50000777095556,254.50000666826963C476.50000777095556,254.50000666826963,476.50000777095556,241.50000666826963,484.50000777095556,241.50000666826963"></path><path id="kity_path_776" fill="none" stroke="rgb(115, 161, 191)" stroke-width="1" d="M468.50000777095556,254.50000666826963C476.50000777095556,254.50000666826963,476.50000777095556,267.50000666826963,484.50000777095556,267.50000666826963"></path><path id="kity_path_777" fill="none" stroke="rgb(115, 161, 191)" stroke-width="1" d="M287.50000777095556,334.50000666826963C295.50000777095556,334.50000666826963,295.50000777095556,254.50000666826963,303.50000777095556,254.50000666826963"></path><path id="kity_path_778" fill="none" stroke="rgb(115, 161, 191)" stroke-width="1" d="M458.50000777095556,306.50000666826963C466.50000777095556,306.50000666826963,466.50000777095556,293.50000666826963,474.50000777095556,293.50000666826963"></path><path id="kity_path_779" fill="none" stroke="rgb(115, 161, 191)" stroke-width="1" d="M458.50000777095556,306.50000666826963C466.50000777095556,306.50000666826963,466.50000777095556,319.50000666826963,474.50000777095556,319.50000666826963"></path><path id="kity_path_780" fill="none" stroke="rgb(115, 161, 191)" stroke-width="1" d="M287.50000777095556,334.50000666826963C295.50000777095556,334.50000666826963,295.50000777095556,306.50000666826963,303.50000777095556,306.50000666826963"></path><path id="kity_path_781" fill="none" stroke="rgb(115, 161, 191)" stroke-width="1" d="M360.50000777095556,381.50000666826963C368.50000777095556,381.50000666826963,368.50000777095556,350.50000666826963,376.50000777095556,350.50000666826963"></path><path id="kity_path_782" fill="none" stroke="rgb(115, 161, 191)" stroke-width="1" d="M360.50000777095556,381.50000666826963C368.50000777095556,381.50000666826963,368.50000777095556,386.50000666826963,376.50000777095556,386.50000666826963"></path><path id="kity_path_783" fill="none" stroke="rgb(115, 161, 191)" stroke-width="1" d="M360.50000777095556,381.50000666826963C368.50000777095556,381.50000666826963,368.50000777095556,417.50000666826963,376.50000777095556,417.50000666826963"></path><path id="kity_path_784" fill="none" stroke="rgb(115, 161, 191)" stroke-width="1" d="M287.50000777095556,334.50000666826963C295.50000777095556,334.50000666826963,295.50000777095556,381.50000666826963,303.50000777095556,381.50000666826963"></path><path id="kity_path_785" fill="none" stroke="rgb(115, 161, 191)" stroke-width="1" d="M456.50000777095556,448.50000666826963C453.00000777095556,448.50000666826963,453.00000777095556,449.50000666826963,449.50000777095556,449.50000666826963"></path><path id="kity_path_786" fill="none" stroke="rgb(115, 161, 191)" stroke-width="1" d="M287.50000777095556,334.50000666826963C295.50000777095556,334.50000666826963,295.50000777095556,448.50000666826963,303.50000777095556,448.50000666826963"></path><path id="kity_path_787" fill="none" stroke="rgb(115, 161, 191)" stroke-width="1" d="M464.50000777095556,484.50000666826963C472.50000777095556,484.50000666826963,472.50000777095556,484.50000666826963,480.50000777095556,484.50000666826963"></path><path id="kity_path_788" fill="none" stroke="rgb(115, 161, 191)" stroke-width="1" d="M287.50000777095556,334.50000666826963C295.50000777095556,334.50000666826963,295.50000777095556,484.50000666826963,303.50000777095556,484.50000666826963"></path><path id="kity_path_789" fill="none" stroke="rgb(115, 161, 191)" stroke-width="1" d="M327.50000777095556,528.5000066682696C335.50000777095556,528.5000066682696,335.50000777095556,528.5000066682696,343.50000777095556,528.5000066682696"></path><path id="kity_path_790" fill="none" stroke="rgb(115, 161, 191)" stroke-width="1" d="M343.50000777095556,590.5000066682696C351.50000777095556,590.5000066682696,351.50000777095556,572.5000066682696,359.50000777095556,572.5000066682696"></path><path id="kity_path_791" fill="none" stroke="rgb(115, 161, 191)" stroke-width="1" d="M343.50000777095556,590.5000066682696C351.50000777095556,590.5000066682696,351.50000777095556,608.5000066682696,359.50000777095556,608.5000066682696"></path></g><g id="minder_node1"><path id="kity_path_800" fill="rgba(0, 0, 0, .25)" stroke="none" d="M16.500007770955563,290.50000666826963h216a5,5,0,0,1,5,5v44a5,5,0,0,1,-5,5h-216a5,5,0,0,1,-5,-5v-44a5,5,0,0,1,5,-5z" display="none"></path><path id="node_outline1" fill="rgb(115, 161, 191)" stroke="rgb(115, 161, 191)" d="M25.500007770955563,295.50000666826963h143a5,5,0,0,1,5,5v24a5,5,0,0,1,-5,5h-143a5,5,0,0,1,-5,-5v-24a5,5,0,0,1,5,-5z" stroke-width="3"></path><g id="node_text1" fill="white"><text id="kity_text_22" text-rendering="inherit" font-size="16" dy=".8em" y="302.10000663250685" x="32.50000777095556">材质Material</text></g><a id="kity_a_792" xlink:href="http://www.yanhuangxueyuan.com/threejs/docs/index.html#api/zh/materials/Material" target="_blank" xlink:title="http://www.yanhuangxueyuan.com/threejs/docs/index.html#api/zh/materials/Material" style="cursor: pointer;"><path id="kity_path_794" fill="rgba(255, 255, 255, 0)" stroke="none" d="M141.5000093653798,301.5000065937638h16a4,4,0,0,1,4,4v14a4,4,0,0,1,-4,4h-16a4,4,0,0,1,-4,-4v-14a4,4,0,0,1,4,-4z"></path><path id="kity_path_793" fill="#666" stroke="none" d="M156.11400936537981,317.7240065937638h-1.278c-1.668,0,-3.07,-1.07,-3.599,-2.556h4.877c0.707,0,1.278,-0.571,1.278,-1.278V311.33400659376383c0,-0.707,-0.571,-1.278,-1.278,-1.278h-4.877C151.7660093653798,308.57100659376385,153.16800936537982,307.5000065937638,154.83600936537982,307.5000065937638h1.278c2.116,0,3.834,1.716,3.834,3.834V313.8900065937638C159.94800936537982,316.0080065937638,158.2300093653798,317.7240065937638,156.11400936537981,317.7240065937638zM144.6120093653798,312.61200659376385c0,-0.707,0.573,-1.278,1.278,-1.278h7.668c0.707,0,1.278,0.571,1.278,1.278S154.2650093653798,313.8900065937638,153.5580093653798,313.8900065937638H145.8900093653798C145.1850093653798,313.8900065937638,144.6120093653798,313.31900659376385,144.6120093653798,312.61200659376385zM142.05600936537982,311.33400659376383V313.8900065937638c0,0.707,0.573,1.278,1.278,1.278h4.877c-0.528,1.486,-1.932,2.556,-3.599,2.556H143.3340093653798C141.21600936537982,317.7240065937638,139.5000093653798,316.0080065937638,139.5000093653798,313.8900065937638V311.33400659376383C139.5000093653798,309.21600659376384,141.21600936537982,307.5000065937638,143.3340093653798,307.5000065937638h1.278c1.667,0,3.071,1.071,3.599,2.556H143.3340093653798C142.6290093653798,310.0560065937638,142.05600936537982,310.62700659376384,142.05600936537982,311.33400659376383z"></path></a></g><g id="kity_g_14" display="none"><path id="kity_path_15" fill="none" stroke="none" d="M32.50000777095556,312.50000666826963h0v0h0z"></path><path id="kity_path_16" fill="none" stroke="none"></path></g><g id="minder_node20" opacity="1"><path id="kity_path_795" fill="rgba(0, 0, 0, .25)" stroke="none" d="M200.50001043826342,25.500002525746822h78a5,5,0,0,1,5,5v18a5,5,0,0,1,-5,5h-78a5,5,0,0,1,-5,-5v-18a5,5,0,0,1,5,-5z" display="none"></path><g id="node_expander20" style="cursor: pointer;"><path id="kity_path_379" fill="white" stroke="gray" d="M190.50001003593206,34.50000252574682A6,6,0,1,1,178.50001003593206,34.50000252574682A6,6,0,1,1,190.50001003593206,34.50000252574682"></path><path id="kity_path_380" fill="none" stroke="gray" d="M180.00001003593206,34.50000252574682L189.00001003593206,34.50000252574682"></path></g><path id="node_outline21" fill="rgb(238, 243, 246)" stroke="rgb(115, 161, 191)" d="M194.50001043826342,21.500002525746822h76a3,3,0,0,1,3,3v20a3,3,0,0,1,-3,3h-76a3,3,0,0,1,-3,-3v-20a3,3,0,0,1,3,-3z" stroke-width="1"></path><g id="node_text21" fill="black"><text id="kity_text_246" text-rendering="inherit" font-size="14" dy=".8em" y="25.400002494454384" x="211.50001043826342">点材质</text></g></g><g id="minder_node22" opacity="1"><path id="kity_path_796" fill="rgba(0, 0, 0, .25)" stroke="none" d="M200.50001043826342,100.50000364333391h78a5,5,0,0,1,5,5v18a5,5,0,0,1,-5,5h-78a5,5,0,0,1,-5,-5v-18a5,5,0,0,1,5,-5z" display="none"></path><g id="node_expander26" style="cursor: pointer;"><path id="kity_path_397" fill="white" stroke="gray" d="M190.50001003593206,109.50000364333391A6,6,0,1,1,178.50001003593206,109.50000364333391A6,6,0,1,1,190.50001003593206,109.50000364333391"></path><path id="kity_path_398" fill="none" stroke="gray" d="M180.00001003593206,109.50000364333391L189.00001003593206,109.50000364333391"></path></g><path id="node_outline27" fill="rgb(238, 243, 246)" stroke="rgb(115, 161, 191)" d="M194.50001043826342,96.50000364333391h76a3,3,0,0,1,3,3v20a3,3,0,0,1,-3,3h-76a3,3,0,0,1,-3,-3v-20a3,3,0,0,1,3,-3z" stroke-width="1"></path><g id="node_text27" fill="black"><text id="kity_text_258" text-rendering="inherit" font-size="14" dy=".8em" y="100.40000361204147" x="211.50001043826342">线材质</text></g></g><g id="minder_node28" opacity="1"><path id="kity_path_797" fill="rgba(0, 0, 0, .25)" stroke="none" d="M200.50001043826342,325.5000069960952h94a5,5,0,0,1,5,5v18a5,5,0,0,1,-5,5h-94a5,5,0,0,1,-5,-5v-18a5,5,0,0,1,5,-5z" display="none"></path><g id="node_expander44" style="cursor: pointer;"><path id="kity_path_451" fill="white" stroke="gray" d="M190.50001003593206,334.5000069960952A6,6,0,1,1,178.50001003593206,334.5000069960952A6,6,0,1,1,190.50001003593206,334.5000069960952"></path><path id="kity_path_452" fill="none" stroke="gray" d="M180.00001003593206,334.5000069960952L189.00001003593206,334.5000069960952"></path></g><path id="node_outline45" fill="rgb(238, 243, 246)" stroke="rgb(115, 161, 191)" d="M194.50001043826342,321.5000069960952h90a3,3,0,0,1,3,3v20a3,3,0,0,1,-3,3h-90a3,3,0,0,1,-3,-3v-20a3,3,0,0,1,3,-3z" stroke-width="1"></path><g id="node_text45" fill="black"><text id="kity_text_294" text-rendering="inherit" font-size="14" dy=".8em" y="325.40000696480274" x="211.50001043826342">网格材质</text></g></g><g id="minder_node46" opacity="1"><path id="kity_path_798" fill="rgba(0, 0, 0, .25)" stroke="none" d="M200.50001043826342,519.5000098869205h140a5,5,0,0,1,5,5v18a5,5,0,0,1,-5,5h-140a5,5,0,0,1,-5,-5v-18a5,5,0,0,1,5,-5z" display="none"></path><g id="node_expander46" style="cursor: pointer;"><path id="kity_path_457" fill="white" stroke="gray" d="M190.50001003593206,528.5000098869205A6,6,0,1,1,178.50001003593206,528.5000098869205A6,6,0,1,1,190.50001003593206,528.5000098869205"></path><path id="kity_path_458" fill="none" stroke="gray" d="M180.00001003593206,528.5000098869205L189.00001003593206,528.5000098869205"></path></g><path id="node_outline47" fill="rgb(238, 243, 246)" stroke="rgb(115, 161, 191)" d="M194.50001043826342,515.5000098869205h130a3,3,0,0,1,3,3v20a3,3,0,0,1,-3,3h-130a3,3,0,0,1,-3,-3v-20a3,3,0,0,1,3,-3z" stroke-width="1"></path><g id="node_text47" fill="black"><text id="kity_text_298" text-rendering="inherit" font-size="14" dy=".8em" y="519.400009855628" x="211.50001043826342">精灵Sprite材质</text></g></g><g id="minder_node48" opacity="1"><path id="kity_path_799" fill="rgba(0, 0, 0, .25)" stroke="none" d="M200.50001043826342,581.5000108107924h158a5,5,0,0,1,5,5v18a5,5,0,0,1,-5,5h-158a5,5,0,0,1,-5,-5v-18a5,5,0,0,1,5,-5z" display="none"></path><g id="node_expander49" style="cursor: pointer;"><path id="kity_path_466" fill="white" stroke="gray" d="M190.50001003593206,590.5000108107924A6,6,0,1,1,178.50001003593206,590.5000108107924A6,6,0,1,1,190.50001003593206,590.5000108107924"></path><path id="kity_path_467" fill="none" stroke="gray" d="M180.00001003593206,590.5000108107924L189.00001003593206,590.5000108107924"></path></g><path id="node_outline50" fill="rgb(238, 243, 246)" stroke="rgb(115, 161, 191)" d="M194.50001043826342,577.5000108107924h146a3,3,0,0,1,3,3v20a3,3,0,0,1,-3,3h-146a3,3,0,0,1,-3,-3v-20a3,3,0,0,1,3,-3z" stroke-width="1"></path><g id="node_text50" fill="black"><text id="kity_text_304" text-rendering="inherit" font-size="14" dy=".8em" y="581.4000107795" x="211.50001043826342">自定义着色器材质</text></g></g><g id="kity_g_12" display="none"><path id="kity_path_13" fill="none" stroke="rgb(66, 94, 112)" d="M13.500007770955563,292.50000666826963h103a5,5,0,0,1,5,5v30a5,5,0,0,1,-5,5h-103a5,5,0,0,1,-5,-5v-30a5,5,0,0,1,5,-5z" stroke-width="5"></path></g><g id="minder_node21"><g id="node_expander19" style="cursor: pointer;" display="none"><path id="kity_path_376" fill="white" stroke="gray" d="M289.500011511147,34.50000252574682A6,6,0,1,1,277.500011511147,34.50000252574682A6,6,0,1,1,289.500011511147,34.50000252574682"></path><path id="kity_path_377" fill="none" stroke="gray"></path></g><path id="node_outline20" fill="none" stroke="none" d="M294.5000116750598,20.500002525746822h112a5,5,0,0,1,5,5v18a5,5,0,0,1,-5,5h-112a5,5,0,0,1,-5,-5v-18a5,5,0,0,1,5,-5z" stroke-width="3"></path><g id="node_text20" fill="black"><text id="kity_text_244" text-rendering="inherit" font-size="12" dy=".8em" y="26.700002498924732" x="294.5000116750598">PointsMaterial</text></g><a id="kity_a_305" xlink:href="http://www.yanhuangxueyuan.com/threejs/docs/index.html#api/zh/materials/PointsMaterial" target="_blank" xlink:title="http://www.yanhuangxueyuan.com/threejs/docs/index.html#api/zh/materials/PointsMaterial" style="cursor: pointer;"><path id="kity_path_307" fill="rgba(255, 255, 255, 0)" stroke="none" d="M386.5000130161643,23.500002451241016h16a4,4,0,0,1,4,4v14a4,4,0,0,1,-4,4h-16a4,4,0,0,1,-4,-4v-14a4,4,0,0,1,4,-4z"></path><path id="kity_path_306" fill="#666" stroke="none" d="M401.1140130161643,39.72400245124102h-1.278c-1.668,0,-3.07,-1.07,-3.599,-2.556h4.877c0.707,0,1.278,-0.571,1.278,-1.278V33.33400245124102c0,-0.707,-0.571,-1.278,-1.278,-1.278h-4.877C396.7660130161643,30.571002451241018,398.1680130161643,29.500002451241016,399.8360130161643,29.500002451241016h1.278c2.116,0,3.834,1.716,3.834,3.834V35.89000245124102C404.9480130161643,38.00800245124101,403.2300130161643,39.72400245124102,401.1140130161643,39.72400245124102zM389.6120130161643,34.61200245124102c0,-0.707,0.573,-1.278,1.278,-1.278h7.668c0.707,0,1.278,0.571,1.278,1.278S399.2650130161643,35.89000245124102,398.5580130161643,35.89000245124102H390.8900130161643C390.1850130161643,35.89000245124102,389.6120130161643,35.31900245124102,389.6120130161643,34.61200245124102zM387.0560130161643,33.33400245124102V35.89000245124102c0,0.707,0.573,1.278,1.278,1.278h4.877c-0.528,1.486,-1.932,2.556,-3.599,2.556H388.3340130161643C386.2160130161643,39.72400245124102,384.5000130161643,38.00800245124101,384.5000130161643,35.89000245124102V33.33400245124102C384.5000130161643,31.216002451241017,386.2160130161643,29.500002451241016,388.3340130161643,29.500002451241016h1.278c1.667,0,3.071,1.071,3.599,2.556H388.3340130161643C387.6290130161643,32.056002451241014,387.0560130161643,32.62700245124102,387.0560130161643,33.33400245124102z"></path></a></g><g id="minder_node23"><g id="node_expander21" style="cursor: pointer;" display="none"><path id="kity_path_382" fill="white" stroke="gray" d="M289.500011511147,73.50000310689211A6,6,0,1,1,277.500011511147,73.50000310689211A6,6,0,1,1,289.500011511147,73.50000310689211"></path><path id="kity_path_383" fill="none" stroke="gray"></path></g><path id="node_outline22" fill="none" stroke="none" d="M294.5000116750598,64.50000310689211h156a5,5,0,0,1,5,5v8a5,5,0,0,1,-5,5h-156a5,5,0,0,1,-5,-5v-8a5,5,0,0,1,5,-5z" stroke-width="3"></path><g id="node_text22" fill="black"><text id="kity_text_248" text-rendering="inherit" font-size="12" dy=".8em" y="65.70000308007002" x="294.5000116750598">构造函数首字母Line开头材质</text></g></g><g id="minder_node25"><g id="node_expander22" style="cursor: pointer;" display="none"><path id="kity_path_385" fill="white" stroke="gray" d="M444.500013820827,104.5000035688281A6,6,0,1,1,432.500013820827,104.5000035688281A6,6,0,1,1,444.500013820827,104.5000035688281"></path><path id="kity_path_386" fill="none" stroke="gray"></path></g><path id="node_outline23" fill="none" stroke="none" d="M449.5000139847398,95.5000035688281h61a5,5,0,0,1,5,5v8a5,5,0,0,1,-5,5h-61a5,5,0,0,1,-5,-5v-8a5,5,0,0,1,5,-5z" stroke-width="3"></path><g id="node_text23" fill="black"><text id="kity_text_250" text-rendering="inherit" font-size="12" dy=".8em" y="96.70000354200602" x="449.5000139847398">线基础材质</text></g></g><g id="minder_node24"><g id="node_expander23" style="cursor: pointer;"><path id="kity_path_388" fill="white" stroke="gray" d="M289.500011511147,104.5000035688281A6,6,0,1,1,277.500011511147,104.5000035688281A6,6,0,1,1,289.500011511147,104.5000035688281"></path><path id="kity_path_389" fill="none" stroke="gray" d="M279.000011511147,104.5000035688281L288.000011511147,104.5000035688281"></path></g><path id="node_outline24" fill="none" stroke="none" d="M294.5000116750598,90.5000035688281h129a5,5,0,0,1,5,5v18a5,5,0,0,1,-5,5h-129a5,5,0,0,1,-5,-5v-18a5,5,0,0,1,5,-5z" stroke-width="3"></path><g id="node_text24" fill="black"><text id="kity_text_252" text-rendering="inherit" font-size="12" dy=".8em" y="96.70000354200602" x="294.5000116750598">LineBasicMaterial</text></g><a id="kity_a_308" xlink:href="http://www.yanhuangxueyuan.com/threejs/docs/index.html#api/zh/materials/LineBasicMaterial" target="_blank" xlink:title="http://www.yanhuangxueyuan.com/threejs/docs/index.html#api/zh/materials/LineBasicMaterial" style="cursor: pointer;"><path id="kity_path_310" fill="rgba(255, 255, 255, 0)" stroke="none" d="M403.50001326948404,93.5000034943223h16a4,4,0,0,1,4,4v14a4,4,0,0,1,-4,4h-16a4,4,0,0,1,-4,-4v-14a4,4,0,0,1,4,-4z"></path><path id="kity_path_309" fill="#666" stroke="none" d="M418.114013269484,109.7240034943223h-1.278c-1.668,0,-3.07,-1.07,-3.599,-2.556h4.877c0.707,0,1.278,-0.571,1.278,-1.278V103.3340034943223c0,-0.707,-0.571,-1.278,-1.278,-1.278h-4.877C413.76601326948406,100.5710034943223,415.16801326948405,99.5000034943223,416.83601326948406,99.5000034943223h1.278c2.116,0,3.834,1.716,3.834,3.834V105.8900034943223C421.948013269484,108.0080034943223,420.23001326948406,109.7240034943223,418.114013269484,109.7240034943223zM406.61201326948407,104.6120034943223c0,-0.707,0.573,-1.278,1.278,-1.278h7.668c0.707,0,1.278,0.571,1.278,1.278S416.26501326948403,105.8900034943223,415.55801326948404,105.8900034943223H407.89001326948403C407.18501326948405,105.8900034943223,406.61201326948407,105.3190034943223,406.61201326948407,104.6120034943223zM404.056013269484,103.3340034943223V105.8900034943223c0,0.707,0.573,1.278,1.278,1.278h4.877c-0.528,1.486,-1.932,2.556,-3.599,2.556H405.33401326948405C403.21601326948405,109.7240034943223,401.50001326948404,108.0080034943223,401.50001326948404,105.8900034943223V103.3340034943223C401.50001326948404,101.2160034943223,403.21601326948405,99.5000034943223,405.33401326948405,99.5000034943223h1.278c1.667,0,3.071,1.071,3.599,2.556H405.33401326948405C404.62901326948406,102.0560034943223,404.056013269484,102.6270034943223,404.056013269484,103.3340034943223z"></path></a></g><g id="minder_node27"><g id="node_expander24" style="cursor: pointer;" display="none"><path id="kity_path_391" fill="white" stroke="gray" d="M458.50001402944326,140.5000041052699A6,6,0,1,1,446.50001402944326,140.5000041052699A6,6,0,1,1,458.50001402944326,140.5000041052699"></path><path id="kity_path_392" fill="none" stroke="gray"></path></g><path id="node_outline25" fill="none" stroke="none" d="M463.50001419335604,131.5000041052699h49a5,5,0,0,1,5,5v8a5,5,0,0,1,-5,5h-49a5,5,0,0,1,-5,-5v-8a5,5,0,0,1,5,-5z" stroke-width="3"></path><g id="node_text25" fill="black"><text id="kity_text_254" text-rendering="inherit" font-size="12" dy=".8em" y="132.70000407844782" x="463.50001419335604">虚线材质</text></g></g><g id="minder_node26"><g id="node_expander25" style="cursor: pointer;"><path id="kity_path_394" fill="white" stroke="gray" d="M289.500011511147,140.5000041052699A6,6,0,1,1,277.500011511147,140.5000041052699A6,6,0,1,1,289.500011511147,140.5000041052699"></path><path id="kity_path_395" fill="none" stroke="gray" d="M279.000011511147,140.5000041052699L288.000011511147,140.5000041052699"></path></g><path id="node_outline26" fill="none" stroke="none" d="M294.5000116750598,126.50000410526991h143a5,5,0,0,1,5,5v18a5,5,0,0,1,-5,5h-143a5,5,0,0,1,-5,-5v-18a5,5,0,0,1,5,-5z" stroke-width="3"></path><g id="node_text26" fill="black"><text id="kity_text_256" text-rendering="inherit" font-size="12" dy=".8em" y="132.70000407844782" x="294.5000116750598">LineDashedMaterial</text></g><a id="kity_a_311" xlink:href="http://www.yanhuangxueyuan.com/threejs/docs/index.html#api/zh/materials/LineDashedMaterial" target="_blank" xlink:title="http://www.yanhuangxueyuan.com/threejs/docs/index.html#api/zh/materials/LineDashedMaterial" style="cursor: pointer;"><path id="kity_path_313" fill="rgba(255, 255, 255, 0)" stroke="none" d="M417.5000134781003,129.5000040307641h16a4,4,0,0,1,4,4v14a4,4,0,0,1,-4,4h-16a4,4,0,0,1,-4,-4v-14a4,4,0,0,1,4,-4z"></path><path id="kity_path_312" fill="#666" stroke="none" d="M432.1140134781003,145.7240040307641h-1.278c-1.668,0,-3.07,-1.07,-3.599,-2.556h4.877c0.707,0,1.278,-0.571,1.278,-1.278V139.3340040307641c0,-0.707,-0.571,-1.278,-1.278,-1.278h-4.877C427.7660134781003,136.5710040307641,429.1680134781003,135.5000040307641,430.8360134781003,135.5000040307641h1.278c2.116,0,3.834,1.716,3.834,3.834V141.8900040307641C435.9480134781003,144.0080040307641,434.2300134781003,145.7240040307641,432.1140134781003,145.7240040307641zM420.6120134781003,140.6120040307641c0,-0.707,0.573,-1.278,1.278,-1.278h7.668c0.707,0,1.278,0.571,1.278,1.278S430.2650134781003,141.8900040307641,429.5580134781003,141.8900040307641H421.8900134781003C421.1850134781003,141.8900040307641,420.6120134781003,141.3190040307641,420.6120134781003,140.6120040307641zM418.0560134781003,139.3340040307641V141.8900040307641c0,0.707,0.573,1.278,1.278,1.278h4.877c-0.528,1.486,-1.932,2.556,-3.599,2.556H419.3340134781003C417.2160134781003,145.7240040307641,415.5000134781003,144.0080040307641,415.5000134781003,141.8900040307641V139.3340040307641C415.5000134781003,137.2160040307641,417.2160134781003,135.5000040307641,419.3340134781003,135.5000040307641h1.278c1.667,0,3.071,1.071,3.599,2.556H419.3340134781003C418.6290134781003,138.05600403076411,418.0560134781003,138.6270040307641,418.0560134781003,139.3340040307641z"></path></a></g><g id="minder_node29"><g id="node_expander27" style="cursor: pointer;" display="none"><path id="kity_path_400" fill="white" stroke="gray" d="M303.5000117197633,179.5000046864152A6,6,0,1,1,291.5000117197633,179.5000046864152A6,6,0,1,1,303.5000117197633,179.5000046864152"></path><path id="kity_path_401" fill="none" stroke="gray"></path></g><path id="node_outline28" fill="none" stroke="none" d="M308.50001188367605,170.5000046864152h164a5,5,0,0,1,5,5v8a5,5,0,0,1,-5,5h-164a5,5,0,0,1,-5,-5v-8a5,5,0,0,1,5,-5z" stroke-width="3"></path><g id="node_text28" fill="black"><text id="kity_text_260" text-rendering="inherit" font-size="12" dy=".8em" y="171.7000046595931" x="308.50001188367605">构造函数首字母Mesh开头材质</text></g></g><g id="minder_node31"><g id="node_expander28" style="cursor: pointer;" display="none"><path id="kity_path_403" fill="white" stroke="gray" d="M466.50001414865255,210.5000051483512A6,6,0,1,1,454.50001414865255,210.5000051483512A6,6,0,1,1,466.50001414865255,210.5000051483512"></path><path id="kity_path_404" fill="none" stroke="gray"></path></g><path id="node_outline29" fill="none" stroke="none" d="M471.5000143125653,201.5000051483512h72a5,5,0,0,1,5,5v8a5,5,0,0,1,-5,5h-72a5,5,0,0,1,-5,-5v-8a5,5,0,0,1,5,-5z" stroke-width="3"></path><g id="node_text29" fill="black"><text id="kity_text_262" text-rendering="inherit" font-size="12" dy=".8em" y="202.7000051215291" x="471.5000143125653">网格基础材质</text></g></g><g id="minder_node30"><g id="node_expander29" style="cursor: pointer;"><path id="kity_path_406" fill="white" stroke="gray" d="M303.5000117197633,210.5000051483512A6,6,0,1,1,291.5000117197633,210.5000051483512A6,6,0,1,1,303.5000117197633,210.5000051483512"></path><path id="kity_path_407" fill="none" stroke="gray" d="M293.0000117197633,210.5000051483512L302.0000117197633,210.5000051483512"></path></g><path id="node_outline30" fill="none" stroke="none" d="M308.50001188367605,196.5000051483512h137a5,5,0,0,1,5,5v18a5,5,0,0,1,-5,5h-137a5,5,0,0,1,-5,-5v-18a5,5,0,0,1,5,-5z" stroke-width="3"></path><g id="node_text30" fill="black"><text id="kity_text_264" text-rendering="inherit" font-size="12" dy=".8em" y="202.7000051215291" x="308.50001188367605">MeshBasicMaterial</text></g><a id="kity_a_314" xlink:href="http://www.yanhuangxueyuan.com/threejs/docs/index.html#api/zh/materials/MeshBasicMaterial" target="_blank" xlink:title="http://www.yanhuangxueyuan.com/threejs/docs/index.html#api/zh/materials/MeshBasicMaterial" style="cursor: pointer;"><path id="kity_path_316" fill="rgba(255, 255, 255, 0)" stroke="none" d="M425.5000135973096,199.5000050738454h16a4,4,0,0,1,4,4v14a4,4,0,0,1,-4,4h-16a4,4,0,0,1,-4,-4v-14a4,4,0,0,1,4,-4z"></path><path id="kity_path_315" fill="#666" stroke="none" d="M440.11401359730957,215.72400507384538h-1.278c-1.668,0,-3.07,-1.07,-3.599,-2.556h4.877c0.707,0,1.278,-0.571,1.278,-1.278V209.3340050738454c0,-0.707,-0.571,-1.278,-1.278,-1.278h-4.877C435.7660135973096,206.57100507384538,437.1680135973096,205.5000050738454,438.8360135973096,205.5000050738454h1.278c2.116,0,3.834,1.716,3.834,3.834V211.89000507384537C443.94801359730957,214.0080050738454,442.2300135973096,215.72400507384538,440.11401359730957,215.72400507384538zM428.6120135973096,210.61200507384538c0,-0.707,0.573,-1.278,1.278,-1.278h7.668c0.707,0,1.278,0.571,1.278,1.278S438.2650135973096,211.89000507384537,437.5580135973096,211.89000507384537H429.8900135973096C429.1850135973096,211.89000507384537,428.6120135973096,211.31900507384537,428.6120135973096,210.61200507384538zM426.0560135973096,209.3340050738454V211.89000507384537c0,0.707,0.573,1.278,1.278,1.278h4.877c-0.528,1.486,-1.932,2.556,-3.599,2.556H427.3340135973096C425.2160135973096,215.72400507384538,423.5000135973096,214.0080050738454,423.5000135973096,211.89000507384537V209.3340050738454C423.5000135973096,207.2160050738454,425.2160135973096,205.5000050738454,427.3340135973096,205.5000050738454h1.278c1.667,0,3.071,1.071,3.599,2.556H427.3340135973096C426.6290135973096,208.0560050738454,426.0560135973096,208.6270050738454,426.0560135973096,209.3340050738454z"></path></a></g><g id="minder_node33"><g id="node_expander30" style="cursor: pointer;" display="none"><path id="kity_path_409" fill="white" stroke="gray" d="M484.50001441687346,241.5000056102872A6,6,0,1,1,472.50001441687346,241.5000056102872A6,6,0,1,1,484.50001441687346,241.5000056102872"></path><path id="kity_path_410" fill="none" stroke="gray"></path></g><path id="node_outline31" fill="none" stroke="none" d="M489.5000145807862,232.5000056102872h96a5,5,0,0,1,5,5v8a5,5,0,0,1,-5,5h-96a5,5,0,0,1,-5,-5v-8a5,5,0,0,1,5,-5z" stroke-width="3"></path><g id="node_text31" fill="black"><text id="kity_text_266" text-rendering="inherit" font-size="12" dy=".8em" y="233.7000055834651" x="489.5000145807862">网格Lambert材质</text></g></g><g id="minder_node34"><g id="node_expander31" style="cursor: pointer;" display="none"><path id="kity_path_412" fill="white" stroke="gray" d="M484.50001441687346,267.5000059977174A6,6,0,1,1,472.50001441687346,267.5000059977174A6,6,0,1,1,484.50001441687346,267.5000059977174"></path><path id="kity_path_413" fill="none" stroke="gray"></path></g><path id="node_outline32" fill="none" stroke="none" d="M489.5000145807862,258.5000059977174h73a5,5,0,0,1,5,5v8a5,5,0,0,1,-5,5h-73a5,5,0,0,1,-5,-5v-8a5,5,0,0,1,5,-5z" stroke-width="3"></path><g id="node_text32" fill="black"><text id="kity_text_268" text-rendering="inherit" font-size="12" dy=".8em" y="259.7000059708953" x="489.5000145807862">暗淡、漫反射</text></g></g><g id="minder_node32"><g id="node_expander32" style="cursor: pointer;"><path id="kity_path_415" fill="white" stroke="gray" d="M303.5000117197633,254.50000580400229A6,6,0,1,1,291.5000117197633,254.50000580400229A6,6,0,1,1,303.5000117197633,254.50000580400229"></path><path id="kity_path_416" fill="none" stroke="gray" d="M293.0000117197633,254.50000580400229L302.0000117197633,254.50000580400229"></path></g><path id="node_outline33" fill="none" stroke="none" d="M308.50001188367605,240.50000580400229h155a5,5,0,0,1,5,5v18a5,5,0,0,1,-5,5h-155a5,5,0,0,1,-5,-5v-18a5,5,0,0,1,5,-5z" stroke-width="3"></path><g id="node_text33" fill="black"><text id="kity_text_270" text-rendering="inherit" font-size="12" dy=".8em" y="246.7000057771802" x="308.50001188367605">MeshLambertMaterial</text></g><a id="kity_a_317" xlink:href="http://www.yanhuangxueyuan.com/threejs/docs/index.html#api/zh/materials/MeshLambertMaterial" target="_blank" xlink:title="http://www.yanhuangxueyuan.com/threejs/docs/index.html#api/zh/materials/MeshLambertMaterial" style="cursor: pointer;"><path id="kity_path_319" fill="rgba(255, 255, 255, 0)" stroke="none" d="M443.5000138655305,243.50000572949648h16a4,4,0,0,1,4,4v14a4,4,0,0,1,-4,4h-16a4,4,0,0,1,-4,-4v-14a4,4,0,0,1,4,-4z"></path><path id="kity_path_318" fill="#666" stroke="none" d="M458.11401386553047,259.72400572949647h-1.278c-1.668,0,-3.07,-1.07,-3.599,-2.556h4.877c0.707,0,1.278,-0.571,1.278,-1.278V253.33400572949648c0,-0.707,-0.571,-1.278,-1.278,-1.278h-4.877C453.7660138655305,250.57100572949648,455.1680138655305,249.50000572949648,456.8360138655305,249.50000572949648h1.278c2.116,0,3.834,1.716,3.834,3.834V255.89000572949647C461.94801386553047,258.00800572949646,460.2300138655305,259.72400572949647,458.11401386553047,259.72400572949647zM446.6120138655305,254.61200572949647c0,-0.707,0.573,-1.278,1.278,-1.278h7.668c0.707,0,1.278,0.571,1.278,1.278S456.2650138655305,255.89000572949647,455.5580138655305,255.89000572949647H447.8900138655305C447.1850138655305,255.89000572949647,446.6120138655305,255.31900572949647,446.6120138655305,254.61200572949647zM444.0560138655305,253.33400572949648V255.89000572949647c0,0.707,0.573,1.278,1.278,1.278h4.877c-0.528,1.486,-1.932,2.556,-3.599,2.556H445.3340138655305C443.2160138655305,259.72400572949647,441.5000138655305,258.00800572949646,441.5000138655305,255.89000572949647V253.33400572949648C441.5000138655305,251.2160057294965,443.2160138655305,249.50000572949648,445.3340138655305,249.50000572949648h1.278c1.667,0,3.071,1.071,3.599,2.556H445.3340138655305C444.6290138655305,252.0560057294965,444.0560138655305,252.6270057294965,444.0560138655305,253.33400572949648z"></path></a></g><g id="minder_node36"><g id="node_expander33" style="cursor: pointer;" display="none"><path id="kity_path_418" fill="white" stroke="gray" d="M474.50001426786184,293.50000638514757A6,6,0,1,1,462.50001426786184,293.50000638514757A6,6,0,1,1,474.50001426786184,293.50000638514757"></path><path id="kity_path_419" fill="none" stroke="gray"></path></g><path id="node_outline34" fill="none" stroke="none" d="M479.5000144317746,284.50000638514757h85a5,5,0,0,1,5,5v8a5,5,0,0,1,-5,5h-85a5,5,0,0,1,-5,-5v-8a5,5,0,0,1,5,-5z" stroke-width="3"></path><g id="node_text34" fill="black"><text id="kity_text_272" text-rendering="inherit" font-size="12" dy=".8em" y="285.7000063583255" x="479.5000144317746">网格Phong材质</text></g></g><g id="minder_node37"><g id="node_expander34" style="cursor: pointer;" display="none"><path id="kity_path_421" fill="white" stroke="gray" d="M474.50001426786184,319.50000677257776A6,6,0,1,1,462.50001426786184,319.50000677257776A6,6,0,1,1,474.50001426786184,319.50000677257776"></path><path id="kity_path_422" fill="none" stroke="gray"></path></g><path id="node_outline35" fill="none" stroke="none" d="M479.5000144317746,310.50000677257776h109a5,5,0,0,1,5,5v8a5,5,0,0,1,-5,5h-109a5,5,0,0,1,-5,-5v-8a5,5,0,0,1,5,-5z" stroke-width="3"></path><g id="node_text35" fill="black"><text id="kity_text_274" text-rendering="inherit" font-size="12" dy=".8em" y="311.7000067457557" x="479.5000144317746">高亮表面、镜面反射</text></g></g><g id="minder_node35"><g id="node_expander35" style="cursor: pointer;"><path id="kity_path_424" fill="white" stroke="gray" d="M303.5000117197633,306.50000657886267A6,6,0,1,1,291.5000117197633,306.50000657886267A6,6,0,1,1,303.5000117197633,306.50000657886267"></path><path id="kity_path_425" fill="none" stroke="gray" d="M293.0000117197633,306.50000657886267L302.0000117197633,306.50000657886267"></path></g><path id="node_outline36" fill="none" stroke="none" d="M308.50001188367605,292.50000657886267h145a5,5,0,0,1,5,5v18a5,5,0,0,1,-5,5h-145a5,5,0,0,1,-5,-5v-18a5,5,0,0,1,5,-5z" stroke-width="3"></path><g id="node_text36" fill="black"><text id="kity_text_276" text-rendering="inherit" font-size="12" dy=".8em" y="298.7000065520406" x="308.50001188367605">MeshPhongMaterial</text></g><a id="kity_a_320" xlink:href="http://www.yanhuangxueyuan.com/threejs/docs/index.html#api/zh/materials/MeshPhongMaterial" target="_blank" xlink:title="http://www.yanhuangxueyuan.com/threejs/docs/index.html#api/zh/materials/MeshPhongMaterial" style="cursor: pointer;"><path id="kity_path_322" fill="rgba(255, 255, 255, 0)" stroke="none" d="M433.5000137165189,295.50000650435686h16a4,4,0,0,1,4,4v14a4,4,0,0,1,-4,4h-16a4,4,0,0,1,-4,-4v-14a4,4,0,0,1,4,-4z"></path><path id="kity_path_321" fill="#666" stroke="none" d="M448.11401371651885,311.72400650435685h-1.278c-1.668,0,-3.07,-1.07,-3.599,-2.556h4.877c0.707,0,1.278,-0.571,1.278,-1.278V305.33400650435686c0,-0.707,-0.571,-1.278,-1.278,-1.278h-4.877C443.7660137165189,302.5710065043569,445.1680137165189,301.50000650435686,446.8360137165189,301.50000650435686h1.278c2.116,0,3.834,1.716,3.834,3.834V307.89000650435685C451.94801371651886,310.00800650435684,450.2300137165189,311.72400650435685,448.11401371651885,311.72400650435685zM436.6120137165189,306.6120065043569c0,-0.707,0.573,-1.278,1.278,-1.278h7.668c0.707,0,1.278,0.571,1.278,1.278S446.26501371651887,307.89000650435685,445.5580137165189,307.89000650435685H437.89001371651887C437.1850137165189,307.89000650435685,436.6120137165189,307.3190065043569,436.6120137165189,306.6120065043569zM434.05601371651886,305.33400650435686V307.89000650435685c0,0.707,0.573,1.278,1.278,1.278h4.877c-0.528,1.486,-1.932,2.556,-3.599,2.556H435.3340137165189C433.2160137165189,311.72400650435685,431.5000137165189,310.00800650435684,431.5000137165189,307.89000650435685V305.33400650435686C431.5000137165189,303.21600650435687,433.2160137165189,301.50000650435686,435.3340137165189,301.50000650435686h1.278c1.667,0,3.071,1.071,3.599,2.556H435.3340137165189C434.6290137165189,304.05600650435684,434.05601371651886,304.62700650435687,434.05601371651886,305.33400650435686z"></path></a></g><g id="minder_node39"><g id="node_expander36" style="cursor: pointer;" display="none"><path id="kity_path_427" fill="white" stroke="gray" d="M376.50001280754805,350.50000723451376A6,6,0,1,1,364.50001280754805,350.50000723451376A6,6,0,1,1,376.50001280754805,350.50000723451376"></path><path id="kity_path_428" fill="none" stroke="gray"></path></g><path id="node_outline37" fill="none" stroke="none" d="M381.5000129714608,336.50000723451376h160a5,5,0,0,1,5,5v18a5,5,0,0,1,-5,5h-160a5,5,0,0,1,-5,-5v-18a5,5,0,0,1,5,-5z" stroke-width="3"></path><g id="node_text37" fill="black"><text id="kity_text_278" text-rendering="inherit" font-size="12" dy=".8em" y="342.70000720769167" x="381.5000129714608">MeshStandardMaterial</text></g><a id="kity_a_323" xlink:href="http://www.yanhuangxueyuan.com/threejs/docs/index.html#api/zh/materials/MeshStandardMaterial" target="_blank" xlink:title="http://www.yanhuangxueyuan.com/threejs/docs/index.html#api/zh/materials/MeshStandardMaterial" style="cursor: pointer;"><path id="kity_path_325" fill="rgba(255, 255, 255, 0)" stroke="none" d="M521.5000150278211,339.50000716000795h16a4,4,0,0,1,4,4v14a4,4,0,0,1,-4,4h-16a4,4,0,0,1,-4,-4v-14a4,4,0,0,1,4,-4z"></path><path id="kity_path_324" fill="#666" stroke="none" d="M536.1140150278211,355.72400716000794h-1.278c-1.668,0,-3.07,-1.07,-3.599,-2.556h4.877c0.707,0,1.278,-0.571,1.278,-1.278V349.33400716000796c0,-0.707,-0.571,-1.278,-1.278,-1.278h-4.877C531.766015027821,346.571007160008,533.1680150278211,345.50000716000795,534.8360150278211,345.50000716000795h1.278c2.116,0,3.834,1.716,3.834,3.834V351.89000716000794C539.948015027821,354.00800716000793,538.2300150278211,355.72400716000794,536.1140150278211,355.72400716000794zM524.612015027821,350.612007160008c0,-0.707,0.573,-1.278,1.278,-1.278h7.668c0.707,0,1.278,0.571,1.278,1.278S534.265015027821,351.89000716000794,533.558015027821,351.89000716000794H525.890015027821C525.185015027821,351.89000716000794,524.612015027821,351.31900716000797,524.612015027821,350.612007160008zM522.0560150278211,349.33400716000796V351.89000716000794c0,0.707,0.573,1.278,1.278,1.278h4.877c-0.528,1.486,-1.932,2.556,-3.599,2.556H523.334015027821C521.2160150278211,355.72400716000794,519.5000150278211,354.00800716000793,519.5000150278211,351.89000716000794V349.33400716000796C519.5000150278211,347.21600716000796,521.2160150278211,345.50000716000795,523.334015027821,345.50000716000795h1.278c1.667,0,3.071,1.071,3.599,2.556H523.334015027821C522.6290150278211,348.05600716000794,522.0560150278211,348.62700716000796,522.0560150278211,349.33400716000796z"></path></a></g><g id="minder_node40"><g id="node_expander37" style="cursor: pointer;" display="none"><path id="kity_path_430" fill="white" stroke="gray" d="M376.50001280754805,386.50000777095556A6,6,0,1,1,364.50001280754805,386.50000777095556A6,6,0,1,1,376.50001280754805,386.50000777095556"></path><path id="kity_path_431" fill="none" stroke="gray"></path></g><path id="node_outline38" fill="none" stroke="none" d="M381.5000129714608,372.50000777095556h153a5,5,0,0,1,5,5v18a5,5,0,0,1,-5,5h-153a5,5,0,0,1,-5,-5v-18a5,5,0,0,1,5,-5z" stroke-width="3"></path><g id="node_text38" fill="black"><text id="kity_text_280" text-rendering="inherit" font-size="12" dy=".8em" y="378.7000077441335" x="381.5000129714608">MeshPhysicalMaterial</text></g><a id="kity_a_326" xlink:href="http://www.yanhuangxueyuan.com/threejs/docs/index.html#api/zh/materials/MeshPhysicalMaterial" target="_blank" xlink:title="http://www.yanhuangxueyuan.com/threejs/docs/index.html#api/zh/materials/MeshPhysicalMaterial" style="cursor: pointer;"><path id="kity_path_328" fill="rgba(255, 255, 255, 0)" stroke="none" d="M514.5000149235129,375.50000769644976h16a4,4,0,0,1,4,4v14a4,4,0,0,1,-4,4h-16a4,4,0,0,1,-4,-4v-14a4,4,0,0,1,4,-4z"></path><path id="kity_path_327" fill="#666" stroke="none" d="M529.114014923513,391.72400769644975h-1.278c-1.668,0,-3.07,-1.07,-3.599,-2.556h4.877c0.707,0,1.278,-0.571,1.278,-1.278V385.33400769644976c0,-0.707,-0.571,-1.278,-1.278,-1.278h-4.877C524.7660149235129,382.5710076964498,526.1680149235129,381.50000769644976,527.836014923513,381.50000769644976h1.278c2.116,0,3.834,1.716,3.834,3.834V387.89000769644974C532.9480149235129,390.00800769644974,531.230014923513,391.72400769644975,529.114014923513,391.72400769644975zM517.6120149235129,386.6120076964498c0,-0.707,0.573,-1.278,1.278,-1.278h7.668c0.707,0,1.278,0.571,1.278,1.278S527.2650149235129,387.89000769644974,526.5580149235129,387.89000769644974H518.8900149235129C518.1850149235129,387.89000769644974,517.6120149235129,387.3190076964498,517.6120149235129,386.6120076964498zM515.056014923513,385.33400769644976V387.89000769644974c0,0.707,0.573,1.278,1.278,1.278h4.877c-0.528,1.486,-1.932,2.556,-3.599,2.556H516.3340149235129C514.216014923513,391.72400769644975,512.5000149235129,390.00800769644974,512.5000149235129,387.89000769644974V385.33400769644976C512.5000149235129,383.21600769644976,514.216014923513,381.50000769644976,516.3340149235129,381.50000769644976h1.278c1.667,0,3.071,1.071,3.599,2.556H516.3340149235129C515.629014923513,384.05600769644974,515.056014923513,384.62700769644977,515.056014923513,385.33400769644976z"></path></a></g><g id="minder_node41"><g id="node_expander38" style="cursor: pointer;" display="none"><path id="kity_path_433" fill="white" stroke="gray" d="M376.50001280754805,417.50000823289156A6,6,0,1,1,364.50001280754805,417.50000823289156A6,6,0,1,1,376.50001280754805,417.50000823289156"></path><path id="kity_path_434" fill="none" stroke="gray"></path></g><path id="node_outline39" fill="none" stroke="none" d="M381.5000129714608,408.50000823289156h177a5,5,0,0,1,5,5v8a5,5,0,0,1,-5,5h-177a5,5,0,0,1,-5,-5v-8a5,5,0,0,1,5,-5z" stroke-width="3"></path><g id="node_text39" fill="black"><text id="kity_text_282" text-rendering="inherit" font-size="12" dy=".8em" y="409.70000820606947" x="381.5000129714608">比MeshPhongMaterial效果更好</text></g></g><g id="minder_node38"><g id="node_expander39" style="cursor: pointer;"><path id="kity_path_436" fill="white" stroke="gray" d="M303.5000117197633,381.50000769644976A6,6,0,1,1,291.5000117197633,381.50000769644976A6,6,0,1,1,303.5000117197633,381.50000769644976"></path><path id="kity_path_437" fill="none" stroke="gray" d="M293.0000117197633,381.50000769644976L302.0000117197633,381.50000769644976"></path></g><path id="node_outline40" fill="none" stroke="none" d="M308.50001188367605,372.50000769644976h47a5,5,0,0,1,5,5v8a5,5,0,0,1,-5,5h-47a5,5,0,0,1,-5,-5v-8a5,5,0,0,1,5,-5z" stroke-width="3"></path><g id="node_text40" fill="black"><text id="kity_text_284" text-rendering="inherit" font-size="12" dy=".8em" y="373.70000766962767" x="308.50001188367605">PBR材质</text></g></g><g id="minder_node43"><g id="node_expander40" style="cursor: pointer;" display="none"><path id="kity_path_439" fill="white" stroke="gray" d="M449.5000138953328,449.5000087097287A6,6,0,1,1,437.5000138953328,449.5000087097287A6,6,0,1,1,449.5000138953328,449.5000087097287"></path><path id="kity_path_440" fill="none" stroke="gray"></path></g><path id="node_outline41" fill="none" stroke="none" d="M454.5000140592456,440.5000087097287h72a5,5,0,0,1,5,5v8a5,5,0,0,1,-5,5h-72a5,5,0,0,1,-5,-5v-8a5,5,0,0,1,5,-5z" stroke-width="3"></path><g id="node_text41" fill="black"><text id="kity_text_286" text-rendering="inherit" font-size="12" dy=".8em" y="441.7000086829066" x="454.5000140592456">网格深度材质</text></g></g><g id="minder_node42"><g id="node_expander41" style="cursor: pointer;"><path id="kity_path_442" fill="white" stroke="gray" d="M303.5000117197633,448.50000869482756A6,6,0,1,1,291.5000117197633,448.50000869482756A6,6,0,1,1,303.5000117197633,448.50000869482756"></path><path id="kity_path_443" fill="none" stroke="gray" d="M293.0000117197633,448.50000869482756L302.0000117197633,448.50000869482756"></path></g><path id="node_outline42" fill="none" stroke="none" d="M308.50001188367605,434.50000869482756h143a5,5,0,0,1,5,5v18a5,5,0,0,1,-5,5h-143a5,5,0,0,1,-5,-5v-18a5,5,0,0,1,5,-5z" stroke-width="3"></path><g id="node_text42" fill="black"><text id="kity_text_288" text-rendering="inherit" font-size="12" dy=".8em" y="440.70000866800547" x="308.50001188367605">MeshDepthMaterial</text></g><a id="kity_a_329" xlink:href="http://www.yanhuangxueyuan.com/threejs/docs/index.html#api/zh/materials/MeshDepthMaterial" target="_blank" xlink:title="http://www.yanhuangxueyuan.com/threejs/docs/index.html#api/zh/materials/MeshDepthMaterial" style="cursor: pointer;"><path id="kity_path_331" fill="rgba(255, 255, 255, 0)" stroke="none" d="M431.50001368671656,437.50000862032175h16a4,4,0,0,1,4,4v14a4,4,0,0,1,-4,4h-16a4,4,0,0,1,-4,-4v-14a4,4,0,0,1,4,-4z"></path><path id="kity_path_330" fill="#666" stroke="none" d="M446.11401368671653,453.72400862032174h-1.278c-1.668,0,-3.07,-1.07,-3.599,-2.556h4.877c0.707,0,1.278,-0.571,1.278,-1.278V447.33400862032175c0,-0.707,-0.571,-1.278,-1.278,-1.278h-4.877C441.7660136867166,444.5710086203218,443.16801368671656,443.50000862032175,444.83601368671657,443.50000862032175h1.278c2.116,0,3.834,1.716,3.834,3.834V449.89000862032174C449.94801368671654,452.00800862032173,448.2300136867166,453.72400862032174,446.11401368671653,453.72400862032174zM434.6120136867166,448.6120086203218c0,-0.707,0.573,-1.278,1.278,-1.278h7.668c0.707,0,1.278,0.571,1.278,1.278S444.26501368671654,449.89000862032174,443.55801368671655,449.89000862032174H435.89001368671654C435.18501368671656,449.89000862032174,434.6120136867166,449.31900862032177,434.6120136867166,448.6120086203218zM432.05601368671654,447.33400862032175V449.89000862032174c0,0.707,0.573,1.278,1.278,1.278h4.877c-0.528,1.486,-1.932,2.556,-3.599,2.556H433.33401368671656C431.21601368671656,453.72400862032174,429.50001368671656,452.00800862032173,429.50001368671656,449.89000862032174V447.33400862032175C429.50001368671656,445.21600862032176,431.21601368671656,443.50000862032175,433.33401368671656,443.50000862032175h1.278c1.667,0,3.071,1.071,3.599,2.556H433.33401368671656C432.6290136867166,446.05600862032173,432.05601368671654,446.62700862032176,432.05601368671654,447.33400862032175z"></path></a></g><g id="minder_node45"><g id="node_expander42" style="cursor: pointer;" display="none"><path id="kity_path_445" fill="white" stroke="gray" d="M480.5000143572688,484.50000923126936A6,6,0,1,1,468.5000143572688,484.50000923126936A6,6,0,1,1,480.5000143572688,484.50000923126936"></path><path id="kity_path_446" fill="none" stroke="gray"></path></g><path id="node_outline43" fill="none" stroke="none" d="M485.5000145211816,475.50000923126936h84a5,5,0,0,1,5,5v8a5,5,0,0,1,-5,5h-84a5,5,0,0,1,-5,-5v-8a5,5,0,0,1,5,-5z" stroke-width="3"></path><g id="node_text43" fill="black"><text id="kity_text_290" text-rendering="inherit" font-size="12" dy=".8em" y="476.70000920444727" x="485.5000145211816">网格法向量材质</text></g></g><g id="minder_node44"><g id="node_expander43" style="cursor: pointer;"><path id="kity_path_448" fill="white" stroke="gray" d="M303.5000117197633,484.50000923126936A6,6,0,1,1,291.5000117197633,484.50000923126936A6,6,0,1,1,303.5000117197633,484.50000923126936"></path><path id="kity_path_449" fill="none" stroke="gray" d="M293.0000117197633,484.50000923126936L302.0000117197633,484.50000923126936"></path></g><path id="node_outline44" fill="none" stroke="none" d="M308.50001188367605,470.50000923126936h151a5,5,0,0,1,5,5v18a5,5,0,0,1,-5,5h-151a5,5,0,0,1,-5,-5v-18a5,5,0,0,1,5,-5z" stroke-width="3"></path><g id="node_text44" fill="black"><text id="kity_text_292" text-rendering="inherit" font-size="12" dy=".8em" y="476.70000920444727" x="308.50001188367605">MeshNormalMaterial</text></g><a id="kity_a_332" xlink:href="http://www.yanhuangxueyuan.com/threejs/docs/index.html#api/zh/materials/MeshNormalMaterial" target="_blank" xlink:title="http://www.yanhuangxueyuan.com/threejs/docs/index.html#api/zh/materials/MeshNormalMaterial" style="cursor: pointer;"><path id="kity_path_334" fill="rgba(255, 255, 255, 0)" stroke="none" d="M439.50001380592585,473.50000915676355h16a4,4,0,0,1,4,4v14a4,4,0,0,1,-4,4h-16a4,4,0,0,1,-4,-4v-14a4,4,0,0,1,4,-4z"></path><path id="kity_path_333" fill="#666" stroke="none" d="M454.1140138059258,489.72400915676354h-1.278c-1.668,0,-3.07,-1.07,-3.599,-2.556h4.877c0.707,0,1.278,-0.571,1.278,-1.278V483.33400915676356c0,-0.707,-0.571,-1.278,-1.278,-1.278h-4.877C449.76601380592587,480.5710091567636,451.16801380592585,479.50000915676355,452.83601380592586,479.50000915676355h1.278c2.116,0,3.834,1.716,3.834,3.834V485.89000915676354C457.9480138059258,488.00800915676353,456.23001380592586,489.72400915676354,454.1140138059258,489.72400915676354zM442.61201380592587,484.6120091567636c0,-0.707,0.573,-1.278,1.278,-1.278h7.668c0.707,0,1.278,0.571,1.278,1.278S452.26501380592583,485.89000915676354,451.55801380592584,485.89000915676354H443.89001380592583C443.18501380592585,485.89000915676354,442.61201380592587,485.31900915676357,442.61201380592587,484.6120091567636zM440.05601380592583,483.33400915676356V485.89000915676354c0,0.707,0.573,1.278,1.278,1.278h4.877c-0.528,1.486,-1.932,2.556,-3.599,2.556H441.33401380592585C439.21601380592585,489.72400915676354,437.50001380592585,488.00800915676353,437.50001380592585,485.89000915676354V483.33400915676356C437.50001380592585,481.21600915676356,439.21601380592585,479.50000915676355,441.33401380592585,479.50000915676355h1.278c1.667,0,3.071,1.071,3.599,2.556H441.33401380592585C440.62901380592587,482.05600915676354,440.05601380592583,482.62700915676356,440.05601380592583,483.33400915676356z"></path></a></g><g id="minder_node47"><g id="node_expander45" style="cursor: pointer;" display="none"><path id="kity_path_454" fill="white" stroke="gray" d="M343.5000123158097,528.5000098869205A6,6,0,1,1,331.5000123158097,528.5000098869205A6,6,0,1,1,343.5000123158097,528.5000098869205"></path><path id="kity_path_455" fill="none" stroke="gray"></path></g><path id="node_outline46" fill="none" stroke="none" d="M348.5000124797225,514.5000098869205h110a5,5,0,0,1,5,5v18a5,5,0,0,1,-5,5h-110a5,5,0,0,1,-5,-5v-18a5,5,0,0,1,5,-5z" stroke-width="3"></path><g id="node_text46" fill="black"><text id="kity_text_296" text-rendering="inherit" font-size="12" dy=".8em" y="520.7000098600984" x="348.5000124797225">SpriteMaterial</text></g><a id="kity_a_335" xlink:href="http://www.yanhuangxueyuan.com/threejs/docs/index.html#api/zh/materials/SpriteMaterial" target="_blank" xlink:title="http://www.yanhuangxueyuan.com/threejs/docs/index.html#api/zh/materials/SpriteMaterial" style="cursor: pointer;"><path id="kity_path_337" fill="rgba(255, 255, 255, 0)" stroke="none" d="M438.5000137910247,517.5000098124146h16a4,4,0,0,1,4,4v14a4,4,0,0,1,-4,4h-16a4,4,0,0,1,-4,-4v-14a4,4,0,0,1,4,-4z"></path><path id="kity_path_336" fill="#666" stroke="none" d="M453.11401379102466,533.7240098124147h-1.278c-1.668,0,-3.07,-1.07,-3.599,-2.556h4.877c0.707,0,1.278,-0.571,1.278,-1.278V527.3340098124146c0,-0.707,-0.571,-1.278,-1.278,-1.278h-4.877C448.7660137910247,524.5710098124147,450.1680137910247,523.5000098124146,451.8360137910247,523.5000098124146h1.278c2.116,0,3.834,1.716,3.834,3.834V529.8900098124146C456.94801379102466,532.0080098124147,455.2300137910247,533.7240098124147,453.11401379102466,533.7240098124147zM441.6120137910247,528.6120098124146c0,-0.707,0.573,-1.278,1.278,-1.278h7.668c0.707,0,1.278,0.571,1.278,1.278S451.26501379102467,529.8900098124146,450.5580137910247,529.8900098124146H442.89001379102467C442.1850137910247,529.8900098124146,441.6120137910247,529.3190098124146,441.6120137910247,528.6120098124146zM439.05601379102467,527.3340098124146V529.8900098124146c0,0.707,0.573,1.278,1.278,1.278h4.877c-0.528,1.486,-1.932,2.556,-3.599,2.556H440.3340137910247C438.2160137910247,533.7240098124147,436.5000137910247,532.0080098124147,436.5000137910247,529.8900098124146V527.3340098124146C436.5000137910247,525.2160098124147,438.2160137910247,523.5000098124146,440.3340137910247,523.5000098124146h1.278c1.667,0,3.071,1.071,3.599,2.556H440.3340137910247C439.6290137910247,526.0560098124147,439.05601379102467,526.6270098124146,439.05601379102467,527.3340098124146z"></path></a></g><g id="minder_node49"><g id="node_expander47" style="cursor: pointer;" display="none"><path id="kity_path_460" fill="white" stroke="gray" d="M359.5000125542283,572.5000105425715A6,6,0,1,1,347.5000125542283,572.5000105425715A6,6,0,1,1,359.5000125542283,572.5000105425715"></path><path id="kity_path_461" fill="none" stroke="gray"></path></g><path id="node_outline48" fill="none" stroke="none" d="M364.5000127181411,558.5000105425715h140a5,5,0,0,1,5,5v18a5,5,0,0,1,-5,5h-140a5,5,0,0,1,-5,-5v-18a5,5,0,0,1,5,-5z" stroke-width="3"></path><g id="node_text48" fill="black"><text id="kity_text_300" text-rendering="inherit" font-size="12" dy=".8em" y="564.7000105157495" x="364.5000127181411">RawShaderMaterial</text></g><a id="kity_a_338" xlink:href="http://www.yanhuangxueyuan.com/threejs/docs/index.html#api/zh/materials/RawShaderMaterial" target="_blank" xlink:title="http://www.yanhuangxueyuan.com/threejs/docs/index.html#api/zh/materials/RawShaderMaterial" style="cursor: pointer;"><path id="kity_path_340" fill="rgba(255, 255, 255, 0)" stroke="none" d="M484.5000144764781,561.5000104680657h16a4,4,0,0,1,4,4v14a4,4,0,0,1,-4,4h-16a4,4,0,0,1,-4,-4v-14a4,4,0,0,1,4,-4z"></path><path id="kity_path_339" fill="#666" stroke="none" d="M499.1140144764781,577.7240104680658h-1.278c-1.668,0,-3.07,-1.07,-3.599,-2.556h4.877c0.707,0,1.278,-0.571,1.278,-1.278V571.3340104680657c0,-0.707,-0.571,-1.278,-1.278,-1.278h-4.877C494.7660144764781,568.5710104680658,496.1680144764781,567.5000104680657,497.8360144764781,567.5000104680657h1.278c2.116,0,3.834,1.716,3.834,3.834V573.8900104680657C502.9480144764781,576.0080104680658,501.2300144764781,577.7240104680658,499.1140144764781,577.7240104680658zM487.6120144764781,572.6120104680657c0,-0.707,0.573,-1.278,1.278,-1.278h7.668c0.707,0,1.278,0.571,1.278,1.278S497.2650144764781,573.8900104680657,496.5580144764781,573.8900104680657H488.8900144764781C488.1850144764781,573.8900104680657,487.6120144764781,573.3190104680657,487.6120144764781,572.6120104680657zM485.0560144764781,571.3340104680657V573.8900104680657c0,0.707,0.573,1.278,1.278,1.278h4.877c-0.528,1.486,-1.932,2.556,-3.599,2.556H486.3340144764781C484.2160144764781,577.7240104680658,482.5000144764781,576.0080104680658,482.5000144764781,573.8900104680657V571.3340104680657C482.5000144764781,569.2160104680657,484.2160144764781,567.5000104680657,486.3340144764781,567.5000104680657h1.278c1.667,0,3.071,1.071,3.599,2.556H486.3340144764781C485.6290144764781,570.0560104680658,485.0560144764781,570.6270104680657,485.0560144764781,571.3340104680657z"></path></a></g><g id="minder_node50"><g id="node_expander48" style="cursor: pointer;" display="none"><path id="kity_path_463" fill="white" stroke="gray" d="M359.5000125542283,608.5000110790133A6,6,0,1,1,347.5000125542283,608.5000110790133A6,6,0,1,1,359.5000125542283,608.5000110790133"></path><path id="kity_path_464" fill="none" stroke="gray"></path></g><path id="node_outline49" fill="none" stroke="none" d="M364.5000127181411,594.5000110790133h116a5,5,0,0,1,5,5v18a5,5,0,0,1,-5,5h-116a5,5,0,0,1,-5,-5v-18a5,5,0,0,1,5,-5z" stroke-width="3"></path><g id="node_text49" fill="black"><text id="kity_text_302" text-rendering="inherit" font-size="12" dy=".8em" y="600.7000110521913" x="364.5000127181411">ShaderMaterial</text></g><a id="kity_a_341" xlink:href="http://www.yanhuangxueyuan.com/threejs/docs/index.html#api/zh/materials/ShaderMaterial" target="_blank" xlink:title="http://www.yanhuangxueyuan.com/threejs/docs/index.html#api/zh/materials/ShaderMaterial" style="cursor: pointer;"><path id="kity_path_343" fill="rgba(255, 255, 255, 0)" stroke="none" d="M460.50001411885023,597.5000110045075h16a4,4,0,0,1,4,4v14a4,4,0,0,1,-4,4h-16a4,4,0,0,1,-4,-4v-14a4,4,0,0,1,4,-4z"></path><path id="kity_path_342" fill="#666" stroke="none" d="M475.1140141188502,613.7240110045076h-1.278c-1.668,0,-3.07,-1.07,-3.599,-2.556h4.877c0.707,0,1.278,-0.571,1.278,-1.278V607.3340110045075c0,-0.707,-0.571,-1.278,-1.278,-1.278h-4.877C470.76601411885025,604.5710110045076,472.16801411885024,603.5000110045075,473.83601411885024,603.5000110045075h1.278c2.116,0,3.834,1.716,3.834,3.834V609.8900110045075C478.9480141188502,612.0080110045076,477.23001411885025,613.7240110045076,475.1140141188502,613.7240110045076zM463.61201411885025,608.6120110045075c0,-0.707,0.573,-1.278,1.278,-1.278h7.668c0.707,0,1.278,0.571,1.278,1.278S473.2650141188502,609.8900110045075,472.5580141188502,609.8900110045075H464.8900141188502C464.18501411885023,609.8900110045075,463.61201411885025,609.3190110045075,463.61201411885025,608.6120110045075zM461.0560141188502,607.3340110045075V609.8900110045075c0,0.707,0.573,1.278,1.278,1.278h4.877c-0.528,1.486,-1.932,2.556,-3.599,2.556H462.33401411885023C460.21601411885024,613.7240110045076,458.50001411885023,612.0080110045076,458.50001411885023,609.8900110045075V607.3340110045075C458.50001411885023,605.2160110045075,460.21601411885024,603.5000110045075,462.33401411885023,603.5000110045075h1.278c1.667,0,3.071,1.071,3.599,2.556H462.33401411885023C461.62901411885025,606.0560110045076,461.0560141188502,606.6270110045075,461.0560141188502,607.3340110045075z"></path></a></g></g></g></svg>