<svg id="kity_svg_6" xmlns="http://www.w3.org/2000/svg" xmlns:xlink="http://www.w3.org/1999/xlink" version="1.1" width="553" height="330" style="background: rgb(251, 251, 251); visibility: visible;" viewBox="0 0 553 330"><defs id="kity_defs_7"><linearGradient id="kity_linearGradient_17" x1="0" y1="0" x2="0" y2="1"><stop id="kity_stop_18" offset="0" stop-color="rgb(255, 255, 255)"></stop><stop id="kity_stop_19" offset="1" stop-color="rgb(204, 204, 204)"></stop></linearGradient><marker id="kity_marker_2" orient="auto" refX="6" refY="0" viewBox="-7 -7 14 14" markerWidth="7" markerHeight="7" markerUnits="userSpaceOnUse"><path id="kity_path_3" fill="rgb(115, 161, 191)" stroke="none" d="M6,0A6,6,0,1,1,-6,0A6,6,0,1,1,6,0"></path></marker></defs><g id="kity_g_8"><g id="minder1" text-rendering="optimize-speed"><g id="minder_connect_group1"><path id="kity_path_707" fill="none" stroke="rgb(115, 161, 191)" stroke-width="1" d="M151.50000359863043,165.5000069513917A161,132,0,0,1,312.5000035986304,33.5000069513917"></path><path id="kity_path_711" fill="none" stroke="rgb(115, 161, 191)" stroke-width="1" d="M151.50000359863043,165.5000069513917A161,66,0,0,1,312.5000035986304,99.5000069513917"></path><path id="kity_path_715" fill="none" stroke="rgb(115, 161, 191)" stroke-width="1" d="M151.50000359863043,165.5000069513917A161,0,0,0,1,312.5000035986304,165.5000069513917"></path><path id="kity_path_719" fill="none" stroke="rgb(115, 161, 191)" stroke-width="1" d="M151.50000359863043,165.5000069513917A161,66,0,0,0,312.5000035986304,231.5000069513917"></path><path id="kity_path_723" fill="none" stroke="rgb(115, 161, 191)" stroke-width="1" d="M151.50000359863043,165.5000069513917A161,132,0,0,0,312.5000035986304,297.5000069513917"></path><path id="kity_path_786" fill="none" stroke="rgb(115, 161, 191)" stroke-width="1" d="M400.5000035986304,33.5000069513917C420.5000035986304,33.5000069513917,420.5000035986304,33.5000069513917,440.5000035986304,33.5000069513917"></path><path id="kity_path_787" fill="none" stroke="rgb(115, 161, 191)" stroke-width="1" d="M425.5000035986304,99.5000069513917C445.5000035986304,99.5000069513917,445.5000035986304,99.5000069513917,465.5000035986304,99.5000069513917"></path><path id="kity_path_788" fill="none" stroke="rgb(115, 161, 191)" stroke-width="1" d="M416.5000035986304,165.5000069513917C436.5000035986304,165.5000069513917,436.5000035986304,165.5000069513917,456.5000035986304,165.5000069513917"></path><path id="kity_path_789" fill="none" stroke="rgb(115, 161, 191)" stroke-width="1" d="M416.5000035986304,231.5000069513917C436.5000035986304,231.5000069513917,436.5000035986304,231.5000069513917,456.5000035986304,231.5000069513917"></path><path id="kity_path_790" fill="none" stroke="rgb(115, 161, 191)" stroke-width="1" d="M416.5000035986304,297.5000069513917C436.5000035986304,297.5000069513917,436.5000035986304,297.5000069513917,456.5000035986304,297.5000069513917"></path></g><g id="minder_node1"><path id="node_outline1" fill="rgb(115, 161, 191)" stroke="rgb(115, 161, 191)" d="M25.50000359863043,145.5000069513917h252a5,5,0,0,1,5,5v30a5,5,0,0,1,-5,5h-252a5,5,0,0,1,-5,-5v-30a5,5,0,0,1,5,-5z" stroke-width="3"></path><g id="node_text1" fill="white"><text id="kity_text_22" text-rendering="inherit" font-size="16" dy=".8em" y="155.1000069156289" x="44.50000359863043">Geometry、BufferGeometry</text></g><a id="kity_a_302" xlink:href="http://www.yanhuangxueyuan.com/threejs/docs/index.html#api/zh/core/Geometry" target="_blank" xlink:title="http://www.yanhuangxueyuan.com/threejs/docs/index.html#api/zh/core/Geometry" style="cursor: pointer;" display="none"><path id="kity_path_304" fill="rgba(255, 255, 255, 0)" stroke="none" d="M46.50000359863043,159.5000069513917h16a4,4,0,0,1,4,4v14a4,4,0,0,1,-4,4h-16a4,4,0,0,1,-4,-4v-14a4,4,0,0,1,4,-4z"></path><path id="kity_path_303" fill="#666" stroke="none" d="M61.11400359863043,175.7240069513917h-1.278c-1.668,0,-3.07,-1.07,-3.599,-2.556h4.877c0.707,0,1.278,-0.571,1.278,-1.278V169.3340069513917c0,-0.707,-0.571,-1.278,-1.278,-1.278h-4.877C56.76600359863043,166.5710069513917,58.16800359863043,165.5000069513917,59.83600359863043,165.5000069513917h1.278c2.116,0,3.834,1.716,3.834,3.834V171.89000695139168C64.94800359863044,174.0080069513917,63.23000359863043,175.7240069513917,61.11400359863043,175.7240069513917zM49.61200359863043,170.6120069513917c0,-0.707,0.573,-1.278,1.278,-1.278h7.668c0.707,0,1.278,0.571,1.278,1.278S59.26500359863043,171.89000695139168,58.55800359863043,171.89000695139168H50.89000359863043C50.18500359863043,171.89000695139168,49.61200359863043,171.31900695139169,49.61200359863043,170.6120069513917zM47.056003598630426,169.3340069513917V171.89000695139168c0,0.707,0.573,1.278,1.278,1.278h4.877c-0.528,1.486,-1.932,2.556,-3.599,2.556H48.33400359863043C46.21600359863043,175.7240069513917,44.50000359863043,174.0080069513917,44.50000359863043,171.89000695139168V169.3340069513917C44.50000359863043,167.2160069513917,46.21600359863043,165.5000069513917,48.33400359863043,165.5000069513917h1.278c1.667,0,3.071,1.071,3.599,2.556H48.33400359863043C47.629003598630426,168.0560069513917,47.056003598630426,168.6270069513917,47.056003598630426,169.3340069513917z"></path></a></g><g id="kity_g_14" display="none"><path id="kity_path_15" fill="rgba(0, 92, 153, 0.5)" stroke="none" d="M192.50000359863043,292.5000069513917h142v20h-142z"></path><path id="kity_path_16" fill="none" stroke="rgb(0, 76, 128)" d="M192.50000359863043,292.5000069513917L334.5000035986304,292.5000069513917" stroke-width="1"></path></g><g id="kity_g_12" display="none"><path id="kity_path_13" fill="none" stroke="rgb(66, 94, 112)" d="M195.50000359863043,261.5000069513917h136a3,3,0,0,1,3,3v20a3,3,0,0,1,-3,3h-136a3,3,0,0,1,-3,-3v-20a3,3,0,0,1,3,-3z" stroke-width="5"></path></g><g id="minder_node69" opacity="1"><g id="node_expander72" style="cursor: pointer;"><path id="kity_path_754" fill="white" stroke="gray" d="M313.5000075176358,33.50000498443842A6,6,0,1,1,301.5000075176358,33.50000498443842A6,6,0,1,1,313.5000075176358,33.50000498443842"></path><path id="kity_path_755" fill="none" stroke="gray" d="M303.0000075176358,33.50000498443842L312.0000075176358,33.50000498443842"></path></g><path id="node_outline73" fill="rgb(238, 243, 246)" stroke="rgb(115, 161, 191)" d="M317.5000079199672,20.50000498443842h80a3,3,0,0,1,3,3v20a3,3,0,0,1,-3,3h-80a3,3,0,0,1,-3,-3v-20a3,3,0,0,1,3,-3z" stroke-width="1"></path><g id="node_text73" fill="black"><text id="kity_text_751" text-rendering="inherit" font-size="14" dy=".8em" y="24.40000495314598" x="334.5000079199672">.scale()</text></g></g><g id="minder_node71" opacity="1"><g id="node_expander71" style="cursor: pointer;"><path id="kity_path_748" fill="white" stroke="gray" d="M313.5000075176358,99.50000596791506A6,6,0,1,1,301.5000075176358,99.50000596791506A6,6,0,1,1,313.5000075176358,99.50000596791506"></path><path id="kity_path_749" fill="none" stroke="gray" d="M303.0000075176358,99.50000596791506L312.0000075176358,99.50000596791506"></path></g><path id="node_outline72" fill="rgb(238, 243, 246)" stroke="rgb(115, 161, 191)" d="M317.5000079199672,86.50000596791506h105a3,3,0,0,1,3,3v20a3,3,0,0,1,-3,3h-105a3,3,0,0,1,-3,-3v-20a3,3,0,0,1,3,-3z" stroke-width="1"></path><g id="node_text72" fill="black"><text id="kity_text_745" text-rendering="inherit" font-size="14" dy=".8em" y="90.40000593662262" x="334.5000079199672">.translate()</text></g></g><g id="minder_node73" opacity="1"><g id="node_expander70" style="cursor: pointer;"><path id="kity_path_742" fill="white" stroke="gray" d="M313.5000075176358,165.5000069513917A6,6,0,1,1,301.5000075176358,165.5000069513917A6,6,0,1,1,313.5000075176358,165.5000069513917"></path><path id="kity_path_743" fill="none" stroke="gray" d="M303.0000075176358,165.5000069513917L312.0000075176358,165.5000069513917"></path></g><path id="node_outline71" fill="rgb(238, 243, 246)" stroke="rgb(115, 161, 191)" d="M317.5000079199672,152.5000069513917h96a3,3,0,0,1,3,3v20a3,3,0,0,1,-3,3h-96a3,3,0,0,1,-3,-3v-20a3,3,0,0,1,3,-3z" stroke-width="1"></path><g id="node_text71" fill="black"><text id="kity_text_739" text-rendering="inherit" font-size="14" dy=".8em" y="156.40000692009926" x="334.5000079199672">.rotateX()</text></g></g><g id="minder_node75" opacity="1"><g id="node_expander69" style="cursor: pointer;"><path id="kity_path_736" fill="white" stroke="gray" d="M313.5000075176358,231.50000793486834A6,6,0,1,1,301.5000075176358,231.50000793486834A6,6,0,1,1,313.5000075176358,231.50000793486834"></path><path id="kity_path_737" fill="none" stroke="gray" d="M303.0000075176358,231.50000793486834L312.0000075176358,231.50000793486834"></path></g><path id="node_outline70" fill="rgb(238, 243, 246)" stroke="rgb(115, 161, 191)" d="M317.5000079199672,218.50000793486834h96a3,3,0,0,1,3,3v20a3,3,0,0,1,-3,3h-96a3,3,0,0,1,-3,-3v-20a3,3,0,0,1,3,-3z" stroke-width="1"></path><g id="node_text70" fill="black"><text id="kity_text_733" text-rendering="inherit" font-size="14" dy=".8em" y="222.4000079035759" x="334.5000079199672">.rotateY()</text></g></g><g id="minder_node77" opacity="1"><g id="node_expander68" style="cursor: pointer;"><path id="kity_path_730" fill="white" stroke="gray" d="M313.5000075176358,297.500008918345A6,6,0,1,1,301.5000075176358,297.500008918345A6,6,0,1,1,313.5000075176358,297.500008918345"></path><path id="kity_path_731" fill="none" stroke="gray" d="M303.0000075176358,297.500008918345L312.0000075176358,297.500008918345"></path></g><path id="node_outline69" fill="rgb(238, 243, 246)" stroke="rgb(115, 161, 191)" d="M317.5000079199672,284.500008918345h96a3,3,0,0,1,3,3v20a3,3,0,0,1,-3,3h-96a3,3,0,0,1,-3,-3v-20a3,3,0,0,1,3,-3z" stroke-width="1"></path><g id="node_text69" fill="black"><text id="kity_text_727" text-rendering="inherit" font-size="14" dy=".8em" y="288.40000888705254" x="334.5000079199672">.rotateZ()</text></g></g><g id="minder_node70"><g id="node_expander73" style="cursor: pointer;" display="none"><path id="kity_path_772" fill="white" stroke="gray" d="M440.5000094100833,33.50000498443842A6,6,0,1,1,428.5000094100833,33.50000498443842A6,6,0,1,1,440.5000094100833,33.50000498443842"></path><path id="kity_path_773" fill="none" stroke="gray"></path></g><path id="node_outline74" fill="none" stroke="none" d="M445.5000096485019,22.50000498443842h36a5,5,0,0,1,5,5v12a5,5,0,0,1,-5,5h-36a5,5,0,0,1,-5,-5v-12a5,5,0,0,1,5,-5z" stroke-width="3"></path><g id="node_text74" fill="black"><text id="kity_text_757" text-rendering="inherit" font-size="12" dy=".8em" y="25.70000495761633" x="450.5000096485019">缩放</text></g></g><g id="minder_node72"><g id="node_expander74" style="cursor: pointer;" display="none"><path id="kity_path_775" fill="white" stroke="gray" d="M465.5000097826123,99.50000596791506A6,6,0,1,1,453.5000097826123,99.50000596791506A6,6,0,1,1,465.5000097826123,99.50000596791506"></path><path id="kity_path_776" fill="none" stroke="gray"></path></g><path id="node_outline75" fill="none" stroke="none" d="M470.5000100210309,88.50000596791506h34a5,5,0,0,1,5,5v12a5,5,0,0,1,-5,5h-34a5,5,0,0,1,-5,-5v-12a5,5,0,0,1,5,-5z" stroke-width="3"></path><g id="node_text75" fill="black"><text id="kity_text_759" text-rendering="inherit" font-size="12" dy=".8em" y="91.70000594109297" x="475.5000100210309">平移</text></g></g><g id="minder_node74"><g id="node_expander75" style="cursor: pointer;" display="none"><path id="kity_path_778" fill="white" stroke="gray" d="M456.5000096485019,165.5000069513917A6,6,0,1,1,444.5000096485019,165.5000069513917A6,6,0,1,1,456.5000096485019,165.5000069513917"></path><path id="kity_path_779" fill="none" stroke="gray"></path></g><path id="node_outline76" fill="none" stroke="none" d="M461.50000988692045,154.5000069513917h67a5,5,0,0,1,5,5v12a5,5,0,0,1,-5,5h-67a5,5,0,0,1,-5,-5v-12a5,5,0,0,1,5,-5z" stroke-width="3"></path><g id="node_text76" fill="black"><text id="kity_text_761" text-rendering="inherit" font-size="12" dy=".8em" y="157.7000069245696" x="466.50000988692045">绕X轴旋转</text></g></g><g id="minder_node76"><g id="node_expander76" style="cursor: pointer;" display="none"><path id="kity_path_781" fill="white" stroke="gray" d="M456.5000096485019,231.50000793486834A6,6,0,1,1,444.5000096485019,231.50000793486834A6,6,0,1,1,456.5000096485019,231.50000793486834"></path><path id="kity_path_782" fill="none" stroke="gray"></path></g><path id="node_outline77" fill="none" stroke="none" d="M461.50000988692045,220.50000793486834h67a5,5,0,0,1,5,5v12a5,5,0,0,1,-5,5h-67a5,5,0,0,1,-5,-5v-12a5,5,0,0,1,5,-5z" stroke-width="3"></path><g id="node_text77" fill="black"><text id="kity_text_763" text-rendering="inherit" font-size="12" dy=".8em" y="223.70000790804625" x="466.50000988692045">绕Y轴旋转</text></g></g><g id="minder_node78"><g id="node_expander77" style="cursor: pointer;" display="none"><path id="kity_path_784" fill="white" stroke="gray" d="M456.5000096485019,297.500008918345A6,6,0,1,1,444.5000096485019,297.500008918345A6,6,0,1,1,456.5000096485019,297.500008918345"></path><path id="kity_path_785" fill="none" stroke="gray"></path></g><path id="node_outline78" fill="none" stroke="none" d="M461.50000988692045,286.500008918345h67a5,5,0,0,1,5,5v12a5,5,0,0,1,-5,5h-67a5,5,0,0,1,-5,-5v-12a5,5,0,0,1,5,-5z" stroke-width="3"></path><g id="node_text78" fill="black"><text id="kity_text_765" text-rendering="inherit" font-size="12" dy=".8em" y="289.7000088915229" x="466.50000988692045">绕Z轴旋转</text></g></g></g></g></svg>