<svg id="kity_svg_6" xmlns="http://www.w3.org/2000/svg" xmlns:xlink="http://www.w3.org/1999/xlink" version="1.1" width="823" height="570" style="background: rgb(251, 251, 251); visibility: visible;" viewBox="0 0 823 570"><defs id="kity_defs_7"><linearGradient id="kity_linearGradient_17" x1="0" y1="0" x2="0" y2="1"><stop id="kity_stop_18" offset="0" stop-color="rgb(255, 255, 255)"></stop><stop id="kity_stop_19" offset="1" stop-color="rgb(204, 204, 204)"></stop></linearGradient><marker id="kity_marker_2" orient="auto" refX="6" refY="0" viewBox="-7 -7 14 14" markerWidth="7" markerHeight="7" markerUnits="userSpaceOnUse"><path id="kity_path_3" fill="rgb(115, 161, 191)" stroke="none" d="M6,0A6,6,0,1,1,-6,0A6,6,0,1,1,6,0"></path></marker></defs><g id="kity_g_8"><g id="minder1" text-rendering="optimize-speed"><g id="minder_connect_group1"><path id="kity_path_174" fill="none" stroke="rgb(115, 161, 191)" stroke-width="1" d="M77.50000513345003,260.5000057891011A72,190,0,0,1,149.50000513345003,70.50000578910112"></path><path id="kity_path_184" fill="none" stroke="rgb(115, 161, 191)" stroke-width="1" d="M77.50000513345003,260.5000057891011A72,2,0,0,0,149.50000513345003,262.5000057891011"></path><path id="kity_path_202" fill="none" stroke="rgb(115, 161, 191)" stroke-width="1" d="M77.50000513345003,260.5000057891011A72,188,0,0,0,149.50000513345003,448.5000057891011"></path><path id="kity_path_424" fill="none" stroke="rgb(115, 161, 191)" stroke-width="1" d="M385.50000513345003,70.50000578910112C405.50000513345003,70.50000578910112,405.50000513345003,31.500005789101124,425.50000513345003,31.500005789101124"></path><path id="kity_path_425" fill="none" stroke="rgb(115, 161, 191)" stroke-width="1" d="M507.50000513345003,109.50000578910112C527.50000513345,109.50000578910112,527.50000513345,83.50000578910112,547.50000513345,83.50000578910112"></path><path id="kity_path_426" fill="none" stroke="rgb(115, 161, 191)" stroke-width="1" d="M507.50000513345003,109.50000578910112C527.50000513345,109.50000578910112,527.50000513345,135.50000578910112,547.50000513345,135.50000578910112"></path><path id="kity_path_427" fill="none" stroke="rgb(115, 161, 191)" stroke-width="1" d="M385.50000513345003,70.50000578910112C405.50000513345003,70.50000578910112,405.50000513345003,109.50000578910112,425.50000513345003,109.50000578910112"></path><path id="kity_path_428" fill="none" stroke="rgb(115, 161, 191)" stroke-width="1" d="M491.50000513345003,197.50000578910112C511.50000513345003,197.50000578910112,511.50000513345003,197.50000578910112,531.50000513345,197.50000578910112"></path><path id="kity_path_429" fill="none" stroke="rgb(115, 161, 191)" stroke-width="1" d="M393.50000513345003,223.50000578910112C413.50000513345003,223.50000578910112,413.50000513345003,197.50000578910112,433.50000513345003,197.50000578910112"></path><path id="kity_path_430" fill="none" stroke="rgb(115, 161, 191)" stroke-width="1" d="M620.50000513345,249.50000578910112C640.50000513345,249.50000578910112,640.50000513345,249.50000578910112,660.50000513345,249.50000578910112"></path><path id="kity_path_431" fill="none" stroke="rgb(115, 161, 191)" stroke-width="1" d="M502.50000513345003,249.50000578910112C522.50000513345,249.50000578910112,522.50000513345,249.50000578910112,542.50000513345,249.50000578910112"></path><path id="kity_path_432" fill="none" stroke="rgb(115, 161, 191)" stroke-width="1" d="M393.50000513345003,223.50000578910112C413.50000513345003,223.50000578910112,413.50000513345003,249.50000578910112,433.50000513345003,249.50000578910112"></path><path id="kity_path_433" fill="none" stroke="rgb(115, 161, 191)" stroke-width="1" d="M260.50000513345003,262.5000057891011C280.50000513345003,262.5000057891011,280.50000513345003,223.50000578910112,300.50000513345003,223.50000578910112"></path><path id="kity_path_434" fill="none" stroke="rgb(115, 161, 191)" stroke-width="1" d="M393.50000513345003,301.5000057891011C413.50000513345003,301.5000057891011,413.50000513345003,301.5000057891011,433.50000513345003,301.5000057891011"></path><path id="kity_path_435" fill="none" stroke="rgb(115, 161, 191)" stroke-width="1" d="M260.50000513345003,262.5000057891011C280.50000513345003,262.5000057891011,280.50000513345003,301.5000057891011,300.50000513345003,301.5000057891011"></path><path id="kity_path_436" fill="none" stroke="rgb(115, 161, 191)" stroke-width="1" d="M485.50000513345003,389.5000057891011C505.50000513345003,389.5000057891011,505.50000513345003,363.5000057891011,525.50000513345,363.5000057891011"></path><path id="kity_path_437" fill="none" stroke="rgb(115, 161, 191)" stroke-width="1" d="M485.50000513345003,389.5000057891011C505.50000513345003,389.5000057891011,505.50000513345003,415.5000057891011,525.50000513345,415.5000057891011"></path><path id="kity_path_438" fill="none" stroke="rgb(115, 161, 191)" stroke-width="1" d="M255.50000513345003,448.5000057891011C275.50000513345003,448.5000057891011,275.50000513345003,389.5000057891011,295.50000513345003,389.5000057891011"></path><path id="kity_path_439" fill="none" stroke="rgb(115, 161, 191)" stroke-width="1" d="M641.50000513345,472.5000057891011C661.50000513345,472.5000057891011,661.50000513345,472.5000057891011,681.50000513345,472.5000057891011"></path><path id="kity_path_440" fill="none" stroke="rgb(115, 161, 191)" stroke-width="1" d="M526.50000513345,503.5000057891011C546.50000513345,503.5000057891011,546.50000513345,472.5000057891011,566.50000513345,472.5000057891011"></path><path id="kity_path_441" fill="none" stroke="rgb(115, 161, 191)" stroke-width="1" d="M526.50000513345,503.5000057891011C546.50000513345,503.5000057891011,546.50000513345,534.5000057891011,566.50000513345,534.5000057891011"></path><path id="kity_path_442" fill="none" stroke="rgb(115, 161, 191)" stroke-width="1" d="M378.50000513345003,503.5000057891011C398.50000513345003,503.5000057891011,398.50000513345003,503.5000057891011,418.50000513345003,503.5000057891011"></path><path id="kity_path_443" fill="none" stroke="rgb(115, 161, 191)" stroke-width="1" d="M255.50000513345003,448.5000057891011C275.50000513345003,448.5000057891011,275.50000513345003,503.5000057891011,295.50000513345003,503.5000057891011"></path></g><g id="minder_node1"><path id="node_outline1" fill="rgb(115, 161, 191)" stroke="rgb(115, 161, 191)" d="M25.50000513345003,240.50000578910112h104a5,5,0,0,1,5,5v30a5,5,0,0,1,-5,5h-104a5,5,0,0,1,-5,-5v-30a5,5,0,0,1,5,-5z" stroke-width="3"></path><g id="node_text1" fill="white"><text id="kity_text_22" text-rendering="inherit" font-size="16" dy=".8em" y="250.10000575333834" x="44.50000513345003">轮廓生成</text></g></g><g id="kity_g_14" display="none"><path id="kity_path_15" fill="none" stroke="none" d="M44.50000513345003,260.5000057891011h0v0h0z"></path><path id="kity_path_16" fill="none" stroke="none"></path></g><g id="minder_node18" opacity="1"><g id="node_expander21" style="cursor: pointer;"><path id="kity_path_328" fill="white" stroke="gray" d="M150.50000662356615,70.5000029578805A6,6,0,1,1,138.50000662356615,70.5000029578805A6,6,0,1,1,150.50000662356615,70.5000029578805"></path><path id="kity_path_329" fill="none" stroke="gray" d="M140.00000662356615,70.5000029578805L149.00000662356615,70.5000029578805"></path></g><path id="node_outline22" fill="rgb(238, 243, 246)" stroke="rgb(115, 161, 191)" d="M154.5000070258975,53.5000029578805h228a3,3,0,0,1,3,3v28a3,3,0,0,1,-3,3h-228a3,3,0,0,1,-3,-3v-28a3,3,0,0,1,3,-3z" stroke-width="1"></path><g id="node_text22" fill="black"><text id="kity_text_234" text-rendering="inherit" font-size="14" dy=".8em" y="61.40000292658806" x="171.5000070258975">轮廓填充ShapeGeometry</text></g><a id="kity_a_271" xlink:href="http://www.yanhuangxueyuan.com/threejs/docs/index.html#api/zh/geometries/ShapeGeometry" target="_blank" xlink:title="http://www.yanhuangxueyuan.com/threejs/docs/index.html#api/zh/geometries/ShapeGeometry" style="cursor: pointer;"><path id="kity_path_273" fill="rgba(255, 255, 255, 0)" stroke="none" d="M345.5000095888972,59.50000288337469h16a4,4,0,0,1,4,4v14a4,4,0,0,1,-4,4h-16a4,4,0,0,1,-4,-4v-14a4,4,0,0,1,4,-4z"></path><path id="kity_path_272" fill="#666" stroke="none" d="M360.1140095888972,75.7240028833747h-1.278c-1.668,0,-3.07,-1.07,-3.599,-2.556h4.877c0.707,0,1.278,-0.571,1.278,-1.278V69.3340028833747c0,-0.707,-0.571,-1.278,-1.278,-1.278h-4.877C355.76600958889725,66.57100288337469,357.16800958889723,65.50000288337469,358.83600958889724,65.50000288337469h1.278c2.116,0,3.834,1.716,3.834,3.834V71.89000288337469C363.9480095888972,74.00800288337469,362.23000958889725,75.7240028833747,360.1140095888972,75.7240028833747zM348.61200958889725,70.61200288337469c0,-0.707,0.573,-1.278,1.278,-1.278h7.668c0.707,0,1.278,0.571,1.278,1.278S358.2650095888972,71.89000288337469,357.5580095888972,71.89000288337469H349.8900095888972C349.18500958889723,71.89000288337469,348.61200958889725,71.3190028833747,348.61200958889725,70.61200288337469zM346.0560095888972,69.3340028833747V71.89000288337469c0,0.707,0.573,1.278,1.278,1.278h4.877c-0.528,1.486,-1.932,2.556,-3.599,2.556H347.33400958889723C345.21600958889724,75.7240028833747,343.5000095888972,74.00800288337469,343.5000095888972,71.89000288337469V69.3340028833747C343.5000095888972,67.21600288337468,345.21600958889724,65.50000288337469,347.33400958889723,65.50000288337469h1.278c1.667,0,3.071,1.071,3.599,2.556H347.33400958889723C346.62900958889725,68.05600288337469,346.0560095888972,68.62700288337469,346.0560095888972,69.3340028833747z"></path></a></g><g id="minder_node23" opacity="1"><g id="node_expander30" style="cursor: pointer;"><path id="kity_path_355" fill="white" stroke="gray" d="M150.50000662356615,262.50000581890345A6,6,0,1,1,138.50000662356615,262.50000581890345A6,6,0,1,1,150.50000662356615,262.50000581890345"></path><path id="kity_path_356" fill="none" stroke="gray" d="M140.00000662356615,262.50000581890345L149.00000662356615,262.50000581890345"></path></g><path id="node_outline31" fill="rgb(238, 243, 246)" stroke="rgb(115, 161, 191)" d="M154.5000070258975,245.50000581890345h103a3,3,0,0,1,3,3v28a3,3,0,0,1,-3,3h-103a3,3,0,0,1,-3,-3v-28a3,3,0,0,1,3,-3z" stroke-width="1"></path><g id="node_text31" fill="black"><text id="kity_text_252" text-rendering="inherit" font-size="14" dy=".8em" y="253.400005787611" x="171.5000070258975">shape</text></g><a id="kity_a_274" xlink:href="http://www.yanhuangxueyuan.com/threejs/docs/index.html#api/zh/extras/core/Shape" target="_blank" xlink:title="http://www.yanhuangxueyuan.com/threejs/docs/index.html#api/zh/extras/core/Shape" style="cursor: pointer;"><path id="kity_path_276" fill="rgba(255, 255, 255, 0)" stroke="none" d="M220.50000772625208,251.50000574439764h16a4,4,0,0,1,4,4v14a4,4,0,0,1,-4,4h-16a4,4,0,0,1,-4,-4v-14a4,4,0,0,1,4,-4z"></path><path id="kity_path_275" fill="#666" stroke="none" d="M235.11400772625208,267.72400574439763h-1.278c-1.668,0,-3.07,-1.07,-3.599,-2.556h4.877c0.707,0,1.278,-0.571,1.278,-1.278V261.33400574439764c0,-0.707,-0.571,-1.278,-1.278,-1.278h-4.877C230.76600772625207,258.57100574439767,232.16800772625209,257.50000574439764,233.8360077262521,257.50000574439764h1.278c2.116,0,3.834,1.716,3.834,3.834V263.8900057443976C238.9480077262521,266.0080057443976,237.23000772625207,267.72400574439763,235.11400772625208,267.72400574439763zM223.61200772625207,262.61200574439766c0,-0.707,0.573,-1.278,1.278,-1.278h7.668c0.707,0,1.278,0.571,1.278,1.278S233.26500772625207,263.8900057443976,232.55800772625207,263.8900057443976H224.89000772625207C224.18500772625208,263.8900057443976,223.61200772625207,263.31900574439766,223.61200772625207,262.61200574439766zM221.0560077262521,261.33400574439764V263.8900057443976c0,0.707,0.573,1.278,1.278,1.278h4.877c-0.528,1.486,-1.932,2.556,-3.599,2.556H222.33400772625208C220.2160077262521,267.72400574439763,218.50000772625208,266.0080057443976,218.50000772625208,263.8900057443976V261.33400574439764C218.50000772625208,259.21600574439765,220.2160077262521,257.50000574439764,222.33400772625208,257.50000574439764h1.278c1.667,0,3.071,1.071,3.599,2.556H222.33400772625208C221.62900772625207,260.0560057443976,221.0560077262521,260.62700574439765,221.0560077262521,261.33400574439764z"></path></a></g><g id="minder_node32" opacity="1"><g id="node_expander39" style="cursor: pointer;"><path id="kity_path_382" fill="white" stroke="gray" d="M150.50000662356615,448.5000085905194A6,6,0,1,1,138.50000662356615,448.5000085905194A6,6,0,1,1,150.50000662356615,448.5000085905194"></path><path id="kity_path_383" fill="none" stroke="gray" d="M140.00000662356615,448.5000085905194L149.00000662356615,448.5000085905194"></path></g><path id="node_outline40" fill="rgb(238, 243, 246)" stroke="rgb(115, 161, 191)" d="M154.5000070258975,435.5000085905194h98a3,3,0,0,1,3,3v20a3,3,0,0,1,-3,3h-98a3,3,0,0,1,-3,-3v-20a3,3,0,0,1,3,-3z" stroke-width="1"></path><g id="node_text40" fill="black"><text id="kity_text_270" text-rendering="inherit" font-size="14" dy=".8em" y="439.400008559227" x="171.5000070258975">基类-子类</text></g></g><g id="kity_g_12" display="none"><path id="kity_path_13" fill="none" stroke="rgb(66, 94, 112)" d="M25.50000513345003,240.50000578910112h182a5,5,0,0,1,5,5v30a5,5,0,0,1,-5,5h-182a5,5,0,0,1,-5,-5v-30a5,5,0,0,1,5,-5z" stroke-width="5"></path></g><g id="minder_node19"><g id="node_expander17" style="cursor: pointer;" display="none"><path id="kity_path_316" fill="white" stroke="gray" d="M425.5000107213855,31.50000237673521A6,6,0,1,1,413.5000107213855,31.50000237673521A6,6,0,1,1,425.5000107213855,31.50000237673521"></path><path id="kity_path_317" fill="none" stroke="gray"></path></g><path id="node_outline18" fill="none" stroke="none" d="M430.50001095980406,20.50000237673521h320a5,5,0,0,1,5,5v12a5,5,0,0,1,-5,5h-320a5,5,0,0,1,-5,-5v-12a5,5,0,0,1,5,-5z"></path><g id="node_text18" fill="black"><text id="kity_text_226" text-rendering="inherit" font-size="12" dy=".8em" y="23.70000234991312" x="435.50001095980406">算法：根据轮廓的顶点使用三角面Face3自动填充中间区域</text></g></g><g id="minder_node21"><g id="node_expander18" style="cursor: pointer;" display="none"><path id="kity_path_319" fill="white" stroke="gray" d="M547.5000125393271,83.50000315159559A6,6,0,1,1,535.5000125393271,83.50000315159559A6,6,0,1,1,547.5000125393271,83.50000315159559"></path><path id="kity_path_320" fill="none" stroke="gray"></path></g><path id="node_outline19" fill="none" stroke="none" d="M552.5000127777457,72.50000315159559h70a5,5,0,0,1,5,5v12a5,5,0,0,1,-5,5h-70a5,5,0,0,1,-5,-5v-12a5,5,0,0,1,5,-5z"></path><g id="node_text19" fill="black"><text id="kity_text_228" text-rendering="inherit" font-size="12" dy=".8em" y="75.7000031247735" x="557.5000127777457">Shape对象</text></g></g><g id="minder_node22"><g id="node_expander19" style="cursor: pointer;" display="none"><path id="kity_path_322" fill="white" stroke="gray" d="M547.5000125393271,135.50000392645597A6,6,0,1,1,535.5000125393271,135.50000392645597A6,6,0,1,1,547.5000125393271,135.50000392645597"></path><path id="kity_path_323" fill="none" stroke="gray"></path></g><path id="node_outline20" fill="none" stroke="none" d="M552.5000127777457,124.50000392645597h178a5,5,0,0,1,5,5v12a5,5,0,0,1,-5,5h-178a5,5,0,0,1,-5,-5v-12a5,5,0,0,1,5,-5z"></path><g id="node_text20" fill="black"><text id="kity_text_230" text-rendering="inherit" font-size="12" dy=".8em" y="127.70000389963388" x="557.5000127777457">Shape对象作为元素构成的数组</text></g></g><g id="minder_node20"><g id="node_expander20" style="cursor: pointer;"><path id="kity_path_325" fill="white" stroke="gray" d="M425.5000107213855,109.50000353902578A6,6,0,1,1,413.5000107213855,109.50000353902578A6,6,0,1,1,425.5000107213855,109.50000353902578"></path><path id="kity_path_326" fill="none" stroke="gray" d="M415.0000107213855,109.50000353902578L424.0000107213855,109.50000353902578"></path></g><path id="node_outline21" fill="none" stroke="none" d="M430.50001095980406,98.50000353902578h72a5,5,0,0,1,5,5v12a5,5,0,0,1,-5,5h-72a5,5,0,0,1,-5,-5v-12a5,5,0,0,1,5,-5z"></path><g id="node_text21" fill="black"><text id="kity_text_232" text-rendering="inherit" font-size="12" dy=".8em" y="101.7000035122037" x="435.50001095980406">第一个参数</text></g></g><g id="minder_node26"><g id="node_expander22" style="cursor: pointer;" display="none"><path id="kity_path_331" fill="white" stroke="gray" d="M531.5000123009086,197.50000485032797A6,6,0,1,1,519.5000123009086,197.50000485032797A6,6,0,1,1,531.5000123009086,197.50000485032797"></path><path id="kity_path_332" fill="none" stroke="gray"></path></g><path id="node_outline23" fill="none" stroke="none" d="M536.5000125393271,186.50000485032797h203a5,5,0,0,1,5,5v12a5,5,0,0,1,-5,5h-203a5,5,0,0,1,-5,-5v-12a5,5,0,0,1,5,-5z"></path><g id="node_text23" fill="black"><text id="kity_text_236" text-rendering="inherit" font-size="12" dy=".8em" y="189.70000482350588" x="541.5000125393271">shape继承基类Path的轮廓绘制方法</text></g></g><g id="minder_node25"><g id="node_expander23" style="cursor: pointer;"><path id="kity_path_334" fill="white" stroke="gray" d="M433.50001084059477,197.50000485032797A6,6,0,1,1,421.50001084059477,197.50000485032797A6,6,0,1,1,433.50001084059477,197.50000485032797"></path><path id="kity_path_335" fill="none" stroke="gray" d="M423.00001084059477,197.50000485032797L432.00001084059477,197.50000485032797"></path></g><path id="node_outline24" fill="none" stroke="none" d="M438.50001107901335,186.50000485032797h48a5,5,0,0,1,5,5v12a5,5,0,0,1,-5,5h-48a5,5,0,0,1,-5,-5v-12a5,5,0,0,1,5,-5z"></path><g id="node_text24" fill="black"><text id="kity_text_238" text-rendering="inherit" font-size="12" dy=".8em" y="189.70000482350588" x="443.50001107901335">外轮廓</text></g></g><g id="minder_node29"><g id="node_expander24" style="cursor: pointer;" display="none"><path id="kity_path_337" fill="white" stroke="gray" d="M660.5000142231584,249.50000562518835A6,6,0,1,1,648.5000142231584,249.50000562518835A6,6,0,1,1,660.5000142231584,249.50000562518835"></path><path id="kity_path_338" fill="none" stroke="gray"></path></g><path id="node_outline25" fill="none" stroke="none" d="M665.5000144615769,238.50000562518835h133a5,5,0,0,1,5,5v12a5,5,0,0,1,-5,5h-133a5,5,0,0,1,-5,-5v-12a5,5,0,0,1,5,-5z"></path><g id="node_text25" fill="black"><text id="kity_text_240" text-rendering="inherit" font-size="12" dy=".8em" y="241.70000559836626" x="670.5000144615769">数组：元素是Path对象</text></g></g><g id="minder_node28"><g id="node_expander25" style="cursor: pointer;"><path id="kity_path_340" fill="white" stroke="gray" d="M542.5000124648213,249.50000562518835A6,6,0,1,1,530.5000124648213,249.50000562518835A6,6,0,1,1,542.5000124648213,249.50000562518835"></path><path id="kity_path_341" fill="none" stroke="gray" d="M532.0000124648213,249.50000562518835L541.0000124648213,249.50000562518835"></path></g><path id="node_outline26" fill="none" stroke="none" d="M547.5000127032399,238.50000562518835h68a5,5,0,0,1,5,5v12a5,5,0,0,1,-5,5h-68a5,5,0,0,1,-5,-5v-12a5,5,0,0,1,5,-5z"></path><g id="node_text26" fill="black"><text id="kity_text_242" text-rendering="inherit" font-size="12" dy=".8em" y="241.70000559836626" x="552.5000127032399">.holes属性</text></g></g><g id="minder_node27"><g id="node_expander26" style="cursor: pointer;"><path id="kity_path_343" fill="white" stroke="gray" d="M433.50001084059477,249.50000562518835A6,6,0,1,1,421.50001084059477,249.50000562518835A6,6,0,1,1,433.50001084059477,249.50000562518835"></path><path id="kity_path_344" fill="none" stroke="gray" d="M423.00001084059477,249.50000562518835L432.00001084059477,249.50000562518835"></path></g><path id="node_outline27" fill="none" stroke="none" d="M438.50001107901335,238.50000562518835h59a5,5,0,0,1,5,5v12a5,5,0,0,1,-5,5h-59a5,5,0,0,1,-5,-5v-12a5,5,0,0,1,5,-5z"></path><g id="node_text27" fill="black"><text id="kity_text_244" text-rendering="inherit" font-size="12" dy=".8em" y="241.70000559836626" x="443.50001107901335">内部轮廓</text></g></g><g id="minder_node24"><g id="node_expander27" style="cursor: pointer;"><path id="kity_path_346" fill="white" stroke="gray" d="M300.50000885874033,223.50000523775816A6,6,0,1,1,288.50000885874033,223.50000523775816A6,6,0,1,1,300.50000885874033,223.50000523775816"></path><path id="kity_path_347" fill="none" stroke="gray" d="M290.00000885874033,223.50000523775816L299.00000885874033,223.50000523775816"></path></g><path id="node_outline28" fill="none" stroke="none" d="M305.5000090971589,212.50000523775816h83a5,5,0,0,1,5,5v12a5,5,0,0,1,-5,5h-83a5,5,0,0,1,-5,-5v-12a5,5,0,0,1,5,-5z"></path><g id="node_text28" fill="black"><text id="kity_text_246" text-rendering="inherit" font-size="12" dy=".8em" y="215.70000521093607" x="310.5000090971589">绘制二维形状</text></g></g><g id="minder_node31"><g id="node_expander28" style="cursor: pointer;" display="none"><path id="kity_path_349" fill="white" stroke="gray" d="M433.50001084059477,301.50000640004873A6,6,0,1,1,421.50001084059477,301.50000640004873A6,6,0,1,1,433.50001084059477,301.50000640004873"></path><path id="kity_path_350" fill="none" stroke="gray"></path></g><path id="node_outline29" fill="none" stroke="none" d="M438.50001107901335,290.50000640004873h119a5,5,0,0,1,5,5v12a5,5,0,0,1,-5,5h-119a5,5,0,0,1,-5,-5v-12a5,5,0,0,1,5,-5z"></path><g id="node_text29" fill="black"><text id="kity_text_248" text-rendering="inherit" font-size="12" dy=".8em" y="293.70000637322664" x="443.50001107901335">可视化解析地图数据</text></g></g><g id="minder_node30"><g id="node_expander29" style="cursor: pointer;"><path id="kity_path_352" fill="white" stroke="gray" d="M300.50000885874033,301.50000640004873A6,6,0,1,1,288.50000885874033,301.50000640004873A6,6,0,1,1,300.50000885874033,301.50000640004873"></path><path id="kity_path_353" fill="none" stroke="gray" d="M290.00000885874033,301.50000640004873L299.00000885874033,301.50000640004873"></path></g><path id="node_outline30" fill="none" stroke="none" d="M305.5000090971589,290.50000640004873h83a5,5,0,0,1,5,5v12a5,5,0,0,1,-5,5h-83a5,5,0,0,1,-5,-5v-12a5,5,0,0,1,5,-5z"></path><g id="node_text30" fill="black"><text id="kity_text_250" text-rendering="inherit" font-size="12" dy=".8em" y="293.70000637322664" x="310.5000090971589">外部导入顶点</text></g></g><g id="minder_node34"><g id="node_expander31" style="cursor: pointer;" display="none"><path id="kity_path_358" fill="white" stroke="gray" d="M525.5000122115016,363.5000073239207A6,6,0,1,1,513.5000122115016,363.5000073239207A6,6,0,1,1,525.5000122115016,363.5000073239207"></path><path id="kity_path_359" fill="none" stroke="gray"></path></g><path id="node_outline32" fill="none" stroke="none" d="M530.5000124499202,352.5000073239207h268a5,5,0,0,1,5,5v12a5,5,0,0,1,-5,5h-268a5,5,0,0,1,-5,-5v-12a5,5,0,0,1,5,-5z"></path><g id="node_text32" fill="black"><text id="kity_text_254" text-rendering="inherit" font-size="12" dy=".8em" y="355.70000729709864" x="535.5000124499202">Curve——&gt;CurvePath——&gt;Path——&gt;Shape</text></g></g><g id="minder_node35"><g id="node_expander32" style="cursor: pointer;" display="none"><path id="kity_path_361" fill="white" stroke="gray" d="M525.5000122115016,415.5000080987811A6,6,0,1,1,513.5000122115016,415.5000080987811A6,6,0,1,1,525.5000122115016,415.5000080987811"></path><path id="kity_path_362" fill="none" stroke="gray"></path></g><path id="node_outline33" fill="none" stroke="none" d="M530.5000124499202,404.5000080987811h233a5,5,0,0,1,5,5v12a5,5,0,0,1,-5,5h-233a5,5,0,0,1,-5,-5v-12a5,5,0,0,1,5,-5z"></path><g id="node_text33" fill="black"><text id="kity_text_256" text-rendering="inherit" font-size="12" dy=".8em" y="407.700008071959" x="535.5000124499202">Curve——&gt;CurvePath——&gt;ShapePath</text></g></g><g id="minder_node33"><g id="node_expander33" style="cursor: pointer;"><path id="kity_path_364" fill="white" stroke="gray" d="M295.5000087842345,389.5000077113509A6,6,0,1,1,283.5000087842345,389.5000077113509A6,6,0,1,1,295.5000087842345,389.5000077113509"></path><path id="kity_path_365" fill="none" stroke="gray" d="M285.0000087842345,389.5000077113509L294.0000087842345,389.5000077113509"></path></g><path id="node_outline34" fill="none" stroke="none" d="M300.5000090226531,378.5000077113509h180a5,5,0,0,1,5,5v12a5,5,0,0,1,-5,5h-180a5,5,0,0,1,-5,-5v-12a5,5,0,0,1,5,-5z"></path><g id="node_text34" fill="black"><text id="kity_text_258" text-rendering="inherit" font-size="12" dy=".8em" y="381.7000076845288" x="305.5000090226531">从前到后，依次前面是后面基类</text></g></g><g id="minder_node39"><g id="node_expander34" style="cursor: pointer;" display="none"><path id="kity_path_367" fill="white" stroke="gray" d="M681.5000145360827,472.5000089481473A6,6,0,1,1,669.5000145360827,472.5000089481473A6,6,0,1,1,681.5000145360827,472.5000089481473"></path><path id="kity_path_368" fill="none" stroke="gray"></path></g><path id="node_outline35" fill="none" stroke="none" d="M686.5000147745013,456.5000089481473h75a5,5,0,0,1,5,5v22a5,5,0,0,1,-5,5h-75a5,5,0,0,1,-5,-5v-22a5,5,0,0,1,5,-5z"></path><g id="node_text35" fill="black"><text id="kity_text_260" text-rendering="inherit" font-size="12" dy=".8em" y="464.7000089213252" x="691.5000147745013">Shape</text></g><a id="kity_a_277" xlink:href="http://www.yanhuangxueyuan.com/threejs/docs/index.html#api/zh/extras/core/Shape" target="_blank" xlink:title="http://www.yanhuangxueyuan.com/threejs/docs/index.html#api/zh/extras/core/Shape" style="cursor: pointer;"><path id="kity_path_279" fill="rgba(255, 255, 255, 0)" stroke="none" d="M736.5000154152513,461.5000088736415h16a4,4,0,0,1,4,4v14a4,4,0,0,1,-4,4h-16a4,4,0,0,1,-4,-4v-14a4,4,0,0,1,4,-4z"></path><path id="kity_path_278" fill="#666" stroke="none" d="M751.1140154152513,477.7240088736415h-1.278c-1.668,0,-3.07,-1.07,-3.599,-2.556h4.877c0.707,0,1.278,-0.571,1.278,-1.278V471.3340088736415c0,-0.707,-0.571,-1.278,-1.278,-1.278h-4.877C746.7660154152512,468.5710088736415,748.1680154152513,467.5000088736415,749.8360154152513,467.5000088736415h1.278c2.116,0,3.834,1.716,3.834,3.834V473.8900088736415C754.9480154152512,476.0080088736415,753.2300154152513,477.7240088736415,751.1140154152513,477.7240088736415zM739.6120154152512,472.6120088736415c0,-0.707,0.573,-1.278,1.278,-1.278h7.668c0.707,0,1.278,0.571,1.278,1.278S749.2650154152512,473.8900088736415,748.5580154152512,473.8900088736415H740.8900154152512C740.1850154152512,473.8900088736415,739.6120154152512,473.3190088736415,739.6120154152512,472.6120088736415zM737.0560154152513,471.3340088736415V473.8900088736415c0,0.707,0.573,1.278,1.278,1.278h4.877c-0.528,1.486,-1.932,2.556,-3.599,2.556H738.3340154152512C736.2160154152513,477.7240088736415,734.5000154152513,476.0080088736415,734.5000154152513,473.8900088736415V471.3340088736415C734.5000154152513,469.2160088736415,736.2160154152513,467.5000088736415,738.3340154152512,467.5000088736415h1.278c1.667,0,3.071,1.071,3.599,2.556H738.3340154152512C737.6290154152513,470.0560088736415,737.0560154152513,470.6270088736415,737.0560154152513,471.3340088736415z"></path></a></g><g id="minder_node38"><g id="node_expander35" style="cursor: pointer;"><path id="kity_path_370" fill="white" stroke="gray" d="M566.5000128224492,472.5000089481473A6,6,0,1,1,554.5000128224492,472.5000089481473A6,6,0,1,1,566.5000128224492,472.5000089481473"></path><path id="kity_path_371" fill="none" stroke="gray" d="M556.0000128224492,472.5000089481473L565.0000128224492,472.5000089481473"></path></g><path id="node_outline36" fill="none" stroke="none" d="M571.5000130608678,456.5000089481473h65a5,5,0,0,1,5,5v22a5,5,0,0,1,-5,5h-65a5,5,0,0,1,-5,-5v-22a5,5,0,0,1,5,-5z"></path><g id="node_text36" fill="black"><text id="kity_text_262" text-rendering="inherit" font-size="12" dy=".8em" y="464.7000089213252" x="576.5000130608678">Path</text></g><a id="kity_a_280" xlink:href="http://www.yanhuangxueyuan.com/threejs/docs/index.html#api/zh/extras/core/Path" target="_blank" xlink:title="http://www.yanhuangxueyuan.com/threejs/docs/index.html#api/zh/extras/core/Path" style="cursor: pointer;"><path id="kity_path_282" fill="rgba(255, 255, 255, 0)" stroke="none" d="M611.5000135526061,461.5000088736415h16a4,4,0,0,1,4,4v14a4,4,0,0,1,-4,4h-16a4,4,0,0,1,-4,-4v-14a4,4,0,0,1,4,-4z"></path><path id="kity_path_281" fill="#666" stroke="none" d="M626.1140135526061,477.7240088736415h-1.278c-1.668,0,-3.07,-1.07,-3.599,-2.556h4.877c0.707,0,1.278,-0.571,1.278,-1.278V471.3340088736415c0,-0.707,-0.571,-1.278,-1.278,-1.278h-4.877C621.7660135526061,468.5710088736415,623.1680135526061,467.5000088736415,624.8360135526061,467.5000088736415h1.278c2.116,0,3.834,1.716,3.834,3.834V473.8900088736415C629.9480135526061,476.0080088736415,628.2300135526061,477.7240088736415,626.1140135526061,477.7240088736415zM614.6120135526061,472.6120088736415c0,-0.707,0.573,-1.278,1.278,-1.278h7.668c0.707,0,1.278,0.571,1.278,1.278S624.2650135526061,473.8900088736415,623.5580135526061,473.8900088736415H615.8900135526061C615.185013552606,473.8900088736415,614.6120135526061,473.3190088736415,614.6120135526061,472.6120088736415zM612.0560135526061,471.3340088736415V473.8900088736415c0,0.707,0.573,1.278,1.278,1.278h4.877c-0.528,1.486,-1.932,2.556,-3.599,2.556H613.334013552606C611.2160135526061,477.7240088736415,609.5000135526061,476.0080088736415,609.5000135526061,473.8900088736415V471.3340088736415C609.5000135526061,469.2160088736415,611.2160135526061,467.5000088736415,613.334013552606,467.5000088736415h1.278c1.667,0,3.071,1.071,3.599,2.556H613.334013552606C612.6290135526061,470.0560088736415,612.0560135526061,470.6270088736415,612.0560135526061,471.3340088736415z"></path></a></g><g id="minder_node40"><g id="node_expander36" style="cursor: pointer;" display="none"><path id="kity_path_373" fill="white" stroke="gray" d="M566.5000128224492,534.5000098720193A6,6,0,1,1,554.5000128224492,534.5000098720193A6,6,0,1,1,566.5000128224492,534.5000098720193"></path><path id="kity_path_374" fill="none" stroke="gray"></path></g><path id="node_outline37" fill="none" stroke="none" d="M571.5000130608678,518.5000098720193h100a5,5,0,0,1,5,5v22a5,5,0,0,1,-5,5h-100a5,5,0,0,1,-5,-5v-22a5,5,0,0,1,5,-5z"></path><g id="node_text37" fill="black"><text id="kity_text_264" text-rendering="inherit" font-size="12" dy=".8em" y="526.7000098451972" x="576.5000130608678">ShapePath</text></g><a id="kity_a_283" xlink:href="http://www.yanhuangxueyuan.com/threejs/docs/index.html#api/zh/extras/core/ShapePath" target="_blank" xlink:title="http://www.yanhuangxueyuan.com/threejs/docs/index.html#api/zh/extras/core/ShapePath" style="cursor: pointer;"><path id="kity_path_285" fill="rgba(255, 255, 255, 0)" stroke="none" d="M646.5000140741467,523.5000097975135h16a4,4,0,0,1,4,4v14a4,4,0,0,1,-4,4h-16a4,4,0,0,1,-4,-4v-14a4,4,0,0,1,4,-4z"></path><path id="kity_path_284" fill="#666" stroke="none" d="M661.1140140741468,539.7240097975135h-1.278c-1.668,0,-3.07,-1.07,-3.599,-2.556h4.877c0.707,0,1.278,-0.571,1.278,-1.278V533.3340097975134c0,-0.707,-0.571,-1.278,-1.278,-1.278h-4.877C656.7660140741467,530.5710097975135,658.1680140741468,529.5000097975135,659.8360140741468,529.5000097975135h1.278c2.116,0,3.834,1.716,3.834,3.834V535.8900097975135C664.9480140741467,538.0080097975135,663.2300140741468,539.7240097975135,661.1140140741468,539.7240097975135zM649.6120140741467,534.6120097975135c0,-0.707,0.573,-1.278,1.278,-1.278h7.668c0.707,0,1.278,0.571,1.278,1.278S659.2650140741467,535.8900097975135,658.5580140741467,535.8900097975135H650.8900140741467C650.1850140741467,535.8900097975135,649.6120140741467,535.3190097975134,649.6120140741467,534.6120097975135zM647.0560140741468,533.3340097975134V535.8900097975135c0,0.707,0.573,1.278,1.278,1.278h4.877c-0.528,1.486,-1.932,2.556,-3.599,2.556H648.3340140741467C646.2160140741468,539.7240097975135,644.5000140741467,538.0080097975135,644.5000140741467,535.8900097975135V533.3340097975134C644.5000140741467,531.2160097975135,646.2160140741468,529.5000097975135,648.3340140741467,529.5000097975135h1.278c1.667,0,3.071,1.071,3.599,2.556H648.3340140741467C647.6290140741468,532.0560097975135,647.0560140741468,532.6270097975134,647.0560140741468,533.3340097975134z"></path></a></g><g id="minder_node37"><g id="node_expander37" style="cursor: pointer;"><path id="kity_path_376" fill="white" stroke="gray" d="M418.50001061707735,503.5000094100833A6,6,0,1,1,406.50001061707735,503.5000094100833A6,6,0,1,1,418.50001061707735,503.5000094100833"></path><path id="kity_path_377" fill="none" stroke="gray" d="M408.00001061707735,503.5000094100833L417.00001061707735,503.5000094100833"></path></g><path id="node_outline38" fill="none" stroke="none" d="M423.50001085549593,487.5000094100833h98a5,5,0,0,1,5,5v22a5,5,0,0,1,-5,5h-98a5,5,0,0,1,-5,-5v-22a5,5,0,0,1,5,-5z"></path><g id="node_text38" fill="black"><text id="kity_text_266" text-rendering="inherit" font-size="12" dy=".8em" y="495.7000093832612" x="428.50001085549593">CurvePath</text></g><a id="kity_a_286" xlink:href="http://www.yanhuangxueyuan.com/threejs/docs/index.html#api/zh/extras/core/CurvePath" target="_blank" xlink:title="http://www.yanhuangxueyuan.com/threejs/docs/index.html#api/zh/extras/core/CurvePath" style="cursor: pointer;"><path id="kity_path_288" fill="rgba(255, 255, 255, 0)" stroke="none" d="M496.50001183897257,492.5000093355775h16a4,4,0,0,1,4,4v14a4,4,0,0,1,-4,4h-16a4,4,0,0,1,-4,-4v-14a4,4,0,0,1,4,-4z"></path><path id="kity_path_287" fill="#666" stroke="none" d="M511.11401183897254,508.7240093355775h-1.278c-1.668,0,-3.07,-1.07,-3.599,-2.556h4.877c0.707,0,1.278,-0.571,1.278,-1.278V502.3340093355775c0,-0.707,-0.571,-1.278,-1.278,-1.278h-4.877C506.7660118389726,499.5710093355775,508.1680118389726,498.5000093355775,509.8360118389726,498.5000093355775h1.278c2.116,0,3.834,1.716,3.834,3.834V504.8900093355775C514.9480118389725,507.00800933557747,513.2300118389726,508.7240093355775,511.11401183897254,508.7240093355775zM499.6120118389726,503.6120093355775c0,-0.707,0.573,-1.278,1.278,-1.278h7.668c0.707,0,1.278,0.571,1.278,1.278S509.26501183897255,504.8900093355775,508.55801183897256,504.8900093355775H500.89001183897255C500.18501183897257,504.8900093355775,499.6120118389726,504.3190093355775,499.6120118389726,503.6120093355775zM497.05601183897255,502.3340093355775V504.8900093355775c0,0.707,0.573,1.278,1.278,1.278h4.877c-0.528,1.486,-1.932,2.556,-3.599,2.556H498.3340118389726C496.2160118389726,508.7240093355775,494.50001183897257,507.00800933557747,494.50001183897257,504.8900093355775V502.3340093355775C494.50001183897257,500.2160093355775,496.2160118389726,498.5000093355775,498.3340118389726,498.5000093355775h1.278c1.667,0,3.071,1.071,3.599,2.556H498.3340118389726C497.6290118389726,501.05600933557747,497.05601183897255,501.6270093355775,497.05601183897255,502.3340093355775z"></path></a></g><g id="minder_node36"><g id="node_expander38" style="cursor: pointer;"><path id="kity_path_379" fill="white" stroke="gray" d="M295.5000087842345,503.5000094100833A6,6,0,1,1,283.5000087842345,503.5000094100833A6,6,0,1,1,295.5000087842345,503.5000094100833"></path><path id="kity_path_380" fill="none" stroke="gray" d="M285.0000087842345,503.5000094100833L294.0000087842345,503.5000094100833"></path></g><path id="node_outline39" fill="none" stroke="none" d="M300.5000090226531,487.5000094100833h73a5,5,0,0,1,5,5v22a5,5,0,0,1,-5,5h-73a5,5,0,0,1,-5,-5v-22a5,5,0,0,1,5,-5z"></path><g id="node_text39" fill="black"><text id="kity_text_268" text-rendering="inherit" font-size="12" dy=".8em" y="495.7000093832612" x="305.5000090226531">Curve</text></g><a id="kity_a_289" xlink:href="http://www.yanhuangxueyuan.com/threejs/docs/index.html#api/zh/extras/core/Curve" target="_blank" xlink:title="http://www.yanhuangxueyuan.com/threejs/docs/index.html#api/zh/extras/core/Curve" style="cursor: pointer;"><path id="kity_path_291" fill="rgba(255, 255, 255, 0)" stroke="none" d="M348.5000096336007,492.5000093355775h16a4,4,0,0,1,4,4v14a4,4,0,0,1,-4,4h-16a4,4,0,0,1,-4,-4v-14a4,4,0,0,1,4,-4z"></path><path id="kity_path_290" fill="#666" stroke="none" d="M363.1140096336007,508.7240093355775h-1.278c-1.668,0,-3.07,-1.07,-3.599,-2.556h4.877c0.707,0,1.278,-0.571,1.278,-1.278V502.3340093355775c0,-0.707,-0.571,-1.278,-1.278,-1.278h-4.877C358.76600963360073,499.5710093355775,360.1680096336007,498.5000093355775,361.8360096336007,498.5000093355775h1.278c2.116,0,3.834,1.716,3.834,3.834V504.8900093355775C366.9480096336007,507.00800933557747,365.23000963360073,508.7240093355775,363.1140096336007,508.7240093355775zM351.61200963360074,503.6120093355775c0,-0.707,0.573,-1.278,1.278,-1.278h7.668c0.707,0,1.278,0.571,1.278,1.278S361.2650096336007,504.8900093355775,360.5580096336007,504.8900093355775H352.8900096336007C352.1850096336007,504.8900093355775,351.61200963360074,504.3190093355775,351.61200963360074,503.6120093355775zM349.0560096336007,502.3340093355775V504.8900093355775c0,0.707,0.573,1.278,1.278,1.278h4.877c-0.528,1.486,-1.932,2.556,-3.599,2.556H350.3340096336007C348.2160096336007,508.7240093355775,346.5000096336007,507.00800933557747,346.5000096336007,504.8900093355775V502.3340093355775C346.5000096336007,500.2160093355775,348.2160096336007,498.5000093355775,350.3340096336007,498.5000093355775h1.278c1.667,0,3.071,1.071,3.599,2.556H350.3340096336007C349.62900963360073,501.05600933557747,349.0560096336007,501.6270093355775,349.0560096336007,502.3340093355775z"></path></a></g></g></g></svg>