<svg id="kity_svg_6" xmlns="http://www.w3.org/2000/svg" xmlns:xlink="http://www.w3.org/1999/xlink" version="1.1" width="876" height="426" style="background: rgb(251, 251, 251); visibility: visible;" viewBox="0 0 876 426"><defs id="kity_defs_7"><linearGradient id="kity_linearGradient_17" x1="0" y1="0" x2="0" y2="1"><stop id="kity_stop_18" offset="0" stop-color="rgb(255, 255, 255)"></stop><stop id="kity_stop_19" offset="1" stop-color="rgb(204, 204, 204)"></stop></linearGradient><marker id="kity_marker_2" orient="auto" refX="6" refY="0" viewBox="-7 -7 14 14" markerWidth="7" markerHeight="7" markerUnits="userSpaceOnUse"><path id="kity_path_3" fill="rgb(115, 191, 118)" stroke="none" d="M6,0A6,6,0,1,1,-6,0A6,6,0,1,1,6,0"></path></marker></defs><g id="kity_g_8"><g id="minder1" text-rendering="optimize-speed"><g id="minder_connect_group1"><path id="kity_path_607" fill="none" stroke="rgb(115, 191, 118)" stroke-width="1" d="M80.50000432878733,214.50000525265932A76,153,0,0,1,156.50000432878733,61.50000525265932"></path><path id="kity_path_609" fill="none" stroke="rgb(115, 191, 118)" stroke-width="1" d="M422.5000043287873,61.50000525265932C430.5000043287873,61.50000525265932,430.5000043287873,42.50000525265932,438.5000043287873,42.50000525265932"></path><path id="kity_path_611" fill="none" stroke="rgb(115, 191, 118)" stroke-width="1" d="M509.5000043287873,42.50000525265932C517.5000043287873,42.50000525265932,517.5000043287873,29.50000525265932,525.5000043287873,29.50000525265932"></path><path id="kity_path_613" fill="none" stroke="rgb(115, 191, 118)" stroke-width="1" d="M509.5000043287873,42.50000525265932C517.5000043287873,42.50000525265932,517.5000043287873,55.50000525265932,525.5000043287873,55.50000525265932"></path><path id="kity_path_615" fill="none" stroke="rgb(115, 191, 118)" stroke-width="1" d="M584.5000043287873,55.50000525265932C592.5000043287873,55.50000525265932,592.5000043287873,55.50000525265932,600.5000043287873,55.50000525265932"></path><path id="kity_path_617" fill="none" stroke="rgb(115, 191, 118)" stroke-width="1" d="M422.5000043287873,61.50000525265932C430.5000043287873,61.50000525265932,430.5000043287873,81.50000525265932,438.5000043287873,81.50000525265932"></path><path id="kity_path_619" fill="none" stroke="rgb(115, 191, 118)" stroke-width="1" d="M497.5000043287873,81.50000525265932C505.5000043287873,81.50000525265932,505.5000043287873,81.50000525265932,513.5000043287873,81.50000525265932"></path><path id="kity_path_621" fill="none" stroke="rgb(115, 191, 118)" stroke-width="1" d="M80.50000432878733,214.50000525265932A76,86,0,0,1,156.50000432878733,128.50000525265932"></path><path id="kity_path_623" fill="none" stroke="rgb(115, 191, 118)" stroke-width="1" d="M291.5000043287873,128.50000525265932C299.5000043287873,128.50000525265932,299.5000043287873,115.50000525265932,307.5000043287873,115.50000525265932"></path><path id="kity_path_625" fill="none" stroke="rgb(115, 191, 118)" stroke-width="1" d="M411.5000043287873,115.50000525265932C419.5000043287873,115.50000525265932,419.5000043287873,115.50000525265932,427.5000043287873,115.50000525265932"></path><path id="kity_path_627" fill="none" stroke="rgb(115, 191, 118)" stroke-width="1" d="M291.5000043287873,128.50000525265932C299.5000043287873,128.50000525265932,299.5000043287873,141.50000525265932,307.5000043287873,141.50000525265932"></path><path id="kity_path_629" fill="none" stroke="rgb(115, 191, 118)" stroke-width="1" d="M389.5000043287873,141.50000525265932C397.5000043287873,141.50000525265932,397.5000043287873,141.50000525265932,405.5000043287873,141.50000525265932"></path><path id="kity_path_631" fill="none" stroke="rgb(115, 191, 118)" stroke-width="1" d="M550.5000043287873,141.50000525265932C558.5000043287873,141.50000525265932,558.5000043287873,141.50000525265932,566.5000043287873,141.50000525265932"></path><path id="kity_path_633" fill="none" stroke="rgb(115, 191, 118)" stroke-width="1" d="M80.50000432878733,214.50000525265932A76,31,0,0,1,156.50000432878733,183.50000525265932"></path><path id="kity_path_635" fill="none" stroke="rgb(115, 191, 118)" stroke-width="1" d="M333.5000043287873,183.50000525265932C341.5000043287873,183.50000525265932,341.5000043287873,183.50000525265932,349.5000043287873,183.50000525265932"></path><path id="kity_path_637" fill="none" stroke="rgb(115, 191, 118)" stroke-width="1" d="M80.50000432878733,214.50000525265932A76,24,0,0,0,156.50000432878733,238.50000525265932"></path><path id="kity_path_639" fill="none" stroke="rgb(115, 191, 118)" stroke-width="1" d="M386.5000043287873,238.50000525265932C394.5000043287873,238.50000525265932,394.5000043287873,225.50000525265932,402.5000043287873,225.50000525265932"></path><path id="kity_path_641" fill="none" stroke="rgb(115, 191, 118)" stroke-width="1" d="M386.5000043287873,238.50000525265932C394.5000043287873,238.50000525265932,394.5000043287873,251.50000525265932,402.5000043287873,251.50000525265932"></path><path id="kity_path_643" fill="none" stroke="rgb(115, 191, 118)" stroke-width="1" d="M460.5000043287873,251.50000525265932C468.5000043287873,251.50000525265932,468.5000043287873,251.50000525265932,476.5000043287873,251.50000525265932"></path><path id="kity_path_645" fill="none" stroke="rgb(115, 191, 118)" stroke-width="1" d="M80.50000432878733,214.50000525265932A76,84,0,0,0,156.50000432878733,298.5000052526593"></path><path id="kity_path_647" fill="none" stroke="rgb(115, 191, 118)" stroke-width="1" d="M254.50000432878733,298.5000052526593C262.5000043287873,298.5000052526593,262.5000043287873,285.5000052526593,270.5000043287873,285.5000052526593"></path><path id="kity_path_649" fill="none" stroke="rgb(115, 191, 118)" stroke-width="1" d="M407.5000043287873,285.5000052526593C415.5000043287873,285.5000052526593,415.5000043287873,285.5000052526593,423.5000043287873,285.5000052526593"></path><path id="kity_path_651" fill="none" stroke="rgb(115, 191, 118)" stroke-width="1" d="M254.50000432878733,298.5000052526593C262.5000043287873,298.5000052526593,262.5000043287873,311.5000052526593,270.5000043287873,311.5000052526593"></path><path id="kity_path_653" fill="none" stroke="rgb(115, 191, 118)" stroke-width="1" d="M80.50000432878733,214.50000525265932A76,157,0,0,0,156.50000432878733,371.5000052526593"></path><path id="kity_path_655" fill="none" stroke="rgb(115, 191, 118)" stroke-width="1" d="M287.5000043287873,371.5000052526593C295.5000043287873,371.5000052526593,295.5000043287873,345.5000052526593,303.5000043287873,345.5000052526593"></path><path id="kity_path_657" fill="none" stroke="rgb(115, 191, 118)" stroke-width="1" d="M473.5000043287873,345.5000052526593C481.5000043287873,345.5000052526593,481.5000043287873,345.5000052526593,489.5000043287873,345.5000052526593"></path><path id="kity_path_659" fill="none" stroke="rgb(115, 191, 118)" stroke-width="1" d="M287.5000043287873,371.5000052526593C295.5000043287873,371.5000052526593,295.5000043287873,371.5000052526593,303.5000043287873,371.5000052526593"></path><path id="kity_path_661" fill="none" stroke="rgb(115, 191, 118)" stroke-width="1" d="M287.5000043287873,371.5000052526593C295.5000043287873,371.5000052526593,295.5000043287873,397.5000052526593,303.5000043287873,397.5000052526593"></path></g><g id="minder_node1"><path id="node_outline1" fill="rgb(115, 191, 118)" stroke="rgb(115, 191, 118)" d="M25.500004328787327,200.50000525265932h110a5,5,0,0,1,5,5v18a5,5,0,0,1,-5,5h-110a5,5,0,0,1,-5,-5v-18a5,5,0,0,1,5,-5z" stroke-width="3"></path><g id="node_text1" fill="white"><text id="kity_text_22" text-rendering="inherit" font-size="16" dy=".8em" y="204.10000521689653" x="32.50000432878733">创建纹理贴图</text></g></g><g id="kity_g_14" display="none"><path id="kity_path_15" fill="none" stroke="none" d="M32.50000432878733,214.50000525265932h0v0h0z"></path><path id="kity_path_16" fill="none" stroke="none"></path></g><g id="kity_g_12" display="none"><path id="kity_path_13" fill="none" stroke="rgb(66, 94, 112)" d="M13.500004328787327,194.50000525265932h182a5,5,0,0,1,5,5v30a5,5,0,0,1,-5,5h-182a5,5,0,0,1,-5,-5v-30a5,5,0,0,1,5,-5z" stroke-width="5"></path></g><g id="minder_node69"><g id="node_expander73" style="cursor: pointer;"><path id="kity_path_696" fill="white" stroke="gray" d="M157.5000061020255,61.50000297278166A6,6,0,1,1,145.5000061020255,61.50000297278166A6,6,0,1,1,157.5000061020255,61.50000297278166"></path><path id="kity_path_697" fill="none" stroke="gray" d="M147.0000061020255,61.50000297278166L156.0000061020255,61.50000297278166"></path></g><path id="node_outline74" fill="rgb(238, 246, 238)" stroke="rgb(57, 96, 58)" d="M161.50000650435686,44.50000297278166h258a3,3,0,0,1,3,3v28a3,3,0,0,1,-3,3h-258a3,3,0,0,1,-3,-3v-28a3,3,0,0,1,3,-3z" stroke-width="3"></path><g id="node_text74" fill="black"><text id="kity_text_693" text-rendering="inherit" font-size="14" dy=".8em" y="52.40000294148922" x="178.50000650435686">TextureLoader纹理加载器对象</text></g><a id="kity_a_836" xlink:href="http://www.yanhuangxueyuan.com/threejs/docs/index.html#api/zh/loaders/TextureLoader" target="_blank" xlink:title="http://www.yanhuangxueyuan.com/threejs/docs/index.html#api/zh/loaders/TextureLoader" style="cursor: pointer;"><path id="kity_path_838" fill="rgba(255, 255, 255, 0)" stroke="none" d="M382.5000095143914,50.50000289827585h16a4,4,0,0,1,4,4v14a4,4,0,0,1,-4,4h-16a4,4,0,0,1,-4,-4v-14a4,4,0,0,1,4,-4z"></path><path id="kity_path_837" fill="#666" stroke="none" d="M397.1140095143914,66.72400289827586h-1.278c-1.668,0,-3.07,-1.07,-3.599,-2.556h4.877c0.707,0,1.278,-0.571,1.278,-1.278V60.334002898275855c0,-0.707,-0.571,-1.278,-1.278,-1.278h-4.877C392.76600951439144,57.57100289827585,394.16800951439143,56.50000289827585,395.83600951439144,56.50000289827585h1.278c2.116,0,3.834,1.716,3.834,3.834V62.89000289827585C400.9480095143914,65.00800289827585,399.23000951439144,66.72400289827586,397.1140095143914,66.72400289827586zM385.61200951439145,61.612002898275854c0,-0.707,0.573,-1.278,1.278,-1.278h7.668c0.707,0,1.278,0.571,1.278,1.278S395.2650095143914,62.89000289827585,394.5580095143914,62.89000289827585H386.8900095143914C386.1850095143914,62.89000289827585,385.61200951439145,62.319002898275855,385.61200951439145,61.612002898275854zM383.0560095143914,60.334002898275855V62.89000289827585c0,0.707,0.573,1.278,1.278,1.278h4.877c-0.528,1.486,-1.932,2.556,-3.599,2.556H384.3340095143914C382.21600951439143,66.72400289827586,380.5000095143914,65.00800289827585,380.5000095143914,62.89000289827585V60.334002898275855C380.5000095143914,58.21600289827585,382.21600951439143,56.50000289827585,384.3340095143914,56.50000289827585h1.278c1.667,0,3.071,1.071,3.599,2.556H384.3340095143914C383.62900951439144,59.05600289827585,383.0560095143914,59.627002898275855,383.0560095143914,60.334002898275855z"></path></a></g><g id="minder_node70"><g id="node_expander77" style="cursor: pointer;"><path id="kity_path_774" fill="white" stroke="gray" d="M438.5000102892518,42.500002689659595A6,6,0,1,1,426.5000102892518,42.500002689659595A6,6,0,1,1,438.5000102892518,42.500002689659595"></path><path id="kity_path_775" fill="none" stroke="gray" d="M428.0000102892518,42.500002689659595L437.0000102892518,42.500002689659595"></path></g><path id="node_outline78" fill="none" stroke="none" d="M443.5000104531646,33.500002689659595h61a5,5,0,0,1,5,5v8a5,5,0,0,1,-5,5h-61a5,5,0,0,1,-5,-5v-8a5,5,0,0,1,5,-5z" stroke-width="3"></path><g id="node_text78" fill="black"><text id="kity_text_705" text-rendering="inherit" font-size="12" dy=".8em" y="34.700002662837505" x="443.5000104531646">.load()方法</text></g></g><g id="minder_node71"><g id="node_expander74" style="cursor: pointer;" display="none"><path id="kity_path_765" fill="white" stroke="gray" d="M525.5000115856528,29.5000024959445A6,6,0,1,1,513.5000115856528,29.5000024959445A6,6,0,1,1,525.5000115856528,29.5000024959445"></path><path id="kity_path_766" fill="none" stroke="gray"></path></g><path id="node_outline75" fill="none" stroke="none" d="M530.5000117495656,20.5000024959445h321a5,5,0,0,1,5,5v8a5,5,0,0,1,-5,5h-321a5,5,0,0,1,-5,-5v-8a5,5,0,0,1,5,-5z" stroke-width="3"></path><g id="node_text75" fill="black"><text id="kity_text_699" text-rendering="inherit" font-size="12" dy=".8em" y="21.70000246912241" x="530.5000117495656">执行load方法加载纹理图片成功后返回一个纹理对象Texture</text></g></g><g id="minder_node72"><g id="node_expander76" style="cursor: pointer;"><path id="kity_path_771" fill="white" stroke="gray" d="M525.5000115856528,55.50000288337469A6,6,0,1,1,513.5000115856528,55.50000288337469A6,6,0,1,1,525.5000115856528,55.50000288337469"></path><path id="kity_path_772" fill="none" stroke="gray" d="M515.0000115856528,55.50000288337469L524.0000115856528,55.50000288337469"></path></g><path id="node_outline77" fill="none" stroke="none" d="M530.5000117495656,46.50000288337469h49a5,5,0,0,1,5,5v8a5,5,0,0,1,-5,5h-49a5,5,0,0,1,-5,-5v-8a5,5,0,0,1,5,-5z" stroke-width="3"></path><g id="node_text77" fill="black"><text id="kity_text_703" text-rendering="inherit" font-size="12" dy=".8em" y="47.7000028565526" x="530.5000117495656">回调函数</text></g></g><g id="minder_node73"><g id="node_expander75" style="cursor: pointer;" display="none"><path id="kity_path_768" fill="white" stroke="gray" d="M600.5000127032399,55.50000288337469A6,6,0,1,1,588.5000127032399,55.50000288337469A6,6,0,1,1,600.5000127032399,55.50000288337469"></path><path id="kity_path_769" fill="none" stroke="gray"></path></g><path id="node_outline76" fill="none" stroke="none" d="M605.5000128671527,46.50000288337469h151a5,5,0,0,1,5,5v8a5,5,0,0,1,-5,5h-151a5,5,0,0,1,-5,-5v-8a5,5,0,0,1,5,-5z" stroke-width="3"></path><g id="node_text76" fill="black"><text id="kity_text_701" text-rendering="inherit" font-size="12" dy=".8em" y="47.7000028565526" x="605.5000128671527">函数参数：纹理对象Texture</text></g></g><g id="minder_node74"><g id="node_expander79" style="cursor: pointer;"><path id="kity_path_780" fill="white" stroke="gray" d="M438.5000102892518,81.50000327080488A6,6,0,1,1,426.5000102892518,81.50000327080488A6,6,0,1,1,438.5000102892518,81.50000327080488"></path><path id="kity_path_781" fill="none" stroke="gray" d="M428.0000102892518,81.50000327080488L437.0000102892518,81.50000327080488"></path></g><path id="node_outline80" fill="none" stroke="none" d="M443.5000104531646,72.50000327080488h49a5,5,0,0,1,5,5v8a5,5,0,0,1,-5,5h-49a5,5,0,0,1,-5,-5v-8a5,5,0,0,1,5,-5z" stroke-width="3"></path><g id="node_text80" fill="black"><text id="kity_text_709" text-rendering="inherit" font-size="12" dy=".8em" y="73.70000324398279" x="443.5000104531646">异步加载</text></g></g><g id="minder_node75"><g id="node_expander78" style="cursor: pointer;" display="none"><path id="kity_path_777" fill="white" stroke="gray" d="M513.5000114068389,81.50000327080488A6,6,0,1,1,501.5000114068389,81.50000327080488A6,6,0,1,1,513.5000114068389,81.50000327080488"></path><path id="kity_path_778" fill="none" stroke="gray"></path></g><path id="node_outline79" fill="none" stroke="none" d="M518.5000115707517,72.50000327080488h231a5,5,0,0,1,5,5v8a5,5,0,0,1,-5,5h-231a5,5,0,0,1,-5,-5v-8a5,5,0,0,1,5,-5z" stroke-width="3"></path><g id="node_text79" fill="black"><text id="kity_text_707" text-rendering="inherit" font-size="12" dy=".8em" y="73.70000324398279" x="518.5000115707517">加载后调用render方法，或者一直循环渲染</text></g></g><g id="minder_node76"><g id="node_expander72" style="cursor: pointer;"><path id="kity_path_690" fill="white" stroke="gray" d="M157.5000061020255,128.50000397115946A6,6,0,1,1,145.5000061020255,128.50000397115946A6,6,0,1,1,157.5000061020255,128.50000397115946"></path><path id="kity_path_691" fill="none" stroke="gray" d="M147.0000061020255,128.50000397115946L156.0000061020255,128.50000397115946"></path></g><path id="node_outline73" fill="rgb(238, 246, 238)" stroke="rgb(115, 191, 118)" d="M161.50000650435686,115.50000397115946h127a3,3,0,0,1,3,3v20a3,3,0,0,1,-3,3h-127a3,3,0,0,1,-3,-3v-20a3,3,0,0,1,3,-3z" stroke-width="1"></path><g id="node_text73" fill="black"><text id="kity_text_687" text-rendering="inherit" font-size="14" dy=".8em" y="119.40000393986702" x="178.50000650435686">网格模型Mesh</text></g></g><g id="minder_node77"><g id="node_expander81" style="cursor: pointer;"><path id="kity_path_786" fill="white" stroke="gray" d="M307.5000083371997,115.50000377744436A6,6,0,1,1,295.5000083371997,115.50000377744436A6,6,0,1,1,307.5000083371997,115.50000377744436"></path><path id="kity_path_787" fill="none" stroke="gray" d="M297.0000083371997,115.50000377744436L306.0000083371997,115.50000377744436"></path></g><path id="node_outline82" fill="none" stroke="none" d="M312.50000850111246,106.50000377744436h94a5,5,0,0,1,5,5v8a5,5,0,0,1,-5,5h-94a5,5,0,0,1,-5,-5v-8a5,5,0,0,1,5,-5z" stroke-width="3"></path><g id="node_text82" fill="black"><text id="kity_text_713" text-rendering="inherit" font-size="12" dy=".8em" y="107.70000375062227" x="312.50000850111246">几何体Geometry</text></g></g><g id="minder_node78"><g id="node_expander80" style="cursor: pointer;" display="none"><path id="kity_path_783" fill="white" stroke="gray" d="M427.50001012533903,115.50000377744436A6,6,0,1,1,415.50001012533903,115.50000377744436A6,6,0,1,1,427.50001012533903,115.50000377744436"></path><path id="kity_path_784" fill="none" stroke="gray"></path></g><path id="node_outline81" fill="none" stroke="none" d="M432.5000102892518,106.50000377744436h87a5,5,0,0,1,5,5v8a5,5,0,0,1,-5,5h-87a5,5,0,0,1,-5,-5v-8a5,5,0,0,1,5,-5z" stroke-width="3"></path><g id="node_text81" fill="black"><text id="kity_text_711" text-rendering="inherit" font-size="12" dy=".8em" y="107.70000375062227" x="432.5000102892518">顶点uv坐标数据</text></g></g><g id="minder_node79"><g id="node_expander84" style="cursor: pointer;"><path id="kity_path_795" fill="white" stroke="gray" d="M307.5000083371997,141.50000416487455A6,6,0,1,1,295.5000083371997,141.50000416487455A6,6,0,1,1,307.5000083371997,141.50000416487455"></path><path id="kity_path_796" fill="none" stroke="gray" d="M297.0000083371997,141.50000416487455L306.0000083371997,141.50000416487455"></path></g><path id="node_outline85" fill="none" stroke="none" d="M312.50000850111246,132.50000416487455h72a5,5,0,0,1,5,5v8a5,5,0,0,1,-5,5h-72a5,5,0,0,1,-5,-5v-8a5,5,0,0,1,5,-5z" stroke-width="3"></path><g id="node_text85" fill="black"><text id="kity_text_719" text-rendering="inherit" font-size="12" dy=".8em" y="133.70000413805246" x="312.50000850111246">材质Material</text></g></g><g id="minder_node80"><g id="node_expander83" style="cursor: pointer;"><path id="kity_path_792" fill="white" stroke="gray" d="M405.5000097975135,141.50000416487455A6,6,0,1,1,393.5000097975135,141.50000416487455A6,6,0,1,1,405.5000097975135,141.50000416487455"></path><path id="kity_path_793" fill="none" stroke="gray" d="M395.0000097975135,141.50000416487455L404.0000097975135,141.50000416487455"></path></g><path id="node_outline84" fill="none" stroke="none" d="M410.50000996142626,132.50000416487455h135a5,5,0,0,1,5,5v8a5,5,0,0,1,-5,5h-135a5,5,0,0,1,-5,-5v-8a5,5,0,0,1,5,-5z" stroke-width="3"></path><g id="node_text84" fill="black"><text id="kity_text_717" text-rendering="inherit" font-size="12" dy=".8em" y="133.70000413805246" x="410.50000996142626">材质的纹理贴图属性map</text></g></g><g id="minder_node81"><g id="node_expander82" style="cursor: pointer;" display="none"><path id="kity_path_789" fill="white" stroke="gray" d="M566.5000121966004,141.50000416487455A6,6,0,1,1,554.5000121966004,141.50000416487455A6,6,0,1,1,566.5000121966004,141.50000416487455"></path><path id="kity_path_790" fill="none" stroke="gray"></path></g><path id="node_outline83" fill="none" stroke="none" d="M571.5000123605132,132.50000416487455h114a5,5,0,0,1,5,5v8a5,5,0,0,1,-5,5h-114a5,5,0,0,1,-5,-5v-8a5,5,0,0,1,5,-5z" stroke-width="3"></path><g id="node_text83" fill="black"><text id="kity_text_715" text-rendering="inherit" font-size="12" dy=".8em" y="133.70000413805246" x="571.5000123605132">值：纹理对象texture</text></g></g><g id="minder_node82"><g id="node_expander71" style="cursor: pointer;"><path id="kity_path_684" fill="white" stroke="gray" d="M157.5000061020255,183.50000479072332A6,6,0,1,1,145.5000061020255,183.50000479072332A6,6,0,1,1,157.5000061020255,183.50000479072332"></path><path id="kity_path_685" fill="none" stroke="gray" d="M147.0000061020255,183.50000479072332L156.0000061020255,183.50000479072332"></path></g><path id="node_outline72" fill="rgb(238, 246, 238)" stroke="rgb(115, 191, 118)" d="M161.50000650435686,166.50000479072332h169a3,3,0,0,1,3,3v28a3,3,0,0,1,-3,3h-169a3,3,0,0,1,-3,-3v-28a3,3,0,0,1,3,-3z" stroke-width="1"></path><g id="node_text72" fill="black"><text id="kity_text_681" text-rendering="inherit" font-size="14" dy=".8em" y="174.40000475943089" x="178.50000650435686">纹理对象Texture</text></g><a id="kity_a_830" xlink:href="http://www.yanhuangxueyuan.com/threejs/docs/index.html#api/zh/textures/Texture" target="_blank" xlink:title="http://www.yanhuangxueyuan.com/threejs/docs/index.html#api/zh/textures/Texture" style="cursor: pointer;"><path id="kity_path_832" fill="rgba(255, 255, 255, 0)" stroke="none" d="M293.5000081881881,172.50000471621752h16a4,4,0,0,1,4,4v14a4,4,0,0,1,-4,4h-16a4,4,0,0,1,-4,-4v-14a4,4,0,0,1,4,-4z"></path><path id="kity_path_831" fill="#666" stroke="none" d="M308.11400818818805,188.7240047162175h-1.278c-1.668,0,-3.07,-1.07,-3.599,-2.556h4.877c0.707,0,1.278,-0.571,1.278,-1.278V182.33400471621752c0,-0.707,-0.571,-1.278,-1.278,-1.278h-4.877C303.7660081881881,179.57100471621752,305.1680081881881,178.50000471621752,306.8360081881881,178.50000471621752h1.278c2.116,0,3.834,1.716,3.834,3.834V184.8900047162175C311.94800818818806,187.00800471621753,310.2300081881881,188.7240047162175,308.11400818818805,188.7240047162175zM296.6120081881881,183.6120047162175c0,-0.707,0.573,-1.278,1.278,-1.278h7.668c0.707,0,1.278,0.571,1.278,1.278S306.26500818818806,184.8900047162175,305.55800818818807,184.8900047162175H297.89000818818806C297.1850081881881,184.8900047162175,296.6120081881881,184.3190047162175,296.6120081881881,183.6120047162175zM294.05600818818806,182.33400471621752V184.8900047162175c0,0.707,0.573,1.278,1.278,1.278h4.877c-0.528,1.486,-1.932,2.556,-3.599,2.556H295.3340081881881C293.2160081881881,188.7240047162175,291.5000081881881,187.00800471621753,291.5000081881881,184.8900047162175V182.33400471621752C291.5000081881881,180.21600471621753,293.2160081881881,178.50000471621752,295.3340081881881,178.50000471621752h1.278c1.667,0,3.071,1.071,3.599,2.556H295.3340081881881C294.6290081881881,181.05600471621753,294.05600818818806,181.62700471621753,294.05600818818806,182.33400471621752z"></path></a></g><g id="minder_node83"><g id="node_expander85" style="cursor: pointer;" display="none"><path id="kity_path_798" fill="white" stroke="gray" d="M349.50000896304846,183.50000479072332A6,6,0,1,1,337.50000896304846,183.50000479072332A6,6,0,1,1,349.50000896304846,183.50000479072332"></path><path id="kity_path_799" fill="none" stroke="gray"></path></g><path id="node_outline86" fill="none" stroke="none" d="M354.50000912696123,174.50000479072332h228a5,5,0,0,1,5,5v8a5,5,0,0,1,-5,5h-228a5,5,0,0,1,-5,-5v-8a5,5,0,0,1,5,-5z" stroke-width="3"></path><g id="node_text86" fill="black"><text id="kity_text_721" text-rendering="inherit" font-size="12" dy=".8em" y="175.70000476390123" x="354.50000912696123">image属性：image对象，html的img元素</text></g></g><g id="minder_node84"><g id="node_expander70" style="cursor: pointer;"><path id="kity_path_678" fill="white" stroke="gray" d="M157.5000061020255,238.5000056102872A6,6,0,1,1,145.5000061020255,238.5000056102872A6,6,0,1,1,157.5000061020255,238.5000056102872"></path><path id="kity_path_679" fill="none" stroke="gray" d="M147.0000061020255,238.5000056102872L156.0000061020255,238.5000056102872"></path></g><path id="node_outline71" fill="rgb(238, 246, 238)" stroke="rgb(115, 191, 118)" d="M161.50000650435686,221.5000056102872h222a3,3,0,0,1,3,3v28a3,3,0,0,1,-3,3h-222a3,3,0,0,1,-3,-3v-28a3,3,0,0,1,3,-3z" stroke-width="1"></path><g id="node_text71" fill="black"><text id="kity_text_675" text-rendering="inherit" font-size="14" dy=".8em" y="229.40000557899475" x="178.50000650435686">图片加载器ImageLoader</text></g><a id="kity_a_833" xlink:href="http://www.yanhuangxueyuan.com/threejs/docs/index.html#api/zh/loaders/ImageLoader" target="_blank" xlink:title="http://www.yanhuangxueyuan.com/threejs/docs/index.html#api/zh/loaders/ImageLoader" style="cursor: pointer;"><path id="kity_path_835" fill="rgba(255, 255, 255, 0)" stroke="none" d="M346.5000089779496,227.50000553578138h16a4,4,0,0,1,4,4v14a4,4,0,0,1,-4,4h-16a4,4,0,0,1,-4,-4v-14a4,4,0,0,1,4,-4z"></path><path id="kity_path_834" fill="#666" stroke="none" d="M361.1140089779496,243.72400553578137h-1.278c-1.668,0,-3.07,-1.07,-3.599,-2.556h4.877c0.707,0,1.278,-0.571,1.278,-1.278V237.3340055357814c0,-0.707,-0.571,-1.278,-1.278,-1.278h-4.877C356.76600897794964,234.57100553578138,358.1680089779496,233.50000553578138,359.83600897794963,233.50000553578138h1.278c2.116,0,3.834,1.716,3.834,3.834V239.89000553578137C364.9480089779496,242.0080055357814,363.23000897794964,243.72400553578137,361.1140089779496,243.72400553578137zM349.61200897794964,238.61200553578138c0,-0.707,0.573,-1.278,1.278,-1.278h7.668c0.707,0,1.278,0.571,1.278,1.278S359.2650089779496,239.89000553578137,358.5580089779496,239.89000553578137H350.8900089779496C350.1850089779496,239.89000553578137,349.61200897794964,239.31900553578137,349.61200897794964,238.61200553578138zM347.0560089779496,237.3340055357814V239.89000553578137c0,0.707,0.573,1.278,1.278,1.278h4.877c-0.528,1.486,-1.932,2.556,-3.599,2.556H348.3340089779496C346.2160089779496,243.72400553578137,344.5000089779496,242.0080055357814,344.5000089779496,239.89000553578137V237.3340055357814C344.5000089779496,235.2160055357814,346.2160089779496,233.50000553578138,348.3340089779496,233.50000553578138h1.278c1.667,0,3.071,1.071,3.599,2.556H348.3340089779496C347.62900897794964,236.0560055357814,347.0560089779496,236.6270055357814,347.0560089779496,237.3340055357814z"></path></a></g><g id="minder_node85"><g id="node_expander86" style="cursor: pointer;" display="none"><path id="kity_path_801" fill="white" stroke="gray" d="M402.50000975281,225.5000054165721A6,6,0,1,1,390.50000975281,225.5000054165721A6,6,0,1,1,402.50000975281,225.5000054165721"></path><path id="kity_path_802" fill="none" stroke="gray"></path></g><path id="node_outline87" fill="none" stroke="none" d="M407.5000099167228,216.5000054165721h301a5,5,0,0,1,5,5v8a5,5,0,0,1,-5,5h-301a5,5,0,0,1,-5,-5v-8a5,5,0,0,1,5,-5z" stroke-width="3"></path><g id="node_text87" fill="black"><text id="kity_text_723" text-rendering="inherit" font-size="12" dy=".8em" y="217.70000538975" x="407.5000099167228">加载一张图片，返回一个image对象，可以用来生成纹理</text></g></g><g id="minder_node86"><g id="node_expander88" style="cursor: pointer;"><path id="kity_path_807" fill="white" stroke="gray" d="M402.50000975281,251.50000580400229A6,6,0,1,1,390.50000975281,251.50000580400229A6,6,0,1,1,402.50000975281,251.50000580400229"></path><path id="kity_path_808" fill="none" stroke="gray" d="M392.00000975281,251.50000580400229L401.00000975281,251.50000580400229"></path></g><path id="node_outline89" fill="none" stroke="none" d="M407.5000099167228,242.50000580400229h48a5,5,0,0,1,5,5v8a5,5,0,0,1,-5,5h-48a5,5,0,0,1,-5,-5v-8a5,5,0,0,1,5,-5z" stroke-width="3"></path><g id="node_text89" fill="black"><text id="kity_text_727" text-rendering="inherit" font-size="12" dy=".8em" y="243.7000057771802" x="407.5000099167228">内部使用</text></g></g><g id="minder_node87"><g id="node_expander87" style="cursor: pointer;" display="none"><path id="kity_path_804" fill="white" stroke="gray" d="M476.50001085549593,251.50000580400229A6,6,0,1,1,464.50001085549593,251.50000580400229A6,6,0,1,1,476.50001085549593,251.50000580400229"></path><path id="kity_path_805" fill="none" stroke="gray"></path></g><path id="node_outline88" fill="none" stroke="none" d="M481.5000110194087,242.50000580400229h120a5,5,0,0,1,5,5v8a5,5,0,0,1,-5,5h-120a5,5,0,0,1,-5,-5v-8a5,5,0,0,1,5,-5z" stroke-width="3"></path><g id="node_text88" fill="black"><text id="kity_text_725" text-rendering="inherit" font-size="12" dy=".8em" y="243.7000057771802" x="481.5000110194087">文件加载器FileLoader</text></g></g><g id="minder_node88"><g id="node_expander69" style="cursor: pointer;"><path id="kity_path_672" fill="white" stroke="gray" d="M157.5000061020255,298.50000650435686A6,6,0,1,1,145.5000061020255,298.50000650435686A6,6,0,1,1,157.5000061020255,298.50000650435686"></path><path id="kity_path_673" fill="none" stroke="gray" d="M147.0000061020255,298.50000650435686L156.0000061020255,298.50000650435686"></path></g><path id="node_outline70" fill="rgb(238, 246, 238)" stroke="rgb(115, 191, 118)" d="M161.50000650435686,285.50000650435686h90a3,3,0,0,1,3,3v20a3,3,0,0,1,-3,3h-90a3,3,0,0,1,-3,-3v-20a3,3,0,0,1,3,-3z" stroke-width="1"></path><g id="node_text70" fill="black"><text id="kity_text_669" text-rendering="inherit" font-size="14" dy=".8em" y="289.4000064730644" x="178.50000650435686">纹理贴图</text></g></g><g id="minder_node89"><g id="node_expander90" style="cursor: pointer;"><path id="kity_path_813" fill="white" stroke="gray" d="M270.5000077858567,285.50000631064177A6,6,0,1,1,258.5000077858567,285.50000631064177A6,6,0,1,1,270.5000077858567,285.50000631064177"></path><path id="kity_path_814" fill="none" stroke="gray" d="M260.0000077858567,285.50000631064177L269.0000077858567,285.50000631064177"></path></g><path id="node_outline91" fill="none" stroke="none" d="M275.5000079497695,276.50000631064177h127a5,5,0,0,1,5,5v8a5,5,0,0,1,-5,5h-127a5,5,0,0,1,-5,-5v-8a5,5,0,0,1,5,-5z" stroke-width="3"></path><g id="node_text91" fill="black"><text id="kity_text_731" text-rendering="inherit" font-size="12" dy=".8em" y="277.7000062838197" x="275.5000079497695">图片宽高最好是2的次方</text></g></g><g id="minder_node90"><g id="node_expander89" style="cursor: pointer;" display="none"><path id="kity_path_810" fill="white" stroke="gray" d="M423.5000100657344,285.50000631064177A6,6,0,1,1,411.5000100657344,285.50000631064177A6,6,0,1,1,423.5000100657344,285.50000631064177"></path><path id="kity_path_811" fill="none" stroke="gray"></path></g><path id="node_outline90" fill="none" stroke="none" d="M428.50001022964716,276.50000631064177h137a5,5,0,0,1,5,5v8a5,5,0,0,1,-5,5h-137a5,5,0,0,1,-5,-5v-8a5,5,0,0,1,5,-5z" stroke-width="3"></path><g id="node_text90" fill="black"><text id="kity_text_729" text-rendering="inherit" font-size="12" dy=".8em" y="277.7000062838197" x="428.50001022964716">比如512X512、64X64.....</text></g></g><g id="minder_node91"><g id="node_expander91" style="cursor: pointer;" display="none"><path id="kity_path_816" fill="white" stroke="gray" d="M270.5000077858567,311.50000669807196A6,6,0,1,1,258.5000077858567,311.50000669807196A6,6,0,1,1,270.5000077858567,311.50000669807196"></path><path id="kity_path_817" fill="none" stroke="gray"></path></g><path id="node_outline92" fill="none" stroke="none" d="M275.5000079497695,302.50000669807196h151a5,5,0,0,1,5,5v8a5,5,0,0,1,-5,5h-151a5,5,0,0,1,-5,-5v-8a5,5,0,0,1,5,-5z" stroke-width="3"></path><g id="node_text92" fill="black"><text id="kity_text_733" text-rendering="inherit" font-size="12" dy=".8em" y="303.70000667124987" x="275.5000079497695">支持常见的jpg、png等格式</text></g></g><g id="minder_node92"><g id="node_expander68" style="cursor: pointer;"><path id="kity_path_666" fill="white" stroke="gray" d="M157.5000061020255,371.5000075921416A6,6,0,1,1,145.5000061020255,371.5000075921416A6,6,0,1,1,157.5000061020255,371.5000075921416"></path><path id="kity_path_667" fill="none" stroke="gray" d="M147.0000061020255,371.5000075921416L156.0000061020255,371.5000075921416"></path></g><path id="node_outline69" fill="rgb(238, 246, 238)" stroke="rgb(115, 191, 118)" d="M161.50000650435686,358.5000075921416h123a3,3,0,0,1,3,3v20a3,3,0,0,1,-3,3h-123a3,3,0,0,1,-3,-3v-20a3,3,0,0,1,3,-3z" stroke-width="1"></path><g id="node_text69" fill="black"><text id="kity_text_663" text-rendering="inherit" font-size="14" dy=".8em" y="362.4000075608492" x="178.50000650435686">协作:如何映射</text></g></g><g id="minder_node93"><g id="node_expander93" style="cursor: pointer;"><path id="kity_path_822" fill="white" stroke="gray" d="M303.50000827759504,345.50000720471144A6,6,0,1,1,291.50000827759504,345.50000720471144A6,6,0,1,1,303.50000827759504,345.50000720471144"></path><path id="kity_path_823" fill="none" stroke="gray" d="M293.00000827759504,345.50000720471144L302.00000827759504,345.50000720471144"></path></g><path id="node_outline94" fill="none" stroke="none" d="M308.5000084415078,336.50000720471144h160a5,5,0,0,1,5,5v8a5,5,0,0,1,-5,5h-160a5,5,0,0,1,-5,-5v-8a5,5,0,0,1,5,-5z" stroke-width="3"></path><g id="node_text94" fill="black"><text id="kity_text_737" text-rendering="inherit" font-size="12" dy=".8em" y="337.70000717788935" x="308.5000084415078">3D美术：创建模型和纹理贴图</text></g></g><g id="minder_node94"><g id="node_expander92" style="cursor: pointer;" display="none"><path id="kity_path_819" fill="white" stroke="gray" d="M489.500011049211,345.50000720471144A6,6,0,1,1,477.500011049211,345.50000720471144A6,6,0,1,1,489.500011049211,345.50000720471144"></path><path id="kity_path_820" fill="none" stroke="gray"></path></g><path id="node_outline93" fill="none" stroke="none" d="M494.5000112131238,336.50000720471144h156a5,5,0,0,1,5,5v8a5,5,0,0,1,-5,5h-156a5,5,0,0,1,-5,-5v-8a5,5,0,0,1,5,-5z" stroke-width="3"></path><g id="node_text93" fill="black"><text id="kity_text_735" text-rendering="inherit" font-size="12" dy=".8em" y="337.70000717788935" x="494.5000112131238">纹理贴图如何映射在几何体上</text></g></g><g id="minder_node95"><g id="node_expander94" style="cursor: pointer;" display="none"><path id="kity_path_825" fill="white" stroke="gray" d="M303.50000827759504,371.5000075921416A6,6,0,1,1,291.50000827759504,371.5000075921416A6,6,0,1,1,303.50000827759504,371.5000075921416"></path><path id="kity_path_826" fill="none" stroke="gray"></path></g><path id="node_outline95" fill="none" stroke="none" d="M308.5000084415078,362.5000075921416h174a5,5,0,0,1,5,5v8a5,5,0,0,1,-5,5h-174a5,5,0,0,1,-5,-5v-8a5,5,0,0,1,5,-5z" stroke-width="3"></path><g id="node_text95" fill="black"><text id="kity_text_739" text-rendering="inherit" font-size="12" dy=".8em" y="363.70000756531954" x="308.5000084415078">程序员：解析3D美术导出的资源</text></g></g><g id="minder_node96"><g id="node_expander95" style="cursor: pointer;" display="none"><path id="kity_path_828" fill="white" stroke="gray" d="M303.50000827759504,397.5000079795718A6,6,0,1,1,291.50000827759504,397.5000079795718A6,6,0,1,1,303.50000827759504,397.5000079795718"></path><path id="kity_path_829" fill="none" stroke="gray"></path></g><path id="node_outline96" fill="none" stroke="none" d="M308.5000084415078,388.5000079795718h493a5,5,0,0,1,5,5v8a5,5,0,0,1,-5,5h-493a5,5,0,0,1,-5,-5v-8a5,5,0,0,1,5,-5z" stroke-width="3"></path><g id="node_text96" fill="black"><text id="kity_text_741" text-rendering="inherit" font-size="12" dy=".8em" y="389.70000795274973" x="308.5000084415078">纹理贴图如何映射在几何体上，一般美术导出的模型会设置好，程序员只需要解析显示就可以</text></g></g></g></g></svg>