<svg id="kity_svg_6" xmlns="http://www.w3.org/2000/svg" xmlns:xlink="http://www.w3.org/1999/xlink" version="1.1" width="630" height="518" style="background: rgb(251, 251, 251); visibility: visible;" viewBox="0 0 630 518"><defs id="kity_defs_7"><linearGradient id="kity_linearGradient_17" x1="0" y1="0" x2="0" y2="1"><stop id="kity_stop_18" offset="0" stop-color="rgb(255, 255, 255)"></stop><stop id="kity_stop_19" offset="1" stop-color="rgb(204, 204, 204)"></stop></linearGradient><marker id="kity_marker_2" orient="auto" refX="6" refY="0" viewBox="-7 -7 14 14" markerWidth="7" markerHeight="7" markerUnits="userSpaceOnUse"><path id="kity_path_3" fill="rgb(123, 115, 191)" stroke="none" d="M6,0A6,6,0,1,1,-6,0A6,6,0,1,1,6,0"></path></marker></defs><g id="kity_g_8"><g id="minder1" text-rendering="optimize-speed"><g id="minder_connect_group1"><path id="kity_path_842" fill="none" stroke="rgb(123, 115, 191)" stroke-width="1" d="M77.00000432878733,191.50000501424074A174.5,158,0,0,1,251.50000432878733,33.50000501424074"></path><path id="kity_path_844" fill="none" stroke="rgb(123, 115, 191)" stroke-width="1" d="M77.00000432878733,191.50000501424074A174.5,92,0,0,1,251.50000432878733,99.50000501424074"></path><path id="kity_path_846" fill="none" stroke="rgb(123, 115, 191)" stroke-width="1" d="M340.5000043287873,165.50000501424074C360.5000043287873,165.50000501424074,360.5000043287873,165.50000501424074,380.5000043287873,165.50000501424074"></path><path id="kity_path_848" fill="none" stroke="rgb(123, 115, 191)" stroke-width="1" d="M314.5000043287873,349.50000501424074C334.5000043287873,349.50000501424074,334.5000043287873,230.50000501424074,354.5000043287873,230.50000501424074"></path><path id="kity_path_943" fill="none" stroke="rgb(123, 115, 191)" stroke-width="1" d="M77.00000432878733,191.50000501424074A174.5,158,0,0,0,251.50000432878733,349.50000501424074"></path><path id="kity_path_950" fill="none" stroke="rgb(123, 115, 191)" stroke-width="1" d="M314.5000043287873,349.50000501424074C334.5000043287873,349.50000501424074,334.5000043287873,282.50000501424074,354.5000043287873,282.50000501424074"></path><path id="kity_path_953" fill="none" stroke="rgb(123, 115, 191)" stroke-width="1" d="M314.5000043287873,349.50000501424074C334.5000043287873,349.50000501424074,334.5000043287873,360.50000501424074,354.5000043287873,360.50000501424074"></path><path id="kity_path_956" fill="none" stroke="rgb(123, 115, 191)" stroke-width="1" d="M314.5000043287873,349.50000501424074C334.5000043287873,349.50000501424074,334.5000043287873,464.50000501424074,354.5000043287873,464.50000501424074"></path><path id="kity_path_957" fill="none" stroke="rgb(123, 115, 191)" stroke-width="1" d="M461.5000043287873,360.50000501424074C469.5000043287873,360.50000501424074,469.5000043287873,333.50000501424074,477.5000043287873,333.50000501424074"></path><path id="kity_path_958" fill="none" stroke="rgb(123, 115, 191)" stroke-width="1" d="M461.5000043287873,360.50000501424074C469.5000043287873,360.50000501424074,469.5000043287873,385.50000501424074,477.5000043287873,385.50000501424074"></path><path id="kity_path_959" fill="none" stroke="rgb(123, 115, 191)" stroke-width="1" d="M495.5000043287873,464.50000501424074C502.0000043287873,464.50000501424074,502.0000043287873,435.50000501424074,508.5000043287873,435.50000501424074"></path><path id="kity_path_960" fill="none" stroke="rgb(123, 115, 191)" stroke-width="1" d="M495.5000043287873,464.50000501424074C502.0000043287873,464.50000501424074,502.0000043287873,487.50000501424074,508.5000043287873,487.50000501424074"></path><path id="kity_path_962" fill="none" stroke="rgb(123, 115, 191)" stroke-width="1" d="M77.00000432878733,191.50000501424074A174.5,26,0,0,1,251.50000432878733,165.50000501424074"></path><path id="kity_path_970" fill="none" stroke="rgb(123, 115, 191)" stroke-width="1" d="M328.5000043287873,99.50000501424074C348.5000043287873,99.50000501424074,348.5000043287873,99.50000501424074,368.5000043287873,99.50000501424074"></path><path id="kity_path_978" fill="none" stroke="rgb(123, 115, 191)" stroke-width="1" d="M348.5000043287873,33.50000501424074C368.5000043287873,33.50000501424074,368.5000043287873,33.50000501424074,388.5000043287873,33.50000501424074"></path><path id="kity_path_986" fill="none" stroke="rgb(123, 115, 191)" stroke-width="1" d="M472.5000043287873,230.50000501424074C492.5000043287873,230.50000501424074,492.5000043287873,230.50000501424074,512.5000043287873,230.50000501424074"></path></g><g id="minder_node1"><path id="node_outline1" fill="rgb(123, 115, 191)" stroke="rgb(123, 115, 191)" d="M25.500004328787327,171.50000501424074h103a5,5,0,0,1,5,5v30a5,5,0,0,1,-5,5h-103a5,5,0,0,1,-5,-5v-30a5,5,0,0,1,5,-5z" stroke-width="3"></path><g id="node_text1" fill="white"><text id="kity_text_22" text-rendering="inherit" font-size="16" dy=".8em" y="181.10000497847795" x="44.50000432878733">顶点数据</text></g></g><g id="kity_g_14" display="none"><path id="kity_path_15" fill="rgba(15, 0, 153, 0.5)" stroke="none" d="M253.50000432878733,160.50000501424074h87v20h-87z"></path><path id="kity_path_16" fill="none" stroke="rgb(13, 0, 128)" d="M253.50000432878733,180.50000501424074L340.5000043287873,180.50000501424074" stroke-width="1"></path></g><g id="minder_node98" opacity="1"><g id="node_expander96" style="cursor: pointer;"><path id="kity_path_870" fill="white" stroke="gray" d="M252.5000073388219,33.50000265985727A6,6,0,1,1,240.5000073388219,33.50000265985727A6,6,0,1,1,252.5000073388219,33.50000265985727"></path><path id="kity_path_871" fill="none" stroke="gray" d="M242.0000073388219,33.50000265985727L251.0000073388219,33.50000265985727"></path></g><path id="node_outline97" fill="rgb(239, 238, 246)" stroke="rgb(123, 115, 191)" d="M256.50000774115324,20.500002659857273h89a3,3,0,0,1,3,3v20a3,3,0,0,1,-3,3h-89a3,3,0,0,1,-3,-3v-20a3,3,0,0,1,3,-3z" stroke-width="1"></path><g id="node_text97" fill="black"><text id="kity_text_852" text-rendering="inherit" font-size="14" dy=".8em" y="24.400002628564835" x="273.50000774115324">position</text></g></g><g id="minder_node99" opacity="1"><g id="node_expander97" style="cursor: pointer;"><path id="kity_path_873" fill="white" stroke="gray" d="M252.5000073388219,99.50000364333391A6,6,0,1,1,240.5000073388219,99.50000364333391A6,6,0,1,1,252.5000073388219,99.50000364333391"></path><path id="kity_path_874" fill="none" stroke="gray" d="M242.0000073388219,99.50000364333391L251.0000073388219,99.50000364333391"></path></g><path id="node_outline98" fill="rgb(239, 238, 246)" stroke="rgb(123, 115, 191)" d="M256.50000774115324,86.50000364333391h69a3,3,0,0,1,3,3v20a3,3,0,0,1,-3,3h-69a3,3,0,0,1,-3,-3v-20a3,3,0,0,1,3,-3z" stroke-width="1"></path><g id="node_text98" fill="black"><text id="kity_text_854" text-rendering="inherit" font-size="14" dy=".8em" y="90.40000361204147" x="273.50000774115324">color</text></g></g><g id="minder_node100" opacity="1"><g id="node_expander98" style="cursor: pointer;" display="none"><path id="kity_path_876" fill="white" stroke="gray" d="M380.5000092461705,165.50000462681055A6,6,0,1,1,368.5000092461705,165.50000462681055A6,6,0,1,1,380.5000092461705,165.50000462681055"></path><path id="kity_path_877" fill="none" stroke="gray"></path></g><path id="node_outline99" fill="none" stroke="none" d="M385.5000094845891,154.50000462681055h132a5,5,0,0,1,5,5v12a5,5,0,0,1,-5,5h-132a5,5,0,0,1,-5,-5v-12a5,5,0,0,1,5,-5z" stroke-width="3"></path><g id="node_text99" fill="black"><text id="kity_text_856" text-rendering="inherit" font-size="12" dy=".8em" y="157.70000459998846" x="390.5000094845891">顶点法线方向向量数据</text></g></g><g id="minder_node101" opacity="1"><g id="node_expander100" style="cursor: pointer;"><path id="kity_path_882" fill="white" stroke="gray" d="M354.50000885874033,230.50000559538603A6,6,0,1,1,342.50000885874033,230.50000559538603A6,6,0,1,1,354.50000885874033,230.50000559538603"></path><path id="kity_path_883" fill="none" stroke="gray" d="M344.00000885874033,230.50000559538603L353.00000885874033,230.50000559538603"></path></g><path id="node_outline101" fill="none" stroke="none" d="M359.5000090971589,219.50000559538603h108a5,5,0,0,1,5,5v12a5,5,0,0,1,-5,5h-108a5,5,0,0,1,-5,-5v-12a5,5,0,0,1,5,-5z" stroke-width="3"></path><g id="node_text101" fill="black"><text id="kity_text_860" text-rendering="inherit" font-size="12" dy=".8em" y="222.70000556856394" x="364.5000090971589">顶点纹理坐标数据</text></g></g><g id="minder_node109"><g id="node_expander108" style="cursor: pointer;"><path id="kity_path_948" fill="white" stroke="gray" d="M252.5000073388219,349.5000073686242A6,6,0,1,1,240.5000073388219,349.5000073686242A6,6,0,1,1,252.5000073388219,349.5000073686242"></path><path id="kity_path_949" fill="none" stroke="gray" d="M242.0000073388219,349.5000073686242L251.0000073388219,349.5000073686242"></path></g><path id="node_outline109" fill="rgb(239, 238, 246)" stroke="rgb(123, 115, 191)" d="M256.50000774115324,336.5000073686242h55a3,3,0,0,1,3,3v20a3,3,0,0,1,-3,3h-55a3,3,0,0,1,-3,-3v-20a3,3,0,0,1,3,-3z" stroke-width="1"></path><g id="node_text109" fill="black"><text id="kity_text_945" text-rendering="inherit" font-size="14" dy=".8em" y="340.4000073373318" x="273.50000774115324">UV</text></g></g><g id="minder_node102" opacity="1"><g id="node_expander99" style="cursor: pointer;" display="none"><path id="kity_path_879" fill="white" stroke="gray" d="M354.50000885874033,282.5000063702464A6,6,0,1,1,342.50000885874033,282.5000063702464A6,6,0,1,1,354.50000885874033,282.5000063702464"></path><path id="kity_path_880" fill="none" stroke="gray"></path></g><path id="node_outline100" fill="none" stroke="none" d="M359.5000090971589,271.5000063702464h239a5,5,0,0,1,5,5v12a5,5,0,0,1,-5,5h-239a5,5,0,0,1,-5,-5v-12a5,5,0,0,1,5,-5z" stroke-width="3"></path><g id="node_text100" fill="black"><text id="kity_text_858" text-rendering="inherit" font-size="12" dy=".8em" y="274.7000063434243" x="364.5000090971589">和顶点位置、颜色、法向量等数据一一对应</text></g></g><g id="minder_node103" opacity="1"><g id="node_expander102" style="cursor: pointer;"><path id="kity_path_894" fill="white" stroke="gray" d="M354.50000885874033,360.500007532537A6,6,0,1,1,342.50000885874033,360.500007532537A6,6,0,1,1,354.50000885874033,360.500007532537"></path><path id="kity_path_895" fill="none" stroke="gray" d="M344.00000885874033,360.500007532537L353.00000885874033,360.500007532537"></path></g><path id="node_outline103" fill="none" stroke="none" d="M359.5000090971589,344.500007532537h97a5,5,0,0,1,5,5v22a5,5,0,0,1,-5,5h-97a5,5,0,0,1,-5,-5v-22a5,5,0,0,1,5,-5z" stroke-width="3"></path><g id="node_text103" fill="black"><text id="kity_text_891" text-rendering="inherit" font-size="12" dy=".8em" y="352.7000075057149" x="364.5000090971589">Geometry</text></g><a id="kity_a_907" xlink:href="http://www.yanhuangxueyuan.com/threejs/docs/index.html#api/zh/core/Geometry" target="_blank" xlink:title="http://www.yanhuangxueyuan.com/threejs/docs/index.html#api/zh/core/Geometry" style="cursor: pointer;"><path id="kity_path_909" fill="rgba(255, 255, 255, 0)" stroke="none" d="M431.5000100657344,349.5000074580312h16a4,4,0,0,1,4,4v14a4,4,0,0,1,-4,4h-16a4,4,0,0,1,-4,-4v-14a4,4,0,0,1,4,-4z"></path><path id="kity_path_908" fill="#666" stroke="none" d="M446.11401006573436,365.72400745803117h-1.278c-1.668,0,-3.07,-1.07,-3.599,-2.556h4.877c0.707,0,1.278,-0.571,1.278,-1.278V359.3340074580312c0,-0.707,-0.571,-1.278,-1.278,-1.278h-4.877C441.7660100657344,356.5710074580312,443.1680100657344,355.5000074580312,444.8360100657344,355.5000074580312h1.278c2.116,0,3.834,1.716,3.834,3.834V361.89000745803116C449.94801006573437,364.00800745803116,448.2300100657344,365.72400745803117,446.11401006573436,365.72400745803117zM434.6120100657344,360.6120074580312c0,-0.707,0.573,-1.278,1.278,-1.278h7.668c0.707,0,1.278,0.571,1.278,1.278S444.2650100657344,361.89000745803116,443.5580100657344,361.89000745803116H435.8900100657344C435.1850100657344,361.89000745803116,434.6120100657344,361.3190074580312,434.6120100657344,360.6120074580312zM432.05601006573437,359.3340074580312V361.89000745803116c0,0.707,0.573,1.278,1.278,1.278h4.877c-0.528,1.486,-1.932,2.556,-3.599,2.556H433.3340100657344C431.2160100657344,365.72400745803117,429.5000100657344,364.00800745803116,429.5000100657344,361.89000745803116V359.3340074580312C429.5000100657344,357.2160074580312,431.2160100657344,355.5000074580312,433.3340100657344,355.5000074580312h1.278c1.667,0,3.071,1.071,3.599,2.556H433.3340100657344C432.6290100657344,358.05600745803116,432.05601006573437,358.6270074580312,432.05601006573437,359.3340074580312z"></path></a></g><g id="minder_node104" opacity="1"><g id="node_expander103" style="cursor: pointer;"><path id="kity_path_902" fill="white" stroke="gray" d="M354.50000885874033,464.50000908225775A6,6,0,1,1,342.50000885874033,464.50000908225775A6,6,0,1,1,354.50000885874033,464.50000908225775"></path><path id="kity_path_903" fill="none" stroke="gray" d="M344.00000885874033,464.50000908225775L353.00000885874033,464.50000908225775"></path></g><path id="node_outline104" fill="none" stroke="none" d="M359.5000090971589,448.50000908225775h131a5,5,0,0,1,5,5v22a5,5,0,0,1,-5,5h-131a5,5,0,0,1,-5,-5v-22a5,5,0,0,1,5,-5z" stroke-width="3"></path><g id="node_text104" fill="black"><text id="kity_text_899" text-rendering="inherit" font-size="12" dy=".8em" y="456.70000905543566" x="364.5000090971589">BufferGeometry</text></g><a id="kity_a_904" xlink:href="http://www.yanhuangxueyuan.com/threejs/docs/index.html#api/zh/core/BufferGeometry" target="_blank" xlink:title="http://www.yanhuangxueyuan.com/threejs/docs/index.html#api/zh/core/BufferGeometry" style="cursor: pointer;"><path id="kity_path_906" fill="rgba(255, 255, 255, 0)" stroke="none" d="M465.50001057237387,453.50000900775194h16a4,4,0,0,1,4,4v14a4,4,0,0,1,-4,4h-16a4,4,0,0,1,-4,-4v-14a4,4,0,0,1,4,-4z"></path><path id="kity_path_905" fill="#666" stroke="none" d="M480.11401057237384,469.72400900775193h-1.278c-1.668,0,-3.07,-1.07,-3.599,-2.556h4.877c0.707,0,1.278,-0.571,1.278,-1.278V463.33400900775194c0,-0.707,-0.571,-1.278,-1.278,-1.278h-4.877C475.7660105723739,460.57100900775197,477.1680105723739,459.50000900775194,478.8360105723739,459.50000900775194h1.278c2.116,0,3.834,1.716,3.834,3.834V465.8900090077519C483.94801057237385,468.0080090077519,482.2300105723739,469.72400900775193,480.11401057237384,469.72400900775193zM468.6120105723739,464.61200900775196c0,-0.707,0.573,-1.278,1.278,-1.278h7.668c0.707,0,1.278,0.571,1.278,1.278S478.26501057237385,465.8900090077519,477.55801057237386,465.8900090077519H469.89001057237385C469.18501057237387,465.8900090077519,468.6120105723739,465.31900900775196,468.6120105723739,464.61200900775196zM466.05601057237385,463.33400900775194V465.8900090077519c0,0.707,0.573,1.278,1.278,1.278h4.877c-0.528,1.486,-1.932,2.556,-3.599,2.556H467.33401057237387C465.2160105723739,469.72400900775193,463.50001057237387,468.0080090077519,463.50001057237387,465.8900090077519V463.33400900775194C463.50001057237387,461.21600900775195,465.2160105723739,459.50000900775194,467.33401057237387,459.50000900775194h1.278c1.667,0,3.071,1.071,3.599,2.556H467.33401057237387C466.6290105723739,462.0560090077519,466.05601057237385,462.62700900775195,466.05601057237385,463.33400900775194z"></path></a></g><g id="minder_node105" opacity="1"><g id="node_expander104" style="cursor: pointer;" display="none"><path id="kity_path_916" fill="white" stroke="gray" d="M477.50001069158316,333.50000713020563A6,6,0,1,1,465.50001069158316,333.50000713020563A6,6,0,1,1,477.50001069158316,333.50000713020563"></path><path id="kity_path_917" fill="none" stroke="gray"></path></g><path id="node_outline105" fill="none" stroke="none" d="M482.50001093000174,322.50000713020563h109a5,5,0,0,1,5,5v12a5,5,0,0,1,-5,5h-109a5,5,0,0,1,-5,-5v-12a5,5,0,0,1,5,-5z" stroke-width="3"></path><g id="node_text105" fill="black"><text id="kity_text_913" text-rendering="inherit" font-size="12" dy=".8em" y="325.70000710338354" x="487.50001093000174">.faceVertexUvs[0]</text></g></g><g id="minder_node106" opacity="1"><g id="node_expander105" style="cursor: pointer;" display="none"><path id="kity_path_924" fill="white" stroke="gray" d="M477.50001069158316,385.500007905066A6,6,0,1,1,465.50001069158316,385.500007905066A6,6,0,1,1,477.50001069158316,385.500007905066"></path><path id="kity_path_925" fill="none" stroke="gray"></path></g><path id="node_outline106" fill="none" stroke="none" d="M482.50001093000174,374.500007905066h109a5,5,0,0,1,5,5v12a5,5,0,0,1,-5,5h-109a5,5,0,0,1,-5,-5v-12a5,5,0,0,1,5,-5z" stroke-width="3"></path><g id="node_text106" fill="black"><text id="kity_text_921" text-rendering="inherit" font-size="12" dy=".8em" y="377.7000078782439" x="487.50001093000174">.faceVertexUvs[1]</text></g></g><g id="minder_node107" opacity="1"><g id="node_expander106" style="cursor: pointer;" display="none"><path id="kity_path_932" fill="white" stroke="gray" d="M508.50001115351915,435.5000086501241A6,6,0,1,1,496.50001115351915,435.5000086501241A6,6,0,1,1,508.50001115351915,435.5000086501241"></path><path id="kity_path_933" fill="none" stroke="gray"></path></g><path id="node_outline107" fill="none" stroke="none" d="M513.5000113919377,424.5000086501241h86a5,5,0,0,1,5,5v12a5,5,0,0,1,-5,5h-86a5,5,0,0,1,-5,-5v-12a5,5,0,0,1,5,-5z" stroke-width="3"></path><g id="node_text107" fill="black"><text id="kity_text_929" text-rendering="inherit" font-size="12" dy=".8em" y="427.700008623302" x="518.5000113919377">.attributes.uv</text></g></g><g id="minder_node108" opacity="1"><g id="node_expander107" style="cursor: pointer;" display="none"><path id="kity_path_940" fill="white" stroke="gray" d="M508.50001115351915,487.50000942498446A6,6,0,1,1,496.50001115351915,487.50000942498446A6,6,0,1,1,508.50001115351915,487.50000942498446"></path><path id="kity_path_941" fill="none" stroke="gray"></path></g><path id="node_outline108" fill="none" stroke="none" d="M513.5000113919377,476.50000942498446h92a5,5,0,0,1,5,5v12a5,5,0,0,1,-5,5h-92a5,5,0,0,1,-5,-5v-12a5,5,0,0,1,5,-5z" stroke-width="3"></path><g id="node_text108" fill="black"><text id="kity_text_937" text-rendering="inherit" font-size="12" dy=".8em" y="479.70000939816236" x="518.5000113919377">.attributes.uv2</text></g></g><g id="minder_node110"><g id="node_expander109" style="cursor: pointer;"><path id="kity_path_967" fill="white" stroke="gray" d="M252.5000073388219,165.50000462681055A6,6,0,1,1,240.5000073388219,165.50000462681055A6,6,0,1,1,252.5000073388219,165.50000462681055"></path><path id="kity_path_968" fill="none" stroke="gray" d="M242.0000073388219,165.50000462681055L251.0000073388219,165.50000462681055"></path></g><path id="node_outline110" fill="rgb(239, 238, 246)" stroke="rgb(123, 115, 191)" d="M256.50000774115324,152.50000462681055h81a3,3,0,0,1,3,3v20a3,3,0,0,1,-3,3h-81a3,3,0,0,1,-3,-3v-20a3,3,0,0,1,3,-3z" stroke-width="1"></path><g id="node_text110" fill="black"><text id="kity_text_964" text-rendering="inherit" font-size="14" dy=".8em" y="156.4000045955181" x="273.50000774115324">normal</text></g></g><g id="kity_g_12" display="none"><path id="kity_path_13" fill="none" stroke="rgb(71, 66, 112)" d="M256.5000043287873,185.50000501424074h81a3,3,0,0,1,3,3v20a3,3,0,0,1,-3,3h-81a3,3,0,0,1,-3,-3v-20a3,3,0,0,1,3,-3z" stroke-width="5"></path></g><g id="minder_node111"><g id="node_expander110" style="cursor: pointer;" display="none"><path id="kity_path_975" fill="white" stroke="gray" d="M368.5000090673566,99.50000364333391A6,6,0,1,1,356.5000090673566,99.50000364333391A6,6,0,1,1,368.5000090673566,99.50000364333391"></path><path id="kity_path_976" fill="none" stroke="gray"></path></g><path id="node_outline111" fill="none" stroke="none" d="M373.50000930577517,88.50000364333391h84a5,5,0,0,1,5,5v12a5,5,0,0,1,-5,5h-84a5,5,0,0,1,-5,-5v-12a5,5,0,0,1,5,-5z" stroke-width="3"></path><g id="node_text111" fill="black"><text id="kity_text_972" text-rendering="inherit" font-size="12" dy=".8em" y="91.70000361651182" x="378.50000930577517">顶点颜色数据</text></g></g><g id="minder_node112"><g id="node_expander111" style="cursor: pointer;" display="none"><path id="kity_path_983" fill="white" stroke="gray" d="M388.5000093653798,33.50000265985727A6,6,0,1,1,376.5000093653798,33.50000265985727A6,6,0,1,1,388.5000093653798,33.50000265985727"></path><path id="kity_path_984" fill="none" stroke="gray"></path></g><path id="node_outline112" fill="none" stroke="none" d="M393.5000096037984,22.500002659857273h108a5,5,0,0,1,5,5v12a5,5,0,0,1,-5,5h-108a5,5,0,0,1,-5,-5v-12a5,5,0,0,1,5,-5z" stroke-width="3"></path><g id="node_text112" fill="black"><text id="kity_text_980" text-rendering="inherit" font-size="12" dy=".8em" y="25.700002633035183" x="398.5000096037984">顶点位置坐标数据</text></g></g><g id="minder_node113"><g id="node_expander112" style="cursor: pointer;" display="none"><path id="kity_path_991" fill="white" stroke="gray" d="M512.5000112131238,230.50000559538603A6,6,0,1,1,500.5000112131238,230.50000559538603A6,6,0,1,1,512.5000112131238,230.50000559538603"></path><path id="kity_path_992" fill="none" stroke="gray"></path></g><path id="node_outline113" fill="none" stroke="none" d="M517.5000114515424,219.50000559538603h59a5,5,0,0,1,5,5v12a5,5,0,0,1,-5,5h-59a5,5,0,0,1,-5,-5v-12a5,5,0,0,1,5,-5z" stroke-width="3"></path><g id="node_text113" fill="black"><text id="kity_text_988" text-rendering="inherit" font-size="12" dy=".8em" y="222.70000556856394" x="522.5000114515424">图片映射</text></g></g></g></g></svg>