<svg id="kity_svg_6" xmlns="http://www.w3.org/2000/svg" xmlns:xlink="http://www.w3.org/1999/xlink" version="1.1" width="531" height="501" style="background: rgba(251, 251, 251,0); display: inline;" viewBox="0 0 531 501"><defs id="kity_defs_7"><linearGradient id="kity_linearGradient_17" x1="0" y1="0" x2="0" y2="1"><stop id="kity_stop_18" offset="0" stop-color="rgb(255, 255, 255)"></stop><stop id="kity_stop_19" offset="1" stop-color="rgb(204, 204, 204)"></stop></linearGradient><marker id="kity_marker_4" orient="auto" refX="6" refY="0" viewBox="-7 -7 14 14" markerWidth="7" markerHeight="7" markerUnits="userSpaceOnUse"><path id="kity_path_5" fill="rgb(115, 161, 191)" stroke="none" d="M6,0A6,6,0,1,1,-6,0A6,6,0,1,1,6,0"></path></marker><marker id="kity_marker_2" orient="auto" refX="6" refY="0" viewBox="-7 -7 14 14" markerWidth="7" markerHeight="7" markerUnits="userSpaceOnUse"><path id="kity_path_3" fill="rgb(115, 161, 191)" stroke="none" d="M6,0A6,6,0,1,1,-6,0A6,6,0,1,1,6,0"></path></marker></defs><g id="kity_g_8"><g id="minder1" text-rendering="optimize-speed"><g id="minder_connect_group1"><path id="kity_path_31" fill="none" stroke="rgb(115, 161, 191)" stroke-width="1" d="M65,291.5A60.5,161.5,0,0,1,125.5,130"></path><path id="kity_path_51" fill="none" stroke="rgb(115, 161, 191)" stroke-width="1" d="M65,291.5A64.5,0.5,0,0,1,129.5,291"></path><path id="kity_path_59" fill="none" stroke="rgb(115, 161, 191)" stroke-width="1" d="M65,291.5A66.5,152.5,0,0,0,131.5,444"></path><path id="kity_path_183" fill="none" stroke="rgb(115, 161, 191)" stroke-width="1" d="M236.5,130.5C244.5,130,244.5,74.5,252.5,74.5"></path><path id="kity_path_191" fill="none" stroke="rgb(115, 161, 191)" stroke-width="1" d="M236.5,130.5C244.5,130,244.5,185.5,252.5,185.5"></path><path id="kity_path_199" fill="none" stroke="rgb(115, 161, 191)" stroke-width="1" d="M311.5,74.5C319.5,74.5,319.5,42.5,327.5,42.5"></path><path id="kity_path_207" fill="none" stroke="rgb(115, 161, 191)" stroke-width="1" d="M311.5,74.5C319.5,74.5,319.5,107.5,327.5,107.5"></path><path id="kity_path_215" fill="none" stroke="rgb(115, 161, 191)" stroke-width="1" d="M384.5,107.5C392.5,107.5,392.5,81.5,400.5,81.5"></path><path id="kity_path_223" fill="none" stroke="rgb(115, 161, 191)" stroke-width="1" d="M384.5,107.5C392.5,107.5,392.5,107.5,400.5,107.5"></path><path id="kity_path_231" fill="none" stroke="rgb(115, 161, 191)" stroke-width="1" d="M384.5,107.5C392.5,107.5,392.5,133.5,400.5,133.5"></path><path id="kity_path_263" fill="none" stroke="rgb(115, 161, 191)" stroke-width="1" d="M395.5,42.5C403.5,42.5,403.5,29.5,411.5,29.5"></path><path id="kity_path_271" fill="none" stroke="rgb(115, 161, 191)" stroke-width="1" d="M395.5,42.5C403.5,42.5,403.5,55.5,411.5,55.5"></path><path id="kity_path_319" fill="none" stroke="rgb(115, 161, 191)" stroke-width="1" d="M291.5,185.5C299.5,185.5,299.5,159.5,307.5,159.5"></path><path id="kity_path_327" fill="none" stroke="rgb(115, 161, 191)" stroke-width="1" d="M291.5,185.5C299.5,185.5,299.5,211.5,307.5,211.5"></path><path id="kity_path_335" fill="none" stroke="rgb(115, 161, 191)" stroke-width="1" d="M343.5,211.5C351.5,211.5,351.5,185.5,359.5,185.5"></path><path id="kity_path_343" fill="none" stroke="rgb(115, 161, 191)" stroke-width="1" d="M343.5,211.5C351.5,211.5,351.5,211.5,359.5,211.5"></path><path id="kity_path_351" fill="none" stroke="rgb(115, 161, 191)" stroke-width="1" d="M343.5,211.5C351.5,211.5,351.5,237.5,359.5,237.5"></path><path id="kity_path_495" fill="none" stroke="rgb(115, 161, 191)" stroke-width="1" d="M251.5,291.5C259.5,291,259.5,249.5,267.5,249.5"></path><path id="kity_path_496" fill="none" stroke="rgb(115, 161, 191)" stroke-width="1" d="M251.5,291.5C259.5,291,259.5,275.5,267.5,275.5"></path><path id="kity_path_497" fill="none" stroke="rgb(115, 161, 191)" stroke-width="1" d="M327.5,332.5C335.5,332.5,335.5,310.5,343.5,310.5"></path><path id="kity_path_498" fill="none" stroke="rgb(115, 161, 191)" stroke-width="1" d="M327.5,332.5C335.5,332.5,335.5,354.5,343.5,354.5"></path><path id="kity_path_499" fill="none" stroke="rgb(115, 161, 191)" stroke-width="1" d="M251.5,291.5C259.5,291,259.5,332.5,267.5,332.5"></path><path id="kity_path_500" fill="none" stroke="rgb(115, 161, 191)" stroke-width="1" d="M323.5,415.5C331.5,415.5,331.5,415.5,339.5,415.5"></path><path id="kity_path_501" fill="none" stroke="rgb(115, 161, 191)" stroke-width="1" d="M235.5,444.5C243.5,444,243.5,415.5,251.5,415.5"></path><path id="kity_path_502" fill="none" stroke="rgb(115, 161, 191)" stroke-width="1" d="M311.5,446.5C319.5,446.5,319.5,446.5,327.5,446.5"></path><path id="kity_path_503" fill="none" stroke="rgb(115, 161, 191)" stroke-width="1" d="M235.5,444.5C243.5,444,243.5,446.5,251.5,446.5"></path><path id="kity_path_504" fill="none" stroke="rgb(115, 161, 191)" stroke-width="1" d="M359.5,472.5C367.5,472.5,367.5,472.5,375.5,472.5"></path><path id="kity_path_505" fill="none" stroke="rgb(115, 161, 191)" stroke-width="1" d="M235.5,444.5C243.5,444,243.5,472.5,251.5,472.5"></path></g><g id="minder_node1"><path id="node_outline1" fill="rgb(115, 161, 191)" stroke="rgb(115, 161, 191)" d="M25.5,265.5h79a5,5,0,0,1,5,5v42a5,5,0,0,1,-5,5h-79a5,5,0,0,1,-5,-5v-42a5,5,0,0,1,5,-5z" stroke-width="3"></path><g id="node_text1" fill="white"><text id="kity_text_22" text-rendering="inherit" font-size="16" dy=".8em" y="269.09999990463257" x="32.5">Three.js</text><text id="kity_text_478" text-rendering="inherit" font-size="16" dy=".8em" y="293.09999990463257" x="32.5">程序结构</text></g></g><g id="kity_g_14" display="none"><path id="kity_path_15" fill="rgba(0, 92, 153, 0.5)" stroke="none" d="M339.5,360.5h148v4h-148z"></path><path id="kity_path_16" fill="none" stroke="rgb(0, 76, 128)" d="M339.5,360.5L487.5,360.5" stroke-width="1"></path></g><g id="minder_node2"><g id="node_expander10" style="cursor: pointer;"><path id="kity_path_153" fill="white" stroke="gray" d="M126.5,130A6,6,0,1,1,114.5,130A6,6,0,1,1,126.5,130"></path><path id="kity_path_154" fill="none" stroke="gray" d="M116,130L125,130"></path></g><path id="node_outline11" fill="rgb(238, 243, 246)" stroke="rgb(115, 161, 191)" d="M130.5,106.5h103a3,3,0,0,1,3,3v41a3,3,0,0,1,-3,3h-103a3,3,0,0,1,-3,-3v-41a3,3,0,0,1,3,-3z" stroke-width="1"></path><g id="node_text11" fill="black"><text id="kity_text_87" text-rendering="inherit" font-size="14" dy=".8em" y="109.90000009536743" x="147.5">场景</text><text id="kity_text_479" text-rendering="inherit" font-size="14" dy=".8em" y="130.90000009536743" x="147.5">Scene</text></g><a id="kity_a_455" xmlns:xlink="http://www.w3.org/1999/xlink" xlink:href="http://www.yanhuangxueyuan.com/threejs/docs/index.html#manual/introduction/Creating-a-scene" target="_blank" xlink:title="http://www.yanhuangxueyuan.com/threejs/docs/index.html#manual/introduction/Creating-a-scene" style="cursor: pointer;"><path id="kity_path_457" fill="rgba(255, 255, 255, 0)" stroke="none" d="M196.5,118.5h16a4,4,0,0,1,4,4v14a4,4,0,0,1,-4,4h-16a4,4,0,0,1,-4,-4v-14a4,4,0,0,1,4,-4z"></path><path id="kity_path_456" fill="#666" stroke="none" d="M211.114,134.724h-1.278c-1.668,0,-3.07,-1.07,-3.599,-2.556h4.877c0.707,0,1.278,-0.571,1.278,-1.278V128.334c0,-0.707,-0.571,-1.278,-1.278,-1.278h-4.877C206.766,125.571,208.168,124.5,209.836,124.5h1.278c2.116,0,3.834,1.716,3.834,3.834V130.89C214.948,133.008,213.23,134.724,211.114,134.724zM199.612,129.612c0,-0.707,0.573,-1.278,1.278,-1.278h7.668c0.707,0,1.278,0.571,1.278,1.278S209.265,130.89,208.558,130.89H200.89C200.185,130.89,199.612,130.319,199.612,129.612zM197.056,128.334V130.89c0,0.707,0.573,1.278,1.278,1.278h4.877c-0.528,1.486,-1.932,2.556,-3.599,2.556H198.334C196.216,134.724,194.5,133.008,194.5,130.89V128.334C194.5,126.216,196.216,124.5,198.334,124.5h1.278c1.667,0,3.071,1.071,3.599,2.556H198.334C197.629,127.056,197.056,127.627,197.056,128.334z"></path></a></g><g id="minder_node12" opacity="1"><g id="node_expander14" style="cursor: pointer;"><path id="kity_path_165" fill="white" stroke="gray" d="M130.5,291A6,6,0,1,1,118.5,291A6,6,0,1,1,130.5,291"></path><path id="kity_path_166" fill="none" stroke="gray" d="M120,291L129,291"></path></g><path id="node_outline15" fill="rgb(238, 243, 246)" stroke="rgb(115, 161, 191)" d="M134.5,267.5h114a3,3,0,0,1,3,3v41a3,3,0,0,1,-3,3h-114a3,3,0,0,1,-3,-3v-41a3,3,0,0,1,3,-3z" stroke-width="1"></path><g id="node_text15" fill="black"><text id="kity_text_95" text-rendering="inherit" font-size="14" dy=".8em" y="270.90000009536743" x="151.5">相机</text><text id="kity_text_480" text-rendering="inherit" font-size="14" dy=".8em" y="291.90000009536743" x="151.5">Camera</text></g><a id="kity_a_458" xmlns:xlink="http://www.w3.org/1999/xlink" xlink:href="http://www.yanhuangxueyuan.com/threejs/docs/index.html#api/cameras/Camera" target="_blank" xlink:title="http://www.yanhuangxueyuan.com/threejs/docs/index.html#api/cameras/Camera" style="cursor: pointer;"><path id="kity_path_460" fill="rgba(255, 255, 255, 0)" stroke="none" d="M211.5,279.5h16a4,4,0,0,1,4,4v14a4,4,0,0,1,-4,4h-16a4,4,0,0,1,-4,-4v-14a4,4,0,0,1,4,-4z"></path><path id="kity_path_459" fill="#666" stroke="none" d="M226.114,295.724h-1.278c-1.668,0,-3.07,-1.07,-3.599,-2.556h4.877c0.707,0,1.278,-0.571,1.278,-1.278V289.334c0,-0.707,-0.571,-1.278,-1.278,-1.278h-4.877C221.766,286.571,223.168,285.5,224.836,285.5h1.278c2.116,0,3.834,1.716,3.834,3.834V291.89C229.948,294.008,228.23,295.724,226.114,295.724zM214.612,290.612c0,-0.707,0.573,-1.278,1.278,-1.278h7.668c0.707,0,1.278,0.571,1.278,1.278S224.265,291.89,223.558,291.89H215.89C215.185,291.89,214.612,291.319,214.612,290.612zM212.056,289.334V291.89c0,0.707,0.573,1.278,1.278,1.278h4.877c-0.528,1.486,-1.932,2.556,-3.599,2.556H213.334C211.216,295.724,209.5,294.008,209.5,291.89V289.334C209.5,287.216,211.216,285.5,213.334,285.5h1.278c1.667,0,3.071,1.071,3.599,2.556H213.334C212.629,288.056,212.056,288.627,212.056,289.334z"></path></a></g><g id="minder_node16" opacity="1"><g id="node_expander17" style="cursor: pointer;"><path id="kity_path_174" fill="white" stroke="gray" d="M132.5,444A6,6,0,1,1,120.5,444A6,6,0,1,1,132.5,444"></path><path id="kity_path_175" fill="none" stroke="gray" d="M122,444L131,444"></path></g><path id="node_outline18" fill="rgb(238, 243, 246)" stroke="rgb(115, 161, 191)" d="M136.5,420.5h96a3,3,0,0,1,3,3v41a3,3,0,0,1,-3,3h-96a3,3,0,0,1,-3,-3v-41a3,3,0,0,1,3,-3z" stroke-width="1"></path><g id="node_text18" fill="black"><text id="kity_text_101" text-rendering="inherit" font-size="14" dy=".8em" y="423.90000009536743" x="153.5">渲染器</text><text id="kity_text_481" text-rendering="inherit" font-size="14" dy=".8em" y="444.90000009536743" x="153.5">Renderer</text></g></g><g id="minder_node21"><g id="node_expander20" style="cursor: pointer;"><path id="kity_path_188" fill="white" stroke="gray" d="M252.5,74.5A6,6,0,1,1,240.5,74.5A6,6,0,1,1,252.5,74.5"></path><path id="kity_path_189" fill="none" stroke="gray" d="M242,74.5L251,74.5"></path></g><path id="node_outline21" fill="none" stroke="none" d="M257.5,56.5h49a5,5,0,0,1,5,5v26a5,5,0,0,1,-5,5h-49a5,5,0,0,1,-5,-5v-26a5,5,0,0,1,5,-5z" stroke-width="3"></path><g id="node_text21" fill="black"><text id="kity_text_185" text-rendering="inherit" font-size="12" dy=".8em" y="57.700000047683716" x="257.5">网格模型</text><text id="kity_text_482" text-rendering="inherit" font-size="12" dy=".8em" y="75.70000004768372" x="257.5">Mesh</text></g></g><g id="minder_node22"><g id="node_expander21" style="cursor: pointer;"><path id="kity_path_196" fill="white" stroke="gray" d="M252.5,185.5A6,6,0,1,1,240.5,185.5A6,6,0,1,1,252.5,185.5"></path><path id="kity_path_197" fill="none" stroke="gray" d="M242,185.5L251,185.5"></path></g><path id="node_outline22" fill="none" stroke="none" d="M257.5,167.5h29a5,5,0,0,1,5,5v26a5,5,0,0,1,-5,5h-29a5,5,0,0,1,-5,-5v-26a5,5,0,0,1,5,-5z" stroke-width="3"></path><g id="node_text22" fill="black"><text id="kity_text_193" text-rendering="inherit" font-size="12" dy=".8em" y="168.70000004768372" x="257.5">光照</text><text id="kity_text_483" text-rendering="inherit" font-size="12" dy=".8em" y="186.70000004768372" x="257.5">Light</text></g></g><g id="minder_node23"><g id="node_expander22" style="cursor: pointer;"><path id="kity_path_204" fill="white" stroke="gray" d="M327.5,42.5A6,6,0,1,1,315.5,42.5A6,6,0,1,1,327.5,42.5"></path><path id="kity_path_205" fill="none" stroke="gray" d="M317,42.5L326,42.5"></path></g><path id="node_outline23" fill="none" stroke="none" d="M332.5,24.5h58a5,5,0,0,1,5,5v26a5,5,0,0,1,-5,5h-58a5,5,0,0,1,-5,-5v-26a5,5,0,0,1,5,-5z" stroke-width="3"></path><g id="node_text23" fill="black"><text id="kity_text_201" text-rendering="inherit" font-size="12" dy=".8em" y="25.700000047683716" x="332.5">几何体</text><text id="kity_text_484" text-rendering="inherit" font-size="12" dy=".8em" y="43.700000047683716" x="332.5">Geometry</text></g></g><g id="minder_node24"><g id="node_expander23" style="cursor: pointer;"><path id="kity_path_212" fill="white" stroke="gray" d="M327.5,107.5A6,6,0,1,1,315.5,107.5A6,6,0,1,1,327.5,107.5"></path><path id="kity_path_213" fill="none" stroke="gray" d="M317,107.5L326,107.5"></path></g><path id="node_outline24" fill="none" stroke="none" d="M332.5,89.5h47a5,5,0,0,1,5,5v26a5,5,0,0,1,-5,5h-47a5,5,0,0,1,-5,-5v-26a5,5,0,0,1,5,-5z" stroke-width="3"></path><g id="node_text24" fill="black"><text id="kity_text_209" text-rendering="inherit" font-size="12" dy=".8em" y="90.70000004768372" x="332.5">材质</text><text id="kity_text_485" text-rendering="inherit" font-size="12" dy=".8em" y="108.70000004768372" x="332.5">Material</text></g></g><g id="minder_node25"><g id="node_expander24" style="cursor: pointer;" display="none"><path id="kity_path_220" fill="white" stroke="gray" d="M400.5,81.5A6,6,0,1,1,388.5,81.5A6,6,0,1,1,400.5,81.5"></path><path id="kity_path_221" fill="none" stroke="gray"></path></g><path id="node_outline25" fill="none" stroke="none" d="M405.5,72.5h25a5,5,0,0,1,5,5v8a5,5,0,0,1,-5,5h-25a5,5,0,0,1,-5,-5v-8a5,5,0,0,1,5,-5z" stroke-width="3"></path><g id="node_text25" fill="black"><text id="kity_text_217" text-rendering="inherit" font-size="12" dy=".8em" y="73.70000004768372" x="405.5">颜色</text></g></g><g id="minder_node26"><g id="node_expander25" style="cursor: pointer;" display="none"><path id="kity_path_228" fill="white" stroke="gray" d="M400.5,107.5A6,6,0,1,1,388.5,107.5A6,6,0,1,1,400.5,107.5"></path><path id="kity_path_229" fill="none" stroke="gray"></path></g><path id="node_outline26" fill="none" stroke="none" d="M405.5,98.5h24a5,5,0,0,1,5,5v8a5,5,0,0,1,-5,5h-24a5,5,0,0,1,-5,-5v-8a5,5,0,0,1,5,-5z" stroke-width="3"></path><g id="node_text26" fill="black"><text id="kity_text_225" text-rendering="inherit" font-size="12" dy=".8em" y="99.70000004768372" x="405.5">贴图</text></g></g><g id="minder_node27"><g id="node_expander26" style="cursor: pointer;" display="none"><path id="kity_path_236" fill="white" stroke="gray" d="M400.5,133.5A6,6,0,1,1,388.5,133.5A6,6,0,1,1,400.5,133.5"></path><path id="kity_path_237" fill="none" stroke="gray"></path></g><path id="node_outline27" fill="none" stroke="none" d="M405.5,124.5h37a5,5,0,0,1,5,5v8a5,5,0,0,1,-5,5h-37a5,5,0,0,1,-5,-5v-8a5,5,0,0,1,5,-5z" stroke-width="3"></path><g id="node_text27" fill="black"><text id="kity_text_233" text-rendering="inherit" font-size="12" dy=".8em" y="125.70000004768372" x="405.5">透明度</text></g></g><g id="minder_node31"><g id="node_expander30" style="cursor: pointer;" display="none"><path id="kity_path_268" fill="white" stroke="gray" d="M411.5,29.5A6,6,0,1,1,399.5,29.5A6,6,0,1,1,411.5,29.5"></path><path id="kity_path_269" fill="none" stroke="gray"></path></g><path id="node_outline31" fill="none" stroke="none" d="M416.5,20.5h25a5,5,0,0,1,5,5v8a5,5,0,0,1,-5,5h-25a5,5,0,0,1,-5,-5v-8a5,5,0,0,1,5,-5z" stroke-width="3"></path><g id="node_text31" fill="black"><text id="kity_text_265" text-rendering="inherit" font-size="12" dy=".8em" y="21.700000047683716" x="416.5">形状</text></g></g><g id="minder_node32"><g id="node_expander31" style="cursor: pointer;" display="none"><path id="kity_path_276" fill="white" stroke="gray" d="M411.5,55.5A6,6,0,1,1,399.5,55.5A6,6,0,1,1,411.5,55.5"></path><path id="kity_path_277" fill="none" stroke="gray"></path></g><path id="node_outline32" fill="none" stroke="none" d="M416.5,46.5h25a5,5,0,0,1,5,5v8a5,5,0,0,1,-5,5h-25a5,5,0,0,1,-5,-5v-8a5,5,0,0,1,5,-5z" stroke-width="3"></path><g id="node_text32" fill="black"><text id="kity_text_273" text-rendering="inherit" font-size="12" dy=".8em" y="47.700000047683716" x="416.5">尺寸</text></g></g><g id="minder_node38"><g id="node_expander37" style="cursor: pointer;" display="none"><path id="kity_path_324" fill="white" stroke="gray" d="M307.5,159.5A6,6,0,1,1,295.5,159.5A6,6,0,1,1,307.5,159.5"></path><path id="kity_path_325" fill="none" stroke="gray"></path></g><path id="node_outline38" fill="none" stroke="none" d="M312.5,150.5h25a5,5,0,0,1,5,5v8a5,5,0,0,1,-5,5h-25a5,5,0,0,1,-5,-5v-8a5,5,0,0,1,5,-5z" stroke-width="3"></path><g id="node_text38" fill="black"><text id="kity_text_321" text-rendering="inherit" font-size="12" dy=".8em" y="151.70000004768372" x="312.5">颜色</text></g></g><g id="minder_node39"><g id="node_expander38" style="cursor: pointer;"><path id="kity_path_332" fill="white" stroke="gray" d="M307.5,211.5A6,6,0,1,1,295.5,211.5A6,6,0,1,1,307.5,211.5"></path><path id="kity_path_333" fill="none" stroke="gray" d="M297,211.5L306,211.5"></path></g><path id="node_outline39" fill="none" stroke="none" d="M312.5,202.5h26a5,5,0,0,1,5,5v8a5,5,0,0,1,-5,5h-26a5,5,0,0,1,-5,-5v-8a5,5,0,0,1,5,-5z" stroke-width="3"></path><g id="node_text39" fill="black"><text id="kity_text_329" text-rendering="inherit" font-size="12" dy=".8em" y="203.70000004768372" x="312.5">分类</text></g></g><g id="minder_node40"><g id="node_expander39" style="cursor: pointer;" display="none"><path id="kity_path_340" fill="white" stroke="gray" d="M359.5,185.5A6,6,0,1,1,347.5,185.5A6,6,0,1,1,359.5,185.5"></path><path id="kity_path_341" fill="none" stroke="gray"></path></g><path id="node_outline40" fill="none" stroke="none" d="M364.5,176.5h38a5,5,0,0,1,5,5v8a5,5,0,0,1,-5,5h-38a5,5,0,0,1,-5,-5v-8a5,5,0,0,1,5,-5z" stroke-width="3"></path><g id="node_text40" fill="black"><text id="kity_text_337" text-rendering="inherit" font-size="12" dy=".8em" y="177.70000004768372" x="364.5">环境光</text></g></g><g id="minder_node41"><g id="node_expander40" style="cursor: pointer;" display="none"><path id="kity_path_348" fill="white" stroke="gray" d="M359.5,211.5A6,6,0,1,1,347.5,211.5A6,6,0,1,1,359.5,211.5"></path><path id="kity_path_349" fill="none" stroke="gray"></path></g><path id="node_outline41" fill="none" stroke="none" d="M364.5,202.5h38a5,5,0,0,1,5,5v8a5,5,0,0,1,-5,5h-38a5,5,0,0,1,-5,-5v-8a5,5,0,0,1,5,-5z" stroke-width="3"></path><g id="node_text41" fill="black"><text id="kity_text_345" text-rendering="inherit" font-size="12" dy=".8em" y="203.70000004768372" x="364.5">点光源</text></g></g><g id="minder_node42"><g id="node_expander41" style="cursor: pointer;" display="none"><path id="kity_path_356" fill="white" stroke="gray" d="M359.5,237.5A6,6,0,1,1,347.5,237.5A6,6,0,1,1,359.5,237.5"></path><path id="kity_path_357" fill="none" stroke="gray"></path></g><path id="node_outline42" fill="none" stroke="none" d="M364.5,228.5h37a5,5,0,0,1,5,5v8a5,5,0,0,1,-5,5h-37a5,5,0,0,1,-5,-5v-8a5,5,0,0,1,5,-5z" stroke-width="3"></path><g id="node_text42" fill="black"><text id="kity_text_353" text-rendering="inherit" font-size="12" dy=".8em" y="229.70000004768372" x="364.5">平行光</text></g></g><g id="kity_g_12" display="none"><path id="kity_path_13" fill="none" stroke="rgb(66, 94, 112)" d="M338.5,406.5h132a5,5,0,0,1,5,5v18a5,5,0,0,1,-5,5h-132a5,5,0,0,1,-5,-5v-18a5,5,0,0,1,5,-5z" stroke-width="5"></path></g><g id="minder_node13"><g id="node_expander11" style="cursor: pointer;" display="none"><path id="kity_path_156" fill="white" stroke="gray" d="M267.5,249.5A6,6,0,1,1,255.5,249.5A6,6,0,1,1,267.5,249.5"></path><path id="kity_path_157" fill="none" stroke="gray"></path></g><path id="node_outline12" fill="none" stroke="none" d="M272.5,240.5h26a5,5,0,0,1,5,5v8a5,5,0,0,1,-5,5h-26a5,5,0,0,1,-5,-5v-8a5,5,0,0,1,5,-5z" stroke-width="3"></path><g id="node_text12" fill="black"><text id="kity_text_89" text-rendering="inherit" font-size="12" dy=".8em" y="241.70000004768372" x="272.5">位置</text></g></g><g id="minder_node14"><g id="node_expander12" style="cursor: pointer;" display="none"><path id="kity_path_159" fill="white" stroke="gray" d="M267.5,275.5A6,6,0,1,1,255.5,275.5A6,6,0,1,1,267.5,275.5"></path><path id="kity_path_160" fill="none" stroke="gray"></path></g><path id="node_outline13" fill="none" stroke="none" d="M272.5,266.5h49a5,5,0,0,1,5,5v8a5,5,0,0,1,-5,5h-49a5,5,0,0,1,-5,-5v-8a5,5,0,0,1,5,-5z" stroke-width="3"></path><g id="node_text13" fill="black"><text id="kity_text_91" text-rendering="inherit" font-size="12" dy=".8em" y="267.7000000476837" x="272.5">视线方向</text></g></g><g id="minder_node35"><g id="node_expander34" style="cursor: pointer;" display="none"><path id="kity_path_300" fill="white" stroke="gray" d="M343.5,310.5A6,6,0,1,1,331.5,310.5A6,6,0,1,1,343.5,310.5"></path><path id="kity_path_301" fill="none" stroke="gray" d="M333,310.5L342,310.5"></path></g><path id="node_outline35" fill="none" stroke="none" d="M348.5,292.5h138a5,5,0,0,1,5,5v26a5,5,0,0,1,-5,5h-138a5,5,0,0,1,-5,-5v-26a5,5,0,0,1,5,-5z" stroke-width="3"></path><g id="node_text35" fill="black"><text id="kity_text_297" text-rendering="inherit" font-size="12" dy=".8em" y="293.7000000476837" x="348.5">透射投影</text><text id="kity_text_486" text-rendering="inherit" font-size="12" dy=".8em" y="311.7000000476837" x="348.5">PerspectiveCamera</text></g><a id="kity_a_487" xmlns:xlink="http://www.w3.org/1999/xlink" xlink:href="http://www.yanhuangxueyuan.com/threejs/docs/index.html#api/cameras/PerspectiveCamera" target="_blank" xlink:title="http://www.yanhuangxueyuan.com/threejs/docs/index.html#api/cameras/PerspectiveCamera" style="cursor: pointer;"><path id="kity_path_489" fill="rgba(255, 255, 255, 0)" stroke="none" d="M466.5,299.5h16a4,4,0,0,1,4,4v14a4,4,0,0,1,-4,4h-16a4,4,0,0,1,-4,-4v-14a4,4,0,0,1,4,-4z"></path><path id="kity_path_488" fill="#666" stroke="none" d="M481.114,315.724h-1.278c-1.668,0,-3.07,-1.07,-3.599,-2.556h4.877c0.707,0,1.278,-0.571,1.278,-1.278V309.334c0,-0.707,-0.571,-1.278,-1.278,-1.278h-4.877C476.766,306.571,478.168,305.5,479.836,305.5h1.278c2.116,0,3.834,1.716,3.834,3.834V311.89C484.948,314.008,483.23,315.724,481.114,315.724zM469.612,310.612c0,-0.707,0.573,-1.278,1.278,-1.278h7.668c0.707,0,1.278,0.571,1.278,1.278S479.265,311.89,478.558,311.89H470.89C470.185,311.89,469.612,311.319,469.612,310.612zM467.056,309.334V311.89c0,0.707,0.573,1.278,1.278,1.278h4.877c-0.528,1.486,-1.932,2.556,-3.599,2.556H468.334C466.216,315.724,464.5,314.008,464.5,311.89V309.334C464.5,307.216,466.216,305.5,468.334,305.5h1.278c1.667,0,3.071,1.071,3.599,2.556H468.334C467.629,308.056,467.056,308.627,467.056,309.334z"></path></a></g><g id="minder_node36" opacity="1"><g id="node_expander35" style="cursor: pointer;" display="none"><path id="kity_path_308" fill="white" stroke="gray" d="M343.5,354.5A6,6,0,1,1,331.5,354.5A6,6,0,1,1,343.5,354.5"></path><path id="kity_path_309" fill="none" stroke="gray" d="M333,354.5L342,354.5"></path></g><path id="node_outline36" fill="none" stroke="none" d="M348.5,336.5h158a5,5,0,0,1,5,5v26a5,5,0,0,1,-5,5h-158a5,5,0,0,1,-5,-5v-26a5,5,0,0,1,5,-5z" stroke-width="3"></path><g id="node_text36" fill="black"><text id="kity_text_305" text-rendering="inherit" font-size="12" dy=".8em" y="337.7000000476837" x="348.5">正射投影</text><text id="kity_text_490" text-rendering="inherit" font-size="12" dy=".8em" y="355.7000000476837" x="348.5">OrthographicCamera()</text></g><a id="kity_a_492" xmlns:xlink="http://www.w3.org/1999/xlink" xlink:href="http://www.yanhuangxueyuan.com/threejs/docs/index.html#api/cameras/OrthographicCamera" target="_blank" xlink:title="http://www.yanhuangxueyuan.com/threejs/docs/index.html#api/cameras/OrthographicCamera" style="cursor: pointer;"><path id="kity_path_494" fill="rgba(255, 255, 255, 0)" stroke="none" d="M486.5,343.5h16a4,4,0,0,1,4,4v14a4,4,0,0,1,-4,4h-16a4,4,0,0,1,-4,-4v-14a4,4,0,0,1,4,-4z"></path><path id="kity_path_493" fill="#666" stroke="none" d="M501.114,359.724h-1.278c-1.668,0,-3.07,-1.07,-3.599,-2.556h4.877c0.707,0,1.278,-0.571,1.278,-1.278V353.334c0,-0.707,-0.571,-1.278,-1.278,-1.278h-4.877C496.766,350.571,498.168,349.5,499.836,349.5h1.278c2.116,0,3.834,1.716,3.834,3.834V355.89C504.948,358.008,503.23,359.724,501.114,359.724zM489.612,354.612c0,-0.707,0.573,-1.278,1.278,-1.278h7.668c0.707,0,1.278,0.571,1.278,1.278S499.265,355.89,498.558,355.89H490.89C490.185,355.89,489.612,355.319,489.612,354.612zM487.056,353.334V355.89c0,0.707,0.573,1.278,1.278,1.278h4.877c-0.528,1.486,-1.932,2.556,-3.599,2.556H488.334C486.216,359.724,484.5,358.008,484.5,355.89V353.334C484.5,351.216,486.216,349.5,488.334,349.5h1.278c1.667,0,3.071,1.071,3.599,2.556H488.334C487.629,352.056,487.056,352.627,487.056,353.334z"></path></a></g><g id="minder_node15"><g id="node_expander13" style="cursor: pointer;"><path id="kity_path_162" fill="white" stroke="gray" d="M267.5,332.5A6,6,0,1,1,255.5,332.5A6,6,0,1,1,267.5,332.5"></path><path id="kity_path_163" fill="none" stroke="gray" d="M257,332.5L266,332.5"></path></g><path id="node_outline14" fill="none" stroke="none" d="M272.5,323.5h50a5,5,0,0,1,5,5v8a5,5,0,0,1,-5,5h-50a5,5,0,0,1,-5,-5v-8a5,5,0,0,1,5,-5z" stroke-width="3"></path><g id="node_text14" fill="black"><text id="kity_text_93" text-rendering="inherit" font-size="12" dy=".8em" y="324.7000000476837" x="272.5">投影方式</text></g></g><g id="minder_node45" opacity="1"><g id="node_expander44" style="cursor: pointer;" display="none"><path id="kity_path_380" fill="white" stroke="gray" d="M339.5,415.5A6,6,0,1,1,327.5,415.5A6,6,0,1,1,339.5,415.5"></path><path id="kity_path_381" fill="none" stroke="gray"></path></g><path id="node_outline45" fill="none" stroke="none" d="M344.5,401.5h132a5,5,0,0,1,5,5v18a5,5,0,0,1,-5,5h-132a5,5,0,0,1,-5,-5v-18a5,5,0,0,1,5,-5z" stroke-width="3"></path><g id="node_text45" fill="black"><text id="kity_text_377" text-rendering="inherit" font-size="12" dy=".8em" y="407.7000000476837" x="344.5">WebGLRenderer()</text></g><a id="kity_a_475" xmlns:xlink="http://www.w3.org/1999/xlink" xlink:href="http://www.yanhuangxueyuan.com/threejs/docs/index.html#api/renderers/WebGLRenderer" target="_blank" xlink:title="http://www.yanhuangxueyuan.com/threejs/docs/index.html#api/renderers/WebGLRenderer" style="cursor: pointer;"><path id="kity_path_477" fill="rgba(255, 255, 255, 0)" stroke="none" d="M456.5,404.5h16a4,4,0,0,1,4,4v14a4,4,0,0,1,-4,4h-16a4,4,0,0,1,-4,-4v-14a4,4,0,0,1,4,-4z"></path><path id="kity_path_476" fill="#666" stroke="none" d="M471.114,420.724h-1.278c-1.668,0,-3.07,-1.07,-3.599,-2.556h4.877c0.707,0,1.278,-0.571,1.278,-1.278V414.334c0,-0.707,-0.571,-1.278,-1.278,-1.278h-4.877C466.766,411.571,468.168,410.5,469.836,410.5h1.278c2.116,0,3.834,1.716,3.834,3.834V416.89C474.948,419.008,473.23,420.724,471.114,420.724zM459.612,415.612c0,-0.707,0.573,-1.278,1.278,-1.278h7.668c0.707,0,1.278,0.571,1.278,1.278S469.265,416.89,468.558,416.89H460.89C460.185,416.89,459.612,416.319,459.612,415.612zM457.056,414.334V416.89c0,0.707,0.573,1.278,1.278,1.278h4.877c-0.528,1.486,-1.932,2.556,-3.599,2.556H458.334C456.216,420.724,454.5,419.008,454.5,416.89V414.334C454.5,412.216,456.216,410.5,458.334,410.5h1.278c1.667,0,3.071,1.071,3.599,2.556H458.334C457.629,413.056,457.056,413.627,457.056,414.334z"></path></a></g><g id="minder_node46" opacity="1"><g id="node_expander45" style="cursor: pointer;"><path id="kity_path_388" fill="white" stroke="gray" d="M251.5,415.5A6,6,0,1,1,239.5,415.5A6,6,0,1,1,251.5,415.5"></path><path id="kity_path_389" fill="none" stroke="gray" d="M241,415.5L250,415.5"></path></g><path id="node_outline46" fill="none" stroke="none" d="M256.5,406.5h62a5,5,0,0,1,5,5v8a5,5,0,0,1,-5,5h-62a5,5,0,0,1,-5,-5v-8a5,5,0,0,1,5,-5z" stroke-width="3"></path><g id="node_text46" fill="black"><text id="kity_text_385" text-rendering="inherit" font-size="12" dy=".8em" y="407.7000000476837" x="256.5">渲染器创建</text></g></g><g id="minder_node50"><g id="node_expander49" style="cursor: pointer;" display="none"><path id="kity_path_421" fill="white" stroke="gray" d="M327.5,446.5A6,6,0,1,1,315.5,446.5A6,6,0,1,1,327.5,446.5"></path><path id="kity_path_422" fill="none" stroke="gray"></path></g><path id="node_outline50" fill="none" stroke="none" d="M332.5,437.5h126a5,5,0,0,1,5,5v8a5,5,0,0,1,-5,5h-126a5,5,0,0,1,-5,-5v-8a5,5,0,0,1,5,-5z" stroke-width="3"></path><g id="node_text50" fill="black"><text id="kity_text_418" text-rendering="inherit" font-size="12" dy=".8em" y="438.7000000476837" x="332.5">.render(scene,camera)</text></g></g><g id="minder_node49"><g id="node_expander48" style="cursor: pointer;"><path id="kity_path_413" fill="white" stroke="gray" d="M251.5,446.5A6,6,0,1,1,239.5,446.5A6,6,0,1,1,251.5,446.5"></path><path id="kity_path_414" fill="none" stroke="gray" d="M241,446.5L250,446.5"></path></g><path id="node_outline49" fill="none" stroke="none" d="M256.5,437.5h50a5,5,0,0,1,5,5v8a5,5,0,0,1,-5,5h-50a5,5,0,0,1,-5,-5v-8a5,5,0,0,1,5,-5z" stroke-width="3"></path><g id="node_text49" fill="black"><text id="kity_text_410" text-rendering="inherit" font-size="12" dy=".8em" y="438.7000000476837" x="256.5">开始渲染</text></g></g><g id="minder_node54"><g id="node_expander53" style="cursor: pointer;" display="none"><path id="kity_path_453" fill="white" stroke="gray" d="M375.5,472.5A6,6,0,1,1,363.5,472.5A6,6,0,1,1,375.5,472.5"></path><path id="kity_path_454" fill="none" stroke="gray"></path></g><path id="node_outline54" fill="none" stroke="none" d="M380.5,463.5h63a5,5,0,0,1,5,5v8a5,5,0,0,1,-5,5h-63a5,5,0,0,1,-5,-5v-8a5,5,0,0,1,5,-5z" stroke-width="3"></path><g id="node_text54" fill="black"><text id="kity_text_450" text-rendering="inherit" font-size="12" dy=".8em" y="464.7000000476837" x="380.5">canvas对象</text></g></g><g id="minder_node53"><g id="node_expander52" style="cursor: pointer;"><path id="kity_path_445" fill="white" stroke="gray" d="M251.5,472.5A6,6,0,1,1,239.5,472.5A6,6,0,1,1,251.5,472.5"></path><path id="kity_path_446" fill="none" stroke="gray" d="M241,472.5L250,472.5"></path></g><path id="node_outline53" fill="none" stroke="none" d="M256.5,463.5h98a5,5,0,0,1,5,5v8a5,5,0,0,1,-5,5h-98a5,5,0,0,1,-5,-5v-8a5,5,0,0,1,5,-5z" stroke-width="3"></path><g id="node_text53" fill="black"><text id="kity_text_442" text-rendering="inherit" font-size="12" dy=".8em" y="464.7000000476837" x="256.5">domElement属性</text></g></g></g></g>
    </svg>
