<svg id="kity_svg_6" xmlns="http://www.w3.org/2000/svg" xmlns:xlink="http://www.w3.org/1999/xlink" version="1.1" width="731" height="733" style="background: rgb(251, 251, 251); visibility: visible;" viewBox="0 0 731 733"><defs id="kity_defs_7"><linearGradient id="kity_linearGradient_17" x1="0" y1="0" x2="0" y2="1"><stop id="kity_stop_18" offset="0" stop-color="rgb(255, 255, 255)"></stop><stop id="kity_stop_19" offset="1" stop-color="rgb(204, 204, 204)"></stop></linearGradient><marker id="kity_marker_2" orient="auto" refX="6" refY="0" viewBox="-7 -7 14 14" markerWidth="7" markerHeight="7" markerUnits="userSpaceOnUse"><path id="kity_path_3" fill="rgb(115, 161, 191)" stroke="none" d="M6,0A6,6,0,1,1,-6,0A6,6,0,1,1,6,0"></path></marker></defs><g id="kity_g_8"><g id="minder1" text-rendering="optimize-speed"><g id="minder_connect_group1"><path id="kity_path_320" fill="none" stroke="rgb(115, 161, 191)" stroke-width="1" d="M99.50000359863043,231.50000426918268A91,172,0,0,1,190.50000359863043,59.50000426918268"></path><path id="kity_path_324" fill="none" stroke="rgb(115, 161, 191)" stroke-width="1" d="M99.50000359863043,231.50000426918268A91,154,0,0,0,190.50000359863043,385.5000042691827"></path><path id="kity_path_330" fill="none" stroke="rgb(115, 161, 191)" stroke-width="1" d="M99.50000359863043,231.50000426918268A91,48,0,0,1,190.50000359863043,183.50000426918268"></path><path id="kity_path_515" fill="none" stroke="rgb(115, 161, 191)" stroke-width="1" d="M351.5000035986304,59.50000426918268C371.5000035986304,59.50000426918268,371.5000035986304,31.500004269182682,391.5000035986304,31.500004269182682"></path><path id="kity_path_518" fill="none" stroke="rgb(115, 161, 191)" stroke-width="1" d="M341.5000035986304,183.50000426918268C361.5000035986304,183.50000426918268,361.5000035986304,155.50000426918268,381.5000035986304,155.50000426918268"></path><path id="kity_path_568" fill="none" stroke="rgb(115, 161, 191)" stroke-width="1" d="M334.5000035986304,385.5000042691827C341.0000035986304,385.5000042691827,341.0000035986304,280.5000042691827,347.5000035986304,280.5000042691827"></path><path id="kity_path_570" fill="none" stroke="rgb(115, 161, 191)" stroke-width="1" d="M334.5000035986304,385.5000042691827C344.5000035986304,385.5000042691827,344.5000035986304,492.5000042691827,354.5000035986304,492.5000042691827"></path><path id="kity_path_572" fill="none" stroke="rgb(115, 161, 191)" stroke-width="1" d="M472.5000035986304,492.5000042691827C481.5000035986304,492.5000042691827,481.5000035986304,338.5000042691827,490.5000035986304,338.5000042691827"></path><path id="kity_path_574" fill="none" stroke="rgb(115, 161, 191)" stroke-width="1" d="M472.5000035986304,492.5000042691827C481.5000035986304,492.5000042691827,481.5000035986304,390.5000042691827,490.5000035986304,390.5000042691827"></path><path id="kity_path_576" fill="none" stroke="rgb(115, 161, 191)" stroke-width="1" d="M472.5000035986304,492.5000042691827C481.5000035986304,492.5000042691827,481.5000035986304,442.5000042691827,490.5000035986304,442.5000042691827"></path><path id="kity_path_578" fill="none" stroke="rgb(115, 161, 191)" stroke-width="1" d="M472.5000035986304,492.5000042691827C481.5000035986304,492.5000042691827,481.5000035986304,520.5000042691827,490.5000035986304,520.5000042691827"></path><path id="kity_path_580" fill="none" stroke="rgb(115, 161, 191)" stroke-width="1" d="M594.5000035986304,520.5000042691827C599.5000035986304,520.5000042691827,599.5000035986304,491.5000042691827,604.5000035986304,491.5000042691827"></path><path id="kity_path_582" fill="none" stroke="rgb(115, 161, 191)" stroke-width="1" d="M594.5000035986304,520.5000042691827C599.5000035986304,520.5000042691827,599.5000035986304,543.5000042691827,604.5000035986304,543.5000042691827"></path><path id="kity_path_584" fill="none" stroke="rgb(115, 161, 191)" stroke-width="1" d="M472.5000035986304,492.5000042691827C481.5000035986304,492.5000042691827,481.5000035986304,650.5000042691827,490.5000035986304,650.5000042691827"></path><path id="kity_path_586" fill="none" stroke="rgb(115, 161, 191)" stroke-width="1" d="M570.5000035986304,650.5000042691827C579.0000035986304,650.5000042691827,579.0000035986304,598.5000042691827,587.5000035986304,598.5000042691827"></path><path id="kity_path_588" fill="none" stroke="rgb(115, 161, 191)" stroke-width="1" d="M570.5000035986304,650.5000042691827C579.0000035986304,650.5000042691827,579.0000035986304,650.5000042691827,587.5000035986304,650.5000042691827"></path><path id="kity_path_590" fill="none" stroke="rgb(115, 161, 191)" stroke-width="1" d="M570.5000035986304,650.5000042691827C579.0000035986304,650.5000042691827,579.0000035986304,702.5000042691827,587.5000035986304,702.5000042691827"></path><path id="kity_path_661" fill="none" stroke="rgb(115, 161, 191)" stroke-width="1" d="M475.5000035986304,155.50000426918268C495.5000035986304,155.50000426918268,495.5000035986304,155.50000426918268,515.5000035986304,155.50000426918268"></path><path id="kity_path_669" fill="none" stroke="rgb(115, 161, 191)" stroke-width="1" d="M351.5000035986304,59.50000426918268C371.5000035986304,59.50000426918268,371.5000035986304,88.50000426918268,391.5000035986304,88.50000426918268"></path><path id="kity_path_677" fill="none" stroke="rgb(115, 161, 191)" stroke-width="1" d="M460.5000035986304,88.50000426918268C480.5000035986304,88.50000426918268,480.5000035986304,88.50000426918268,500.5000035986304,88.50000426918268"></path><path id="kity_path_685" fill="none" stroke="rgb(115, 161, 191)" stroke-width="1" d="M341.5000035986304,183.50000426918268C361.5000035986304,183.50000426918268,361.5000035986304,212.50000426918268,381.5000035986304,212.50000426918268"></path><path id="kity_path_693" fill="none" stroke="rgb(115, 161, 191)" stroke-width="1" d="M450.5000035986304,212.50000426918268C470.5000035986304,212.50000426918268,470.5000035986304,212.50000426918268,490.5000035986304,212.50000426918268"></path></g><g id="minder_node1"><path id="node_outline1" fill="rgb(115, 161, 191)" stroke="rgb(115, 161, 191)" d="M25.50000359863043,208.50000426918268h148a5,5,0,0,1,5,5v36a5,5,0,0,1,-5,5h-148a5,5,0,0,1,-5,-5v-36a5,5,0,0,1,5,-5z" stroke-width="3"></path><g id="node_text1" fill="white"><text id="kity_text_22" text-rendering="inherit" font-size="16" dy=".8em" y="221.1000042334199" x="44.50000359863043">Geometry</text></g><a id="kity_a_302" xlink:href="http://www.yanhuangxueyuan.com/threejs/docs/index.html#api/zh/core/Geometry" target="_blank" xlink:title="http://www.yanhuangxueyuan.com/threejs/docs/index.html#api/zh/core/Geometry" style="cursor: pointer;"><path id="kity_path_304" fill="rgba(255, 255, 255, 0)" stroke="none" d="M134.5000049099326,220.50000419467688h16a4,4,0,0,1,4,4v14a4,4,0,0,1,-4,4h-16a4,4,0,0,1,-4,-4v-14a4,4,0,0,1,4,-4z"></path><path id="kity_path_303" fill="#666" stroke="none" d="M149.11400490993262,236.72400419467687h-1.278c-1.668,0,-3.07,-1.07,-3.599,-2.556h4.877c0.707,0,1.278,-0.571,1.278,-1.278V230.33400419467688c0,-0.707,-0.571,-1.278,-1.278,-1.278h-4.877C144.7660049099326,227.57100419467687,146.16800490993262,226.50000419467688,147.83600490993263,226.50000419467688h1.278c2.116,0,3.834,1.716,3.834,3.834V232.89000419467686C152.94800490993262,235.0080041946769,151.2300049099326,236.72400419467687,149.11400490993262,236.72400419467687zM137.6120049099326,231.61200419467687c0,-0.707,0.573,-1.278,1.278,-1.278h7.668c0.707,0,1.278,0.571,1.278,1.278S147.2650049099326,232.89000419467686,146.5580049099326,232.89000419467686H138.8900049099326C138.18500490993262,232.89000419467686,137.6120049099326,232.31900419467686,137.6120049099326,231.61200419467687zM135.05600490993262,230.33400419467688V232.89000419467686c0,0.707,0.573,1.278,1.278,1.278h4.877c-0.528,1.486,-1.932,2.556,-3.599,2.556H136.33400490993262C134.21600490993262,236.72400419467687,132.5000049099326,235.0080041946769,132.5000049099326,232.89000419467686V230.33400419467688C132.5000049099326,228.21600419467688,134.21600490993262,226.50000419467688,136.33400490993262,226.50000419467688h1.278c1.667,0,3.071,1.071,3.599,2.556H136.33400490993262C135.6290049099326,229.0560041946769,135.05600490993262,229.62700419467689,135.05600490993262,230.33400419467688z"></path></a></g><g id="kity_g_14" display="none"><path id="kity_path_15" fill="rgba(0, 92, 153, 0.5)" stroke="none" d="M192.50000359863043,358.5000042691827h142v20h-142z"></path><path id="kity_path_16" fill="none" stroke="rgb(0, 76, 128)" d="M192.50000359863043,358.5000042691827L334.5000035986304,358.5000042691827" stroke-width="1"></path></g><g id="minder_node34" opacity="1"><g id="node_expander34" style="cursor: pointer;"><path id="kity_path_430" fill="white" stroke="gray" d="M191.50000569969416,59.50000170618296A6,6,0,1,1,179.50000569969416,59.50000170618296A6,6,0,1,1,191.50000569969416,59.50000170618296"></path><path id="kity_path_431" fill="none" stroke="gray" d="M181.00000569969416,59.50000170618296L190.00000569969416,59.50000170618296"></path></g><path id="node_outline35" fill="rgb(238, 243, 246)" stroke="rgb(115, 161, 191)" d="M195.5000061020255,46.50000170618296h153a3,3,0,0,1,3,3v20a3,3,0,0,1,-3,3h-153a3,3,0,0,1,-3,-3v-20a3,3,0,0,1,3,-3z" stroke-width="1"></path><g id="node_text35" fill="black"><text id="kity_text_369" text-rendering="inherit" font-size="14" dy=".8em" y="50.40000167489052" x="212.5000061020255">geometry.vertices</text></g></g><g id="minder_node36" opacity="1"><g id="node_expander37" style="cursor: pointer;"><path id="kity_path_439" fill="white" stroke="gray" d="M191.50000569969416,385.5000065639615A6,6,0,1,1,179.50000569969416,385.5000065639615A6,6,0,1,1,191.50000569969416,385.5000065639615"></path><path id="kity_path_440" fill="none" stroke="gray" d="M181.00000569969416,385.5000065639615L190.00000569969416,385.5000065639615"></path></g><path id="node_outline38" fill="rgb(238, 243, 246)" stroke="rgb(115, 161, 191)" d="M195.5000061020255,372.5000065639615h136a3,3,0,0,1,3,3v20a3,3,0,0,1,-3,3h-136a3,3,0,0,1,-3,-3v-20a3,3,0,0,1,3,-3z" stroke-width="1"></path><g id="node_text38" fill="black"><text id="kity_text_375" text-rendering="inherit" font-size="14" dy=".8em" y="376.40000653266907" x="212.5000061020255">geometry.faces</text></g></g><g id="minder_node39" opacity="1"><g id="node_expander51" style="cursor: pointer;"><path id="kity_path_481" fill="white" stroke="gray" d="M191.50000569969416,183.50000355392694A6,6,0,1,1,179.50000569969416,183.50000355392694A6,6,0,1,1,191.50000569969416,183.50000355392694"></path><path id="kity_path_482" fill="none" stroke="gray" d="M181.00000569969416,183.50000355392694L190.00000569969416,183.50000355392694"></path></g><path id="node_outline52" fill="rgb(238, 243, 246)" stroke="rgb(115, 161, 191)" d="M195.5000061020255,170.50000355392694h143a3,3,0,0,1,3,3v20a3,3,0,0,1,-3,3h-143a3,3,0,0,1,-3,-3v-20a3,3,0,0,1,3,-3z" stroke-width="1"></path><g id="node_text52" fill="black"><text id="kity_text_403" text-rendering="inherit" font-size="14" dy=".8em" y="174.4000035226345" x="212.5000061020255">geometry.colors</text></g></g><g id="minder_node35"><g id="node_expander33" style="cursor: pointer;" display="none"><path id="kity_path_427" fill="white" stroke="gray" d="M391.5000086799264,31.500001288950443A6,6,0,1,1,379.5000086799264,31.500001288950443A6,6,0,1,1,391.5000086799264,31.500001288950443"></path><path id="kity_path_428" fill="none" stroke="gray"></path></g><path id="node_outline34" fill="none" stroke="none" d="M396.500008918345,20.500001288950443h84a5,5,0,0,1,5,5v12a5,5,0,0,1,-5,5h-84a5,5,0,0,1,-5,-5v-12a5,5,0,0,1,5,-5z" stroke-width="3"></path><g id="node_text34" fill="black"><text id="kity_text_367" text-rendering="inherit" font-size="12" dy=".8em" y="23.700001262128353" x="401.500008918345">顶点位置数据</text></g></g><g id="minder_node40" opacity="1"><g id="node_expander38" style="cursor: pointer;"><path id="kity_path_442" fill="white" stroke="gray" d="M381.5000085309148,155.50000313669443A6,6,0,1,1,369.5000085309148,155.50000313669443A6,6,0,1,1,381.5000085309148,155.50000313669443"></path><path id="kity_path_443" fill="none" stroke="gray" d="M371.0000085309148,155.50000313669443L380.0000085309148,155.50000313669443"></path></g><path id="node_outline39" fill="none" stroke="none" d="M386.50000876933336,144.50000313669443h84a5,5,0,0,1,5,5v12a5,5,0,0,1,-5,5h-84a5,5,0,0,1,-5,-5v-12a5,5,0,0,1,5,-5z" stroke-width="3"></path><g id="node_text39" fill="black"><text id="kity_text_377" text-rendering="inherit" font-size="12" dy=".8em" y="147.70000310987234" x="391.50000876933336">顶点颜色数据</text></g></g><g id="kity_g_12" display="none"><path id="kity_path_13" fill="none" stroke="rgb(66, 94, 112)" d="M195.50000359863043,327.5000042691827h136a3,3,0,0,1,3,3v20a3,3,0,0,1,-3,3h-136a3,3,0,0,1,-3,-3v-20a3,3,0,0,1,3,-3z" stroke-width="5"></path></g><g id="minder_node37"><g id="node_expander36" style="cursor: pointer;" display="none"><path id="kity_path_436" fill="white" stroke="gray" d="M347.5000080242753,280.5000049993396A6,6,0,1,1,335.5000080242753,280.5000049993396A6,6,0,1,1,347.5000080242753,280.5000049993396"></path><path id="kity_path_437" fill="none" stroke="gray" d="M337.0000080242753,280.5000049993396L346.0000080242753,280.5000049993396"></path></g><path id="node_outline37" fill="none" stroke="none" d="M352.5000082626939,269.5000049993396h176a5,5,0,0,1,5,5v12a5,5,0,0,1,-5,5h-176a5,5,0,0,1,-5,-5v-12a5,5,0,0,1,5,-5z" stroke-width="3"></path><g id="node_text37" fill="black"><text id="kity_text_373" text-rendering="inherit" font-size="12" dy=".8em" y="272.7000049725175" x="357.5000082626939">多个三角形面Face3构成的数组</text></g></g><g id="minder_node53"><g id="node_expander62" style="cursor: pointer;"><path id="kity_path_658" fill="white" stroke="gray" d="M354.50000812858343,492.50000815838575A6,6,0,1,1,342.50000812858343,492.50000815838575A6,6,0,1,1,354.50000812858343,492.50000815838575"></path><path id="kity_path_659" fill="none" stroke="gray" d="M344.00000812858343,492.50000815838575L353.00000812858343,492.50000815838575"></path></g><path id="node_outline63" fill="none" stroke="none" d="M359.500008367002,476.50000815838575h108a5,5,0,0,1,5,5v22a5,5,0,0,1,-5,5h-108a5,5,0,0,1,-5,-5v-22a5,5,0,0,1,5,-5z" stroke-width="3"></path><g id="node_text63" fill="black"><text id="kity_text_612" text-rendering="inherit" font-size="12" dy=".8em" y="484.70000813156366" x="364.500008367002">三角形Face3</text></g><a id="kity_a_613" xlink:href="http://www.yanhuangxueyuan.com/threejs/docs/index.html#api/zh/core/Face3" target="_blank" xlink:title="http://www.yanhuangxueyuan.com/threejs/docs/index.html#api/zh/core/Face3" style="cursor: pointer;"><path id="kity_path_615" fill="rgba(255, 255, 255, 0)" stroke="none" d="M442.50000949949026,481.50000808387995h16a4,4,0,0,1,4,4v14a4,4,0,0,1,-4,4h-16a4,4,0,0,1,-4,-4v-14a4,4,0,0,1,4,-4z"></path><path id="kity_path_614" fill="#666" stroke="none" d="M457.11400949949024,497.72400808387994h-1.278c-1.668,0,-3.07,-1.07,-3.599,-2.556h4.877c0.707,0,1.278,-0.571,1.278,-1.278V491.33400808387995c0,-0.707,-0.571,-1.278,-1.278,-1.278h-4.877C452.7660094994903,488.57100808388,454.16800949949027,487.50000808387995,455.8360094994903,487.50000808387995h1.278c2.116,0,3.834,1.716,3.834,3.834V493.89000808387993C460.94800949949024,496.00800808387993,459.2300094994903,497.72400808387994,457.11400949949024,497.72400808387994zM445.6120094994903,492.61200808387997c0,-0.707,0.573,-1.278,1.278,-1.278h7.668c0.707,0,1.278,0.571,1.278,1.278S455.26500949949025,493.89000808387993,454.55800949949025,493.89000808387993H446.89000949949025C446.18500949949026,493.89000808387993,445.6120094994903,493.31900808387996,445.6120094994903,492.61200808387997zM443.05600949949024,491.33400808387995V493.89000808387993c0,0.707,0.573,1.278,1.278,1.278h4.877c-0.528,1.486,-1.932,2.556,-3.599,2.556H444.33400949949026C442.21600949949027,497.72400808387994,440.50000949949026,496.00800808387993,440.50000949949026,493.89000808387993V491.33400808387995C440.50000949949026,489.21600808387996,442.21600949949027,487.50000808387995,444.33400949949026,487.50000808387995h1.278c1.667,0,3.071,1.071,3.599,2.556H444.33400949949026C443.6290094994903,490.05600808387993,443.05600949949024,490.62700808387996,443.05600949949024,491.33400808387995z"></path></a></g><g id="minder_node54"><g id="node_expander52" style="cursor: pointer;" display="none"><path id="kity_path_628" fill="white" stroke="gray" d="M490.50001015514135,338.50000586360693A6,6,0,1,1,478.50001015514135,338.50000586360693A6,6,0,1,1,490.50001015514135,338.50000586360693"></path><path id="kity_path_629" fill="none" stroke="gray"></path></g><path id="node_outline53" fill="none" stroke="none" d="M495.50001039355993,327.50000586360693h95a5,5,0,0,1,5,5v12a5,5,0,0,1,-5,5h-95a5,5,0,0,1,-5,-5v-12a5,5,0,0,1,5,-5z" stroke-width="3"></path><g id="node_text53" fill="black"><text id="kity_text_592" text-rendering="inherit" font-size="12" dy=".8em" y="330.70000583678484" x="500.50001039355993">.a — 顶点1索引</text></g></g><g id="minder_node55"><g id="node_expander53" style="cursor: pointer;" display="none"><path id="kity_path_631" fill="white" stroke="gray" d="M490.50001015514135,390.5000066384673A6,6,0,1,1,478.50001015514135,390.5000066384673A6,6,0,1,1,490.50001015514135,390.5000066384673"></path><path id="kity_path_632" fill="none" stroke="gray"></path></g><path id="node_outline54" fill="none" stroke="none" d="M495.50001039355993,379.5000066384673h96a5,5,0,0,1,5,5v12a5,5,0,0,1,-5,5h-96a5,5,0,0,1,-5,-5v-12a5,5,0,0,1,5,-5z" stroke-width="3"></path><g id="node_text54" fill="black"><text id="kity_text_594" text-rendering="inherit" font-size="12" dy=".8em" y="382.7000066116452" x="500.50001039355993">.b — 顶点2索引</text></g></g><g id="minder_node56"><g id="node_expander54" style="cursor: pointer;" display="none"><path id="kity_path_634" fill="white" stroke="gray" d="M490.50001015514135,442.5000074133277A6,6,0,1,1,478.50001015514135,442.5000074133277A6,6,0,1,1,490.50001015514135,442.5000074133277"></path><path id="kity_path_635" fill="none" stroke="gray"></path></g><path id="node_outline55" fill="none" stroke="none" d="M495.50001039355993,431.5000074133277h94a5,5,0,0,1,5,5v12a5,5,0,0,1,-5,5h-94a5,5,0,0,1,-5,-5v-12a5,5,0,0,1,5,-5z" stroke-width="3"></path><g id="node_text55" fill="black"><text id="kity_text_596" text-rendering="inherit" font-size="12" dy=".8em" y="434.7000073865056" x="500.50001039355993">.c — 顶点3索引</text></g></g><g id="minder_node57"><g id="node_expander57" style="cursor: pointer;"><path id="kity_path_643" fill="white" stroke="gray" d="M490.50001015514135,520.5000085756183A6,6,0,1,1,478.50001015514135,520.5000085756183A6,6,0,1,1,490.50001015514135,520.5000085756183"></path><path id="kity_path_644" fill="none" stroke="gray" d="M480.00001015514135,520.5000085756183L489.00001015514135,520.5000085756183"></path></g><path id="node_outline58" fill="none" stroke="none" d="M495.50001039355993,509.50000857561827h94a5,5,0,0,1,5,5v12a5,5,0,0,1,-5,5h-94a5,5,0,0,1,-5,-5v-12a5,5,0,0,1,5,-5z" stroke-width="3"></path><g id="node_text58" fill="black"><text id="kity_text_602" text-rendering="inherit" font-size="12" dy=".8em" y="512.7000085487962" x="500.50001039355993">三角形法线方向</text></g></g><g id="minder_node58"><g id="node_expander55" style="cursor: pointer;" display="none"><path id="kity_path_637" fill="white" stroke="gray" d="M604.5000118538737,491.5000081434846A6,6,0,1,1,592.5000118538737,491.5000081434846A6,6,0,1,1,604.5000118538737,491.5000081434846"></path><path id="kity_path_638" fill="none" stroke="gray"></path></g><path id="node_outline56" fill="none" stroke="none" d="M609.5000120922923,480.5000081434846h54a5,5,0,0,1,5,5v12a5,5,0,0,1,-5,5h-54a5,5,0,0,1,-5,-5v-12a5,5,0,0,1,5,-5z" stroke-width="3"></path><g id="node_text56" fill="black"><text id="kity_text_598" text-rendering="inherit" font-size="12" dy=".8em" y="483.7000081166625" x="614.5000120922923">.normal</text></g></g><g id="minder_node59"><g id="node_expander56" style="cursor: pointer;" display="none"><path id="kity_path_640" fill="white" stroke="gray" d="M604.5000118538737,543.500008918345A6,6,0,1,1,592.5000118538737,543.500008918345A6,6,0,1,1,604.5000118538737,543.500008918345"></path><path id="kity_path_641" fill="none" stroke="gray"></path></g><path id="node_outline57" fill="none" stroke="none" d="M609.5000120922923,532.500008918345h97a5,5,0,0,1,5,5v12a5,5,0,0,1,-5,5h-97a5,5,0,0,1,-5,-5v-12a5,5,0,0,1,5,-5z" stroke-width="3"></path><g id="node_text57" fill="black"><text id="kity_text_600" text-rendering="inherit" font-size="12" dy=".8em" y="535.7000088915229" x="614.5000120922923">.vertexNormals</text></g></g><g id="minder_node60"><g id="node_expander61" style="cursor: pointer;"><path id="kity_path_655" fill="white" stroke="gray" d="M490.50001015514135,650.5000105127692A6,6,0,1,1,478.50001015514135,650.5000105127692A6,6,0,1,1,490.50001015514135,650.5000105127692"></path><path id="kity_path_656" fill="none" stroke="gray" d="M480.00001015514135,650.5000105127692L489.00001015514135,650.5000105127692"></path></g><path id="node_outline62" fill="none" stroke="none" d="M495.50001039355993,639.5000105127692h70a5,5,0,0,1,5,5v12a5,5,0,0,1,-5,5h-70a5,5,0,0,1,-5,-5v-12a5,5,0,0,1,5,-5z" stroke-width="3"></path><g id="node_text62" fill="black"><text id="kity_text_610" text-rendering="inherit" font-size="12" dy=".8em" y="642.7000104859471" x="500.50001039355993">三角形颜色</text></g></g><g id="minder_node61"><g id="node_expander58" style="cursor: pointer;" display="none"><path id="kity_path_646" fill="white" stroke="gray" d="M587.500011600554,598.5000097379088A6,6,0,1,1,575.500011600554,598.5000097379088A6,6,0,1,1,587.500011600554,598.5000097379088"></path><path id="kity_path_647" fill="none" stroke="gray"></path></g><path id="node_outline59" fill="none" stroke="none" d="M592.5000118389726,587.5000097379088h42a5,5,0,0,1,5,5v12a5,5,0,0,1,-5,5h-42a5,5,0,0,1,-5,-5v-12a5,5,0,0,1,5,-5z" stroke-width="3"></path><g id="node_text59" fill="black"><text id="kity_text_604" text-rendering="inherit" font-size="12" dy=".8em" y="590.7000097110868" x="597.5000118389726">.color</text></g></g><g id="minder_node62"><g id="node_expander59" style="cursor: pointer;" display="none"><path id="kity_path_649" fill="white" stroke="gray" d="M587.500011600554,650.5000105127692A6,6,0,1,1,575.500011600554,650.5000105127692A6,6,0,1,1,587.500011600554,650.5000105127692"></path><path id="kity_path_650" fill="none" stroke="gray"></path></g><path id="node_outline60" fill="none" stroke="none" d="M592.5000118389726,639.5000105127692h85a5,5,0,0,1,5,5v12a5,5,0,0,1,-5,5h-85a5,5,0,0,1,-5,-5v-12a5,5,0,0,1,5,-5z" stroke-width="3"></path><g id="node_text60" fill="black"><text id="kity_text_606" text-rendering="inherit" font-size="12" dy=".8em" y="642.7000104859471" x="597.5000118389726">.vertexColors</text></g></g><g id="minder_node63"><g id="node_expander60" style="cursor: pointer;" display="none"><path id="kity_path_652" fill="white" stroke="gray" d="M587.500011600554,702.5000112876296A6,6,0,1,1,575.500011600554,702.5000112876296A6,6,0,1,1,587.500011600554,702.5000112876296"></path><path id="kity_path_653" fill="none" stroke="gray"></path></g><path id="node_outline61" fill="none" stroke="none" d="M592.5000118389726,691.5000112876296h77a5,5,0,0,1,5,5v12a5,5,0,0,1,-5,5h-77a5,5,0,0,1,-5,-5v-12a5,5,0,0,1,5,-5z" stroke-width="3"></path><g id="node_text61" fill="black"><text id="kity_text_608" text-rendering="inherit" font-size="12" dy=".8em" y="694.7000112608075" x="597.5000118389726">Mesh起作用</text></g></g><g id="minder_node64"><g id="node_expander63" style="cursor: pointer;" display="none"><path id="kity_path_666" fill="white" stroke="gray" d="M515.5000105276704,155.50000313669443A6,6,0,1,1,503.5000105276704,155.50000313669443A6,6,0,1,1,515.5000105276704,155.50000313669443"></path><path id="kity_path_667" fill="none" stroke="gray"></path></g><path id="node_outline64" fill="none" stroke="none" d="M520.500010766089,144.50000313669443h117a5,5,0,0,1,5,5v12a5,5,0,0,1,-5,5h-117a5,5,0,0,1,-5,-5v-12a5,5,0,0,1,5,-5z" stroke-width="3"></path><g id="node_text64" fill="black"><text id="kity_text_663" text-rendering="inherit" font-size="12" dy=".8em" y="147.70000310987234" x="525.500010766089">Points、Line起作用</text></g></g><g id="minder_node65"><g id="node_expander64" style="cursor: pointer;"><path id="kity_path_674" fill="white" stroke="gray" d="M391.5000086799264,88.50000213831663A6,6,0,1,1,379.5000086799264,88.50000213831663A6,6,0,1,1,391.5000086799264,88.50000213831663"></path><path id="kity_path_675" fill="none" stroke="gray" d="M381.0000086799264,88.50000213831663L390.0000086799264,88.50000213831663"></path></g><path id="node_outline65" fill="none" stroke="none" d="M396.500008918345,77.50000213831663h59a5,5,0,0,1,5,5v12a5,5,0,0,1,-5,5h-59a5,5,0,0,1,-5,-5v-12a5,5,0,0,1,5,-5z" stroke-width="3"></path><g id="node_text65" fill="black"><text id="kity_text_671" text-rendering="inherit" font-size="12" dy=".8em" y="80.70000211149454" x="401.500008918345">数组元素</text></g></g><g id="minder_node66"><g id="node_expander65" style="cursor: pointer;" display="none"><path id="kity_path_682" fill="white" stroke="gray" d="M500.50001030415297,88.50000213831663A6,6,0,1,1,488.50001030415297,88.50000213831663A6,6,0,1,1,500.50001030415297,88.50000213831663"></path><path id="kity_path_683" fill="none" stroke="gray"></path></g><path id="node_outline66" fill="none" stroke="none" d="M505.50001054257154,72.50000213831663h84a5,5,0,0,1,5,5v22a5,5,0,0,1,-5,5h-84a5,5,0,0,1,-5,-5v-22a5,5,0,0,1,5,-5z" stroke-width="3"></path><g id="node_text66" fill="black"><text id="kity_text_679" text-rendering="inherit" font-size="12" dy=".8em" y="80.70000211149454" x="510.50001054257154">Vector3</text></g><a id="kity_a_700" xlink:href="http://www.yanhuangxueyuan.com/threejs/docs/index.html#api/zh/math/Vector3)" target="_blank" xlink:title="http://www.yanhuangxueyuan.com/threejs/docs/index.html#api/zh/math/Vector3)" style="cursor: pointer;"><path id="kity_path_702" fill="rgba(255, 255, 255, 0)" stroke="none" d="M564.5000113174319,77.50000206381083h16a4,4,0,0,1,4,4v14a4,4,0,0,1,-4,4h-16a4,4,0,0,1,-4,-4v-14a4,4,0,0,1,4,-4z"></path><path id="kity_path_701" fill="#666" stroke="none" d="M579.114011317432,93.72400206381083h-1.278c-1.668,0,-3.07,-1.07,-3.599,-2.556h4.877c0.707,0,1.278,-0.571,1.278,-1.278V87.33400206381083c0,-0.707,-0.571,-1.278,-1.278,-1.278h-4.877C574.7660113174319,84.57100206381082,576.1680113174319,83.50000206381083,577.8360113174319,83.50000206381083h1.278c2.116,0,3.834,1.716,3.834,3.834V89.89000206381083C582.9480113174319,92.00800206381082,581.230011317432,93.72400206381083,579.114011317432,93.72400206381083zM567.6120113174319,88.61200206381082c0,-0.707,0.573,-1.278,1.278,-1.278h7.668c0.707,0,1.278,0.571,1.278,1.278S577.2650113174319,89.89000206381083,576.5580113174319,89.89000206381083H568.8900113174319C568.1850113174319,89.89000206381083,567.6120113174319,89.31900206381083,567.6120113174319,88.61200206381082zM565.056011317432,87.33400206381083V89.89000206381083c0,0.707,0.573,1.278,1.278,1.278h4.877c-0.528,1.486,-1.932,2.556,-3.599,2.556H566.3340113174319C564.2160113174319,93.72400206381083,562.5000113174319,92.00800206381082,562.5000113174319,89.89000206381083V87.33400206381083C562.5000113174319,85.21600206381082,564.2160113174319,83.50000206381083,566.3340113174319,83.50000206381083h1.278c1.667,0,3.071,1.071,3.599,2.556H566.3340113174319C565.629011317432,86.05600206381082,565.056011317432,86.62700206381082,565.056011317432,87.33400206381083z"></path></a></g><g id="minder_node67"><g id="node_expander66" style="cursor: pointer;"><path id="kity_path_690" fill="white" stroke="gray" d="M381.5000085309148,212.50000398606062A6,6,0,1,1,369.5000085309148,212.50000398606062A6,6,0,1,1,381.5000085309148,212.50000398606062"></path><path id="kity_path_691" fill="none" stroke="gray" d="M371.0000085309148,212.50000398606062L380.0000085309148,212.50000398606062"></path></g><path id="node_outline67" fill="none" stroke="none" d="M386.50000876933336,201.50000398606062h59a5,5,0,0,1,5,5v12a5,5,0,0,1,-5,5h-59a5,5,0,0,1,-5,-5v-12a5,5,0,0,1,5,-5z" stroke-width="3"></path><g id="node_text67" fill="black"><text id="kity_text_687" text-rendering="inherit" font-size="12" dy=".8em" y="204.70000395923853" x="391.50000876933336">数组元素</text></g></g><g id="minder_node68"><g id="node_expander67" style="cursor: pointer;" display="none"><path id="kity_path_698" fill="white" stroke="gray" d="M490.50001015514135,212.50000398606062A6,6,0,1,1,478.50001015514135,212.50000398606062A6,6,0,1,1,490.50001015514135,212.50000398606062"></path><path id="kity_path_699" fill="none" stroke="gray"></path></g><path id="node_outline68" fill="none" stroke="none" d="M495.50001039355993,196.50000398606062h70a5,5,0,0,1,5,5v22a5,5,0,0,1,-5,5h-70a5,5,0,0,1,-5,-5v-22a5,5,0,0,1,5,-5z" stroke-width="3"></path><g id="node_text68" fill="black"><text id="kity_text_695" text-rendering="inherit" font-size="12" dy=".8em" y="204.70000395923853" x="500.50001039355993">Color</text></g><a id="kity_a_703" xlink:href="http://www.yanhuangxueyuan.com/threejs/docs/index.html#api/zh/math/Color" target="_blank" xlink:title="http://www.yanhuangxueyuan.com/threejs/docs/index.html#api/zh/math/Color" style="cursor: pointer;"><path id="kity_path_705" fill="rgba(255, 255, 255, 0)" stroke="none" d="M540.5000109598041,201.5000039115548h16a4,4,0,0,1,4,4v14a4,4,0,0,1,-4,4h-16a4,4,0,0,1,-4,-4v-14a4,4,0,0,1,4,-4z"></path><path id="kity_path_704" fill="#666" stroke="none" d="M555.1140109598041,217.7240039115548h-1.278c-1.668,0,-3.07,-1.07,-3.599,-2.556h4.877c0.707,0,1.278,-0.571,1.278,-1.278V211.33400391155482c0,-0.707,-0.571,-1.278,-1.278,-1.278h-4.877C550.766010959804,208.5710039115548,552.1680109598041,207.5000039115548,553.8360109598041,207.5000039115548h1.278c2.116,0,3.834,1.716,3.834,3.834V213.8900039115548C558.948010959804,216.00800391155482,557.2300109598041,217.7240039115548,555.1140109598041,217.7240039115548zM543.612010959804,212.6120039115548c0,-0.707,0.573,-1.278,1.278,-1.278h7.668c0.707,0,1.278,0.571,1.278,1.278S553.265010959804,213.8900039115548,552.558010959804,213.8900039115548H544.890010959804C544.185010959804,213.8900039115548,543.612010959804,213.3190039115548,543.612010959804,212.6120039115548zM541.0560109598041,211.33400391155482V213.8900039115548c0,0.707,0.573,1.278,1.278,1.278h4.877c-0.528,1.486,-1.932,2.556,-3.599,2.556H542.334010959804C540.2160109598041,217.7240039115548,538.5000109598041,216.00800391155482,538.5000109598041,213.8900039115548V211.33400391155482C538.5000109598041,209.21600391155482,540.2160109598041,207.5000039115548,542.334010959804,207.5000039115548h1.278c1.667,0,3.071,1.071,3.599,2.556H542.334010959804C541.6290109598041,210.05600391155482,541.0560109598041,210.62700391155482,541.0560109598041,211.33400391155482z"></path></a></g></g></g></svg>