<svg id="kity_svg_6" xmlns="http://www.w3.org/2000/svg" xmlns:xlink="http://www.w3.org/1999/xlink" version="1.1" width="713" height="228" style="background: rgb(251, 251, 251); visibility: visible;" viewBox="0 0 713 228"><defs id="kity_defs_7"><linearGradient id="kity_linearGradient_17" x1="0" y1="0" x2="0" y2="1"><stop id="kity_stop_18" offset="0" stop-color="rgb(255, 255, 255)"></stop><stop id="kity_stop_19" offset="1" stop-color="rgb(204, 204, 204)"></stop></linearGradient><marker id="kity_marker_2" orient="auto" refX="6" refY="0" viewBox="-7 -7 14 14" markerWidth="7" markerHeight="7" markerUnits="userSpaceOnUse"><path id="kity_path_3" fill="rgb(115, 161, 191)" stroke="none" d="M6,0A6,6,0,1,1,-6,0A6,6,0,1,1,6,0"></path></marker></defs><g id="kity_g_8"><g id="minder1" text-rendering="optimize-speed"><g id="minder_connect_group1"><path id="kity_path_113" fill="none" stroke="rgb(115, 161, 191)" stroke-width="1" d="M77.00000777095556,114.50000626593828A174.5,57,0,0,1,251.50000777095556,57.50000626593828"></path><path id="kity_path_119" fill="none" stroke="rgb(115, 161, 191)" stroke-width="1" d="M77.00000777095556,114.50000626593828A174.5,57,0,0,0,251.50000777095556,171.50000626593828"></path><path id="kity_path_166" fill="none" stroke="rgb(115, 161, 191)" stroke-width="1" d="M323.50000777095556,57.50000626593828C343.50000777095556,57.50000626593828,343.50000777095556,31.500006265938282,363.50000777095556,31.500006265938282"></path><path id="kity_path_167" fill="none" stroke="rgb(115, 161, 191)" stroke-width="1" d="M323.50000777095556,57.50000626593828C343.50000777095556,57.50000626593828,343.50000777095556,83.50000626593828,363.50000777095556,83.50000626593828"></path><path id="kity_path_168" fill="none" stroke="rgb(115, 161, 191)" stroke-width="1" d="M475.50000777095556,171.50000626593828C495.50000777095556,171.50000626593828,495.50000777095556,145.50000626593828,515.5000077709556,145.50000626593828"></path><path id="kity_path_169" fill="none" stroke="rgb(115, 161, 191)" stroke-width="1" d="M475.50000777095556,171.50000626593828C495.50000777095556,171.50000626593828,495.50000777095556,197.50000626593828,515.5000077709556,197.50000626593828"></path></g><g id="minder_node1"><path id="node_outline1" fill="rgb(115, 161, 191)" stroke="rgb(115, 161, 191)" d="M25.500007770955563,94.50000626593828h103a5,5,0,0,1,5,5v30a5,5,0,0,1,-5,5h-103a5,5,0,0,1,-5,-5v-30a5,5,0,0,1,5,-5z" stroke-width="3"></path><g id="node_text1" fill="white"><text id="kity_text_22" text-rendering="inherit" font-size="16" dy=".8em" y="104.1000062301755" x="44.50000777095556">顶点概念</text></g></g><g id="kity_g_14" display="none"><path id="kity_path_15" fill="none" stroke="none" d="M44.50000777095556,114.50000626593828h0v0h0z"></path><path id="kity_path_16" fill="none" stroke="none"></path></g><g id="minder_node13" opacity="1"><g id="node_expander14" style="cursor: pointer;"><path id="kity_path_155" fill="white" stroke="gray" d="M252.50001078099012,57.500005416572094A6,6,0,1,1,240.50001078099012,57.500005416572094A6,6,0,1,1,252.50001078099012,57.500005416572094"></path><path id="kity_path_156" fill="none" stroke="gray" d="M242.00001078099012,57.500005416572094L251.00001078099012,57.500005416572094"></path></g><path id="node_outline15" fill="rgb(238, 243, 246)" stroke="rgb(115, 161, 191)" d="M256.5000111833215,44.500005416572094h64a3,3,0,0,1,3,3v20a3,3,0,0,1,-3,3h-64a3,3,0,0,1,-3,-3v-20a3,3,0,0,1,3,-3z" stroke-width="1"></path><g id="node_text15" fill="black"><text id="kity_text_135" text-rendering="inherit" font-size="14" dy=".8em" y="48.400005385279655" x="273.5000111833215">分类</text></g></g><g id="minder_node16" opacity="1"><g id="node_expander17" style="cursor: pointer;"><path id="kity_path_164" fill="white" stroke="gray" d="M252.50001078099012,171.50000711530447A6,6,0,1,1,240.50001078099012,171.50000711530447A6,6,0,1,1,252.50001078099012,171.50000711530447"></path><path id="kity_path_165" fill="none" stroke="gray" d="M242.00001078099012,171.50000711530447L251.00001078099012,171.50000711530447"></path></g><path id="node_outline18" fill="rgb(238, 243, 246)" stroke="rgb(115, 161, 191)" d="M256.5000111833215,158.50000711530447h216a3,3,0,0,1,3,3v20a3,3,0,0,1,-3,3h-216a3,3,0,0,1,-3,-3v-20a3,3,0,0,1,3,-3z" stroke-width="1"></path><g id="node_text18" fill="black"><text id="kity_text_141" text-rendering="inherit" font-size="14" dy=".8em" y="162.40000708401203" x="273.5000111833215">顶点位置和顶点颜色一一对应</text></g></g><g id="kity_g_12" display="none"><path id="kity_path_13" fill="none" stroke="rgb(66, 94, 112)" d="M25.500007770955563,94.50000626593828h103a5,5,0,0,1,5,5v30a5,5,0,0,1,-5,5h-103a5,5,0,0,1,-5,-5v-30a5,5,0,0,1,5,-5z" stroke-width="5"></path></g><g id="minder_node14"><g id="node_expander12" style="cursor: pointer;" display="none"><path id="kity_path_149" fill="white" stroke="gray" d="M363.500012435019,31.500005029141903A6,6,0,1,1,351.500012435019,31.500005029141903A6,6,0,1,1,363.500012435019,31.500005029141903"></path><path id="kity_path_150" fill="none" stroke="gray"></path></g><path id="node_outline13" fill="none" stroke="none" d="M368.5000126734376,20.500005029141903h84a5,5,0,0,1,5,5v12a5,5,0,0,1,-5,5h-84a5,5,0,0,1,-5,-5v-12a5,5,0,0,1,5,-5z"></path><g id="node_text13" fill="black"><text id="kity_text_131" text-rendering="inherit" font-size="12" dy=".8em" y="23.700005002319813" x="373.5000126734376">顶点位置数据</text></g></g><g id="minder_node15"><g id="node_expander13" style="cursor: pointer;" display="none"><path id="kity_path_152" fill="white" stroke="gray" d="M363.500012435019,83.50000580400229A6,6,0,1,1,351.500012435019,83.50000580400229A6,6,0,1,1,363.500012435019,83.50000580400229"></path><path id="kity_path_153" fill="none" stroke="gray"></path></g><path id="node_outline14" fill="none" stroke="none" d="M368.5000126734376,72.50000580400229h84a5,5,0,0,1,5,5v12a5,5,0,0,1,-5,5h-84a5,5,0,0,1,-5,-5v-12a5,5,0,0,1,5,-5z"></path><g id="node_text14" fill="black"><text id="kity_text_133" text-rendering="inherit" font-size="12" dy=".8em" y="75.7000057771802" x="373.5000126734376">顶点颜色数据</text></g></g><g id="minder_node17"><g id="node_expander15" style="cursor: pointer;" display="none"><path id="kity_path_158" fill="white" stroke="gray" d="M515.5000146999955,145.50000672787428A6,6,0,1,1,503.5000146999955,145.50000672787428A6,6,0,1,1,515.5000146999955,145.50000672787428"></path><path id="kity_path_159" fill="none" stroke="gray"></path></g><path id="node_outline16" fill="none" stroke="none" d="M520.5000149384141,134.50000672787428h168a5,5,0,0,1,5,5v12a5,5,0,0,1,-5,5h-168a5,5,0,0,1,-5,-5v-12a5,5,0,0,1,5,-5z"></path><g id="node_text16" fill="black"><text id="kity_text_137" text-rendering="inherit" font-size="12" dy=".8em" y="137.7000067010522" x="525.5000149384141">一个顶点有一个位置坐标数据</text></g></g><g id="minder_node18"><g id="node_expander16" style="cursor: pointer;" display="none"><path id="kity_path_161" fill="white" stroke="gray" d="M515.5000146999955,197.50000750273466A6,6,0,1,1,503.5000146999955,197.50000750273466A6,6,0,1,1,515.5000146999955,197.50000750273466"></path><path id="kity_path_162" fill="none" stroke="gray"></path></g><path id="node_outline17" fill="none" stroke="none" d="M520.5000149384141,186.50000750273466h144a5,5,0,0,1,5,5v12a5,5,0,0,1,-5,5h-144a5,5,0,0,1,-5,-5v-12a5,5,0,0,1,5,-5z"></path><g id="node_text17" fill="black"><text id="kity_text_139" text-rendering="inherit" font-size="12" dy=".8em" y="189.70000747591257" x="525.5000149384141">一个顶点有一个颜色数据</text></g></g></g></g></svg>