<svg id="kity_svg_6" xmlns="http://www.w3.org/2000/svg" xmlns:xlink="http://www.w3.org/1999/xlink" version="1.1" width="706" height="788" style="background: rgb(251, 251, 251); visibility: visible;" viewBox="0 0 706 788"><defs id="kity_defs_7"><linearGradient id="kity_linearGradient_17" x1="0" y1="0" x2="0" y2="1"><stop id="kity_stop_18" offset="0" stop-color="rgb(255, 255, 255)"></stop><stop id="kity_stop_19" offset="1" stop-color="rgb(204, 204, 204)"></stop></linearGradient><marker id="kity_marker_2" orient="auto" refX="6" refY="0" viewBox="-7 -7 14 14" markerWidth="7" markerHeight="7" markerUnits="userSpaceOnUse"><path id="kity_path_3" fill="rgb(115, 191, 118)" stroke="none" d="M6,0A6,6,0,1,1,-6,0A6,6,0,1,1,6,0"></path></marker></defs><g id="kity_g_8"><g id="minder1" text-rendering="optimize-speed"><g id="minder_connect_group1"><path id="kity_path_157" fill="none" stroke="rgb(115, 191, 118)" stroke-width="1" d="M97.50000362843275,459.500008456409A72,194,0,0,1,169.50000362843275,265.500008456409"></path><path id="kity_path_165" fill="none" stroke="rgb(115, 191, 118)" stroke-width="1" d="M97.50000362843275,459.500008456409A72,200,0,0,0,169.50000362843275,659.500008456409"></path><path id="kity_path_444" fill="none" stroke="rgb(115, 191, 118)" stroke-width="1" d="M511.50000362843275,31.500008456408978C531.5000036284328,31.500008456408978,531.5000036284328,31.500008456408978,551.5000036284328,31.500008456408978"></path><path id="kity_path_445" fill="none" stroke="rgb(115, 191, 118)" stroke-width="1" d="M324.50000362843275,135.50000845640898C344.50000362843275,135.50000845640898,344.50000362843275,31.500008456408978,364.50000362843275,31.500008456408978"></path><path id="kity_path_446" fill="none" stroke="rgb(115, 191, 118)" stroke-width="1" d="M510.50000362843275,83.50000845640898C530.5000036284328,83.50000845640898,530.5000036284328,83.50000845640898,550.5000036284328,83.50000845640898"></path><path id="kity_path_447" fill="none" stroke="rgb(115, 191, 118)" stroke-width="1" d="M324.50000362843275,135.50000845640898C344.50000362843275,135.50000845640898,344.50000362843275,83.50000845640898,364.50000362843275,83.50000845640898"></path><path id="kity_path_448" fill="none" stroke="rgb(115, 191, 118)" stroke-width="1" d="M511.50000362843275,135.50000845640898C531.5000036284328,135.50000845640898,531.5000036284328,135.50000845640898,551.5000036284328,135.50000845640898"></path><path id="kity_path_449" fill="none" stroke="rgb(115, 191, 118)" stroke-width="1" d="M324.50000362843275,135.50000845640898C344.50000362843275,135.50000845640898,344.50000362843275,135.50000845640898,364.50000362843275,135.50000845640898"></path><path id="kity_path_450" fill="none" stroke="rgb(115, 191, 118)" stroke-width="1" d="M568.5000036284328,187.50000845640898C588.5000036284328,187.50000845640898,588.5000036284328,187.50000845640898,608.5000036284328,187.50000845640898"></path><path id="kity_path_451" fill="none" stroke="rgb(115, 191, 118)" stroke-width="1" d="M324.50000362843275,135.50000845640898C344.50000362843275,135.50000845640898,344.50000362843275,187.50000845640898,364.50000362843275,187.50000845640898"></path><path id="kity_path_452" fill="none" stroke="rgb(115, 191, 118)" stroke-width="1" d="M324.50000362843275,135.50000845640898C344.50000362843275,135.50000845640898,344.50000362843275,239.50000845640898,364.50000362843275,239.50000845640898"></path><path id="kity_path_453" fill="none" stroke="rgb(115, 191, 118)" stroke-width="1" d="M240.50000362843275,265.500008456409C260.50000362843275,265.500008456409,260.50000362843275,135.50000845640898,280.50000362843275,135.50000845640898"></path><path id="kity_path_454" fill="none" stroke="rgb(115, 191, 118)" stroke-width="1" d="M471.50000362843275,291.500008456409C491.50000362843275,291.500008456409,491.50000362843275,291.500008456409,511.50000362843275,291.500008456409"></path><path id="kity_path_455" fill="none" stroke="rgb(115, 191, 118)" stroke-width="1" d="M326.50000362843275,395.500008456409C346.50000362843275,395.500008456409,346.50000362843275,291.500008456409,366.50000362843275,291.500008456409"></path><path id="kity_path_456" fill="none" stroke="rgb(115, 191, 118)" stroke-width="1" d="M470.50000362843275,343.500008456409C490.50000362843275,343.500008456409,490.50000362843275,343.500008456409,510.50000362843275,343.500008456409"></path><path id="kity_path_457" fill="none" stroke="rgb(115, 191, 118)" stroke-width="1" d="M326.50000362843275,395.500008456409C346.50000362843275,395.500008456409,346.50000362843275,343.500008456409,366.50000362843275,343.500008456409"></path><path id="kity_path_458" fill="none" stroke="rgb(115, 191, 118)" stroke-width="1" d="M471.50000362843275,395.500008456409C491.50000362843275,395.500008456409,491.50000362843275,395.500008456409,511.50000362843275,395.500008456409"></path><path id="kity_path_459" fill="none" stroke="rgb(115, 191, 118)" stroke-width="1" d="M326.50000362843275,395.500008456409C346.50000362843275,395.500008456409,346.50000362843275,395.500008456409,366.50000362843275,395.500008456409"></path><path id="kity_path_460" fill="none" stroke="rgb(115, 191, 118)" stroke-width="1" d="M532.5000036284328,447.500008456409C552.5000036284328,447.500008456409,552.5000036284328,447.500008456409,572.5000036284328,447.500008456409"></path><path id="kity_path_461" fill="none" stroke="rgb(115, 191, 118)" stroke-width="1" d="M326.50000362843275,395.500008456409C346.50000362843275,395.500008456409,346.50000362843275,447.500008456409,366.50000362843275,447.500008456409"></path><path id="kity_path_462" fill="none" stroke="rgb(115, 191, 118)" stroke-width="1" d="M326.50000362843275,395.500008456409C346.50000362843275,395.500008456409,346.50000362843275,499.500008456409,366.50000362843275,499.500008456409"></path><path id="kity_path_463" fill="none" stroke="rgb(115, 191, 118)" stroke-width="1" d="M240.50000362843275,265.500008456409C260.50000362843275,265.500008456409,260.50000362843275,395.500008456409,280.50000362843275,395.500008456409"></path><path id="kity_path_464" fill="none" stroke="rgb(115, 191, 118)" stroke-width="1" d="M419.50000362843275,566.500008456409C439.50000362843275,566.500008456409,439.50000362843275,566.500008456409,459.50000362843275,566.500008456409"></path><path id="kity_path_465" fill="none" stroke="rgb(115, 191, 118)" stroke-width="1" d="M327.50000362843275,566.500008456409C347.50000362843275,566.500008456409,347.50000362843275,566.500008456409,367.50000362843275,566.500008456409"></path><path id="kity_path_466" fill="none" stroke="rgb(115, 191, 118)" stroke-width="1" d="M241.50000362843275,659.500008456409C261.50000362843275,659.500008456409,261.50000362843275,566.500008456409,281.50000362843275,566.500008456409"></path><path id="kity_path_467" fill="none" stroke="rgb(115, 191, 118)" stroke-width="1" d="M437.50000362843275,628.500008456409C457.50000362843275,628.500008456409,457.50000362843275,628.500008456409,477.50000362843275,628.500008456409"></path><path id="kity_path_468" fill="none" stroke="rgb(115, 191, 118)" stroke-width="1" d="M327.50000362843275,628.500008456409C347.50000362843275,628.500008456409,347.50000362843275,628.500008456409,367.50000362843275,628.500008456409"></path><path id="kity_path_469" fill="none" stroke="rgb(115, 191, 118)" stroke-width="1" d="M241.50000362843275,659.500008456409C261.50000362843275,659.500008456409,261.50000362843275,628.500008456409,281.50000362843275,628.500008456409"></path><path id="kity_path_470" fill="none" stroke="rgb(115, 191, 118)" stroke-width="1" d="M435.50000362843275,690.500008456409C455.50000362843275,690.500008456409,455.50000362843275,690.500008456409,475.50000362843275,690.500008456409"></path><path id="kity_path_471" fill="none" stroke="rgb(115, 191, 118)" stroke-width="1" d="M326.50000362843275,690.500008456409C346.50000362843275,690.500008456409,346.50000362843275,690.500008456409,366.50000362843275,690.500008456409"></path><path id="kity_path_472" fill="none" stroke="rgb(115, 191, 118)" stroke-width="1" d="M241.50000362843275,659.500008456409C261.50000362843275,659.500008456409,261.50000362843275,690.500008456409,281.50000362843275,690.500008456409"></path><path id="kity_path_473" fill="none" stroke="rgb(115, 191, 118)" stroke-width="1" d="M338.50000362843275,752.500008456409C358.50000362843275,752.500008456409,358.50000362843275,752.500008456409,378.50000362843275,752.500008456409"></path><path id="kity_path_474" fill="none" stroke="rgb(115, 191, 118)" stroke-width="1" d="M241.50000362843275,659.500008456409C261.50000362843275,659.500008456409,261.50000362843275,752.500008456409,281.50000362843275,752.500008456409"></path><path id="kity_path_476" fill="none" stroke="rgb(115, 191, 118)" stroke-width="1" d="M464.50000362843275,752.500008456409C484.50000362843275,752.500008456409,484.50000362843275,752.500008456409,504.50000362843275,752.500008456409"></path></g><g id="minder_node1"><path id="node_outline1" fill="rgb(115, 191, 118)" stroke="rgb(115, 191, 118)" d="M25.50000362843275,436.500008456409h144a5,5,0,0,1,5,5v36a5,5,0,0,1,-5,5h-144a5,5,0,0,1,-5,-5v-36a5,5,0,0,1,5,-5z" stroke-width="3"></path><g id="node_text1" fill="white"><text id="kity_text_22" text-rendering="inherit" font-size="16" dy=".8em" y="449.1000084206462" x="44.50000362843275">Object3D</text></g><a id="kity_a_93" xlink:href="http://www.yanhuangxueyuan.com/threejs/docs/index.html#api/zh/core/Object3D" target="_blank" xlink:title="http://www.yanhuangxueyuan.com/threejs/docs/index.html#api/zh/core/Object3D" style="cursor: pointer;"><path id="kity_path_95" fill="rgba(255, 255, 255, 0)" stroke="none" d="M130.5000048801303,448.50000838190317h16a4,4,0,0,1,4,4v14a4,4,0,0,1,-4,4h-16a4,4,0,0,1,-4,-4v-14a4,4,0,0,1,4,-4z"></path><path id="kity_path_94" fill="#666" stroke="none" d="M145.1140048801303,464.72400838190316h-1.278c-1.668,0,-3.07,-1.07,-3.599,-2.556h4.877c0.707,0,1.278,-0.571,1.278,-1.278V458.3340083819032c0,-0.707,-0.571,-1.278,-1.278,-1.278h-4.877C140.76600488013028,455.5710083819032,142.1680048801303,454.50000838190317,143.8360048801303,454.50000838190317h1.278c2.116,0,3.834,1.716,3.834,3.834V460.89000838190316C148.9480048801303,463.00800838190315,147.23000488013028,464.72400838190316,145.1140048801303,464.72400838190316zM133.61200488013029,459.6120083819032c0,-0.707,0.573,-1.278,1.278,-1.278h7.668c0.707,0,1.278,0.571,1.278,1.278S143.26500488013028,460.89000838190316,142.55800488013028,460.89000838190316H134.89000488013028C134.1850048801303,460.89000838190316,133.61200488013029,460.3190083819032,133.61200488013029,459.6120083819032zM131.0560048801303,458.3340083819032V460.89000838190316c0,0.707,0.573,1.278,1.278,1.278h4.877c-0.528,1.486,-1.932,2.556,-3.599,2.556H132.3340048801303C130.2160048801303,464.72400838190316,128.5000048801303,463.00800838190315,128.5000048801303,460.89000838190316V458.3340083819032C128.5000048801303,456.2160083819032,130.2160048801303,454.50000838190317,132.3340048801303,454.50000838190317h1.278c1.667,0,3.071,1.071,3.599,2.556H132.3340048801303C131.62900488013028,457.05600838190315,131.0560048801303,457.6270083819032,131.0560048801303,458.3340083819032z"></path></a></g><g id="kity_g_14" display="none"><path id="kity_path_15" fill="none" stroke="none" d="M44.50000362843275,459.500008456409h0v0h0z"></path><path id="kity_path_16" fill="none" stroke="none"></path></g><g id="minder_node17" opacity="1"><g id="node_expander16" style="cursor: pointer;"><path id="kity_path_162" fill="white" stroke="gray" d="M170.5000054165721,265.5000055655837A6,6,0,1,1,158.5000054165721,265.5000055655837A6,6,0,1,1,170.5000054165721,265.5000055655837"></path><path id="kity_path_163" fill="none" stroke="gray" d="M160.0000054165721,265.5000055655837L169.0000054165721,265.5000055655837"></path></g><path id="node_outline17" fill="rgb(238, 246, 238)" stroke="rgb(115, 191, 118)" d="M174.50000581890345,252.5000055655837h63a3,3,0,0,1,3,3v20a3,3,0,0,1,-3,3h-63a3,3,0,0,1,-3,-3v-20a3,3,0,0,1,3,-3z" stroke-width="1"></path><g id="node_text17" fill="black"><text id="kity_text_159" text-rendering="inherit" font-size="14" dy=".8em" y="256.40000553429127" x="191.50000581890345">方法</text></g></g><g id="minder_node18" opacity="1"><g id="node_expander17" style="cursor: pointer;"><path id="kity_path_170" fill="white" stroke="gray" d="M170.5000054165721,659.5000114366412A6,6,0,1,1,158.5000054165721,659.5000114366412A6,6,0,1,1,170.5000054165721,659.5000114366412"></path><path id="kity_path_171" fill="none" stroke="gray" d="M160.0000054165721,659.5000114366412L169.0000054165721,659.5000114366412"></path></g><path id="node_outline18" fill="rgb(238, 246, 238)" stroke="rgb(115, 191, 118)" d="M174.50000581890345,646.5000114366412h64a3,3,0,0,1,3,3v20a3,3,0,0,1,-3,3h-64a3,3,0,0,1,-3,-3v-20a3,3,0,0,1,3,-3z" stroke-width="1"></path><g id="node_text18" fill="black"><text id="kity_text_167" text-rendering="inherit" font-size="14" dy=".8em" y="650.4000114053488" x="191.50000581890345">属性</text></g></g><g id="kity_g_12" display="none"><path id="kity_path_13" fill="none" stroke="rgb(66, 112, 68)" d="M566.5000036284328,453.500008456409h42a5,5,0,0,1,5,5v12a5,5,0,0,1,-5,5h-42a5,5,0,0,1,-5,-5v-12a5,5,0,0,1,5,-5z" stroke-width="5"></path></g><g id="minder_node38"><g id="node_expander37" style="cursor: pointer;" display="none"><path id="kity_path_330" fill="white" stroke="gray" d="M551.5000110939145,31.500002078711987A6,6,0,1,1,539.5000110939145,31.500002078711987A6,6,0,1,1,551.5000110939145,31.500002078711987"></path><path id="kity_path_331" fill="none" stroke="gray"></path></g><path id="node_outline38" fill="none" stroke="none" d="M556.5000113323331,20.500002078711987h67a5,5,0,0,1,5,5v12a5,5,0,0,1,-5,5h-67a5,5,0,0,1,-5,-5v-12a5,5,0,0,1,5,-5z" stroke-width="3"></path><g id="node_text38" fill="black"><text id="kity_text_327" text-rendering="inherit" font-size="12" dy=".8em" y="23.700002051889896" x="561.5000113323331">沿X轴平移</text></g></g><g id="minder_node33"><g id="node_expander32" style="cursor: pointer;"><path id="kity_path_290" fill="white" stroke="gray" d="M364.50000830739737,31.500002078711987A6,6,0,1,1,352.50000830739737,31.500002078711987A6,6,0,1,1,364.50000830739737,31.500002078711987"></path><path id="kity_path_291" fill="none" stroke="gray" d="M354.00000830739737,31.500002078711987L363.00000830739737,31.500002078711987"></path></g><path id="node_outline33" fill="none" stroke="none" d="M369.50000854581594,20.500002078711987h137a5,5,0,0,1,5,5v12a5,5,0,0,1,-5,5h-137a5,5,0,0,1,-5,-5v-12a5,5,0,0,1,5,-5z" stroke-width="3"></path><g id="node_text33" fill="black"><text id="kity_text_287" text-rendering="inherit" font-size="12" dy=".8em" y="23.700002051889896" x="374.50000854581594">.translateX ( distance )</text></g></g><g id="minder_node39"><g id="node_expander38" style="cursor: pointer;" display="none"><path id="kity_path_338" fill="white" stroke="gray" d="M550.5000110790133,83.50000285357237A6,6,0,1,1,538.5000110790133,83.50000285357237A6,6,0,1,1,550.5000110790133,83.50000285357237"></path><path id="kity_path_339" fill="none" stroke="gray"></path></g><path id="node_outline39" fill="none" stroke="none" d="M555.5000113174319,72.50000285357237h66a5,5,0,0,1,5,5v12a5,5,0,0,1,-5,5h-66a5,5,0,0,1,-5,-5v-12a5,5,0,0,1,5,-5z" stroke-width="3"></path><g id="node_text39" fill="black"><text id="kity_text_335" text-rendering="inherit" font-size="12" dy=".8em" y="75.70000282675028" x="560.5000113174319">沿Y轴平移</text></g></g><g id="minder_node34"><g id="node_expander33" style="cursor: pointer;"><path id="kity_path_298" fill="white" stroke="gray" d="M364.50000830739737,83.50000285357237A6,6,0,1,1,352.50000830739737,83.50000285357237A6,6,0,1,1,364.50000830739737,83.50000285357237"></path><path id="kity_path_299" fill="none" stroke="gray" d="M354.00000830739737,83.50000285357237L363.00000830739737,83.50000285357237"></path></g><path id="node_outline34" fill="none" stroke="none" d="M369.50000854581594,72.50000285357237h136a5,5,0,0,1,5,5v12a5,5,0,0,1,-5,5h-136a5,5,0,0,1,-5,-5v-12a5,5,0,0,1,5,-5z" stroke-width="3"></path><g id="node_text34" fill="black"><text id="kity_text_295" text-rendering="inherit" font-size="12" dy=".8em" y="75.70000282675028" x="374.50000854581594">.translateY ( distance )</text></g></g><g id="minder_node40"><g id="node_expander39" style="cursor: pointer;" display="none"><path id="kity_path_346" fill="white" stroke="gray" d="M551.5000110939145,135.50000362843275A6,6,0,1,1,539.5000110939145,135.50000362843275A6,6,0,1,1,551.5000110939145,135.50000362843275"></path><path id="kity_path_347" fill="none" stroke="gray"></path></g><path id="node_outline40" fill="none" stroke="none" d="M556.5000113323331,124.50000362843275h66a5,5,0,0,1,5,5v12a5,5,0,0,1,-5,5h-66a5,5,0,0,1,-5,-5v-12a5,5,0,0,1,5,-5z" stroke-width="3"></path><g id="node_text40" fill="black"><text id="kity_text_343" text-rendering="inherit" font-size="12" dy=".8em" y="127.70000360161066" x="561.5000113323331">沿Z轴平移</text></g></g><g id="minder_node35"><g id="node_expander34" style="cursor: pointer;"><path id="kity_path_306" fill="white" stroke="gray" d="M364.50000830739737,135.50000362843275A6,6,0,1,1,352.50000830739737,135.50000362843275A6,6,0,1,1,364.50000830739737,135.50000362843275"></path><path id="kity_path_307" fill="none" stroke="gray" d="M354.00000830739737,135.50000362843275L363.00000830739737,135.50000362843275"></path></g><path id="node_outline35" fill="none" stroke="none" d="M369.50000854581594,124.50000362843275h137a5,5,0,0,1,5,5v12a5,5,0,0,1,-5,5h-137a5,5,0,0,1,-5,-5v-12a5,5,0,0,1,5,-5z" stroke-width="3"></path><g id="node_text35" fill="black"><text id="kity_text_303" text-rendering="inherit" font-size="12" dy=".8em" y="127.70000360161066" x="374.50000854581594">.translateZ ( distance )</text></g></g><g id="minder_node41"><g id="node_expander40" style="cursor: pointer;" display="none"><path id="kity_path_354" fill="white" stroke="gray" d="M608.5000119432807,187.50000440329313A6,6,0,1,1,596.5000119432807,187.50000440329313A6,6,0,1,1,608.5000119432807,187.50000440329313"></path><path id="kity_path_355" fill="none" stroke="gray"></path></g><path id="node_outline41" fill="none" stroke="none" d="M613.5000121816993,176.50000440329313h68a5,5,0,0,1,5,5v12a5,5,0,0,1,-5,5h-68a5,5,0,0,1,-5,-5v-12a5,5,0,0,1,5,-5z" stroke-width="3"></path><g id="node_text41" fill="black"><text id="kity_text_351" text-rendering="inherit" font-size="12" dy=".8em" y="179.70000437647104" x="618.5000121816993">沿axis平移</text></g></g><g id="minder_node36"><g id="node_expander35" style="cursor: pointer;"><path id="kity_path_319" fill="white" stroke="gray" d="M364.50000830739737,187.50000440329313A6,6,0,1,1,352.50000830739737,187.50000440329313A6,6,0,1,1,364.50000830739737,187.50000440329313"></path><path id="kity_path_320" fill="none" stroke="gray" d="M354.00000830739737,187.50000440329313L363.00000830739737,187.50000440329313"></path></g><path id="node_outline36" fill="none" stroke="none" d="M369.50000854581594,176.50000440329313h194a5,5,0,0,1,5,5v12a5,5,0,0,1,-5,5h-194a5,5,0,0,1,-5,-5v-12a5,5,0,0,1,5,-5z" stroke-width="3"></path><g id="node_text36" fill="black"><text id="kity_text_313" text-rendering="inherit" font-size="12" dy=".8em" y="179.70000437647104" x="374.50000854581594">.translateOnAxis( axis, distance )</text></g></g><g id="minder_node51"><g id="node_expander50" style="cursor: pointer;" display="none"><path id="kity_path_434" fill="white" stroke="gray" d="M364.50000830739737,239.50000517815351A6,6,0,1,1,352.50000830739737,239.50000517815351A6,6,0,1,1,364.50000830739737,239.50000517815351"></path><path id="kity_path_435" fill="none" stroke="gray"></path></g><path id="node_outline51" fill="none" stroke="none" d="M369.50000854581594,228.50000517815351h108a5,5,0,0,1,5,5v12a5,5,0,0,1,-5,5h-108a5,5,0,0,1,-5,-5v-12a5,5,0,0,1,5,-5z" stroke-width="3"></path><g id="node_text51" fill="black"><text id="kity_text_431" text-rendering="inherit" font-size="12" dy=".8em" y="231.70000515133142" x="374.50000854581594">改变.position属性</text></g></g><g id="minder_node19"><g id="node_expander18" style="cursor: pointer;"><path id="kity_path_178" fill="white" stroke="gray" d="M280.5000070556998,135.50000362843275A6,6,0,1,1,268.5000070556998,135.50000362843275A6,6,0,1,1,280.5000070556998,135.50000362843275"></path><path id="kity_path_179" fill="none" stroke="gray" d="M270.0000070556998,135.50000362843275L279.0000070556998,135.50000362843275"></path></g><path id="node_outline19" fill="none" stroke="none" d="M285.5000072941184,124.50000362843275h34a5,5,0,0,1,5,5v12a5,5,0,0,1,-5,5h-34a5,5,0,0,1,-5,-5v-12a5,5,0,0,1,5,-5z" stroke-width="3"></path><g id="node_text19" fill="black"><text id="kity_text_175" text-rendering="inherit" font-size="12" dy=".8em" y="127.70000360161066" x="290.5000072941184">平移</text></g></g><g id="minder_node46"><g id="node_expander45" style="cursor: pointer;" display="none"><path id="kity_path_394" fill="white" stroke="gray" d="M511.50001049786806,291.5000059530139A6,6,0,1,1,499.50001049786806,291.5000059530139A6,6,0,1,1,511.50001049786806,291.5000059530139"></path><path id="kity_path_395" fill="none" stroke="gray"></path></g><path id="node_outline46" fill="none" stroke="none" d="M516.5000107362866,280.5000059530139h67a5,5,0,0,1,5,5v12a5,5,0,0,1,-5,5h-67a5,5,0,0,1,-5,-5v-12a5,5,0,0,1,5,-5z" stroke-width="3"></path><g id="node_text46" fill="black"><text id="kity_text_391" text-rendering="inherit" font-size="12" dy=".8em" y="283.7000059261918" x="521.5000107362866">绕X轴旋转</text></g></g><g id="minder_node42"><g id="node_expander41" style="cursor: pointer;"><path id="kity_path_362" fill="white" stroke="gray" d="M366.5000083371997,291.5000059530139A6,6,0,1,1,354.5000083371997,291.5000059530139A6,6,0,1,1,366.5000083371997,291.5000059530139"></path><path id="kity_path_363" fill="none" stroke="gray" d="M356.0000083371997,291.5000059530139L365.0000083371997,291.5000059530139"></path></g><path id="node_outline42" fill="none" stroke="none" d="M371.50000857561827,280.5000059530139h95a5,5,0,0,1,5,5v12a5,5,0,0,1,-5,5h-95a5,5,0,0,1,-5,-5v-12a5,5,0,0,1,5,-5z" stroke-width="3"></path><g id="node_text42" fill="black"><text id="kity_text_359" text-rendering="inherit" font-size="12" dy=".8em" y="283.7000059261918" x="376.50000857561827">.rotateX(angle)</text></g></g><g id="minder_node47"><g id="node_expander46" style="cursor: pointer;" display="none"><path id="kity_path_402" fill="white" stroke="gray" d="M510.5000104829669,343.5000067278743A6,6,0,1,1,498.5000104829669,343.5000067278743A6,6,0,1,1,510.5000104829669,343.5000067278743"></path><path id="kity_path_403" fill="none" stroke="gray"></path></g><path id="node_outline47" fill="none" stroke="none" d="M515.5000107213855,332.5000067278743h67a5,5,0,0,1,5,5v12a5,5,0,0,1,-5,5h-67a5,5,0,0,1,-5,-5v-12a5,5,0,0,1,5,-5z" stroke-width="3"></path><g id="node_text47" fill="black"><text id="kity_text_399" text-rendering="inherit" font-size="12" dy=".8em" y="335.7000067010522" x="520.5000107213855">绕Y轴旋转</text></g></g><g id="minder_node43"><g id="node_expander42" style="cursor: pointer;"><path id="kity_path_370" fill="white" stroke="gray" d="M366.5000083371997,343.5000067278743A6,6,0,1,1,354.5000083371997,343.5000067278743A6,6,0,1,1,366.5000083371997,343.5000067278743"></path><path id="kity_path_371" fill="none" stroke="gray" d="M356.0000083371997,343.5000067278743L365.0000083371997,343.5000067278743"></path></g><path id="node_outline43" fill="none" stroke="none" d="M371.50000857561827,332.5000067278743h94a5,5,0,0,1,5,5v12a5,5,0,0,1,-5,5h-94a5,5,0,0,1,-5,-5v-12a5,5,0,0,1,5,-5z" stroke-width="3"></path><g id="node_text43" fill="black"><text id="kity_text_367" text-rendering="inherit" font-size="12" dy=".8em" y="335.7000067010522" x="376.50000857561827">.rotateY(angle)</text></g></g><g id="minder_node48"><g id="node_expander47" style="cursor: pointer;" display="none"><path id="kity_path_410" fill="white" stroke="gray" d="M511.50001049786806,395.50000750273466A6,6,0,1,1,499.50001049786806,395.50000750273466A6,6,0,1,1,511.50001049786806,395.50000750273466"></path><path id="kity_path_411" fill="none" stroke="gray"></path></g><path id="node_outline48" fill="none" stroke="none" d="M516.5000107362866,384.50000750273466h67a5,5,0,0,1,5,5v12a5,5,0,0,1,-5,5h-67a5,5,0,0,1,-5,-5v-12a5,5,0,0,1,5,-5z" stroke-width="3"></path><g id="node_text48" fill="black"><text id="kity_text_407" text-rendering="inherit" font-size="12" dy=".8em" y="387.70000747591257" x="521.5000107362866">绕Z轴旋转</text></g></g><g id="minder_node44"><g id="node_expander43" style="cursor: pointer;"><path id="kity_path_378" fill="white" stroke="gray" d="M366.5000083371997,395.50000750273466A6,6,0,1,1,354.5000083371997,395.50000750273466A6,6,0,1,1,366.5000083371997,395.50000750273466"></path><path id="kity_path_379" fill="none" stroke="gray" d="M356.0000083371997,395.50000750273466L365.0000083371997,395.50000750273466"></path></g><path id="node_outline44" fill="none" stroke="none" d="M371.50000857561827,384.50000750273466h95a5,5,0,0,1,5,5v12a5,5,0,0,1,-5,5h-95a5,5,0,0,1,-5,-5v-12a5,5,0,0,1,5,-5z" stroke-width="3"></path><g id="node_text44" fill="black"><text id="kity_text_375" text-rendering="inherit" font-size="12" dy=".8em" y="387.70000747591257" x="376.50000857561827">.rotateZ(angle)</text></g></g><g id="minder_node50"><g id="node_expander49" style="cursor: pointer;" display="none"><path id="kity_path_426" fill="white" stroke="gray" d="M572.5000114068389,447.50000827759504A6,6,0,1,1,560.5000114068389,447.50000827759504A6,6,0,1,1,572.5000114068389,447.50000827759504"></path><path id="kity_path_427" fill="none" stroke="gray"></path></g><path id="node_outline50" fill="none" stroke="none" d="M577.5000116452575,436.50000827759504h81a5,5,0,0,1,5,5v12a5,5,0,0,1,-5,5h-81a5,5,0,0,1,-5,-5v-12a5,5,0,0,1,5,-5z" stroke-width="3"></path><g id="node_text50" fill="black"><text id="kity_text_423" text-rendering="inherit" font-size="12" dy=".8em" y="439.70000825077295" x="582.5000116452575">绕axis轴旋转</text></g></g><g id="minder_node45"><g id="node_expander44" style="cursor: pointer;"><path id="kity_path_386" fill="white" stroke="gray" d="M366.5000083371997,447.50000827759504A6,6,0,1,1,354.5000083371997,447.50000827759504A6,6,0,1,1,366.5000083371997,447.50000827759504"></path><path id="kity_path_387" fill="none" stroke="gray" d="M356.0000083371997,447.50000827759504L365.0000083371997,447.50000827759504"></path></g><path id="node_outline45" fill="none" stroke="none" d="M371.50000857561827,436.50000827759504h156a5,5,0,0,1,5,5v12a5,5,0,0,1,-5,5h-156a5,5,0,0,1,-5,-5v-12a5,5,0,0,1,5,-5z" stroke-width="3"></path><g id="node_text45" fill="black"><text id="kity_text_383" text-rendering="inherit" font-size="12" dy=".8em" y="439.70000825077295" x="376.50000857561827">.rotateOnAxis(axis, angle)</text></g></g><g id="minder_node52"><g id="node_expander51" style="cursor: pointer;" display="none"><path id="kity_path_442" fill="white" stroke="gray" d="M366.5000083371997,499.5000090524554A6,6,0,1,1,354.5000083371997,499.5000090524554A6,6,0,1,1,366.5000083371997,499.5000090524554"></path><path id="kity_path_443" fill="none" stroke="gray"></path></g><path id="node_outline52" fill="none" stroke="none" d="M371.50000857561827,488.5000090524554h186a5,5,0,0,1,5,5v12a5,5,0,0,1,-5,5h-186a5,5,0,0,1,-5,-5v-12a5,5,0,0,1,5,-5z" stroke-width="3"></path><g id="node_text52" fill="black"><text id="kity_text_439" text-rendering="inherit" font-size="12" dy=".8em" y="491.70000902563334" x="376.50000857561827">改变.rotation和.quaternion属性</text></g></g><g id="minder_node20"><g id="node_expander19" style="cursor: pointer;"><path id="kity_path_186" fill="white" stroke="gray" d="M280.5000070556998,395.50000750273466A6,6,0,1,1,268.5000070556998,395.50000750273466A6,6,0,1,1,280.5000070556998,395.50000750273466"></path><path id="kity_path_187" fill="none" stroke="gray" d="M270.0000070556998,395.50000750273466L279.0000070556998,395.50000750273466"></path></g><path id="node_outline20" fill="none" stroke="none" d="M285.5000072941184,384.50000750273466h36a5,5,0,0,1,5,5v12a5,5,0,0,1,-5,5h-36a5,5,0,0,1,-5,-5v-12a5,5,0,0,1,5,-5z" stroke-width="3"></path><g id="node_text20" fill="black"><text id="kity_text_183" text-rendering="inherit" font-size="12" dy=".8em" y="387.70000747591257" x="290.5000072941184">旋转</text></g></g><g id="minder_node28" opacity="1"><g id="node_expander27" style="cursor: pointer;" display="none"><path id="kity_path_250" fill="white" stroke="gray" d="M459.5000097230077,566.5000100508332A6,6,0,1,1,447.5000097230077,566.5000100508332A6,6,0,1,1,459.5000097230077,566.5000100508332"></path><path id="kity_path_251" fill="none" stroke="gray"></path></g><path id="node_outline28" fill="none" stroke="none" d="M464.50000996142626,550.5000100508332h132a5,5,0,0,1,5,5v22a5,5,0,0,1,-5,5h-132a5,5,0,0,1,-5,-5v-22a5,5,0,0,1,5,-5z" stroke-width="3"></path><g id="node_text28" fill="black"><text id="kity_text_247" text-rendering="inherit" font-size="12" dy=".8em" y="558.7000100240111" x="469.50000996142626">属性值：Vector3</text></g><a id="kity_a_492" xlink:href="http://www.yanhuangxueyuan.com/threejs/docs/index.html#api/zh/math/Vector3" target="_blank" xlink:title="http://www.yanhuangxueyuan.com/threejs/docs/index.html#api/zh/math/Vector3" style="cursor: pointer;"><path id="kity_path_494" fill="rgba(255, 255, 255, 0)" stroke="none" d="M571.5000114515424,555.5000099763274h16a4,4,0,0,1,4,4v14a4,4,0,0,1,-4,4h-16a4,4,0,0,1,-4,-4v-14a4,4,0,0,1,4,-4z"></path><path id="kity_path_493" fill="#666" stroke="none" d="M586.1140114515424,571.7240099763275h-1.278c-1.668,0,-3.07,-1.07,-3.599,-2.556h4.877c0.707,0,1.278,-0.571,1.278,-1.278V565.3340099763274c0,-0.707,-0.571,-1.278,-1.278,-1.278h-4.877C581.7660114515423,562.5710099763274,583.1680114515424,561.5000099763274,584.8360114515424,561.5000099763274h1.278c2.116,0,3.834,1.716,3.834,3.834V567.8900099763274C589.9480114515424,570.0080099763275,588.2300114515424,571.7240099763275,586.1140114515424,571.7240099763275zM574.6120114515423,566.6120099763274c0,-0.707,0.573,-1.278,1.278,-1.278h7.668c0.707,0,1.278,0.571,1.278,1.278S584.2650114515424,567.8900099763274,583.5580114515424,567.8900099763274H575.8900114515424C575.1850114515423,567.8900099763274,574.6120114515423,567.3190099763274,574.6120114515423,566.6120099763274zM572.0560114515424,565.3340099763274V567.8900099763274c0,0.707,0.573,1.278,1.278,1.278h4.877c-0.528,1.486,-1.932,2.556,-3.599,2.556H573.3340114515423C571.2160114515424,571.7240099763275,569.5000114515424,570.0080099763275,569.5000114515424,567.8900099763274V565.3340099763274C569.5000114515424,563.2160099763274,571.2160114515424,561.5000099763274,573.3340114515423,561.5000099763274h1.278c1.667,0,3.071,1.071,3.599,2.556H573.3340114515423C572.6290114515424,564.0560099763275,572.0560114515424,564.6270099763274,572.0560114515424,565.3340099763274z"></path></a></g><g id="minder_node24"><g id="node_expander23" style="cursor: pointer;"><path id="kity_path_218" fill="white" stroke="gray" d="M367.50000835210085,566.5000100508332A6,6,0,1,1,355.50000835210085,566.5000100508332A6,6,0,1,1,367.50000835210085,566.5000100508332"></path><path id="kity_path_219" fill="none" stroke="gray" d="M357.00000835210085,566.5000100508332L366.00000835210085,566.5000100508332"></path></g><path id="node_outline24" fill="none" stroke="none" d="M372.5000085905194,555.5000100508332h42a5,5,0,0,1,5,5v12a5,5,0,0,1,-5,5h-42a5,5,0,0,1,-5,-5v-12a5,5,0,0,1,5,-5z" stroke-width="3"></path><g id="node_text24" fill="black"><text id="kity_text_215" text-rendering="inherit" font-size="12" dy=".8em" y="558.7000100240111" x="377.5000085905194">.scale</text></g></g><g id="minder_node21"><g id="node_expander20" style="cursor: pointer;"><path id="kity_path_194" fill="white" stroke="gray" d="M281.500007070601,566.5000100508332A6,6,0,1,1,269.500007070601,566.5000100508332A6,6,0,1,1,281.500007070601,566.5000100508332"></path><path id="kity_path_195" fill="none" stroke="gray" d="M271.000007070601,566.5000100508332L280.000007070601,566.5000100508332"></path></g><path id="node_outline21" fill="none" stroke="none" d="M286.50000730901957,555.5000100508332h36a5,5,0,0,1,5,5v12a5,5,0,0,1,-5,5h-36a5,5,0,0,1,-5,-5v-12a5,5,0,0,1,5,-5z" stroke-width="3"></path><g id="node_text21" fill="black"><text id="kity_text_191" text-rendering="inherit" font-size="12" dy=".8em" y="558.7000100240111" x="291.50000730901957">缩放</text></g></g><g id="minder_node29"><g id="node_expander28" style="cursor: pointer;" display="none"><path id="kity_path_258" fill="white" stroke="gray" d="M477.5000099912286,628.5000109747052A6,6,0,1,1,465.5000099912286,628.5000109747052A6,6,0,1,1,477.5000099912286,628.5000109747052"></path><path id="kity_path_259" fill="none" stroke="gray"></path></g><path id="node_outline29" fill="none" stroke="none" d="M482.50001022964716,612.5000109747052h132a5,5,0,0,1,5,5v22a5,5,0,0,1,-5,5h-132a5,5,0,0,1,-5,-5v-22a5,5,0,0,1,5,-5z" stroke-width="3"></path><g id="node_text29" fill="black"><text id="kity_text_255" text-rendering="inherit" font-size="12" dy=".8em" y="620.7000109478831" x="487.50001022964716">属性值：Vector3</text></g><a id="kity_a_489" xlink:href="http://www.yanhuangxueyuan.com/threejs/docs/index.html#api/zh/math/Vector3" target="_blank" xlink:title="http://www.yanhuangxueyuan.com/threejs/docs/index.html#api/zh/math/Vector3" style="cursor: pointer;"><path id="kity_path_491" fill="rgba(255, 255, 255, 0)" stroke="none" d="M589.5000117197633,617.5000109001994h16a4,4,0,0,1,4,4v14a4,4,0,0,1,-4,4h-16a4,4,0,0,1,-4,-4v-14a4,4,0,0,1,4,-4z"></path><path id="kity_path_490" fill="#666" stroke="none" d="M604.1140117197633,633.7240109001995h-1.278c-1.668,0,-3.07,-1.07,-3.599,-2.556h4.877c0.707,0,1.278,-0.571,1.278,-1.278V627.3340109001994c0,-0.707,-0.571,-1.278,-1.278,-1.278h-4.877C599.7660117197632,624.5710109001994,601.1680117197633,623.5000109001994,602.8360117197633,623.5000109001994h1.278c2.116,0,3.834,1.716,3.834,3.834V629.8900109001994C607.9480117197633,632.0080109001995,606.2300117197633,633.7240109001995,604.1140117197633,633.7240109001995zM592.6120117197632,628.6120109001994c0,-0.707,0.573,-1.278,1.278,-1.278h7.668c0.707,0,1.278,0.571,1.278,1.278S602.2650117197633,629.8900109001994,601.5580117197633,629.8900109001994H593.8900117197633C593.1850117197632,629.8900109001994,592.6120117197632,629.3190109001994,592.6120117197632,628.6120109001994zM590.0560117197633,627.3340109001994V629.8900109001994c0,0.707,0.573,1.278,1.278,1.278h4.877c-0.528,1.486,-1.932,2.556,-3.599,2.556H591.3340117197632C589.2160117197633,633.7240109001995,587.5000117197633,632.0080109001995,587.5000117197633,629.8900109001994V627.3340109001994C587.5000117197633,625.2160109001994,589.2160117197633,623.5000109001994,591.3340117197632,623.5000109001994h1.278c1.667,0,3.071,1.071,3.599,2.556H591.3340117197632C590.6290117197633,626.0560109001995,590.0560117197633,626.6270109001994,590.0560117197633,627.3340109001994z"></path></a></g><g id="minder_node25"><g id="node_expander24" style="cursor: pointer;"><path id="kity_path_226" fill="white" stroke="gray" d="M367.50000835210085,628.5000109747052A6,6,0,1,1,355.50000835210085,628.5000109747052A6,6,0,1,1,367.50000835210085,628.5000109747052"></path><path id="kity_path_227" fill="none" stroke="gray" d="M357.00000835210085,628.5000109747052L366.00000835210085,628.5000109747052"></path></g><path id="node_outline25" fill="none" stroke="none" d="M372.5000085905194,617.5000109747052h60a5,5,0,0,1,5,5v12a5,5,0,0,1,-5,5h-60a5,5,0,0,1,-5,-5v-12a5,5,0,0,1,5,-5z" stroke-width="3"></path><g id="node_text25" fill="black"><text id="kity_text_223" text-rendering="inherit" font-size="12" dy=".8em" y="620.7000109478831" x="377.5000085905194">.position</text></g></g><g id="minder_node22"><g id="node_expander21" style="cursor: pointer;"><path id="kity_path_202" fill="white" stroke="gray" d="M281.500007070601,628.5000109747052A6,6,0,1,1,269.500007070601,628.5000109747052A6,6,0,1,1,281.500007070601,628.5000109747052"></path><path id="kity_path_203" fill="none" stroke="gray" d="M271.000007070601,628.5000109747052L280.000007070601,628.5000109747052"></path></g><path id="node_outline22" fill="none" stroke="none" d="M286.50000730901957,617.5000109747052h36a5,5,0,0,1,5,5v12a5,5,0,0,1,-5,5h-36a5,5,0,0,1,-5,-5v-12a5,5,0,0,1,5,-5z" stroke-width="3"></path><g id="node_text22" fill="black"><text id="kity_text_199" text-rendering="inherit" font-size="12" dy=".8em" y="620.7000109478831" x="291.50000730901957">位置</text></g></g><g id="minder_node30"><g id="node_expander29" style="cursor: pointer;" display="none"><path id="kity_path_266" fill="white" stroke="gray" d="M475.50000996142626,690.5000118985772A6,6,0,1,1,463.50000996142626,690.5000118985772A6,6,0,1,1,475.50000996142626,690.5000118985772"></path><path id="kity_path_267" fill="none" stroke="gray"></path></g><path id="node_outline30" fill="none" stroke="none" d="M480.50001019984484,674.5000118985772h117a5,5,0,0,1,5,5v22a5,5,0,0,1,-5,5h-117a5,5,0,0,1,-5,-5v-22a5,5,0,0,1,5,-5z" stroke-width="3"></path><g id="node_text30" fill="black"><text id="kity_text_263" text-rendering="inherit" font-size="12" dy=".8em" y="682.7000118717551" x="485.50001019984484">属性值：Euler</text></g><a id="kity_a_486" xlink:href="http://www.yanhuangxueyuan.com/threejs/docs/index.html#api/zh/math/Euler" target="_blank" xlink:title="http://www.yanhuangxueyuan.com/threejs/docs/index.html#api/zh/math/Euler" style="cursor: pointer;"><path id="kity_path_488" fill="rgba(255, 255, 255, 0)" stroke="none" d="M572.5000114664435,679.5000118240714h16a4,4,0,0,1,4,4v14a4,4,0,0,1,-4,4h-16a4,4,0,0,1,-4,-4v-14a4,4,0,0,1,4,-4z"></path><path id="kity_path_487" fill="#666" stroke="none" d="M587.1140114664436,695.7240118240715h-1.278c-1.668,0,-3.07,-1.07,-3.599,-2.556h4.877c0.707,0,1.278,-0.571,1.278,-1.278V689.3340118240714c0,-0.707,-0.571,-1.278,-1.278,-1.278h-4.877C582.7660114664435,686.5710118240714,584.1680114664435,685.5000118240714,585.8360114664436,685.5000118240714h1.278c2.116,0,3.834,1.716,3.834,3.834V691.8900118240714C590.9480114664435,694.0080118240714,589.2300114664436,695.7240118240715,587.1140114664436,695.7240118240715zM575.6120114664435,690.6120118240714c0,-0.707,0.573,-1.278,1.278,-1.278h7.668c0.707,0,1.278,0.571,1.278,1.278S585.2650114664435,691.8900118240714,584.5580114664435,691.8900118240714H576.8900114664435C576.1850114664435,691.8900118240714,575.6120114664435,691.3190118240714,575.6120114664435,690.6120118240714zM573.0560114664436,689.3340118240714V691.8900118240714c0,0.707,0.573,1.278,1.278,1.278h4.877c-0.528,1.486,-1.932,2.556,-3.599,2.556H574.3340114664435C572.2160114664435,695.7240118240715,570.5000114664435,694.0080118240714,570.5000114664435,691.8900118240714V689.3340118240714C570.5000114664435,687.2160118240714,572.2160114664435,685.5000118240714,574.3340114664435,685.5000118240714h1.278c1.667,0,3.071,1.071,3.599,2.556H574.3340114664435C573.6290114664436,688.0560118240714,573.0560114664436,688.6270118240714,573.0560114664436,689.3340118240714z"></path></a></g><g id="minder_node26"><g id="node_expander25" style="cursor: pointer;"><path id="kity_path_234" fill="white" stroke="gray" d="M366.5000083371997,690.5000118985772A6,6,0,1,1,354.5000083371997,690.5000118985772A6,6,0,1,1,366.5000083371997,690.5000118985772"></path><path id="kity_path_235" fill="none" stroke="gray" d="M356.0000083371997,690.5000118985772L365.0000083371997,690.5000118985772"></path></g><path id="node_outline26" fill="none" stroke="none" d="M371.50000857561827,679.5000118985772h59a5,5,0,0,1,5,5v12a5,5,0,0,1,-5,5h-59a5,5,0,0,1,-5,-5v-12a5,5,0,0,1,5,-5z" stroke-width="3"></path><g id="node_text26" fill="black"><text id="kity_text_231" text-rendering="inherit" font-size="12" dy=".8em" y="682.7000118717551" x="376.50000857561827">.rotation</text></g></g><g id="minder_node23"><g id="node_expander22" style="cursor: pointer;"><path id="kity_path_210" fill="white" stroke="gray" d="M281.500007070601,690.5000118985772A6,6,0,1,1,269.500007070601,690.5000118985772A6,6,0,1,1,281.500007070601,690.5000118985772"></path><path id="kity_path_211" fill="none" stroke="gray" d="M271.000007070601,690.5000118985772L280.000007070601,690.5000118985772"></path></g><path id="node_outline23" fill="none" stroke="none" d="M286.50000730901957,679.5000118985772h35a5,5,0,0,1,5,5v12a5,5,0,0,1,-5,5h-35a5,5,0,0,1,-5,-5v-12a5,5,0,0,1,5,-5z" stroke-width="3"></path><g id="node_text23" fill="black"><text id="kity_text_207" text-rendering="inherit" font-size="12" dy=".8em" y="682.7000118717551" x="291.50000730901957">角度</text></g></g><g id="minder_node32"><g id="node_expander31" style="cursor: pointer;"><path id="kity_path_282" fill="white" stroke="gray" d="M378.5000085160136,752.5000128224492A6,6,0,1,1,366.5000085160136,752.5000128224492A6,6,0,1,1,378.5000085160136,752.5000128224492"></path><path id="kity_path_283" fill="none" stroke="gray" d="M368.0000085160136,752.5000128224492L377.0000085160136,752.5000128224492"></path></g><path id="node_outline32" fill="none" stroke="none" d="M383.5000087544322,741.5000128224492h76a5,5,0,0,1,5,5v12a5,5,0,0,1,-5,5h-76a5,5,0,0,1,-5,-5v-12a5,5,0,0,1,5,-5z" stroke-width="3"></path><g id="node_text32" fill="black"><text id="kity_text_279" text-rendering="inherit" font-size="12" dy=".8em" y="744.7000127956271" x="388.5000087544322">.quaternion</text></g></g><g id="minder_node31"><g id="node_expander30" style="cursor: pointer;"><path id="kity_path_274" fill="white" stroke="gray" d="M281.500007070601,752.5000128224492A6,6,0,1,1,269.500007070601,752.5000128224492A6,6,0,1,1,281.500007070601,752.5000128224492"></path><path id="kity_path_275" fill="none" stroke="gray" d="M271.000007070601,752.5000128224492L280.000007070601,752.5000128224492"></path></g><path id="node_outline31" fill="none" stroke="none" d="M286.50000730901957,741.5000128224492h47a5,5,0,0,1,5,5v12a5,5,0,0,1,-5,5h-47a5,5,0,0,1,-5,-5v-12a5,5,0,0,1,5,-5z" stroke-width="3"></path><g id="node_text31" fill="black"><text id="kity_text_271" text-rendering="inherit" font-size="12" dy=".8em" y="744.7000127956271" x="291.50000730901957">四元数</text></g></g><g id="minder_node53"><g id="node_expander52" style="cursor: pointer;" display="none"><path id="kity_path_481" fill="white" stroke="gray" d="M504.50001039355993,752.5000128224492A6,6,0,1,1,492.50001039355993,752.5000128224492A6,6,0,1,1,504.50001039355993,752.5000128224492"></path><path id="kity_path_482" fill="none" stroke="gray"></path></g><path id="node_outline53" fill="none" stroke="none" d="M509.5000106319785,736.5000128224492h153a5,5,0,0,1,5,5v22a5,5,0,0,1,-5,5h-153a5,5,0,0,1,-5,-5v-22a5,5,0,0,1,5,-5z" stroke-width="3"></path><g id="node_text53" fill="black"><text id="kity_text_478" text-rendering="inherit" font-size="12" dy=".8em" y="744.7000127956271" x="514.5000106319785">属性值：Quaternion</text></g><a id="kity_a_483" xlink:href="http://www.yanhuangxueyuan.com/threejs/docs/index.html#api/zh/math/Quaternion" target="_blank" xlink:title="http://www.yanhuangxueyuan.com/threejs/docs/index.html#api/zh/math/Quaternion" style="cursor: pointer;"><path id="kity_path_485" fill="rgba(255, 255, 255, 0)" stroke="none" d="M637.500012435019,741.5000127479434h16a4,4,0,0,1,4,4v14a4,4,0,0,1,-4,4h-16a4,4,0,0,1,-4,-4v-14a4,4,0,0,1,4,-4z"></path><path id="kity_path_484" fill="#666" stroke="none" d="M652.114012435019,757.7240127479434h-1.278c-1.668,0,-3.07,-1.07,-3.599,-2.556h4.877c0.707,0,1.278,-0.571,1.278,-1.278V751.3340127479433c0,-0.707,-0.571,-1.278,-1.278,-1.278h-4.877C647.766012435019,748.5710127479434,649.168012435019,747.5000127479434,650.836012435019,747.5000127479434h1.278c2.116,0,3.834,1.716,3.834,3.834V753.8900127479434C655.948012435019,756.0080127479434,654.230012435019,757.7240127479434,652.114012435019,757.7240127479434zM640.612012435019,752.6120127479434c0,-0.707,0.573,-1.278,1.278,-1.278h7.668c0.707,0,1.278,0.571,1.278,1.278S650.265012435019,753.8900127479434,649.558012435019,753.8900127479434H641.890012435019C641.185012435019,753.8900127479434,640.612012435019,753.3190127479434,640.612012435019,752.6120127479434zM638.056012435019,751.3340127479433V753.8900127479434c0,0.707,0.573,1.278,1.278,1.278h4.877c-0.528,1.486,-1.932,2.556,-3.599,2.556H639.334012435019C637.216012435019,757.7240127479434,635.500012435019,756.0080127479434,635.500012435019,753.8900127479434V751.3340127479433C635.500012435019,749.2160127479434,637.216012435019,747.5000127479434,639.334012435019,747.5000127479434h1.278c1.667,0,3.071,1.071,3.599,2.556H639.334012435019C638.629012435019,750.0560127479434,638.056012435019,750.6270127479434,638.056012435019,751.3340127479433z"></path></a></g></g></g></svg>