<svg id="kity_svg_6" xmlns="http://www.w3.org/2000/svg" xmlns:xlink="http://www.w3.org/1999/xlink" version="1.1" width="657" height="402" style="background: rgb(251, 251, 251); visibility: visible;" viewBox="0 0 657 402"><defs id="kity_defs_7"><linearGradient id="kity_linearGradient_17" x1="0" y1="0" x2="0" y2="1"><stop id="kity_stop_18" offset="0" stop-color="rgb(255, 255, 255)"></stop><stop id="kity_stop_19" offset="1" stop-color="rgb(204, 204, 204)"></stop></linearGradient><marker id="kity_marker_2" orient="auto" refX="6" refY="0" viewBox="-7 -7 14 14" markerWidth="7" markerHeight="7" markerUnits="userSpaceOnUse"><path id="kity_path_3" fill="rgb(115, 161, 191)" stroke="none" d="M6,0A6,6,0,1,1,-6,0A6,6,0,1,1,6,0"></path></marker></defs><g id="kity_g_8"><g id="minder1" text-rendering="optimize-speed"><g id="minder_connect_group1"><path id="kity_path_179" fill="none" stroke="rgb(115, 161, 191)" stroke-width="1" d="M61.5000069513917,192.50000526756048A159,156,0,0,1,220.5000069513917,36.50000526756048"></path><path id="kity_path_187" fill="none" stroke="rgb(115, 161, 191)" stroke-width="1" d="M61.5000069513917,192.50000526756048A159,84,0,0,1,220.5000069513917,108.50000526756048"></path><path id="kity_path_195" fill="none" stroke="rgb(115, 161, 191)" stroke-width="1" d="M61.5000069513917,192.50000526756048A159,12,0,0,1,220.5000069513917,180.50000526756048"></path><path id="kity_path_203" fill="none" stroke="rgb(115, 161, 191)" stroke-width="1" d="M61.5000069513917,192.50000526756048A159,60,0,0,0,220.5000069513917,252.50000526756048"></path><path id="kity_path_211" fill="none" stroke="rgb(115, 161, 191)" stroke-width="1" d="M61.5000069513917,192.50000526756048A159,153,0,0,0,220.5000069513917,345.5000052675605"></path><path id="kity_path_264" fill="none" stroke="rgb(115, 161, 191)" stroke-width="1" d="M306.5000069513917,36.50000526756048C326.5000069513917,36.50000526756048,326.5000069513917,36.50000526756048,346.5000069513917,36.50000526756048"></path><path id="kity_path_287" fill="none" stroke="rgb(115, 161, 191)" stroke-width="1" d="M525.5000069513917,319.5000052675605C545.5000069513917,319.5000052675605,545.5000069513917,319.5000052675605,565.5000069513917,319.5000052675605"></path><path id="kity_path_288" fill="none" stroke="rgb(115, 161, 191)" stroke-width="1" d="M440.5000069513917,345.5000052675605C460.5000069513917,345.5000052675605,460.5000069513917,319.5000052675605,480.5000069513917,319.5000052675605"></path><path id="kity_path_289" fill="none" stroke="rgb(115, 161, 191)" stroke-width="1" d="M524.5000069513917,371.5000052675605C544.5000069513917,371.5000052675605,544.5000069513917,371.5000052675605,564.5000069513917,371.5000052675605"></path><path id="kity_path_290" fill="none" stroke="rgb(115, 161, 191)" stroke-width="1" d="M440.5000069513917,345.5000052675605C460.5000069513917,345.5000052675605,460.5000069513917,371.5000052675605,480.5000069513917,371.5000052675605"></path><path id="kity_path_291" fill="none" stroke="rgb(115, 161, 191)" stroke-width="1" d="M354.5000069513917,345.5000052675605C374.5000069513917,345.5000052675605,374.5000069513917,345.5000052675605,394.5000069513917,345.5000052675605"></path><path id="kity_path_304" fill="none" stroke="rgb(115, 161, 191)" stroke-width="1" d="M305.5000069513917,108.50000526756048C325.5000069513917,108.50000526756048,325.5000069513917,108.50000526756048,345.5000069513917,108.50000526756048"></path><path id="kity_path_315" fill="none" stroke="rgb(115, 161, 191)" stroke-width="1" d="M305.5000069513917,180.50000526756048C325.5000069513917,180.50000526756048,325.5000069513917,180.50000526756048,345.5000069513917,180.50000526756048"></path><path id="kity_path_326" fill="none" stroke="rgb(115, 161, 191)" stroke-width="1" d="M334.5000069513917,252.50000526756048C354.5000069513917,252.50000526756048,354.5000069513917,252.50000526756048,374.5000069513917,252.50000526756048"></path></g><g id="minder_node1"><path id="node_outline1" fill="rgb(115, 161, 191)" stroke="rgb(115, 161, 191)" d="M25.500006951391697,172.50000526756048h72a5,5,0,0,1,5,5v30a5,5,0,0,1,-5,5h-72a5,5,0,0,1,-5,-5v-30a5,5,0,0,1,5,-5z" stroke-width="3"></path><g id="node_text1" fill="white"><text id="kity_text_22" text-rendering="inherit" font-size="16" dy=".8em" y="182.1000052317977" x="44.5000069513917">光源</text></g></g><g id="kity_g_14" display="none"><path id="kity_path_15" fill="rgba(0, 92, 153, 0.5)" stroke="none" d="M108.5000069513917,99.50000526756048h84v8h-84z"></path><path id="kity_path_16" fill="none" stroke="rgb(0, 76, 128)" d="M108.5000069513917,99.50000526756048L192.5000069513917,99.50000526756048" stroke-width="1"></path></g><g id="minder_node19"><g id="node_expander18" style="cursor: pointer;"><path id="kity_path_184" fill="white" stroke="gray" d="M221.50000949949026,36.500002942979336A6,6,0,1,1,209.50000949949026,36.500002942979336A6,6,0,1,1,221.50000949949026,36.500002942979336"></path><path id="kity_path_185" fill="none" stroke="gray" d="M211.00000949949026,36.500002942979336L220.00000949949026,36.500002942979336"></path></g><path id="node_outline19" fill="rgb(238, 243, 246)" stroke="rgb(115, 161, 191)" d="M225.5000099018216,23.500002942979336h78a3,3,0,0,1,3,3v20a3,3,0,0,1,-3,3h-78a3,3,0,0,1,-3,-3v-20a3,3,0,0,1,3,-3z" stroke-width="1"></path><g id="node_text19" fill="black"><text id="kity_text_181" text-rendering="inherit" font-size="14" dy=".8em" y="27.400002911686897" x="242.5000099018216">环境光</text></g></g><g id="minder_node20" opacity="1"><g id="node_expander19" style="cursor: pointer;"><path id="kity_path_192" fill="white" stroke="gray" d="M221.50000949949026,108.50000401586294A6,6,0,1,1,209.50000949949026,108.50000401586294A6,6,0,1,1,221.50000949949026,108.50000401586294"></path><path id="kity_path_193" fill="none" stroke="gray" d="M211.00000949949026,108.50000401586294L220.00000949949026,108.50000401586294"></path></g><path id="node_outline20" fill="rgb(238, 243, 246)" stroke="rgb(115, 161, 191)" d="M225.5000099018216,95.50000401586294h77a3,3,0,0,1,3,3v20a3,3,0,0,1,-3,3h-77a3,3,0,0,1,-3,-3v-20a3,3,0,0,1,3,-3z" stroke-width="1"></path><g id="node_text20" fill="black"><text id="kity_text_189" text-rendering="inherit" font-size="14" dy=".8em" y="99.4000039845705" x="242.5000099018216">平行光</text></g></g><g id="minder_node21" opacity="1"><g id="node_expander20" style="cursor: pointer;"><path id="kity_path_200" fill="white" stroke="gray" d="M221.50000949949026,180.50000508874655A6,6,0,1,1,209.50000949949026,180.50000508874655A6,6,0,1,1,221.50000949949026,180.50000508874655"></path><path id="kity_path_201" fill="none" stroke="gray" d="M211.00000949949026,180.50000508874655L220.00000949949026,180.50000508874655"></path></g><path id="node_outline21" fill="rgb(238, 243, 246)" stroke="rgb(115, 161, 191)" d="M225.5000099018216,167.50000508874655h77a3,3,0,0,1,3,3v20a3,3,0,0,1,-3,3h-77a3,3,0,0,1,-3,-3v-20a3,3,0,0,1,3,-3z" stroke-width="1"></path><g id="node_text21" fill="black"><text id="kity_text_197" text-rendering="inherit" font-size="14" dy=".8em" y="171.4000050574541" x="242.5000099018216">点光源</text></g></g><g id="minder_node22" opacity="1"><g id="node_expander21" style="cursor: pointer;"><path id="kity_path_208" fill="white" stroke="gray" d="M221.50000949949026,252.50000616163015A6,6,0,1,1,209.50000949949026,252.50000616163015A6,6,0,1,1,221.50000949949026,252.50000616163015"></path><path id="kity_path_209" fill="none" stroke="gray" d="M211.00000949949026,252.50000616163015L220.00000949949026,252.50000616163015"></path></g><path id="node_outline22" fill="rgb(238, 243, 246)" stroke="rgb(115, 161, 191)" d="M225.5000099018216,239.50000616163015h106a3,3,0,0,1,3,3v20a3,3,0,0,1,-3,3h-106a3,3,0,0,1,-3,-3v-20a3,3,0,0,1,3,-3z" stroke-width="1"></path><g id="node_text22" fill="black"><text id="kity_text_205" text-rendering="inherit" font-size="14" dy=".8em" y="243.40000613033772" x="242.5000099018216">聚光灯光源</text></g></g><g id="minder_node23" opacity="1"><g id="node_expander22" style="cursor: pointer;"><path id="kity_path_216" fill="white" stroke="gray" d="M221.50000949949026,345.50000754743814A6,6,0,1,1,209.50000949949026,345.50000754743814A6,6,0,1,1,221.50000949949026,345.50000754743814"></path><path id="kity_path_217" fill="none" stroke="gray" d="M211.00000949949026,345.50000754743814L220.00000949949026,345.50000754743814"></path></g><path id="node_outline23" fill="rgb(238, 243, 246)" stroke="rgb(115, 161, 191)" d="M225.5000099018216,328.50000754743814h126a3,3,0,0,1,3,3v28a3,3,0,0,1,-3,3h-126a3,3,0,0,1,-3,-3v-28a3,3,0,0,1,3,-3z" stroke-width="1"></path><g id="node_text23" fill="black"><text id="kity_text_213" text-rendering="inherit" font-size="14" dy=".8em" y="336.4000075161457" x="242.5000099018216">基类Light</text></g><a id="kity_a_218" xlink:href="http://www.yanhuangxueyuan.com/threejs/docs/index.html#api/zh/lights/Light" target="_blank" xlink:title="http://www.yanhuangxueyuan.com/threejs/docs/index.html#api/zh/lights/Light" style="cursor: pointer;"><path id="kity_path_220" fill="rgba(255, 255, 255, 0)" stroke="none" d="M314.5000109449029,334.50000747293234h16a4,4,0,0,1,4,4v14a4,4,0,0,1,-4,4h-16a4,4,0,0,1,-4,-4v-14a4,4,0,0,1,4,-4z"></path><path id="kity_path_219" fill="#666" stroke="none" d="M329.1140109449029,350.7240074729323h-1.278c-1.668,0,-3.07,-1.07,-3.599,-2.556h4.877c0.707,0,1.278,-0.571,1.278,-1.278V344.33400747293234c0,-0.707,-0.571,-1.278,-1.278,-1.278h-4.877C324.7660109449029,341.57100747293237,326.1680109449029,340.50000747293234,327.8360109449029,340.50000747293234h1.278c2.116,0,3.834,1.716,3.834,3.834V346.8900074729323C332.9480109449029,349.0080074729323,331.2300109449029,350.7240074729323,329.1140109449029,350.7240074729323zM317.6120109449029,345.61200747293236c0,-0.707,0.573,-1.278,1.278,-1.278h7.668c0.707,0,1.278,0.571,1.278,1.278S327.2650109449029,346.8900074729323,326.5580109449029,346.8900074729323H318.8900109449029C318.1850109449029,346.8900074729323,317.6120109449029,346.31900747293236,317.6120109449029,345.61200747293236zM315.0560109449029,344.33400747293234V346.8900074729323c0,0.707,0.573,1.278,1.278,1.278h4.877c-0.528,1.486,-1.932,2.556,-3.599,2.556H316.3340109449029C314.2160109449029,350.7240074729323,312.5000109449029,349.0080074729323,312.5000109449029,346.8900074729323V344.33400747293234C312.5000109449029,342.21600747293235,314.2160109449029,340.50000747293234,316.3340109449029,340.50000747293234h1.278c1.667,0,3.071,1.071,3.599,2.556H316.3340109449029C315.6290109449029,343.0560074729323,315.0560109449029,343.62700747293235,315.0560109449029,344.33400747293234z"></path></a></g><g id="minder_node29"><g id="node_expander28" style="cursor: pointer;" display="none"><path id="kity_path_269" fill="white" stroke="gray" d="M346.5000113621354,36.500002942979336A6,6,0,1,1,334.5000113621354,36.500002942979336A6,6,0,1,1,346.5000113621354,36.500002942979336"></path><path id="kity_path_270" fill="none" stroke="gray" d="M336.0000113621354,36.500002942979336L345.0000113621354,36.500002942979336"></path></g><path id="node_outline29" fill="none" stroke="none" d="M351.500011600554,20.500002942979336h118a5,5,0,0,1,5,5v22a5,5,0,0,1,-5,5h-118a5,5,0,0,1,-5,-5v-22a5,5,0,0,1,5,-5z" stroke-width="3"></path><g id="node_text29" fill="black"><text id="kity_text_266" text-rendering="inherit" font-size="12" dy=".8em" y="28.700002916157246" x="356.500011600554">AmbientLight</text></g><a id="kity_a_300" xlink:href="http://www.yanhuangxueyuan.com/threejs/docs/index.html#api/zh/lights/AmbientLight" target="_blank" xlink:title="http://www.yanhuangxueyuan.com/threejs/docs/index.html#api/zh/lights/AmbientLight" style="cursor: pointer;"><path id="kity_path_302" fill="rgba(255, 255, 255, 0)" stroke="none" d="M444.50001288205385,25.50000286847353h16a4,4,0,0,1,4,4v14a4,4,0,0,1,-4,4h-16a4,4,0,0,1,-4,-4v-14a4,4,0,0,1,4,-4z"></path><path id="kity_path_301" fill="#666" stroke="none" d="M459.1140128820538,41.724002868473534h-1.278c-1.668,0,-3.07,-1.07,-3.599,-2.556h4.877c0.707,0,1.278,-0.571,1.278,-1.278V35.33400286847353c0,-0.707,-0.571,-1.278,-1.278,-1.278h-4.877C454.7660128820539,32.57100286847353,456.16801288205386,31.50000286847353,457.83601288205386,31.50000286847353h1.278c2.116,0,3.834,1.716,3.834,3.834V37.89000286847353C462.94801288205383,40.008002868473525,461.23001288205387,41.724002868473534,459.1140128820538,41.724002868473534zM447.6120128820539,36.61200286847353c0,-0.707,0.573,-1.278,1.278,-1.278h7.668c0.707,0,1.278,0.571,1.278,1.278S457.26501288205384,37.89000286847353,456.55801288205384,37.89000286847353H448.89001288205384C448.18501288205385,37.89000286847353,447.6120128820539,37.31900286847353,447.6120128820539,36.61200286847353zM445.05601288205384,35.33400286847353V37.89000286847353c0,0.707,0.573,1.278,1.278,1.278h4.877c-0.528,1.486,-1.932,2.556,-3.599,2.556H446.33401288205386C444.21601288205386,41.724002868473534,442.50001288205385,40.008002868473525,442.50001288205385,37.89000286847353V35.33400286847353C442.50001288205385,33.21600286847353,444.21601288205386,31.50000286847353,446.33401288205386,31.50000286847353h1.278c1.667,0,3.071,1.071,3.599,2.556H446.33401288205386C445.62901288205387,34.05600286847353,445.05601288205384,34.62700286847353,445.05601288205384,35.33400286847353z"></path></a></g><g id="minder_node27"><g id="node_expander26" style="cursor: pointer;" display="none"><path id="kity_path_251" fill="white" stroke="gray" d="M565.5000146254897,319.50000716000795A6,6,0,1,1,553.5000146254897,319.50000716000795A6,6,0,1,1,565.5000146254897,319.50000716000795"></path><path id="kity_path_252" fill="none" stroke="gray"></path></g><path id="node_outline27" fill="none" stroke="none" d="M570.5000148639083,308.50000716000795h42a5,5,0,0,1,5,5v12a5,5,0,0,1,-5,5h-42a5,5,0,0,1,-5,-5v-12a5,5,0,0,1,5,-5z" stroke-width="3"></path><g id="node_text27" fill="black"><text id="kity_text_248" text-rendering="inherit" font-size="12" dy=".8em" y="311.70000713318586" x="575.5000148639083">.color</text></g></g><g id="minder_node24" opacity="1"><g id="node_expander23" style="cursor: pointer;"><path id="kity_path_227" fill="white" stroke="gray" d="M480.500013358891,319.50000716000795A6,6,0,1,1,468.500013358891,319.50000716000795A6,6,0,1,1,480.500013358891,319.50000716000795"></path><path id="kity_path_228" fill="none" stroke="gray" d="M470.000013358891,319.50000716000795L479.000013358891,319.50000716000795"></path></g><path id="node_outline24" fill="none" stroke="none" d="M485.5000135973096,308.50000716000795h35a5,5,0,0,1,5,5v12a5,5,0,0,1,-5,5h-35a5,5,0,0,1,-5,-5v-12a5,5,0,0,1,5,-5z" stroke-width="3"></path><g id="node_text24" fill="black"><text id="kity_text_224" text-rendering="inherit" font-size="12" dy=".8em" y="311.70000713318586" x="490.5000135973096">颜色</text></g></g><g id="minder_node28"><g id="node_expander27" style="cursor: pointer;" display="none"><path id="kity_path_259" fill="white" stroke="gray" d="M564.5000146105886,371.50000793486834A6,6,0,1,1,552.5000146105886,371.50000793486834A6,6,0,1,1,564.5000146105886,371.50000793486834"></path><path id="kity_path_260" fill="none" stroke="gray"></path></g><path id="node_outline28" fill="none" stroke="none" d="M569.5000148490071,360.50000793486834h63a5,5,0,0,1,5,5v12a5,5,0,0,1,-5,5h-63a5,5,0,0,1,-5,-5v-12a5,5,0,0,1,5,-5z" stroke-width="3"></path><g id="node_text28" fill="black"><text id="kity_text_256" text-rendering="inherit" font-size="12" dy=".8em" y="363.70000790804625" x="574.5000148490071">.intensity</text></g></g><g id="minder_node25" opacity="1"><g id="node_expander24" style="cursor: pointer;"><path id="kity_path_235" fill="white" stroke="gray" d="M480.500013358891,371.50000793486834A6,6,0,1,1,468.500013358891,371.50000793486834A6,6,0,1,1,480.500013358891,371.50000793486834"></path><path id="kity_path_236" fill="none" stroke="gray" d="M470.000013358891,371.50000793486834L479.000013358891,371.50000793486834"></path></g><path id="node_outline25" fill="none" stroke="none" d="M485.5000135973096,360.50000793486834h34a5,5,0,0,1,5,5v12a5,5,0,0,1,-5,5h-34a5,5,0,0,1,-5,-5v-12a5,5,0,0,1,5,-5z" stroke-width="3"></path><g id="node_text25" fill="black"><text id="kity_text_232" text-rendering="inherit" font-size="12" dy=".8em" y="363.70000790804625" x="490.5000135973096">强度</text></g></g><g id="minder_node26"><g id="node_expander25" style="cursor: pointer;"><path id="kity_path_243" fill="white" stroke="gray" d="M394.50001207739115,345.50000754743814A6,6,0,1,1,382.50001207739115,345.50000754743814A6,6,0,1,1,394.50001207739115,345.50000754743814"></path><path id="kity_path_244" fill="none" stroke="gray" d="M384.00001207739115,345.50000754743814L393.00001207739115,345.50000754743814"></path></g><path id="node_outline26" fill="none" stroke="none" d="M399.5000123158097,334.50000754743814h36a5,5,0,0,1,5,5v12a5,5,0,0,1,-5,5h-36a5,5,0,0,1,-5,-5v-12a5,5,0,0,1,5,-5z" stroke-width="3"></path><g id="node_text26" fill="black"><text id="kity_text_240" text-rendering="inherit" font-size="12" dy=".8em" y="337.70000752061605" x="404.5000123158097">属性</text></g></g><g id="minder_node33"><g id="node_expander32" style="cursor: pointer;" display="none"><path id="kity_path_309" fill="white" stroke="gray" d="M345.50001134723425,108.50000401586294A6,6,0,1,1,333.50001134723425,108.50000401586294A6,6,0,1,1,345.50001134723425,108.50000401586294"></path><path id="kity_path_310" fill="none" stroke="gray"></path></g><path id="node_outline33" fill="none" stroke="none" d="M350.5000115856528,92.50000401586294h130a5,5,0,0,1,5,5v22a5,5,0,0,1,-5,5h-130a5,5,0,0,1,-5,-5v-22a5,5,0,0,1,5,-5z" stroke-width="3"></path><g id="node_text33" fill="black"><text id="kity_text_306" text-rendering="inherit" font-size="12" dy=".8em" y="100.70000398904085" x="355.5000115856528">DirectionalLight</text></g><a id="kity_a_311" xlink:href="http://www.yanhuangxueyuan.com/threejs/docs/index.html#api/zh/lights/DirectionalLight" target="_blank" xlink:title="http://www.yanhuangxueyuan.com/threejs/docs/index.html#api/zh/lights/DirectionalLight" style="cursor: pointer;"><path id="kity_path_313" fill="rgba(255, 255, 255, 0)" stroke="none" d="M455.5000130459666,97.50000394135714h16a4,4,0,0,1,4,4v14a4,4,0,0,1,-4,4h-16a4,4,0,0,1,-4,-4v-14a4,4,0,0,1,4,-4z"></path><path id="kity_path_312" fill="#666" stroke="none" d="M470.1140130459666,113.72400394135714h-1.278c-1.668,0,-3.07,-1.07,-3.599,-2.556h4.877c0.707,0,1.278,-0.571,1.278,-1.278V107.33400394135714c0,-0.707,-0.571,-1.278,-1.278,-1.278h-4.877C465.76601304596664,104.57100394135713,467.16801304596663,103.50000394135714,468.83601304596664,103.50000394135714h1.278c2.116,0,3.834,1.716,3.834,3.834V109.89000394135714C473.9480130459666,112.00800394135713,472.23001304596664,113.72400394135714,470.1140130459666,113.72400394135714zM458.61201304596665,108.61200394135713c0,-0.707,0.573,-1.278,1.278,-1.278h7.668c0.707,0,1.278,0.571,1.278,1.278S468.2650130459666,109.89000394135714,467.5580130459666,109.89000394135714H459.8900130459666C459.1850130459666,109.89000394135714,458.61201304596665,109.31900394135714,458.61201304596665,108.61200394135713zM456.0560130459666,107.33400394135714V109.89000394135714c0,0.707,0.573,1.278,1.278,1.278h4.877c-0.528,1.486,-1.932,2.556,-3.599,2.556H457.3340130459666C455.21601304596663,113.72400394135714,453.5000130459666,112.00800394135713,453.5000130459666,109.89000394135714V107.33400394135714C453.5000130459666,105.21600394135713,455.21601304596663,103.50000394135714,457.3340130459666,103.50000394135714h1.278c1.667,0,3.071,1.071,3.599,2.556H457.3340130459666C456.62901304596664,106.05600394135713,456.0560130459666,106.62700394135713,456.0560130459666,107.33400394135714z"></path></a></g><g id="minder_node34"><g id="node_expander33" style="cursor: pointer;" display="none"><path id="kity_path_320" fill="white" stroke="gray" d="M345.50001134723425,180.50000508874655A6,6,0,1,1,333.50001134723425,180.50000508874655A6,6,0,1,1,345.50001134723425,180.50000508874655"></path><path id="kity_path_321" fill="none" stroke="gray"></path></g><path id="node_outline34" fill="none" stroke="none" d="M350.5000115856528,164.50000508874655h98a5,5,0,0,1,5,5v22a5,5,0,0,1,-5,5h-98a5,5,0,0,1,-5,-5v-22a5,5,0,0,1,5,-5z" stroke-width="3"></path><g id="node_text34" fill="black"><text id="kity_text_317" text-rendering="inherit" font-size="12" dy=".8em" y="172.70000506192446" x="355.5000115856528">PointLight</text></g><a id="kity_a_322" xlink:href="http://www.yanhuangxueyuan.com/threejs/docs/index.html#api/zh/lights/PointLight" target="_blank" xlink:title="http://www.yanhuangxueyuan.com/threejs/docs/index.html#api/zh/lights/PointLight" style="cursor: pointer;"><path id="kity_path_324" fill="rgba(255, 255, 255, 0)" stroke="none" d="M423.50001256912947,169.50000501424074h16a4,4,0,0,1,4,4v14a4,4,0,0,1,-4,4h-16a4,4,0,0,1,-4,-4v-14a4,4,0,0,1,4,-4z"></path><path id="kity_path_323" fill="#666" stroke="none" d="M438.11401256912944,185.72400501424073h-1.278c-1.668,0,-3.07,-1.07,-3.599,-2.556h4.877c0.707,0,1.278,-0.571,1.278,-1.278V179.33400501424074c0,-0.707,-0.571,-1.278,-1.278,-1.278h-4.877C433.7660125691295,176.57100501424074,435.1680125691295,175.50000501424074,436.8360125691295,175.50000501424074h1.278c2.116,0,3.834,1.716,3.834,3.834V181.89000501424073C441.94801256912945,184.00800501424075,440.2300125691295,185.72400501424073,438.11401256912944,185.72400501424073zM426.6120125691295,180.61200501424074c0,-0.707,0.573,-1.278,1.278,-1.278h7.668c0.707,0,1.278,0.571,1.278,1.278S436.26501256912945,181.89000501424073,435.55801256912946,181.89000501424073H427.89001256912945C427.18501256912947,181.89000501424073,426.6120125691295,181.31900501424073,426.6120125691295,180.61200501424074zM424.05601256912945,179.33400501424074V181.89000501424073c0,0.707,0.573,1.278,1.278,1.278h4.877c-0.528,1.486,-1.932,2.556,-3.599,2.556H425.33401256912947C423.2160125691295,185.72400501424073,421.50001256912947,184.00800501424075,421.50001256912947,181.89000501424073V179.33400501424074C421.50001256912947,177.21600501424075,423.2160125691295,175.50000501424074,425.33401256912947,175.50000501424074h1.278c1.667,0,3.071,1.071,3.599,2.556H425.33401256912947C424.6290125691295,178.05600501424075,424.05601256912945,178.62700501424075,424.05601256912945,179.33400501424074z"></path></a></g><g id="minder_node35"><g id="node_expander34" style="cursor: pointer;" display="none"><path id="kity_path_331" fill="white" stroke="gray" d="M374.5000117793679,252.50000616163015A6,6,0,1,1,362.5000117793679,252.50000616163015A6,6,0,1,1,374.5000117793679,252.50000616163015"></path><path id="kity_path_332" fill="none" stroke="gray"></path></g><path id="node_outline35" fill="none" stroke="none" d="M379.5000120177865,236.50000616163015h95a5,5,0,0,1,5,5v22a5,5,0,0,1,-5,5h-95a5,5,0,0,1,-5,-5v-22a5,5,0,0,1,5,-5z" stroke-width="3"></path><g id="node_text35" fill="black"><text id="kity_text_328" text-rendering="inherit" font-size="12" dy=".8em" y="244.70000613480806" x="384.5000120177865">SpotLight</text></g><a id="kity_a_333" xlink:href="http://www.yanhuangxueyuan.com/threejs/docs/index.html#api/zh/lights/SpotLight" target="_blank" xlink:title="http://www.yanhuangxueyuan.com/threejs/docs/index.html#api/zh/lights/SpotLight" style="cursor: pointer;"><path id="kity_path_335" fill="rgba(255, 255, 255, 0)" stroke="none" d="M449.50001295655966,241.50000608712435h16a4,4,0,0,1,4,4v14a4,4,0,0,1,-4,4h-16a4,4,0,0,1,-4,-4v-14a4,4,0,0,1,4,-4z"></path><path id="kity_path_334" fill="#666" stroke="none" d="M464.11401295655963,257.72400608712434h-1.278c-1.668,0,-3.07,-1.07,-3.599,-2.556h4.877c0.707,0,1.278,-0.571,1.278,-1.278V251.33400608712435c0,-0.707,-0.571,-1.278,-1.278,-1.278h-4.877C459.7660129565597,248.57100608712435,461.16801295655966,247.50000608712435,462.83601295655967,247.50000608712435h1.278c2.116,0,3.834,1.716,3.834,3.834V253.89000608712433C467.94801295655964,256.00800608712433,466.2300129565597,257.72400608712434,464.11401295655963,257.72400608712434zM452.6120129565597,252.61200608712434c0,-0.707,0.573,-1.278,1.278,-1.278h7.668c0.707,0,1.278,0.571,1.278,1.278S462.26501295655964,253.89000608712433,461.55801295655965,253.89000608712433H453.89001295655964C453.18501295655966,253.89000608712433,452.6120129565597,253.31900608712434,452.6120129565597,252.61200608712434zM450.05601295655964,251.33400608712435V253.89000608712433c0,0.707,0.573,1.278,1.278,1.278h4.877c-0.528,1.486,-1.932,2.556,-3.599,2.556H451.33401295655966C449.21601295655967,257.72400608712434,447.50001295655966,256.00800608712433,447.50001295655966,253.89000608712433V251.33400608712435C447.50001295655966,249.21600608712436,449.21601295655967,247.50000608712435,451.33401295655966,247.50000608712435h1.278c1.667,0,3.071,1.071,3.599,2.556H451.33401295655966C450.6290129565597,250.05600608712436,450.05601295655964,250.62700608712436,450.05601295655964,251.33400608712435z"></path></a></g><g id="kity_g_12" display="none"><path id="kity_path_13" fill="none" stroke="rgb(66, 94, 112)" d="M213.5000069513917,84.50000526756048h108a5,5,0,0,1,5,5v18a5,5,0,0,1,-5,5h-108a5,5,0,0,1,-5,-5v-18a5,5,0,0,1,5,-5z" stroke-width="5"></path></g></g></g></svg>